G75*
%MOIN*%
%OFA0B0*%
%FSLAX25Y25*%
%IPPOS*%
%LPD*%
%AMOC8*
5,1,8,0,0,1.08239X$1,22.5*
%
%ADD10C,0.00000*%
%ADD11C,0.00600*%
%ADD12C,0.00800*%
%ADD13R,0.16600X0.00100*%
%ADD14R,0.29200X0.00100*%
%ADD15R,0.29700X0.00100*%
%ADD16R,0.30200X0.00100*%
%ADD17R,0.30500X0.00100*%
%ADD18R,0.30700X0.00100*%
%ADD19R,0.30900X0.00100*%
%ADD20R,0.31100X0.00100*%
%ADD21R,0.31200X0.00100*%
%ADD22R,0.31300X0.00100*%
%ADD23R,0.31400X0.00100*%
%ADD24R,0.31500X0.00100*%
%ADD25R,0.01300X0.00100*%
%ADD26R,0.01600X0.00100*%
%ADD27R,0.01500X0.00100*%
%ADD28R,0.00500X0.00100*%
%ADD29R,0.01000X0.00100*%
%ADD30R,0.02800X0.00100*%
%ADD31R,0.00700X0.00100*%
%ADD32R,0.01700X0.00100*%
%ADD33R,0.02300X0.00100*%
%ADD34R,0.00400X0.00100*%
%ADD35R,0.00900X0.00100*%
%ADD36R,0.03200X0.00100*%
%ADD37R,0.01900X0.00100*%
%ADD38R,0.01200X0.00100*%
%ADD39R,0.00300X0.00100*%
%ADD40R,0.02600X0.00100*%
%ADD41R,0.00200X0.00100*%
%ADD42R,0.02900X0.00100*%
%ADD43R,0.01100X0.00100*%
%ADD44R,0.02400X0.00100*%
%ADD45R,0.00100X0.00100*%
%ADD46R,0.02700X0.00100*%
%ADD47R,0.01400X0.00100*%
%ADD48R,0.02200X0.00100*%
%ADD49R,0.02500X0.00100*%
%ADD50R,0.00800X0.00100*%
%ADD51R,0.02100X0.00100*%
%ADD52R,0.02000X0.00100*%
%ADD53R,0.00600X0.00100*%
%ADD54R,0.03400X0.00100*%
%ADD55R,0.03500X0.00100*%
%ADD56R,0.03600X0.00100*%
%ADD57R,0.03000X0.00100*%
%ADD58R,0.01800X0.00100*%
%ADD59R,0.03700X0.00100*%
%ADD60R,0.07300X0.00100*%
%ADD61R,0.12000X0.00100*%
%ADD62R,0.16500X0.00100*%
%ADD63R,0.16400X0.00100*%
%ADD64R,0.16700X0.00100*%
%ADD65R,0.19000X0.00100*%
%ADD66R,0.19600X0.00100*%
%ADD67R,0.19900X0.00100*%
%ADD68R,0.03800X0.00100*%
%ADD69R,0.20100X0.00100*%
%ADD70R,0.03900X0.00100*%
%ADD71R,0.20300X0.00100*%
%ADD72R,0.04100X0.00100*%
%ADD73R,0.33200X0.00100*%
%ADD74R,0.04200X0.00100*%
%ADD75R,0.33300X0.00100*%
%ADD76R,0.04300X0.00100*%
%ADD77R,0.33400X0.00100*%
%ADD78R,0.04400X0.00100*%
%ADD79R,0.33500X0.00100*%
%ADD80R,0.04500X0.00100*%
%ADD81R,0.33600X0.00100*%
%ADD82R,0.33700X0.00100*%
%ADD83R,0.04600X0.00100*%
%ADD84R,0.33800X0.00100*%
%ADD85R,0.08100X0.00100*%
%ADD86R,0.04700X0.00100*%
%ADD87R,0.03100X0.00100*%
%ADD88R,0.04800X0.00100*%
%ADD89R,0.03300X0.00100*%
%ADD90R,0.04000X0.00100*%
%ADD91R,0.39000X0.00100*%
%ADD92R,0.38900X0.00100*%
%ADD93R,0.38800X0.00100*%
%ADD94R,0.38600X0.00100*%
%ADD95R,0.38400X0.00100*%
%ADD96R,0.38200X0.00100*%
%ADD97R,0.38000X0.00100*%
%ADD98R,0.37600X0.00100*%
%ADD99R,0.37400X0.00100*%
%ADD100R,0.37000X0.00100*%
%ADD101R,0.36600X0.00100*%
%ADD102R,0.35900X0.00100*%
%ADD103R,0.35100X0.00100*%
%ADD104R,0.19300X0.00100*%
%ADD105R,0.19100X0.00100*%
%ADD106R,0.18900X0.00100*%
%ADD107R,0.18800X0.00100*%
%ADD108R,0.19200X0.00100*%
%ADD109R,0.19500X0.00100*%
%ADD110R,0.19700X0.00100*%
%ADD111R,0.20400X0.00100*%
%ADD112R,0.20500X0.00100*%
%ADD113R,0.20700X0.00100*%
%ADD114R,0.20900X0.00100*%
%ADD115R,0.21100X0.00100*%
%ADD116R,0.17500X0.00100*%
%ADD117R,0.17200X0.00100*%
%ADD118R,0.17000X0.00100*%
%ADD119R,0.16100X0.00100*%
%ADD120R,0.15800X0.00100*%
%ADD121R,0.15500X0.00100*%
%ADD122R,0.15200X0.00100*%
%ADD123R,0.14900X0.00100*%
%ADD124R,0.14600X0.00100*%
%ADD125R,0.14300X0.00100*%
%ADD126R,0.14000X0.00100*%
%ADD127R,0.08500X0.00100*%
%ADD128R,0.08400X0.00100*%
%ADD129R,0.08300X0.00100*%
%ADD130R,0.08200X0.00100*%
%ADD131R,0.08000X0.00100*%
%ADD132R,0.07900X0.00100*%
%ADD133R,0.07800X0.00100*%
%ADD134R,0.07700X0.00100*%
%ADD135R,0.07600X0.00100*%
%ADD136R,0.07500X0.00100*%
%ADD137R,0.07400X0.00100*%
%ADD138R,0.07200X0.00100*%
%ADD139R,0.07100X0.00100*%
%ADD140R,0.07000X0.00100*%
%ADD141R,0.06900X0.00100*%
%ADD142R,0.06800X0.00100*%
%ADD143R,0.06700X0.00100*%
%ADD144R,0.06600X0.00100*%
%ADD145R,0.06500X0.00100*%
%ADD146R,0.06400X0.00100*%
%ADD147R,0.06300X0.00100*%
%ADD148R,0.06200X0.00100*%
%ADD149R,0.06100X0.00100*%
%ADD150R,0.06000X0.00100*%
%ADD151R,0.05900X0.00100*%
%ADD152R,0.05800X0.00100*%
%ADD153R,0.05700X0.00100*%
%ADD154R,0.05600X0.00100*%
%ADD155R,0.05500X0.00100*%
%ADD156R,0.05400X0.00100*%
%ADD157R,0.05300X0.00100*%
%ADD158R,0.05200X0.00100*%
%ADD159R,0.05100X0.00100*%
%ADD160R,0.05000X0.00100*%
%ADD161R,0.04900X0.00100*%
%ADD162C,0.00400*%
%ADD163C,0.00200*%
%ADD164C,0.00500*%
%ADD165R,0.03000X0.22000*%
%ADD166R,0.03500X0.05000*%
%ADD167R,0.02500X0.10000*%
D10*
X0027595Y0013611D02*
X0027595Y0239989D01*
X0027598Y0240274D01*
X0027609Y0240560D01*
X0027626Y0240845D01*
X0027650Y0241129D01*
X0027681Y0241413D01*
X0027719Y0241696D01*
X0027764Y0241977D01*
X0027815Y0242258D01*
X0027873Y0242538D01*
X0027938Y0242816D01*
X0028010Y0243092D01*
X0028088Y0243366D01*
X0028173Y0243639D01*
X0028265Y0243909D01*
X0028363Y0244177D01*
X0028467Y0244443D01*
X0028578Y0244706D01*
X0028695Y0244966D01*
X0028818Y0245224D01*
X0028948Y0245478D01*
X0029084Y0245729D01*
X0029225Y0245977D01*
X0029373Y0246221D01*
X0029526Y0246462D01*
X0029686Y0246698D01*
X0029851Y0246931D01*
X0030021Y0247160D01*
X0030197Y0247385D01*
X0030379Y0247605D01*
X0030565Y0247821D01*
X0030757Y0248032D01*
X0030954Y0248239D01*
X0031156Y0248441D01*
X0031363Y0248638D01*
X0031574Y0248830D01*
X0031790Y0249016D01*
X0032010Y0249198D01*
X0032235Y0249374D01*
X0032464Y0249544D01*
X0032697Y0249709D01*
X0032933Y0249869D01*
X0033174Y0250022D01*
X0033418Y0250170D01*
X0033666Y0250311D01*
X0033917Y0250447D01*
X0034171Y0250577D01*
X0034429Y0250700D01*
X0034689Y0250817D01*
X0034952Y0250928D01*
X0035218Y0251032D01*
X0035486Y0251130D01*
X0035756Y0251222D01*
X0036029Y0251307D01*
X0036303Y0251385D01*
X0036579Y0251457D01*
X0036857Y0251522D01*
X0037137Y0251580D01*
X0037418Y0251631D01*
X0037699Y0251676D01*
X0037982Y0251714D01*
X0038266Y0251745D01*
X0038550Y0251769D01*
X0038835Y0251786D01*
X0039121Y0251797D01*
X0039406Y0251800D01*
X0345784Y0251800D01*
X0346069Y0251797D01*
X0346355Y0251786D01*
X0346640Y0251769D01*
X0346924Y0251745D01*
X0347208Y0251714D01*
X0347491Y0251676D01*
X0347772Y0251631D01*
X0348053Y0251580D01*
X0348333Y0251522D01*
X0348611Y0251457D01*
X0348887Y0251385D01*
X0349161Y0251307D01*
X0349434Y0251222D01*
X0349704Y0251130D01*
X0349972Y0251032D01*
X0350238Y0250928D01*
X0350501Y0250817D01*
X0350761Y0250700D01*
X0351019Y0250577D01*
X0351273Y0250447D01*
X0351524Y0250311D01*
X0351772Y0250170D01*
X0352016Y0250022D01*
X0352257Y0249869D01*
X0352493Y0249709D01*
X0352726Y0249544D01*
X0352955Y0249374D01*
X0353180Y0249198D01*
X0353400Y0249016D01*
X0353616Y0248830D01*
X0353827Y0248638D01*
X0354034Y0248441D01*
X0354236Y0248239D01*
X0354433Y0248032D01*
X0354625Y0247821D01*
X0354811Y0247605D01*
X0354993Y0247385D01*
X0355169Y0247160D01*
X0355339Y0246931D01*
X0355504Y0246698D01*
X0355664Y0246462D01*
X0355817Y0246221D01*
X0355965Y0245977D01*
X0356106Y0245729D01*
X0356242Y0245478D01*
X0356372Y0245224D01*
X0356495Y0244966D01*
X0356612Y0244706D01*
X0356723Y0244443D01*
X0356827Y0244177D01*
X0356925Y0243909D01*
X0357017Y0243639D01*
X0357102Y0243366D01*
X0357180Y0243092D01*
X0357252Y0242816D01*
X0357317Y0242538D01*
X0357375Y0242258D01*
X0357426Y0241977D01*
X0357471Y0241696D01*
X0357509Y0241413D01*
X0357540Y0241129D01*
X0357564Y0240845D01*
X0357581Y0240560D01*
X0357592Y0240274D01*
X0357595Y0239989D01*
X0357595Y0013611D01*
X0357592Y0013326D01*
X0357581Y0013040D01*
X0357564Y0012755D01*
X0357540Y0012471D01*
X0357509Y0012187D01*
X0357471Y0011904D01*
X0357426Y0011623D01*
X0357375Y0011342D01*
X0357317Y0011062D01*
X0357252Y0010784D01*
X0357180Y0010508D01*
X0357102Y0010234D01*
X0357017Y0009961D01*
X0356925Y0009691D01*
X0356827Y0009423D01*
X0356723Y0009157D01*
X0356612Y0008894D01*
X0356495Y0008634D01*
X0356372Y0008376D01*
X0356242Y0008122D01*
X0356106Y0007871D01*
X0355965Y0007623D01*
X0355817Y0007379D01*
X0355664Y0007138D01*
X0355504Y0006902D01*
X0355339Y0006669D01*
X0355169Y0006440D01*
X0354993Y0006215D01*
X0354811Y0005995D01*
X0354625Y0005779D01*
X0354433Y0005568D01*
X0354236Y0005361D01*
X0354034Y0005159D01*
X0353827Y0004962D01*
X0353616Y0004770D01*
X0353400Y0004584D01*
X0353180Y0004402D01*
X0352955Y0004226D01*
X0352726Y0004056D01*
X0352493Y0003891D01*
X0352257Y0003731D01*
X0352016Y0003578D01*
X0351772Y0003430D01*
X0351524Y0003289D01*
X0351273Y0003153D01*
X0351019Y0003023D01*
X0350761Y0002900D01*
X0350501Y0002783D01*
X0350238Y0002672D01*
X0349972Y0002568D01*
X0349704Y0002470D01*
X0349434Y0002378D01*
X0349161Y0002293D01*
X0348887Y0002215D01*
X0348611Y0002143D01*
X0348333Y0002078D01*
X0348053Y0002020D01*
X0347772Y0001969D01*
X0347491Y0001924D01*
X0347208Y0001886D01*
X0346924Y0001855D01*
X0346640Y0001831D01*
X0346355Y0001814D01*
X0346069Y0001803D01*
X0345784Y0001800D01*
X0039406Y0001800D01*
X0039121Y0001803D01*
X0038835Y0001814D01*
X0038550Y0001831D01*
X0038266Y0001855D01*
X0037982Y0001886D01*
X0037699Y0001924D01*
X0037418Y0001969D01*
X0037137Y0002020D01*
X0036857Y0002078D01*
X0036579Y0002143D01*
X0036303Y0002215D01*
X0036029Y0002293D01*
X0035756Y0002378D01*
X0035486Y0002470D01*
X0035218Y0002568D01*
X0034952Y0002672D01*
X0034689Y0002783D01*
X0034429Y0002900D01*
X0034171Y0003023D01*
X0033917Y0003153D01*
X0033666Y0003289D01*
X0033418Y0003430D01*
X0033174Y0003578D01*
X0032933Y0003731D01*
X0032697Y0003891D01*
X0032464Y0004056D01*
X0032235Y0004226D01*
X0032010Y0004402D01*
X0031790Y0004584D01*
X0031574Y0004770D01*
X0031363Y0004962D01*
X0031156Y0005159D01*
X0030954Y0005361D01*
X0030757Y0005568D01*
X0030565Y0005779D01*
X0030379Y0005995D01*
X0030197Y0006215D01*
X0030021Y0006440D01*
X0029851Y0006669D01*
X0029686Y0006902D01*
X0029526Y0007138D01*
X0029373Y0007379D01*
X0029225Y0007623D01*
X0029084Y0007871D01*
X0028948Y0008122D01*
X0028818Y0008376D01*
X0028695Y0008634D01*
X0028578Y0008894D01*
X0028467Y0009157D01*
X0028363Y0009423D01*
X0028265Y0009691D01*
X0028173Y0009961D01*
X0028088Y0010234D01*
X0028010Y0010508D01*
X0027938Y0010784D01*
X0027873Y0011062D01*
X0027815Y0011342D01*
X0027764Y0011623D01*
X0027719Y0011904D01*
X0027681Y0012187D01*
X0027650Y0012471D01*
X0027626Y0012755D01*
X0027609Y0013040D01*
X0027598Y0013326D01*
X0027595Y0013611D01*
X0041099Y0021800D02*
X0041101Y0021961D01*
X0041107Y0022121D01*
X0041117Y0022282D01*
X0041131Y0022442D01*
X0041149Y0022601D01*
X0041170Y0022761D01*
X0041196Y0022919D01*
X0041226Y0023077D01*
X0041259Y0023234D01*
X0041297Y0023391D01*
X0041338Y0023546D01*
X0041383Y0023700D01*
X0041432Y0023853D01*
X0041485Y0024005D01*
X0041541Y0024155D01*
X0041601Y0024304D01*
X0041665Y0024452D01*
X0041732Y0024598D01*
X0041803Y0024742D01*
X0041878Y0024884D01*
X0041956Y0025025D01*
X0042037Y0025163D01*
X0042122Y0025300D01*
X0042211Y0025434D01*
X0042302Y0025566D01*
X0042397Y0025696D01*
X0042495Y0025823D01*
X0042596Y0025948D01*
X0042700Y0026071D01*
X0042807Y0026190D01*
X0042917Y0026307D01*
X0043030Y0026422D01*
X0043146Y0026533D01*
X0043264Y0026642D01*
X0043385Y0026747D01*
X0043509Y0026850D01*
X0043635Y0026950D01*
X0043764Y0027046D01*
X0043895Y0027139D01*
X0044028Y0027229D01*
X0044163Y0027316D01*
X0044301Y0027399D01*
X0044440Y0027478D01*
X0044582Y0027555D01*
X0044725Y0027628D01*
X0044870Y0027697D01*
X0045017Y0027762D01*
X0045165Y0027824D01*
X0045315Y0027883D01*
X0045466Y0027937D01*
X0045618Y0027988D01*
X0045772Y0028035D01*
X0045927Y0028078D01*
X0046082Y0028117D01*
X0046239Y0028153D01*
X0046397Y0028185D01*
X0046555Y0028212D01*
X0046714Y0028236D01*
X0046873Y0028256D01*
X0047033Y0028272D01*
X0047194Y0028284D01*
X0047354Y0028292D01*
X0047515Y0028296D01*
X0047675Y0028296D01*
X0047836Y0028292D01*
X0047996Y0028284D01*
X0048157Y0028272D01*
X0048317Y0028256D01*
X0048476Y0028236D01*
X0048635Y0028212D01*
X0048793Y0028185D01*
X0048951Y0028153D01*
X0049108Y0028117D01*
X0049263Y0028078D01*
X0049418Y0028035D01*
X0049572Y0027988D01*
X0049724Y0027937D01*
X0049875Y0027883D01*
X0050025Y0027824D01*
X0050173Y0027762D01*
X0050320Y0027697D01*
X0050465Y0027628D01*
X0050608Y0027555D01*
X0050750Y0027478D01*
X0050889Y0027399D01*
X0051027Y0027316D01*
X0051162Y0027229D01*
X0051295Y0027139D01*
X0051426Y0027046D01*
X0051555Y0026950D01*
X0051681Y0026850D01*
X0051805Y0026747D01*
X0051926Y0026642D01*
X0052044Y0026533D01*
X0052160Y0026422D01*
X0052273Y0026307D01*
X0052383Y0026190D01*
X0052490Y0026071D01*
X0052594Y0025948D01*
X0052695Y0025823D01*
X0052793Y0025696D01*
X0052888Y0025566D01*
X0052979Y0025434D01*
X0053068Y0025300D01*
X0053153Y0025163D01*
X0053234Y0025025D01*
X0053312Y0024884D01*
X0053387Y0024742D01*
X0053458Y0024598D01*
X0053525Y0024452D01*
X0053589Y0024304D01*
X0053649Y0024155D01*
X0053705Y0024005D01*
X0053758Y0023853D01*
X0053807Y0023700D01*
X0053852Y0023546D01*
X0053893Y0023391D01*
X0053931Y0023234D01*
X0053964Y0023077D01*
X0053994Y0022919D01*
X0054020Y0022761D01*
X0054041Y0022601D01*
X0054059Y0022442D01*
X0054073Y0022282D01*
X0054083Y0022121D01*
X0054089Y0021961D01*
X0054091Y0021800D01*
X0054089Y0021639D01*
X0054083Y0021479D01*
X0054073Y0021318D01*
X0054059Y0021158D01*
X0054041Y0020999D01*
X0054020Y0020839D01*
X0053994Y0020681D01*
X0053964Y0020523D01*
X0053931Y0020366D01*
X0053893Y0020209D01*
X0053852Y0020054D01*
X0053807Y0019900D01*
X0053758Y0019747D01*
X0053705Y0019595D01*
X0053649Y0019445D01*
X0053589Y0019296D01*
X0053525Y0019148D01*
X0053458Y0019002D01*
X0053387Y0018858D01*
X0053312Y0018716D01*
X0053234Y0018575D01*
X0053153Y0018437D01*
X0053068Y0018300D01*
X0052979Y0018166D01*
X0052888Y0018034D01*
X0052793Y0017904D01*
X0052695Y0017777D01*
X0052594Y0017652D01*
X0052490Y0017529D01*
X0052383Y0017410D01*
X0052273Y0017293D01*
X0052160Y0017178D01*
X0052044Y0017067D01*
X0051926Y0016958D01*
X0051805Y0016853D01*
X0051681Y0016750D01*
X0051555Y0016650D01*
X0051426Y0016554D01*
X0051295Y0016461D01*
X0051162Y0016371D01*
X0051027Y0016284D01*
X0050889Y0016201D01*
X0050750Y0016122D01*
X0050608Y0016045D01*
X0050465Y0015972D01*
X0050320Y0015903D01*
X0050173Y0015838D01*
X0050025Y0015776D01*
X0049875Y0015717D01*
X0049724Y0015663D01*
X0049572Y0015612D01*
X0049418Y0015565D01*
X0049263Y0015522D01*
X0049108Y0015483D01*
X0048951Y0015447D01*
X0048793Y0015415D01*
X0048635Y0015388D01*
X0048476Y0015364D01*
X0048317Y0015344D01*
X0048157Y0015328D01*
X0047996Y0015316D01*
X0047836Y0015308D01*
X0047675Y0015304D01*
X0047515Y0015304D01*
X0047354Y0015308D01*
X0047194Y0015316D01*
X0047033Y0015328D01*
X0046873Y0015344D01*
X0046714Y0015364D01*
X0046555Y0015388D01*
X0046397Y0015415D01*
X0046239Y0015447D01*
X0046082Y0015483D01*
X0045927Y0015522D01*
X0045772Y0015565D01*
X0045618Y0015612D01*
X0045466Y0015663D01*
X0045315Y0015717D01*
X0045165Y0015776D01*
X0045017Y0015838D01*
X0044870Y0015903D01*
X0044725Y0015972D01*
X0044582Y0016045D01*
X0044440Y0016122D01*
X0044301Y0016201D01*
X0044163Y0016284D01*
X0044028Y0016371D01*
X0043895Y0016461D01*
X0043764Y0016554D01*
X0043635Y0016650D01*
X0043509Y0016750D01*
X0043385Y0016853D01*
X0043264Y0016958D01*
X0043146Y0017067D01*
X0043030Y0017178D01*
X0042917Y0017293D01*
X0042807Y0017410D01*
X0042700Y0017529D01*
X0042596Y0017652D01*
X0042495Y0017777D01*
X0042397Y0017904D01*
X0042302Y0018034D01*
X0042211Y0018166D01*
X0042122Y0018300D01*
X0042037Y0018437D01*
X0041956Y0018575D01*
X0041878Y0018716D01*
X0041803Y0018858D01*
X0041732Y0019002D01*
X0041665Y0019148D01*
X0041601Y0019296D01*
X0041541Y0019445D01*
X0041485Y0019595D01*
X0041432Y0019747D01*
X0041383Y0019900D01*
X0041338Y0020054D01*
X0041297Y0020209D01*
X0041259Y0020366D01*
X0041226Y0020523D01*
X0041196Y0020681D01*
X0041170Y0020839D01*
X0041149Y0020999D01*
X0041131Y0021158D01*
X0041117Y0021318D01*
X0041107Y0021479D01*
X0041101Y0021639D01*
X0041099Y0021800D01*
X0041099Y0231800D02*
X0041101Y0231961D01*
X0041107Y0232121D01*
X0041117Y0232282D01*
X0041131Y0232442D01*
X0041149Y0232601D01*
X0041170Y0232761D01*
X0041196Y0232919D01*
X0041226Y0233077D01*
X0041259Y0233234D01*
X0041297Y0233391D01*
X0041338Y0233546D01*
X0041383Y0233700D01*
X0041432Y0233853D01*
X0041485Y0234005D01*
X0041541Y0234155D01*
X0041601Y0234304D01*
X0041665Y0234452D01*
X0041732Y0234598D01*
X0041803Y0234742D01*
X0041878Y0234884D01*
X0041956Y0235025D01*
X0042037Y0235163D01*
X0042122Y0235300D01*
X0042211Y0235434D01*
X0042302Y0235566D01*
X0042397Y0235696D01*
X0042495Y0235823D01*
X0042596Y0235948D01*
X0042700Y0236071D01*
X0042807Y0236190D01*
X0042917Y0236307D01*
X0043030Y0236422D01*
X0043146Y0236533D01*
X0043264Y0236642D01*
X0043385Y0236747D01*
X0043509Y0236850D01*
X0043635Y0236950D01*
X0043764Y0237046D01*
X0043895Y0237139D01*
X0044028Y0237229D01*
X0044163Y0237316D01*
X0044301Y0237399D01*
X0044440Y0237478D01*
X0044582Y0237555D01*
X0044725Y0237628D01*
X0044870Y0237697D01*
X0045017Y0237762D01*
X0045165Y0237824D01*
X0045315Y0237883D01*
X0045466Y0237937D01*
X0045618Y0237988D01*
X0045772Y0238035D01*
X0045927Y0238078D01*
X0046082Y0238117D01*
X0046239Y0238153D01*
X0046397Y0238185D01*
X0046555Y0238212D01*
X0046714Y0238236D01*
X0046873Y0238256D01*
X0047033Y0238272D01*
X0047194Y0238284D01*
X0047354Y0238292D01*
X0047515Y0238296D01*
X0047675Y0238296D01*
X0047836Y0238292D01*
X0047996Y0238284D01*
X0048157Y0238272D01*
X0048317Y0238256D01*
X0048476Y0238236D01*
X0048635Y0238212D01*
X0048793Y0238185D01*
X0048951Y0238153D01*
X0049108Y0238117D01*
X0049263Y0238078D01*
X0049418Y0238035D01*
X0049572Y0237988D01*
X0049724Y0237937D01*
X0049875Y0237883D01*
X0050025Y0237824D01*
X0050173Y0237762D01*
X0050320Y0237697D01*
X0050465Y0237628D01*
X0050608Y0237555D01*
X0050750Y0237478D01*
X0050889Y0237399D01*
X0051027Y0237316D01*
X0051162Y0237229D01*
X0051295Y0237139D01*
X0051426Y0237046D01*
X0051555Y0236950D01*
X0051681Y0236850D01*
X0051805Y0236747D01*
X0051926Y0236642D01*
X0052044Y0236533D01*
X0052160Y0236422D01*
X0052273Y0236307D01*
X0052383Y0236190D01*
X0052490Y0236071D01*
X0052594Y0235948D01*
X0052695Y0235823D01*
X0052793Y0235696D01*
X0052888Y0235566D01*
X0052979Y0235434D01*
X0053068Y0235300D01*
X0053153Y0235163D01*
X0053234Y0235025D01*
X0053312Y0234884D01*
X0053387Y0234742D01*
X0053458Y0234598D01*
X0053525Y0234452D01*
X0053589Y0234304D01*
X0053649Y0234155D01*
X0053705Y0234005D01*
X0053758Y0233853D01*
X0053807Y0233700D01*
X0053852Y0233546D01*
X0053893Y0233391D01*
X0053931Y0233234D01*
X0053964Y0233077D01*
X0053994Y0232919D01*
X0054020Y0232761D01*
X0054041Y0232601D01*
X0054059Y0232442D01*
X0054073Y0232282D01*
X0054083Y0232121D01*
X0054089Y0231961D01*
X0054091Y0231800D01*
X0054089Y0231639D01*
X0054083Y0231479D01*
X0054073Y0231318D01*
X0054059Y0231158D01*
X0054041Y0230999D01*
X0054020Y0230839D01*
X0053994Y0230681D01*
X0053964Y0230523D01*
X0053931Y0230366D01*
X0053893Y0230209D01*
X0053852Y0230054D01*
X0053807Y0229900D01*
X0053758Y0229747D01*
X0053705Y0229595D01*
X0053649Y0229445D01*
X0053589Y0229296D01*
X0053525Y0229148D01*
X0053458Y0229002D01*
X0053387Y0228858D01*
X0053312Y0228716D01*
X0053234Y0228575D01*
X0053153Y0228437D01*
X0053068Y0228300D01*
X0052979Y0228166D01*
X0052888Y0228034D01*
X0052793Y0227904D01*
X0052695Y0227777D01*
X0052594Y0227652D01*
X0052490Y0227529D01*
X0052383Y0227410D01*
X0052273Y0227293D01*
X0052160Y0227178D01*
X0052044Y0227067D01*
X0051926Y0226958D01*
X0051805Y0226853D01*
X0051681Y0226750D01*
X0051555Y0226650D01*
X0051426Y0226554D01*
X0051295Y0226461D01*
X0051162Y0226371D01*
X0051027Y0226284D01*
X0050889Y0226201D01*
X0050750Y0226122D01*
X0050608Y0226045D01*
X0050465Y0225972D01*
X0050320Y0225903D01*
X0050173Y0225838D01*
X0050025Y0225776D01*
X0049875Y0225717D01*
X0049724Y0225663D01*
X0049572Y0225612D01*
X0049418Y0225565D01*
X0049263Y0225522D01*
X0049108Y0225483D01*
X0048951Y0225447D01*
X0048793Y0225415D01*
X0048635Y0225388D01*
X0048476Y0225364D01*
X0048317Y0225344D01*
X0048157Y0225328D01*
X0047996Y0225316D01*
X0047836Y0225308D01*
X0047675Y0225304D01*
X0047515Y0225304D01*
X0047354Y0225308D01*
X0047194Y0225316D01*
X0047033Y0225328D01*
X0046873Y0225344D01*
X0046714Y0225364D01*
X0046555Y0225388D01*
X0046397Y0225415D01*
X0046239Y0225447D01*
X0046082Y0225483D01*
X0045927Y0225522D01*
X0045772Y0225565D01*
X0045618Y0225612D01*
X0045466Y0225663D01*
X0045315Y0225717D01*
X0045165Y0225776D01*
X0045017Y0225838D01*
X0044870Y0225903D01*
X0044725Y0225972D01*
X0044582Y0226045D01*
X0044440Y0226122D01*
X0044301Y0226201D01*
X0044163Y0226284D01*
X0044028Y0226371D01*
X0043895Y0226461D01*
X0043764Y0226554D01*
X0043635Y0226650D01*
X0043509Y0226750D01*
X0043385Y0226853D01*
X0043264Y0226958D01*
X0043146Y0227067D01*
X0043030Y0227178D01*
X0042917Y0227293D01*
X0042807Y0227410D01*
X0042700Y0227529D01*
X0042596Y0227652D01*
X0042495Y0227777D01*
X0042397Y0227904D01*
X0042302Y0228034D01*
X0042211Y0228166D01*
X0042122Y0228300D01*
X0042037Y0228437D01*
X0041956Y0228575D01*
X0041878Y0228716D01*
X0041803Y0228858D01*
X0041732Y0229002D01*
X0041665Y0229148D01*
X0041601Y0229296D01*
X0041541Y0229445D01*
X0041485Y0229595D01*
X0041432Y0229747D01*
X0041383Y0229900D01*
X0041338Y0230054D01*
X0041297Y0230209D01*
X0041259Y0230366D01*
X0041226Y0230523D01*
X0041196Y0230681D01*
X0041170Y0230839D01*
X0041149Y0230999D01*
X0041131Y0231158D01*
X0041117Y0231318D01*
X0041107Y0231479D01*
X0041101Y0231639D01*
X0041099Y0231800D01*
X0331099Y0231800D02*
X0331101Y0231961D01*
X0331107Y0232121D01*
X0331117Y0232282D01*
X0331131Y0232442D01*
X0331149Y0232601D01*
X0331170Y0232761D01*
X0331196Y0232919D01*
X0331226Y0233077D01*
X0331259Y0233234D01*
X0331297Y0233391D01*
X0331338Y0233546D01*
X0331383Y0233700D01*
X0331432Y0233853D01*
X0331485Y0234005D01*
X0331541Y0234155D01*
X0331601Y0234304D01*
X0331665Y0234452D01*
X0331732Y0234598D01*
X0331803Y0234742D01*
X0331878Y0234884D01*
X0331956Y0235025D01*
X0332037Y0235163D01*
X0332122Y0235300D01*
X0332211Y0235434D01*
X0332302Y0235566D01*
X0332397Y0235696D01*
X0332495Y0235823D01*
X0332596Y0235948D01*
X0332700Y0236071D01*
X0332807Y0236190D01*
X0332917Y0236307D01*
X0333030Y0236422D01*
X0333146Y0236533D01*
X0333264Y0236642D01*
X0333385Y0236747D01*
X0333509Y0236850D01*
X0333635Y0236950D01*
X0333764Y0237046D01*
X0333895Y0237139D01*
X0334028Y0237229D01*
X0334163Y0237316D01*
X0334301Y0237399D01*
X0334440Y0237478D01*
X0334582Y0237555D01*
X0334725Y0237628D01*
X0334870Y0237697D01*
X0335017Y0237762D01*
X0335165Y0237824D01*
X0335315Y0237883D01*
X0335466Y0237937D01*
X0335618Y0237988D01*
X0335772Y0238035D01*
X0335927Y0238078D01*
X0336082Y0238117D01*
X0336239Y0238153D01*
X0336397Y0238185D01*
X0336555Y0238212D01*
X0336714Y0238236D01*
X0336873Y0238256D01*
X0337033Y0238272D01*
X0337194Y0238284D01*
X0337354Y0238292D01*
X0337515Y0238296D01*
X0337675Y0238296D01*
X0337836Y0238292D01*
X0337996Y0238284D01*
X0338157Y0238272D01*
X0338317Y0238256D01*
X0338476Y0238236D01*
X0338635Y0238212D01*
X0338793Y0238185D01*
X0338951Y0238153D01*
X0339108Y0238117D01*
X0339263Y0238078D01*
X0339418Y0238035D01*
X0339572Y0237988D01*
X0339724Y0237937D01*
X0339875Y0237883D01*
X0340025Y0237824D01*
X0340173Y0237762D01*
X0340320Y0237697D01*
X0340465Y0237628D01*
X0340608Y0237555D01*
X0340750Y0237478D01*
X0340889Y0237399D01*
X0341027Y0237316D01*
X0341162Y0237229D01*
X0341295Y0237139D01*
X0341426Y0237046D01*
X0341555Y0236950D01*
X0341681Y0236850D01*
X0341805Y0236747D01*
X0341926Y0236642D01*
X0342044Y0236533D01*
X0342160Y0236422D01*
X0342273Y0236307D01*
X0342383Y0236190D01*
X0342490Y0236071D01*
X0342594Y0235948D01*
X0342695Y0235823D01*
X0342793Y0235696D01*
X0342888Y0235566D01*
X0342979Y0235434D01*
X0343068Y0235300D01*
X0343153Y0235163D01*
X0343234Y0235025D01*
X0343312Y0234884D01*
X0343387Y0234742D01*
X0343458Y0234598D01*
X0343525Y0234452D01*
X0343589Y0234304D01*
X0343649Y0234155D01*
X0343705Y0234005D01*
X0343758Y0233853D01*
X0343807Y0233700D01*
X0343852Y0233546D01*
X0343893Y0233391D01*
X0343931Y0233234D01*
X0343964Y0233077D01*
X0343994Y0232919D01*
X0344020Y0232761D01*
X0344041Y0232601D01*
X0344059Y0232442D01*
X0344073Y0232282D01*
X0344083Y0232121D01*
X0344089Y0231961D01*
X0344091Y0231800D01*
X0344089Y0231639D01*
X0344083Y0231479D01*
X0344073Y0231318D01*
X0344059Y0231158D01*
X0344041Y0230999D01*
X0344020Y0230839D01*
X0343994Y0230681D01*
X0343964Y0230523D01*
X0343931Y0230366D01*
X0343893Y0230209D01*
X0343852Y0230054D01*
X0343807Y0229900D01*
X0343758Y0229747D01*
X0343705Y0229595D01*
X0343649Y0229445D01*
X0343589Y0229296D01*
X0343525Y0229148D01*
X0343458Y0229002D01*
X0343387Y0228858D01*
X0343312Y0228716D01*
X0343234Y0228575D01*
X0343153Y0228437D01*
X0343068Y0228300D01*
X0342979Y0228166D01*
X0342888Y0228034D01*
X0342793Y0227904D01*
X0342695Y0227777D01*
X0342594Y0227652D01*
X0342490Y0227529D01*
X0342383Y0227410D01*
X0342273Y0227293D01*
X0342160Y0227178D01*
X0342044Y0227067D01*
X0341926Y0226958D01*
X0341805Y0226853D01*
X0341681Y0226750D01*
X0341555Y0226650D01*
X0341426Y0226554D01*
X0341295Y0226461D01*
X0341162Y0226371D01*
X0341027Y0226284D01*
X0340889Y0226201D01*
X0340750Y0226122D01*
X0340608Y0226045D01*
X0340465Y0225972D01*
X0340320Y0225903D01*
X0340173Y0225838D01*
X0340025Y0225776D01*
X0339875Y0225717D01*
X0339724Y0225663D01*
X0339572Y0225612D01*
X0339418Y0225565D01*
X0339263Y0225522D01*
X0339108Y0225483D01*
X0338951Y0225447D01*
X0338793Y0225415D01*
X0338635Y0225388D01*
X0338476Y0225364D01*
X0338317Y0225344D01*
X0338157Y0225328D01*
X0337996Y0225316D01*
X0337836Y0225308D01*
X0337675Y0225304D01*
X0337515Y0225304D01*
X0337354Y0225308D01*
X0337194Y0225316D01*
X0337033Y0225328D01*
X0336873Y0225344D01*
X0336714Y0225364D01*
X0336555Y0225388D01*
X0336397Y0225415D01*
X0336239Y0225447D01*
X0336082Y0225483D01*
X0335927Y0225522D01*
X0335772Y0225565D01*
X0335618Y0225612D01*
X0335466Y0225663D01*
X0335315Y0225717D01*
X0335165Y0225776D01*
X0335017Y0225838D01*
X0334870Y0225903D01*
X0334725Y0225972D01*
X0334582Y0226045D01*
X0334440Y0226122D01*
X0334301Y0226201D01*
X0334163Y0226284D01*
X0334028Y0226371D01*
X0333895Y0226461D01*
X0333764Y0226554D01*
X0333635Y0226650D01*
X0333509Y0226750D01*
X0333385Y0226853D01*
X0333264Y0226958D01*
X0333146Y0227067D01*
X0333030Y0227178D01*
X0332917Y0227293D01*
X0332807Y0227410D01*
X0332700Y0227529D01*
X0332596Y0227652D01*
X0332495Y0227777D01*
X0332397Y0227904D01*
X0332302Y0228034D01*
X0332211Y0228166D01*
X0332122Y0228300D01*
X0332037Y0228437D01*
X0331956Y0228575D01*
X0331878Y0228716D01*
X0331803Y0228858D01*
X0331732Y0229002D01*
X0331665Y0229148D01*
X0331601Y0229296D01*
X0331541Y0229445D01*
X0331485Y0229595D01*
X0331432Y0229747D01*
X0331383Y0229900D01*
X0331338Y0230054D01*
X0331297Y0230209D01*
X0331259Y0230366D01*
X0331226Y0230523D01*
X0331196Y0230681D01*
X0331170Y0230839D01*
X0331149Y0230999D01*
X0331131Y0231158D01*
X0331117Y0231318D01*
X0331107Y0231479D01*
X0331101Y0231639D01*
X0331099Y0231800D01*
X0331099Y0021800D02*
X0331101Y0021961D01*
X0331107Y0022121D01*
X0331117Y0022282D01*
X0331131Y0022442D01*
X0331149Y0022601D01*
X0331170Y0022761D01*
X0331196Y0022919D01*
X0331226Y0023077D01*
X0331259Y0023234D01*
X0331297Y0023391D01*
X0331338Y0023546D01*
X0331383Y0023700D01*
X0331432Y0023853D01*
X0331485Y0024005D01*
X0331541Y0024155D01*
X0331601Y0024304D01*
X0331665Y0024452D01*
X0331732Y0024598D01*
X0331803Y0024742D01*
X0331878Y0024884D01*
X0331956Y0025025D01*
X0332037Y0025163D01*
X0332122Y0025300D01*
X0332211Y0025434D01*
X0332302Y0025566D01*
X0332397Y0025696D01*
X0332495Y0025823D01*
X0332596Y0025948D01*
X0332700Y0026071D01*
X0332807Y0026190D01*
X0332917Y0026307D01*
X0333030Y0026422D01*
X0333146Y0026533D01*
X0333264Y0026642D01*
X0333385Y0026747D01*
X0333509Y0026850D01*
X0333635Y0026950D01*
X0333764Y0027046D01*
X0333895Y0027139D01*
X0334028Y0027229D01*
X0334163Y0027316D01*
X0334301Y0027399D01*
X0334440Y0027478D01*
X0334582Y0027555D01*
X0334725Y0027628D01*
X0334870Y0027697D01*
X0335017Y0027762D01*
X0335165Y0027824D01*
X0335315Y0027883D01*
X0335466Y0027937D01*
X0335618Y0027988D01*
X0335772Y0028035D01*
X0335927Y0028078D01*
X0336082Y0028117D01*
X0336239Y0028153D01*
X0336397Y0028185D01*
X0336555Y0028212D01*
X0336714Y0028236D01*
X0336873Y0028256D01*
X0337033Y0028272D01*
X0337194Y0028284D01*
X0337354Y0028292D01*
X0337515Y0028296D01*
X0337675Y0028296D01*
X0337836Y0028292D01*
X0337996Y0028284D01*
X0338157Y0028272D01*
X0338317Y0028256D01*
X0338476Y0028236D01*
X0338635Y0028212D01*
X0338793Y0028185D01*
X0338951Y0028153D01*
X0339108Y0028117D01*
X0339263Y0028078D01*
X0339418Y0028035D01*
X0339572Y0027988D01*
X0339724Y0027937D01*
X0339875Y0027883D01*
X0340025Y0027824D01*
X0340173Y0027762D01*
X0340320Y0027697D01*
X0340465Y0027628D01*
X0340608Y0027555D01*
X0340750Y0027478D01*
X0340889Y0027399D01*
X0341027Y0027316D01*
X0341162Y0027229D01*
X0341295Y0027139D01*
X0341426Y0027046D01*
X0341555Y0026950D01*
X0341681Y0026850D01*
X0341805Y0026747D01*
X0341926Y0026642D01*
X0342044Y0026533D01*
X0342160Y0026422D01*
X0342273Y0026307D01*
X0342383Y0026190D01*
X0342490Y0026071D01*
X0342594Y0025948D01*
X0342695Y0025823D01*
X0342793Y0025696D01*
X0342888Y0025566D01*
X0342979Y0025434D01*
X0343068Y0025300D01*
X0343153Y0025163D01*
X0343234Y0025025D01*
X0343312Y0024884D01*
X0343387Y0024742D01*
X0343458Y0024598D01*
X0343525Y0024452D01*
X0343589Y0024304D01*
X0343649Y0024155D01*
X0343705Y0024005D01*
X0343758Y0023853D01*
X0343807Y0023700D01*
X0343852Y0023546D01*
X0343893Y0023391D01*
X0343931Y0023234D01*
X0343964Y0023077D01*
X0343994Y0022919D01*
X0344020Y0022761D01*
X0344041Y0022601D01*
X0344059Y0022442D01*
X0344073Y0022282D01*
X0344083Y0022121D01*
X0344089Y0021961D01*
X0344091Y0021800D01*
X0344089Y0021639D01*
X0344083Y0021479D01*
X0344073Y0021318D01*
X0344059Y0021158D01*
X0344041Y0020999D01*
X0344020Y0020839D01*
X0343994Y0020681D01*
X0343964Y0020523D01*
X0343931Y0020366D01*
X0343893Y0020209D01*
X0343852Y0020054D01*
X0343807Y0019900D01*
X0343758Y0019747D01*
X0343705Y0019595D01*
X0343649Y0019445D01*
X0343589Y0019296D01*
X0343525Y0019148D01*
X0343458Y0019002D01*
X0343387Y0018858D01*
X0343312Y0018716D01*
X0343234Y0018575D01*
X0343153Y0018437D01*
X0343068Y0018300D01*
X0342979Y0018166D01*
X0342888Y0018034D01*
X0342793Y0017904D01*
X0342695Y0017777D01*
X0342594Y0017652D01*
X0342490Y0017529D01*
X0342383Y0017410D01*
X0342273Y0017293D01*
X0342160Y0017178D01*
X0342044Y0017067D01*
X0341926Y0016958D01*
X0341805Y0016853D01*
X0341681Y0016750D01*
X0341555Y0016650D01*
X0341426Y0016554D01*
X0341295Y0016461D01*
X0341162Y0016371D01*
X0341027Y0016284D01*
X0340889Y0016201D01*
X0340750Y0016122D01*
X0340608Y0016045D01*
X0340465Y0015972D01*
X0340320Y0015903D01*
X0340173Y0015838D01*
X0340025Y0015776D01*
X0339875Y0015717D01*
X0339724Y0015663D01*
X0339572Y0015612D01*
X0339418Y0015565D01*
X0339263Y0015522D01*
X0339108Y0015483D01*
X0338951Y0015447D01*
X0338793Y0015415D01*
X0338635Y0015388D01*
X0338476Y0015364D01*
X0338317Y0015344D01*
X0338157Y0015328D01*
X0337996Y0015316D01*
X0337836Y0015308D01*
X0337675Y0015304D01*
X0337515Y0015304D01*
X0337354Y0015308D01*
X0337194Y0015316D01*
X0337033Y0015328D01*
X0336873Y0015344D01*
X0336714Y0015364D01*
X0336555Y0015388D01*
X0336397Y0015415D01*
X0336239Y0015447D01*
X0336082Y0015483D01*
X0335927Y0015522D01*
X0335772Y0015565D01*
X0335618Y0015612D01*
X0335466Y0015663D01*
X0335315Y0015717D01*
X0335165Y0015776D01*
X0335017Y0015838D01*
X0334870Y0015903D01*
X0334725Y0015972D01*
X0334582Y0016045D01*
X0334440Y0016122D01*
X0334301Y0016201D01*
X0334163Y0016284D01*
X0334028Y0016371D01*
X0333895Y0016461D01*
X0333764Y0016554D01*
X0333635Y0016650D01*
X0333509Y0016750D01*
X0333385Y0016853D01*
X0333264Y0016958D01*
X0333146Y0017067D01*
X0333030Y0017178D01*
X0332917Y0017293D01*
X0332807Y0017410D01*
X0332700Y0017529D01*
X0332596Y0017652D01*
X0332495Y0017777D01*
X0332397Y0017904D01*
X0332302Y0018034D01*
X0332211Y0018166D01*
X0332122Y0018300D01*
X0332037Y0018437D01*
X0331956Y0018575D01*
X0331878Y0018716D01*
X0331803Y0018858D01*
X0331732Y0019002D01*
X0331665Y0019148D01*
X0331601Y0019296D01*
X0331541Y0019445D01*
X0331485Y0019595D01*
X0331432Y0019747D01*
X0331383Y0019900D01*
X0331338Y0020054D01*
X0331297Y0020209D01*
X0331259Y0020366D01*
X0331226Y0020523D01*
X0331196Y0020681D01*
X0331170Y0020839D01*
X0331149Y0020999D01*
X0331131Y0021158D01*
X0331117Y0021318D01*
X0331107Y0021479D01*
X0331101Y0021639D01*
X0331099Y0021800D01*
D11*
X0324095Y0021800D02*
X0324099Y0022131D01*
X0324111Y0022462D01*
X0324132Y0022793D01*
X0324160Y0023123D01*
X0324197Y0023453D01*
X0324241Y0023781D01*
X0324294Y0024108D01*
X0324354Y0024434D01*
X0324423Y0024758D01*
X0324500Y0025080D01*
X0324584Y0025401D01*
X0324676Y0025719D01*
X0324776Y0026035D01*
X0324884Y0026348D01*
X0325000Y0026659D01*
X0325123Y0026966D01*
X0325253Y0027271D01*
X0325391Y0027572D01*
X0325536Y0027870D01*
X0325689Y0028164D01*
X0325849Y0028454D01*
X0326016Y0028740D01*
X0326189Y0029022D01*
X0326370Y0029300D01*
X0326558Y0029573D01*
X0326752Y0029842D01*
X0326952Y0030106D01*
X0327159Y0030364D01*
X0327373Y0030618D01*
X0327592Y0030866D01*
X0327818Y0031109D01*
X0328049Y0031346D01*
X0328286Y0031577D01*
X0328529Y0031803D01*
X0328777Y0032022D01*
X0329031Y0032236D01*
X0329289Y0032443D01*
X0329553Y0032643D01*
X0329822Y0032837D01*
X0330095Y0033025D01*
X0330373Y0033206D01*
X0330655Y0033379D01*
X0330941Y0033546D01*
X0331231Y0033706D01*
X0331525Y0033859D01*
X0331823Y0034004D01*
X0332124Y0034142D01*
X0332429Y0034272D01*
X0332736Y0034395D01*
X0333047Y0034511D01*
X0333360Y0034619D01*
X0333676Y0034719D01*
X0333994Y0034811D01*
X0334315Y0034895D01*
X0334637Y0034972D01*
X0334961Y0035041D01*
X0335287Y0035101D01*
X0335614Y0035154D01*
X0335942Y0035198D01*
X0336272Y0035235D01*
X0336602Y0035263D01*
X0336933Y0035284D01*
X0337264Y0035296D01*
X0337595Y0035300D01*
X0337926Y0035296D01*
X0338257Y0035284D01*
X0338588Y0035263D01*
X0338918Y0035235D01*
X0339248Y0035198D01*
X0339576Y0035154D01*
X0339903Y0035101D01*
X0340229Y0035041D01*
X0340553Y0034972D01*
X0340875Y0034895D01*
X0341196Y0034811D01*
X0341514Y0034719D01*
X0341830Y0034619D01*
X0342143Y0034511D01*
X0342454Y0034395D01*
X0342761Y0034272D01*
X0343066Y0034142D01*
X0343367Y0034004D01*
X0343665Y0033859D01*
X0343959Y0033706D01*
X0344249Y0033546D01*
X0344535Y0033379D01*
X0344817Y0033206D01*
X0345095Y0033025D01*
X0345368Y0032837D01*
X0345637Y0032643D01*
X0345901Y0032443D01*
X0346159Y0032236D01*
X0346413Y0032022D01*
X0346661Y0031803D01*
X0346904Y0031577D01*
X0347141Y0031346D01*
X0347372Y0031109D01*
X0347598Y0030866D01*
X0347817Y0030618D01*
X0348031Y0030364D01*
X0348238Y0030106D01*
X0348438Y0029842D01*
X0348632Y0029573D01*
X0348820Y0029300D01*
X0349001Y0029022D01*
X0349174Y0028740D01*
X0349341Y0028454D01*
X0349501Y0028164D01*
X0349654Y0027870D01*
X0349799Y0027572D01*
X0349937Y0027271D01*
X0350067Y0026966D01*
X0350190Y0026659D01*
X0350306Y0026348D01*
X0350414Y0026035D01*
X0350514Y0025719D01*
X0350606Y0025401D01*
X0350690Y0025080D01*
X0350767Y0024758D01*
X0350836Y0024434D01*
X0350896Y0024108D01*
X0350949Y0023781D01*
X0350993Y0023453D01*
X0351030Y0023123D01*
X0351058Y0022793D01*
X0351079Y0022462D01*
X0351091Y0022131D01*
X0351095Y0021800D01*
X0351091Y0021469D01*
X0351079Y0021138D01*
X0351058Y0020807D01*
X0351030Y0020477D01*
X0350993Y0020147D01*
X0350949Y0019819D01*
X0350896Y0019492D01*
X0350836Y0019166D01*
X0350767Y0018842D01*
X0350690Y0018520D01*
X0350606Y0018199D01*
X0350514Y0017881D01*
X0350414Y0017565D01*
X0350306Y0017252D01*
X0350190Y0016941D01*
X0350067Y0016634D01*
X0349937Y0016329D01*
X0349799Y0016028D01*
X0349654Y0015730D01*
X0349501Y0015436D01*
X0349341Y0015146D01*
X0349174Y0014860D01*
X0349001Y0014578D01*
X0348820Y0014300D01*
X0348632Y0014027D01*
X0348438Y0013758D01*
X0348238Y0013494D01*
X0348031Y0013236D01*
X0347817Y0012982D01*
X0347598Y0012734D01*
X0347372Y0012491D01*
X0347141Y0012254D01*
X0346904Y0012023D01*
X0346661Y0011797D01*
X0346413Y0011578D01*
X0346159Y0011364D01*
X0345901Y0011157D01*
X0345637Y0010957D01*
X0345368Y0010763D01*
X0345095Y0010575D01*
X0344817Y0010394D01*
X0344535Y0010221D01*
X0344249Y0010054D01*
X0343959Y0009894D01*
X0343665Y0009741D01*
X0343367Y0009596D01*
X0343066Y0009458D01*
X0342761Y0009328D01*
X0342454Y0009205D01*
X0342143Y0009089D01*
X0341830Y0008981D01*
X0341514Y0008881D01*
X0341196Y0008789D01*
X0340875Y0008705D01*
X0340553Y0008628D01*
X0340229Y0008559D01*
X0339903Y0008499D01*
X0339576Y0008446D01*
X0339248Y0008402D01*
X0338918Y0008365D01*
X0338588Y0008337D01*
X0338257Y0008316D01*
X0337926Y0008304D01*
X0337595Y0008300D01*
X0337264Y0008304D01*
X0336933Y0008316D01*
X0336602Y0008337D01*
X0336272Y0008365D01*
X0335942Y0008402D01*
X0335614Y0008446D01*
X0335287Y0008499D01*
X0334961Y0008559D01*
X0334637Y0008628D01*
X0334315Y0008705D01*
X0333994Y0008789D01*
X0333676Y0008881D01*
X0333360Y0008981D01*
X0333047Y0009089D01*
X0332736Y0009205D01*
X0332429Y0009328D01*
X0332124Y0009458D01*
X0331823Y0009596D01*
X0331525Y0009741D01*
X0331231Y0009894D01*
X0330941Y0010054D01*
X0330655Y0010221D01*
X0330373Y0010394D01*
X0330095Y0010575D01*
X0329822Y0010763D01*
X0329553Y0010957D01*
X0329289Y0011157D01*
X0329031Y0011364D01*
X0328777Y0011578D01*
X0328529Y0011797D01*
X0328286Y0012023D01*
X0328049Y0012254D01*
X0327818Y0012491D01*
X0327592Y0012734D01*
X0327373Y0012982D01*
X0327159Y0013236D01*
X0326952Y0013494D01*
X0326752Y0013758D01*
X0326558Y0014027D01*
X0326370Y0014300D01*
X0326189Y0014578D01*
X0326016Y0014860D01*
X0325849Y0015146D01*
X0325689Y0015436D01*
X0325536Y0015730D01*
X0325391Y0016028D01*
X0325253Y0016329D01*
X0325123Y0016634D01*
X0325000Y0016941D01*
X0324884Y0017252D01*
X0324776Y0017565D01*
X0324676Y0017881D01*
X0324584Y0018199D01*
X0324500Y0018520D01*
X0324423Y0018842D01*
X0324354Y0019166D01*
X0324294Y0019492D01*
X0324241Y0019819D01*
X0324197Y0020147D01*
X0324160Y0020477D01*
X0324132Y0020807D01*
X0324111Y0021138D01*
X0324099Y0021469D01*
X0324095Y0021800D01*
X0317332Y0028719D02*
X0313796Y0025184D01*
X0310261Y0025184D01*
X0310261Y0021648D01*
X0306725Y0018113D01*
X0303190Y0018113D01*
X0299654Y0021648D01*
X0299654Y0025184D01*
X0303190Y0028719D01*
X0306725Y0028719D01*
X0306725Y0032255D01*
X0310261Y0035790D01*
X0313796Y0035790D01*
X0317332Y0032255D01*
X0317332Y0028719D01*
X0317332Y0032255D02*
X0320867Y0032255D01*
X0324403Y0035790D01*
X0324403Y0039326D01*
X0327938Y0039326D01*
X0331474Y0042861D01*
X0331474Y0046397D01*
X0327938Y0049932D01*
X0324403Y0049932D01*
X0320867Y0046397D01*
X0320867Y0042861D01*
X0324403Y0039326D01*
X0320867Y0042861D02*
X0317332Y0042861D01*
X0313796Y0039326D01*
X0313796Y0035790D01*
X0306725Y0028719D02*
X0310261Y0025184D01*
X0268845Y0054300D02*
X0268845Y0059300D01*
X0266345Y0061800D01*
X0261345Y0061800D01*
X0258845Y0059300D01*
X0258845Y0054300D01*
X0261345Y0051800D01*
X0266345Y0051800D01*
X0268845Y0054300D01*
X0258845Y0054300D02*
X0256345Y0051800D01*
X0251345Y0051800D01*
X0248845Y0054300D01*
X0248845Y0059300D01*
X0251345Y0061800D01*
X0256345Y0061800D01*
X0258845Y0059300D01*
X0258845Y0054300D01*
X0256095Y0081800D02*
X0264095Y0081800D01*
X0265095Y0082800D01*
X0265095Y0090800D01*
X0264095Y0091800D01*
X0256095Y0091800D01*
X0255095Y0090800D01*
X0254095Y0091800D01*
X0246095Y0091800D01*
X0245095Y0090800D01*
X0245095Y0082800D01*
X0246095Y0081800D01*
X0254095Y0081800D01*
X0255095Y0082800D01*
X0256095Y0081800D01*
X0207595Y0063000D02*
X0207595Y0050600D01*
X0207593Y0050524D01*
X0207587Y0050448D01*
X0207578Y0050373D01*
X0207564Y0050298D01*
X0207547Y0050224D01*
X0207526Y0050151D01*
X0207502Y0050079D01*
X0207473Y0050008D01*
X0207442Y0049939D01*
X0207407Y0049872D01*
X0207368Y0049807D01*
X0207326Y0049743D01*
X0207281Y0049682D01*
X0207233Y0049623D01*
X0207182Y0049567D01*
X0207128Y0049513D01*
X0207072Y0049462D01*
X0207013Y0049414D01*
X0206952Y0049369D01*
X0206888Y0049327D01*
X0206823Y0049288D01*
X0206756Y0049253D01*
X0206687Y0049222D01*
X0206616Y0049193D01*
X0206544Y0049169D01*
X0206471Y0049148D01*
X0206397Y0049131D01*
X0206322Y0049117D01*
X0206247Y0049108D01*
X0206171Y0049102D01*
X0206095Y0049100D01*
X0174095Y0049100D01*
X0174019Y0049102D01*
X0173943Y0049108D01*
X0173868Y0049117D01*
X0173793Y0049131D01*
X0173719Y0049148D01*
X0173646Y0049169D01*
X0173574Y0049193D01*
X0173503Y0049222D01*
X0173434Y0049253D01*
X0173367Y0049288D01*
X0173302Y0049327D01*
X0173238Y0049369D01*
X0173177Y0049414D01*
X0173118Y0049462D01*
X0173062Y0049513D01*
X0173008Y0049567D01*
X0172957Y0049623D01*
X0172909Y0049682D01*
X0172864Y0049743D01*
X0172822Y0049807D01*
X0172783Y0049872D01*
X0172748Y0049939D01*
X0172717Y0050008D01*
X0172688Y0050079D01*
X0172664Y0050151D01*
X0172643Y0050224D01*
X0172626Y0050298D01*
X0172612Y0050373D01*
X0172603Y0050448D01*
X0172597Y0050524D01*
X0172595Y0050600D01*
X0172595Y0054800D01*
X0172595Y0058800D01*
X0172595Y0063000D01*
X0172597Y0063076D01*
X0172603Y0063152D01*
X0172612Y0063227D01*
X0172626Y0063302D01*
X0172643Y0063376D01*
X0172664Y0063449D01*
X0172688Y0063521D01*
X0172717Y0063592D01*
X0172748Y0063661D01*
X0172783Y0063728D01*
X0172822Y0063793D01*
X0172864Y0063857D01*
X0172909Y0063918D01*
X0172957Y0063977D01*
X0173008Y0064033D01*
X0173062Y0064087D01*
X0173118Y0064138D01*
X0173177Y0064186D01*
X0173238Y0064231D01*
X0173302Y0064273D01*
X0173367Y0064312D01*
X0173434Y0064347D01*
X0173503Y0064378D01*
X0173574Y0064407D01*
X0173646Y0064431D01*
X0173719Y0064452D01*
X0173793Y0064469D01*
X0173868Y0064483D01*
X0173943Y0064492D01*
X0174019Y0064498D01*
X0174095Y0064500D01*
X0206095Y0064500D01*
X0206171Y0064498D01*
X0206247Y0064492D01*
X0206322Y0064483D01*
X0206397Y0064469D01*
X0206471Y0064452D01*
X0206544Y0064431D01*
X0206616Y0064407D01*
X0206687Y0064378D01*
X0206756Y0064347D01*
X0206823Y0064312D01*
X0206888Y0064273D01*
X0206952Y0064231D01*
X0207013Y0064186D01*
X0207072Y0064138D01*
X0207128Y0064087D01*
X0207182Y0064033D01*
X0207233Y0063977D01*
X0207281Y0063918D01*
X0207326Y0063857D01*
X0207368Y0063793D01*
X0207407Y0063728D01*
X0207442Y0063661D01*
X0207473Y0063592D01*
X0207502Y0063521D01*
X0207526Y0063449D01*
X0207547Y0063376D01*
X0207564Y0063302D01*
X0207578Y0063227D01*
X0207587Y0063152D01*
X0207593Y0063076D01*
X0207595Y0063000D01*
X0172595Y0058800D02*
X0172683Y0058798D01*
X0172772Y0058792D01*
X0172860Y0058782D01*
X0172947Y0058769D01*
X0173034Y0058751D01*
X0173120Y0058730D01*
X0173205Y0058705D01*
X0173288Y0058676D01*
X0173371Y0058643D01*
X0173451Y0058607D01*
X0173530Y0058568D01*
X0173608Y0058525D01*
X0173683Y0058478D01*
X0173756Y0058428D01*
X0173827Y0058375D01*
X0173896Y0058319D01*
X0173962Y0058260D01*
X0174025Y0058198D01*
X0174085Y0058134D01*
X0174143Y0058067D01*
X0174197Y0057997D01*
X0174249Y0057925D01*
X0174297Y0057851D01*
X0174342Y0057774D01*
X0174383Y0057696D01*
X0174421Y0057616D01*
X0174455Y0057535D01*
X0174486Y0057452D01*
X0174513Y0057367D01*
X0174536Y0057282D01*
X0174555Y0057196D01*
X0174571Y0057108D01*
X0174583Y0057021D01*
X0174591Y0056933D01*
X0174595Y0056844D01*
X0174595Y0056756D01*
X0174591Y0056667D01*
X0174583Y0056579D01*
X0174571Y0056492D01*
X0174555Y0056404D01*
X0174536Y0056318D01*
X0174513Y0056233D01*
X0174486Y0056148D01*
X0174455Y0056065D01*
X0174421Y0055984D01*
X0174383Y0055904D01*
X0174342Y0055826D01*
X0174297Y0055749D01*
X0174249Y0055675D01*
X0174197Y0055603D01*
X0174143Y0055533D01*
X0174085Y0055466D01*
X0174025Y0055402D01*
X0173962Y0055340D01*
X0173896Y0055281D01*
X0173827Y0055225D01*
X0173756Y0055172D01*
X0173683Y0055122D01*
X0173608Y0055075D01*
X0173530Y0055032D01*
X0173451Y0054993D01*
X0173371Y0054957D01*
X0173288Y0054924D01*
X0173205Y0054895D01*
X0173120Y0054870D01*
X0173034Y0054849D01*
X0172947Y0054831D01*
X0172860Y0054818D01*
X0172772Y0054808D01*
X0172683Y0054802D01*
X0172595Y0054800D01*
X0160695Y0082950D02*
X0158495Y0082950D01*
X0160695Y0082950D02*
X0160695Y0086150D01*
X0151695Y0082950D02*
X0149495Y0082950D01*
X0149495Y0086150D01*
X0070639Y0126256D02*
X0067103Y0129792D01*
X0070639Y0129792D02*
X0067103Y0126256D01*
X0057911Y0138984D02*
X0057204Y0139691D01*
X0053668Y0136156D01*
X0051901Y0137923D01*
X0058972Y0144995D01*
X0060739Y0143227D01*
X0057204Y0139691D01*
X0027229Y0142166D02*
X0027237Y0142841D01*
X0027262Y0143515D01*
X0027304Y0144189D01*
X0027361Y0144861D01*
X0027436Y0145532D01*
X0027527Y0146201D01*
X0027634Y0146867D01*
X0027757Y0147531D01*
X0027897Y0148191D01*
X0028053Y0148848D01*
X0028225Y0149501D01*
X0028413Y0150149D01*
X0028617Y0150792D01*
X0028837Y0151430D01*
X0029072Y0152063D01*
X0029322Y0152690D01*
X0029588Y0153310D01*
X0029869Y0153924D01*
X0030165Y0154530D01*
X0030476Y0155129D01*
X0030802Y0155721D01*
X0031141Y0156304D01*
X0031496Y0156878D01*
X0031864Y0157444D01*
X0032245Y0158001D01*
X0032641Y0158548D01*
X0033049Y0159085D01*
X0033471Y0159612D01*
X0033906Y0160128D01*
X0034353Y0160634D01*
X0034812Y0161128D01*
X0035284Y0161611D01*
X0035767Y0162083D01*
X0036261Y0162542D01*
X0036767Y0162989D01*
X0037283Y0163424D01*
X0037810Y0163846D01*
X0038347Y0164254D01*
X0038894Y0164650D01*
X0039451Y0165031D01*
X0040017Y0165399D01*
X0040591Y0165754D01*
X0041174Y0166093D01*
X0041766Y0166419D01*
X0042365Y0166730D01*
X0042971Y0167026D01*
X0043585Y0167307D01*
X0044205Y0167573D01*
X0044832Y0167823D01*
X0045465Y0168058D01*
X0046103Y0168278D01*
X0046746Y0168482D01*
X0047394Y0168670D01*
X0048047Y0168842D01*
X0048704Y0168998D01*
X0049364Y0169138D01*
X0050028Y0169261D01*
X0050694Y0169368D01*
X0051363Y0169459D01*
X0052034Y0169534D01*
X0052706Y0169591D01*
X0053380Y0169633D01*
X0054054Y0169658D01*
X0054729Y0169666D01*
X0055404Y0169658D01*
X0056078Y0169633D01*
X0056752Y0169591D01*
X0057424Y0169534D01*
X0058095Y0169459D01*
X0058764Y0169368D01*
X0059430Y0169261D01*
X0060094Y0169138D01*
X0060754Y0168998D01*
X0061411Y0168842D01*
X0062064Y0168670D01*
X0062712Y0168482D01*
X0063355Y0168278D01*
X0063993Y0168058D01*
X0064626Y0167823D01*
X0065253Y0167573D01*
X0065873Y0167307D01*
X0066487Y0167026D01*
X0067093Y0166730D01*
X0067692Y0166419D01*
X0068284Y0166093D01*
X0068867Y0165754D01*
X0069441Y0165399D01*
X0070007Y0165031D01*
X0070564Y0164650D01*
X0071111Y0164254D01*
X0071648Y0163846D01*
X0072175Y0163424D01*
X0072691Y0162989D01*
X0073197Y0162542D01*
X0073691Y0162083D01*
X0074174Y0161611D01*
X0074646Y0161128D01*
X0075105Y0160634D01*
X0075552Y0160128D01*
X0075987Y0159612D01*
X0076409Y0159085D01*
X0076817Y0158548D01*
X0077213Y0158001D01*
X0077594Y0157444D01*
X0077962Y0156878D01*
X0078317Y0156304D01*
X0078656Y0155721D01*
X0078982Y0155129D01*
X0079293Y0154530D01*
X0079589Y0153924D01*
X0079870Y0153310D01*
X0080136Y0152690D01*
X0080386Y0152063D01*
X0080621Y0151430D01*
X0080841Y0150792D01*
X0081045Y0150149D01*
X0081233Y0149501D01*
X0081405Y0148848D01*
X0081561Y0148191D01*
X0081701Y0147531D01*
X0081824Y0146867D01*
X0081931Y0146201D01*
X0082022Y0145532D01*
X0082097Y0144861D01*
X0082154Y0144189D01*
X0082196Y0143515D01*
X0082221Y0142841D01*
X0082229Y0142166D01*
X0082221Y0141491D01*
X0082196Y0140817D01*
X0082154Y0140143D01*
X0082097Y0139471D01*
X0082022Y0138800D01*
X0081931Y0138131D01*
X0081824Y0137465D01*
X0081701Y0136801D01*
X0081561Y0136141D01*
X0081405Y0135484D01*
X0081233Y0134831D01*
X0081045Y0134183D01*
X0080841Y0133540D01*
X0080621Y0132902D01*
X0080386Y0132269D01*
X0080136Y0131642D01*
X0079870Y0131022D01*
X0079589Y0130408D01*
X0079293Y0129802D01*
X0078982Y0129203D01*
X0078656Y0128611D01*
X0078317Y0128028D01*
X0077962Y0127454D01*
X0077594Y0126888D01*
X0077213Y0126331D01*
X0076817Y0125784D01*
X0076409Y0125247D01*
X0075987Y0124720D01*
X0075552Y0124204D01*
X0075105Y0123698D01*
X0074646Y0123204D01*
X0074174Y0122721D01*
X0073691Y0122249D01*
X0073197Y0121790D01*
X0072691Y0121343D01*
X0072175Y0120908D01*
X0071648Y0120486D01*
X0071111Y0120078D01*
X0070564Y0119682D01*
X0070007Y0119301D01*
X0069441Y0118933D01*
X0068867Y0118578D01*
X0068284Y0118239D01*
X0067692Y0117913D01*
X0067093Y0117602D01*
X0066487Y0117306D01*
X0065873Y0117025D01*
X0065253Y0116759D01*
X0064626Y0116509D01*
X0063993Y0116274D01*
X0063355Y0116054D01*
X0062712Y0115850D01*
X0062064Y0115662D01*
X0061411Y0115490D01*
X0060754Y0115334D01*
X0060094Y0115194D01*
X0059430Y0115071D01*
X0058764Y0114964D01*
X0058095Y0114873D01*
X0057424Y0114798D01*
X0056752Y0114741D01*
X0056078Y0114699D01*
X0055404Y0114674D01*
X0054729Y0114666D01*
X0054054Y0114674D01*
X0053380Y0114699D01*
X0052706Y0114741D01*
X0052034Y0114798D01*
X0051363Y0114873D01*
X0050694Y0114964D01*
X0050028Y0115071D01*
X0049364Y0115194D01*
X0048704Y0115334D01*
X0048047Y0115490D01*
X0047394Y0115662D01*
X0046746Y0115850D01*
X0046103Y0116054D01*
X0045465Y0116274D01*
X0044832Y0116509D01*
X0044205Y0116759D01*
X0043585Y0117025D01*
X0042971Y0117306D01*
X0042365Y0117602D01*
X0041766Y0117913D01*
X0041174Y0118239D01*
X0040591Y0118578D01*
X0040017Y0118933D01*
X0039451Y0119301D01*
X0038894Y0119682D01*
X0038347Y0120078D01*
X0037810Y0120486D01*
X0037283Y0120908D01*
X0036767Y0121343D01*
X0036261Y0121790D01*
X0035767Y0122249D01*
X0035284Y0122721D01*
X0034812Y0123204D01*
X0034353Y0123698D01*
X0033906Y0124204D01*
X0033471Y0124720D01*
X0033049Y0125247D01*
X0032641Y0125784D01*
X0032245Y0126331D01*
X0031864Y0126888D01*
X0031496Y0127454D01*
X0031141Y0128028D01*
X0030802Y0128611D01*
X0030476Y0129203D01*
X0030165Y0129802D01*
X0029869Y0130408D01*
X0029588Y0131022D01*
X0029322Y0131642D01*
X0029072Y0132269D01*
X0028837Y0132902D01*
X0028617Y0133540D01*
X0028413Y0134183D01*
X0028225Y0134831D01*
X0028053Y0135484D01*
X0027897Y0136141D01*
X0027757Y0136801D01*
X0027634Y0137465D01*
X0027527Y0138131D01*
X0027436Y0138800D01*
X0027361Y0139471D01*
X0027304Y0140143D01*
X0027262Y0140817D01*
X0027237Y0141491D01*
X0027229Y0142166D01*
X0051547Y0145348D02*
X0052961Y0143934D01*
X0066345Y0178300D02*
X0106345Y0178300D01*
X0106345Y0200300D01*
X0066345Y0200300D01*
X0066345Y0178300D01*
X0077345Y0189300D02*
X0086345Y0189300D01*
X0086345Y0191600D01*
X0086345Y0189300D02*
X0081845Y0191600D01*
X0081845Y0187000D01*
X0086345Y0189300D01*
X0086345Y0187000D01*
X0086345Y0189300D02*
X0091345Y0189300D01*
X0084188Y0214599D02*
X0123487Y0214599D01*
X0123487Y0215398D01*
X0084188Y0215398D01*
X0084188Y0241398D01*
X0084188Y0250800D01*
X0123487Y0250800D01*
X0123487Y0241398D01*
X0123487Y0215398D01*
X0111688Y0220600D02*
X0111690Y0220689D01*
X0111696Y0220778D01*
X0111706Y0220867D01*
X0111720Y0220955D01*
X0111737Y0221042D01*
X0111759Y0221128D01*
X0111785Y0221214D01*
X0111814Y0221298D01*
X0111847Y0221381D01*
X0111883Y0221462D01*
X0111924Y0221542D01*
X0111967Y0221619D01*
X0112014Y0221695D01*
X0112065Y0221768D01*
X0112118Y0221839D01*
X0112175Y0221908D01*
X0112235Y0221974D01*
X0112298Y0222038D01*
X0112363Y0222098D01*
X0112431Y0222156D01*
X0112502Y0222210D01*
X0112575Y0222261D01*
X0112650Y0222309D01*
X0112727Y0222354D01*
X0112806Y0222395D01*
X0112887Y0222432D01*
X0112969Y0222466D01*
X0113053Y0222497D01*
X0113138Y0222523D01*
X0113224Y0222546D01*
X0113311Y0222564D01*
X0113399Y0222579D01*
X0113488Y0222590D01*
X0113577Y0222597D01*
X0113666Y0222600D01*
X0113755Y0222599D01*
X0113844Y0222594D01*
X0113932Y0222585D01*
X0114021Y0222572D01*
X0114108Y0222555D01*
X0114195Y0222535D01*
X0114281Y0222510D01*
X0114365Y0222482D01*
X0114448Y0222450D01*
X0114530Y0222414D01*
X0114610Y0222375D01*
X0114688Y0222332D01*
X0114764Y0222286D01*
X0114838Y0222236D01*
X0114910Y0222183D01*
X0114979Y0222127D01*
X0115046Y0222068D01*
X0115110Y0222006D01*
X0115171Y0221942D01*
X0115230Y0221874D01*
X0115285Y0221804D01*
X0115337Y0221732D01*
X0115386Y0221657D01*
X0115431Y0221581D01*
X0115473Y0221502D01*
X0115511Y0221422D01*
X0115546Y0221340D01*
X0115577Y0221256D01*
X0115605Y0221171D01*
X0115628Y0221085D01*
X0115648Y0220998D01*
X0115664Y0220911D01*
X0115676Y0220822D01*
X0115684Y0220734D01*
X0115688Y0220645D01*
X0115688Y0220555D01*
X0115684Y0220466D01*
X0115676Y0220378D01*
X0115664Y0220289D01*
X0115648Y0220202D01*
X0115628Y0220115D01*
X0115605Y0220029D01*
X0115577Y0219944D01*
X0115546Y0219860D01*
X0115511Y0219778D01*
X0115473Y0219698D01*
X0115431Y0219619D01*
X0115386Y0219543D01*
X0115337Y0219468D01*
X0115285Y0219396D01*
X0115230Y0219326D01*
X0115171Y0219258D01*
X0115110Y0219194D01*
X0115046Y0219132D01*
X0114979Y0219073D01*
X0114910Y0219017D01*
X0114838Y0218964D01*
X0114764Y0218914D01*
X0114688Y0218868D01*
X0114610Y0218825D01*
X0114530Y0218786D01*
X0114448Y0218750D01*
X0114365Y0218718D01*
X0114281Y0218690D01*
X0114195Y0218665D01*
X0114108Y0218645D01*
X0114021Y0218628D01*
X0113932Y0218615D01*
X0113844Y0218606D01*
X0113755Y0218601D01*
X0113666Y0218600D01*
X0113577Y0218603D01*
X0113488Y0218610D01*
X0113399Y0218621D01*
X0113311Y0218636D01*
X0113224Y0218654D01*
X0113138Y0218677D01*
X0113053Y0218703D01*
X0112969Y0218734D01*
X0112887Y0218768D01*
X0112806Y0218805D01*
X0112727Y0218846D01*
X0112650Y0218891D01*
X0112575Y0218939D01*
X0112502Y0218990D01*
X0112431Y0219044D01*
X0112363Y0219102D01*
X0112298Y0219162D01*
X0112235Y0219226D01*
X0112175Y0219292D01*
X0112118Y0219361D01*
X0112065Y0219432D01*
X0112014Y0219505D01*
X0111967Y0219581D01*
X0111924Y0219658D01*
X0111883Y0219738D01*
X0111847Y0219819D01*
X0111814Y0219902D01*
X0111785Y0219986D01*
X0111759Y0220072D01*
X0111737Y0220158D01*
X0111720Y0220245D01*
X0111706Y0220333D01*
X0111696Y0220422D01*
X0111690Y0220511D01*
X0111688Y0220600D01*
X0091988Y0220600D02*
X0091990Y0220689D01*
X0091996Y0220778D01*
X0092006Y0220867D01*
X0092020Y0220955D01*
X0092037Y0221042D01*
X0092059Y0221128D01*
X0092085Y0221214D01*
X0092114Y0221298D01*
X0092147Y0221381D01*
X0092183Y0221462D01*
X0092224Y0221542D01*
X0092267Y0221619D01*
X0092314Y0221695D01*
X0092365Y0221768D01*
X0092418Y0221839D01*
X0092475Y0221908D01*
X0092535Y0221974D01*
X0092598Y0222038D01*
X0092663Y0222098D01*
X0092731Y0222156D01*
X0092802Y0222210D01*
X0092875Y0222261D01*
X0092950Y0222309D01*
X0093027Y0222354D01*
X0093106Y0222395D01*
X0093187Y0222432D01*
X0093269Y0222466D01*
X0093353Y0222497D01*
X0093438Y0222523D01*
X0093524Y0222546D01*
X0093611Y0222564D01*
X0093699Y0222579D01*
X0093788Y0222590D01*
X0093877Y0222597D01*
X0093966Y0222600D01*
X0094055Y0222599D01*
X0094144Y0222594D01*
X0094232Y0222585D01*
X0094321Y0222572D01*
X0094408Y0222555D01*
X0094495Y0222535D01*
X0094581Y0222510D01*
X0094665Y0222482D01*
X0094748Y0222450D01*
X0094830Y0222414D01*
X0094910Y0222375D01*
X0094988Y0222332D01*
X0095064Y0222286D01*
X0095138Y0222236D01*
X0095210Y0222183D01*
X0095279Y0222127D01*
X0095346Y0222068D01*
X0095410Y0222006D01*
X0095471Y0221942D01*
X0095530Y0221874D01*
X0095585Y0221804D01*
X0095637Y0221732D01*
X0095686Y0221657D01*
X0095731Y0221581D01*
X0095773Y0221502D01*
X0095811Y0221422D01*
X0095846Y0221340D01*
X0095877Y0221256D01*
X0095905Y0221171D01*
X0095928Y0221085D01*
X0095948Y0220998D01*
X0095964Y0220911D01*
X0095976Y0220822D01*
X0095984Y0220734D01*
X0095988Y0220645D01*
X0095988Y0220555D01*
X0095984Y0220466D01*
X0095976Y0220378D01*
X0095964Y0220289D01*
X0095948Y0220202D01*
X0095928Y0220115D01*
X0095905Y0220029D01*
X0095877Y0219944D01*
X0095846Y0219860D01*
X0095811Y0219778D01*
X0095773Y0219698D01*
X0095731Y0219619D01*
X0095686Y0219543D01*
X0095637Y0219468D01*
X0095585Y0219396D01*
X0095530Y0219326D01*
X0095471Y0219258D01*
X0095410Y0219194D01*
X0095346Y0219132D01*
X0095279Y0219073D01*
X0095210Y0219017D01*
X0095138Y0218964D01*
X0095064Y0218914D01*
X0094988Y0218868D01*
X0094910Y0218825D01*
X0094830Y0218786D01*
X0094748Y0218750D01*
X0094665Y0218718D01*
X0094581Y0218690D01*
X0094495Y0218665D01*
X0094408Y0218645D01*
X0094321Y0218628D01*
X0094232Y0218615D01*
X0094144Y0218606D01*
X0094055Y0218601D01*
X0093966Y0218600D01*
X0093877Y0218603D01*
X0093788Y0218610D01*
X0093699Y0218621D01*
X0093611Y0218636D01*
X0093524Y0218654D01*
X0093438Y0218677D01*
X0093353Y0218703D01*
X0093269Y0218734D01*
X0093187Y0218768D01*
X0093106Y0218805D01*
X0093027Y0218846D01*
X0092950Y0218891D01*
X0092875Y0218939D01*
X0092802Y0218990D01*
X0092731Y0219044D01*
X0092663Y0219102D01*
X0092598Y0219162D01*
X0092535Y0219226D01*
X0092475Y0219292D01*
X0092418Y0219361D01*
X0092365Y0219432D01*
X0092314Y0219505D01*
X0092267Y0219581D01*
X0092224Y0219658D01*
X0092183Y0219738D01*
X0092147Y0219819D01*
X0092114Y0219902D01*
X0092085Y0219986D01*
X0092059Y0220072D01*
X0092037Y0220158D01*
X0092020Y0220245D01*
X0092006Y0220333D01*
X0091996Y0220422D01*
X0091990Y0220511D01*
X0091988Y0220600D01*
X0084188Y0215398D02*
X0084188Y0214599D01*
X0084188Y0241398D02*
X0090487Y0241398D01*
X0097487Y0241398D02*
X0110188Y0241398D01*
X0117188Y0241398D02*
X0123487Y0241398D01*
X0138079Y0241477D02*
X0138079Y0250879D01*
X0197079Y0250879D01*
X0197079Y0241477D01*
X0197079Y0215477D01*
X0197079Y0214678D01*
X0138079Y0214678D01*
X0138079Y0215477D01*
X0138079Y0241477D01*
X0144379Y0241477D01*
X0151379Y0241477D02*
X0164079Y0241477D01*
X0171079Y0241477D02*
X0183780Y0241477D01*
X0190780Y0241477D02*
X0197079Y0241477D01*
X0185280Y0220679D02*
X0185282Y0220768D01*
X0185288Y0220857D01*
X0185298Y0220946D01*
X0185312Y0221034D01*
X0185329Y0221121D01*
X0185351Y0221207D01*
X0185377Y0221293D01*
X0185406Y0221377D01*
X0185439Y0221460D01*
X0185475Y0221541D01*
X0185516Y0221621D01*
X0185559Y0221698D01*
X0185606Y0221774D01*
X0185657Y0221847D01*
X0185710Y0221918D01*
X0185767Y0221987D01*
X0185827Y0222053D01*
X0185890Y0222117D01*
X0185955Y0222177D01*
X0186023Y0222235D01*
X0186094Y0222289D01*
X0186167Y0222340D01*
X0186242Y0222388D01*
X0186319Y0222433D01*
X0186398Y0222474D01*
X0186479Y0222511D01*
X0186561Y0222545D01*
X0186645Y0222576D01*
X0186730Y0222602D01*
X0186816Y0222625D01*
X0186903Y0222643D01*
X0186991Y0222658D01*
X0187080Y0222669D01*
X0187169Y0222676D01*
X0187258Y0222679D01*
X0187347Y0222678D01*
X0187436Y0222673D01*
X0187524Y0222664D01*
X0187613Y0222651D01*
X0187700Y0222634D01*
X0187787Y0222614D01*
X0187873Y0222589D01*
X0187957Y0222561D01*
X0188040Y0222529D01*
X0188122Y0222493D01*
X0188202Y0222454D01*
X0188280Y0222411D01*
X0188356Y0222365D01*
X0188430Y0222315D01*
X0188502Y0222262D01*
X0188571Y0222206D01*
X0188638Y0222147D01*
X0188702Y0222085D01*
X0188763Y0222021D01*
X0188822Y0221953D01*
X0188877Y0221883D01*
X0188929Y0221811D01*
X0188978Y0221736D01*
X0189023Y0221660D01*
X0189065Y0221581D01*
X0189103Y0221501D01*
X0189138Y0221419D01*
X0189169Y0221335D01*
X0189197Y0221250D01*
X0189220Y0221164D01*
X0189240Y0221077D01*
X0189256Y0220990D01*
X0189268Y0220901D01*
X0189276Y0220813D01*
X0189280Y0220724D01*
X0189280Y0220634D01*
X0189276Y0220545D01*
X0189268Y0220457D01*
X0189256Y0220368D01*
X0189240Y0220281D01*
X0189220Y0220194D01*
X0189197Y0220108D01*
X0189169Y0220023D01*
X0189138Y0219939D01*
X0189103Y0219857D01*
X0189065Y0219777D01*
X0189023Y0219698D01*
X0188978Y0219622D01*
X0188929Y0219547D01*
X0188877Y0219475D01*
X0188822Y0219405D01*
X0188763Y0219337D01*
X0188702Y0219273D01*
X0188638Y0219211D01*
X0188571Y0219152D01*
X0188502Y0219096D01*
X0188430Y0219043D01*
X0188356Y0218993D01*
X0188280Y0218947D01*
X0188202Y0218904D01*
X0188122Y0218865D01*
X0188040Y0218829D01*
X0187957Y0218797D01*
X0187873Y0218769D01*
X0187787Y0218744D01*
X0187700Y0218724D01*
X0187613Y0218707D01*
X0187524Y0218694D01*
X0187436Y0218685D01*
X0187347Y0218680D01*
X0187258Y0218679D01*
X0187169Y0218682D01*
X0187080Y0218689D01*
X0186991Y0218700D01*
X0186903Y0218715D01*
X0186816Y0218733D01*
X0186730Y0218756D01*
X0186645Y0218782D01*
X0186561Y0218813D01*
X0186479Y0218847D01*
X0186398Y0218884D01*
X0186319Y0218925D01*
X0186242Y0218970D01*
X0186167Y0219018D01*
X0186094Y0219069D01*
X0186023Y0219123D01*
X0185955Y0219181D01*
X0185890Y0219241D01*
X0185827Y0219305D01*
X0185767Y0219371D01*
X0185710Y0219440D01*
X0185657Y0219511D01*
X0185606Y0219584D01*
X0185559Y0219660D01*
X0185516Y0219737D01*
X0185475Y0219817D01*
X0185439Y0219898D01*
X0185406Y0219981D01*
X0185377Y0220065D01*
X0185351Y0220151D01*
X0185329Y0220237D01*
X0185312Y0220324D01*
X0185298Y0220412D01*
X0185288Y0220501D01*
X0185282Y0220590D01*
X0185280Y0220679D01*
X0185395Y0212255D02*
X0185395Y0207985D01*
X0187530Y0205850D01*
X0189665Y0207985D01*
X0189665Y0212255D01*
X0197079Y0215477D02*
X0138079Y0215477D01*
X0145395Y0212255D02*
X0145395Y0205850D01*
X0147530Y0207985D01*
X0149665Y0205850D01*
X0149665Y0212255D01*
X0145880Y0220679D02*
X0145882Y0220768D01*
X0145888Y0220857D01*
X0145898Y0220946D01*
X0145912Y0221034D01*
X0145929Y0221121D01*
X0145951Y0221207D01*
X0145977Y0221293D01*
X0146006Y0221377D01*
X0146039Y0221460D01*
X0146075Y0221541D01*
X0146116Y0221621D01*
X0146159Y0221698D01*
X0146206Y0221774D01*
X0146257Y0221847D01*
X0146310Y0221918D01*
X0146367Y0221987D01*
X0146427Y0222053D01*
X0146490Y0222117D01*
X0146555Y0222177D01*
X0146623Y0222235D01*
X0146694Y0222289D01*
X0146767Y0222340D01*
X0146842Y0222388D01*
X0146919Y0222433D01*
X0146998Y0222474D01*
X0147079Y0222511D01*
X0147161Y0222545D01*
X0147245Y0222576D01*
X0147330Y0222602D01*
X0147416Y0222625D01*
X0147503Y0222643D01*
X0147591Y0222658D01*
X0147680Y0222669D01*
X0147769Y0222676D01*
X0147858Y0222679D01*
X0147947Y0222678D01*
X0148036Y0222673D01*
X0148124Y0222664D01*
X0148213Y0222651D01*
X0148300Y0222634D01*
X0148387Y0222614D01*
X0148473Y0222589D01*
X0148557Y0222561D01*
X0148640Y0222529D01*
X0148722Y0222493D01*
X0148802Y0222454D01*
X0148880Y0222411D01*
X0148956Y0222365D01*
X0149030Y0222315D01*
X0149102Y0222262D01*
X0149171Y0222206D01*
X0149238Y0222147D01*
X0149302Y0222085D01*
X0149363Y0222021D01*
X0149422Y0221953D01*
X0149477Y0221883D01*
X0149529Y0221811D01*
X0149578Y0221736D01*
X0149623Y0221660D01*
X0149665Y0221581D01*
X0149703Y0221501D01*
X0149738Y0221419D01*
X0149769Y0221335D01*
X0149797Y0221250D01*
X0149820Y0221164D01*
X0149840Y0221077D01*
X0149856Y0220990D01*
X0149868Y0220901D01*
X0149876Y0220813D01*
X0149880Y0220724D01*
X0149880Y0220634D01*
X0149876Y0220545D01*
X0149868Y0220457D01*
X0149856Y0220368D01*
X0149840Y0220281D01*
X0149820Y0220194D01*
X0149797Y0220108D01*
X0149769Y0220023D01*
X0149738Y0219939D01*
X0149703Y0219857D01*
X0149665Y0219777D01*
X0149623Y0219698D01*
X0149578Y0219622D01*
X0149529Y0219547D01*
X0149477Y0219475D01*
X0149422Y0219405D01*
X0149363Y0219337D01*
X0149302Y0219273D01*
X0149238Y0219211D01*
X0149171Y0219152D01*
X0149102Y0219096D01*
X0149030Y0219043D01*
X0148956Y0218993D01*
X0148880Y0218947D01*
X0148802Y0218904D01*
X0148722Y0218865D01*
X0148640Y0218829D01*
X0148557Y0218797D01*
X0148473Y0218769D01*
X0148387Y0218744D01*
X0148300Y0218724D01*
X0148213Y0218707D01*
X0148124Y0218694D01*
X0148036Y0218685D01*
X0147947Y0218680D01*
X0147858Y0218679D01*
X0147769Y0218682D01*
X0147680Y0218689D01*
X0147591Y0218700D01*
X0147503Y0218715D01*
X0147416Y0218733D01*
X0147330Y0218756D01*
X0147245Y0218782D01*
X0147161Y0218813D01*
X0147079Y0218847D01*
X0146998Y0218884D01*
X0146919Y0218925D01*
X0146842Y0218970D01*
X0146767Y0219018D01*
X0146694Y0219069D01*
X0146623Y0219123D01*
X0146555Y0219181D01*
X0146490Y0219241D01*
X0146427Y0219305D01*
X0146367Y0219371D01*
X0146310Y0219440D01*
X0146257Y0219511D01*
X0146206Y0219584D01*
X0146159Y0219660D01*
X0146116Y0219737D01*
X0146075Y0219817D01*
X0146039Y0219898D01*
X0146006Y0219981D01*
X0145977Y0220065D01*
X0145951Y0220151D01*
X0145929Y0220237D01*
X0145912Y0220324D01*
X0145898Y0220412D01*
X0145888Y0220501D01*
X0145882Y0220590D01*
X0145880Y0220679D01*
X0145095Y0203050D02*
X0150095Y0203050D01*
X0152595Y0200550D01*
X0155095Y0203050D01*
X0160095Y0203050D01*
X0162595Y0200550D01*
X0165095Y0203050D01*
X0170095Y0203050D01*
X0172595Y0200550D01*
X0175095Y0203050D01*
X0180095Y0203050D01*
X0182595Y0200550D01*
X0185095Y0203050D01*
X0190095Y0203050D01*
X0192595Y0200550D01*
X0192595Y0195550D01*
X0190095Y0193050D01*
X0185095Y0193050D01*
X0182595Y0195550D01*
X0180095Y0193050D01*
X0175095Y0193050D01*
X0172595Y0195550D01*
X0172595Y0200550D01*
X0172595Y0195550D02*
X0170095Y0193050D01*
X0165095Y0193050D01*
X0162595Y0195550D01*
X0160095Y0193050D01*
X0155095Y0193050D01*
X0152595Y0195550D01*
X0150095Y0193050D01*
X0145095Y0193050D01*
X0142595Y0195550D01*
X0142595Y0200550D01*
X0145095Y0203050D01*
X0152595Y0200550D02*
X0152595Y0195550D01*
X0162595Y0195550D02*
X0162595Y0200550D01*
X0166463Y0205850D02*
X0168598Y0205850D01*
X0169665Y0206918D01*
X0169665Y0212255D01*
X0165395Y0212255D02*
X0165395Y0206918D01*
X0166463Y0205850D01*
X0182595Y0200550D02*
X0182595Y0195550D01*
X0165580Y0220679D02*
X0165582Y0220768D01*
X0165588Y0220857D01*
X0165598Y0220946D01*
X0165612Y0221034D01*
X0165629Y0221121D01*
X0165651Y0221207D01*
X0165677Y0221293D01*
X0165706Y0221377D01*
X0165739Y0221460D01*
X0165775Y0221541D01*
X0165816Y0221621D01*
X0165859Y0221698D01*
X0165906Y0221774D01*
X0165957Y0221847D01*
X0166010Y0221918D01*
X0166067Y0221987D01*
X0166127Y0222053D01*
X0166190Y0222117D01*
X0166255Y0222177D01*
X0166323Y0222235D01*
X0166394Y0222289D01*
X0166467Y0222340D01*
X0166542Y0222388D01*
X0166619Y0222433D01*
X0166698Y0222474D01*
X0166779Y0222511D01*
X0166861Y0222545D01*
X0166945Y0222576D01*
X0167030Y0222602D01*
X0167116Y0222625D01*
X0167203Y0222643D01*
X0167291Y0222658D01*
X0167380Y0222669D01*
X0167469Y0222676D01*
X0167558Y0222679D01*
X0167647Y0222678D01*
X0167736Y0222673D01*
X0167824Y0222664D01*
X0167913Y0222651D01*
X0168000Y0222634D01*
X0168087Y0222614D01*
X0168173Y0222589D01*
X0168257Y0222561D01*
X0168340Y0222529D01*
X0168422Y0222493D01*
X0168502Y0222454D01*
X0168580Y0222411D01*
X0168656Y0222365D01*
X0168730Y0222315D01*
X0168802Y0222262D01*
X0168871Y0222206D01*
X0168938Y0222147D01*
X0169002Y0222085D01*
X0169063Y0222021D01*
X0169122Y0221953D01*
X0169177Y0221883D01*
X0169229Y0221811D01*
X0169278Y0221736D01*
X0169323Y0221660D01*
X0169365Y0221581D01*
X0169403Y0221501D01*
X0169438Y0221419D01*
X0169469Y0221335D01*
X0169497Y0221250D01*
X0169520Y0221164D01*
X0169540Y0221077D01*
X0169556Y0220990D01*
X0169568Y0220901D01*
X0169576Y0220813D01*
X0169580Y0220724D01*
X0169580Y0220634D01*
X0169576Y0220545D01*
X0169568Y0220457D01*
X0169556Y0220368D01*
X0169540Y0220281D01*
X0169520Y0220194D01*
X0169497Y0220108D01*
X0169469Y0220023D01*
X0169438Y0219939D01*
X0169403Y0219857D01*
X0169365Y0219777D01*
X0169323Y0219698D01*
X0169278Y0219622D01*
X0169229Y0219547D01*
X0169177Y0219475D01*
X0169122Y0219405D01*
X0169063Y0219337D01*
X0169002Y0219273D01*
X0168938Y0219211D01*
X0168871Y0219152D01*
X0168802Y0219096D01*
X0168730Y0219043D01*
X0168656Y0218993D01*
X0168580Y0218947D01*
X0168502Y0218904D01*
X0168422Y0218865D01*
X0168340Y0218829D01*
X0168257Y0218797D01*
X0168173Y0218769D01*
X0168087Y0218744D01*
X0168000Y0218724D01*
X0167913Y0218707D01*
X0167824Y0218694D01*
X0167736Y0218685D01*
X0167647Y0218680D01*
X0167558Y0218679D01*
X0167469Y0218682D01*
X0167380Y0218689D01*
X0167291Y0218700D01*
X0167203Y0218715D01*
X0167116Y0218733D01*
X0167030Y0218756D01*
X0166945Y0218782D01*
X0166861Y0218813D01*
X0166779Y0218847D01*
X0166698Y0218884D01*
X0166619Y0218925D01*
X0166542Y0218970D01*
X0166467Y0219018D01*
X0166394Y0219069D01*
X0166323Y0219123D01*
X0166255Y0219181D01*
X0166190Y0219241D01*
X0166127Y0219305D01*
X0166067Y0219371D01*
X0166010Y0219440D01*
X0165957Y0219511D01*
X0165906Y0219584D01*
X0165859Y0219660D01*
X0165816Y0219737D01*
X0165775Y0219817D01*
X0165739Y0219898D01*
X0165706Y0219981D01*
X0165677Y0220065D01*
X0165651Y0220151D01*
X0165629Y0220237D01*
X0165612Y0220324D01*
X0165598Y0220412D01*
X0165588Y0220501D01*
X0165582Y0220590D01*
X0165580Y0220679D01*
X0227595Y0211800D02*
X0227595Y0206800D01*
X0230095Y0204300D01*
X0235095Y0204300D01*
X0237595Y0206800D01*
X0240095Y0204300D01*
X0245095Y0204300D01*
X0247595Y0206800D01*
X0250095Y0204300D01*
X0255095Y0204300D01*
X0257595Y0206800D01*
X0257595Y0211800D01*
X0255095Y0214300D01*
X0250095Y0214300D01*
X0247595Y0211800D01*
X0247595Y0206800D01*
X0251463Y0202255D02*
X0250395Y0201188D01*
X0250395Y0196918D01*
X0251463Y0195850D01*
X0253598Y0195850D01*
X0254665Y0196918D01*
X0254665Y0201188D02*
X0253598Y0202255D01*
X0251463Y0202255D01*
X0244665Y0201188D02*
X0244665Y0200120D01*
X0243598Y0199053D01*
X0240395Y0199053D01*
X0240395Y0202255D02*
X0240395Y0195850D01*
X0243598Y0195850D01*
X0244665Y0196918D01*
X0244665Y0197985D01*
X0243598Y0199053D01*
X0244665Y0201188D02*
X0243598Y0202255D01*
X0240395Y0202255D01*
X0237595Y0206800D02*
X0237595Y0211800D01*
X0240095Y0214300D01*
X0245095Y0214300D01*
X0247595Y0211800D01*
X0237595Y0211800D02*
X0235095Y0214300D01*
X0230095Y0214300D01*
X0227595Y0211800D01*
X0232530Y0202255D02*
X0234665Y0200120D01*
X0234665Y0195850D01*
X0234665Y0199053D02*
X0230395Y0199053D01*
X0230395Y0200120D02*
X0230395Y0195850D01*
X0230395Y0200120D02*
X0232530Y0202255D01*
X0266345Y0233050D02*
X0268845Y0230550D01*
X0273845Y0230550D01*
X0276345Y0233050D01*
X0278845Y0230550D01*
X0283845Y0230550D01*
X0286345Y0233050D01*
X0286345Y0238050D01*
X0283845Y0240550D01*
X0278845Y0240550D01*
X0276345Y0238050D01*
X0276345Y0233050D01*
X0276345Y0238050D02*
X0273845Y0240550D01*
X0268845Y0240550D01*
X0266345Y0238050D01*
X0266345Y0233050D01*
X0286345Y0233050D02*
X0288845Y0230550D01*
X0293845Y0230550D01*
X0296345Y0233050D01*
X0298845Y0230550D01*
X0303845Y0230550D01*
X0306345Y0233050D01*
X0306345Y0238050D01*
X0303845Y0240550D01*
X0298845Y0240550D01*
X0296345Y0238050D01*
X0296345Y0233050D01*
X0296345Y0238050D02*
X0293845Y0240550D01*
X0288845Y0240550D01*
X0286345Y0238050D01*
X0292595Y0216800D02*
X0290095Y0214300D01*
X0290095Y0209300D01*
X0292595Y0206800D01*
X0297595Y0206800D01*
X0300095Y0209300D01*
X0302595Y0206800D01*
X0307595Y0206800D01*
X0310095Y0209300D01*
X0310095Y0214300D01*
X0307595Y0216800D01*
X0302595Y0216800D01*
X0300095Y0214300D01*
X0300095Y0209300D01*
X0300095Y0214300D01*
X0297595Y0216800D01*
X0292595Y0216800D01*
X0315095Y0185550D02*
X0330095Y0185550D01*
X0332595Y0183050D01*
X0332595Y0178050D01*
X0330095Y0175550D01*
X0315095Y0175550D01*
X0312595Y0173050D01*
X0312595Y0168050D01*
X0315095Y0165550D01*
X0330095Y0165550D01*
X0332595Y0163050D01*
X0332595Y0158050D01*
X0330095Y0155550D01*
X0315095Y0155550D01*
X0312595Y0153050D01*
X0312595Y0148050D01*
X0315095Y0145550D01*
X0330095Y0145550D01*
X0332595Y0143050D01*
X0332595Y0138050D01*
X0330095Y0135550D01*
X0315095Y0135550D01*
X0312595Y0133050D01*
X0312595Y0128050D01*
X0315095Y0125550D01*
X0330095Y0125550D01*
X0332595Y0123050D01*
X0332595Y0118050D01*
X0330095Y0115550D01*
X0315095Y0115550D01*
X0312595Y0118050D01*
X0312595Y0123050D01*
X0315095Y0125550D01*
X0315095Y0135550D02*
X0312595Y0138050D01*
X0312595Y0143050D01*
X0315095Y0145550D01*
X0315095Y0155550D02*
X0312595Y0158050D01*
X0312595Y0163050D01*
X0315095Y0165550D01*
X0315095Y0175550D02*
X0312595Y0178050D01*
X0312595Y0183050D01*
X0315095Y0185550D01*
X0330095Y0175550D02*
X0332595Y0173050D01*
X0332595Y0168050D01*
X0330095Y0165550D01*
X0330095Y0155550D02*
X0332595Y0153050D01*
X0332595Y0148050D01*
X0330095Y0145550D01*
X0330095Y0135550D02*
X0332595Y0133050D01*
X0332595Y0128050D01*
X0330095Y0125550D01*
X0330095Y0115550D02*
X0332595Y0113050D01*
X0332595Y0108050D01*
X0330095Y0105550D01*
X0315095Y0105550D01*
X0312595Y0108050D01*
X0312595Y0113050D01*
X0315095Y0115550D01*
X0315095Y0105550D02*
X0312595Y0103050D01*
X0312595Y0098050D01*
X0315095Y0095550D01*
X0312595Y0093050D01*
X0312595Y0088050D01*
X0315095Y0085550D01*
X0330095Y0085550D01*
X0332595Y0088050D01*
X0332595Y0093050D01*
X0330095Y0095550D01*
X0315095Y0095550D01*
X0330095Y0095550D02*
X0332595Y0098050D01*
X0332595Y0103050D01*
X0330095Y0105550D01*
X0324095Y0231800D02*
X0324099Y0232131D01*
X0324111Y0232462D01*
X0324132Y0232793D01*
X0324160Y0233123D01*
X0324197Y0233453D01*
X0324241Y0233781D01*
X0324294Y0234108D01*
X0324354Y0234434D01*
X0324423Y0234758D01*
X0324500Y0235080D01*
X0324584Y0235401D01*
X0324676Y0235719D01*
X0324776Y0236035D01*
X0324884Y0236348D01*
X0325000Y0236659D01*
X0325123Y0236966D01*
X0325253Y0237271D01*
X0325391Y0237572D01*
X0325536Y0237870D01*
X0325689Y0238164D01*
X0325849Y0238454D01*
X0326016Y0238740D01*
X0326189Y0239022D01*
X0326370Y0239300D01*
X0326558Y0239573D01*
X0326752Y0239842D01*
X0326952Y0240106D01*
X0327159Y0240364D01*
X0327373Y0240618D01*
X0327592Y0240866D01*
X0327818Y0241109D01*
X0328049Y0241346D01*
X0328286Y0241577D01*
X0328529Y0241803D01*
X0328777Y0242022D01*
X0329031Y0242236D01*
X0329289Y0242443D01*
X0329553Y0242643D01*
X0329822Y0242837D01*
X0330095Y0243025D01*
X0330373Y0243206D01*
X0330655Y0243379D01*
X0330941Y0243546D01*
X0331231Y0243706D01*
X0331525Y0243859D01*
X0331823Y0244004D01*
X0332124Y0244142D01*
X0332429Y0244272D01*
X0332736Y0244395D01*
X0333047Y0244511D01*
X0333360Y0244619D01*
X0333676Y0244719D01*
X0333994Y0244811D01*
X0334315Y0244895D01*
X0334637Y0244972D01*
X0334961Y0245041D01*
X0335287Y0245101D01*
X0335614Y0245154D01*
X0335942Y0245198D01*
X0336272Y0245235D01*
X0336602Y0245263D01*
X0336933Y0245284D01*
X0337264Y0245296D01*
X0337595Y0245300D01*
X0337926Y0245296D01*
X0338257Y0245284D01*
X0338588Y0245263D01*
X0338918Y0245235D01*
X0339248Y0245198D01*
X0339576Y0245154D01*
X0339903Y0245101D01*
X0340229Y0245041D01*
X0340553Y0244972D01*
X0340875Y0244895D01*
X0341196Y0244811D01*
X0341514Y0244719D01*
X0341830Y0244619D01*
X0342143Y0244511D01*
X0342454Y0244395D01*
X0342761Y0244272D01*
X0343066Y0244142D01*
X0343367Y0244004D01*
X0343665Y0243859D01*
X0343959Y0243706D01*
X0344249Y0243546D01*
X0344535Y0243379D01*
X0344817Y0243206D01*
X0345095Y0243025D01*
X0345368Y0242837D01*
X0345637Y0242643D01*
X0345901Y0242443D01*
X0346159Y0242236D01*
X0346413Y0242022D01*
X0346661Y0241803D01*
X0346904Y0241577D01*
X0347141Y0241346D01*
X0347372Y0241109D01*
X0347598Y0240866D01*
X0347817Y0240618D01*
X0348031Y0240364D01*
X0348238Y0240106D01*
X0348438Y0239842D01*
X0348632Y0239573D01*
X0348820Y0239300D01*
X0349001Y0239022D01*
X0349174Y0238740D01*
X0349341Y0238454D01*
X0349501Y0238164D01*
X0349654Y0237870D01*
X0349799Y0237572D01*
X0349937Y0237271D01*
X0350067Y0236966D01*
X0350190Y0236659D01*
X0350306Y0236348D01*
X0350414Y0236035D01*
X0350514Y0235719D01*
X0350606Y0235401D01*
X0350690Y0235080D01*
X0350767Y0234758D01*
X0350836Y0234434D01*
X0350896Y0234108D01*
X0350949Y0233781D01*
X0350993Y0233453D01*
X0351030Y0233123D01*
X0351058Y0232793D01*
X0351079Y0232462D01*
X0351091Y0232131D01*
X0351095Y0231800D01*
X0351091Y0231469D01*
X0351079Y0231138D01*
X0351058Y0230807D01*
X0351030Y0230477D01*
X0350993Y0230147D01*
X0350949Y0229819D01*
X0350896Y0229492D01*
X0350836Y0229166D01*
X0350767Y0228842D01*
X0350690Y0228520D01*
X0350606Y0228199D01*
X0350514Y0227881D01*
X0350414Y0227565D01*
X0350306Y0227252D01*
X0350190Y0226941D01*
X0350067Y0226634D01*
X0349937Y0226329D01*
X0349799Y0226028D01*
X0349654Y0225730D01*
X0349501Y0225436D01*
X0349341Y0225146D01*
X0349174Y0224860D01*
X0349001Y0224578D01*
X0348820Y0224300D01*
X0348632Y0224027D01*
X0348438Y0223758D01*
X0348238Y0223494D01*
X0348031Y0223236D01*
X0347817Y0222982D01*
X0347598Y0222734D01*
X0347372Y0222491D01*
X0347141Y0222254D01*
X0346904Y0222023D01*
X0346661Y0221797D01*
X0346413Y0221578D01*
X0346159Y0221364D01*
X0345901Y0221157D01*
X0345637Y0220957D01*
X0345368Y0220763D01*
X0345095Y0220575D01*
X0344817Y0220394D01*
X0344535Y0220221D01*
X0344249Y0220054D01*
X0343959Y0219894D01*
X0343665Y0219741D01*
X0343367Y0219596D01*
X0343066Y0219458D01*
X0342761Y0219328D01*
X0342454Y0219205D01*
X0342143Y0219089D01*
X0341830Y0218981D01*
X0341514Y0218881D01*
X0341196Y0218789D01*
X0340875Y0218705D01*
X0340553Y0218628D01*
X0340229Y0218559D01*
X0339903Y0218499D01*
X0339576Y0218446D01*
X0339248Y0218402D01*
X0338918Y0218365D01*
X0338588Y0218337D01*
X0338257Y0218316D01*
X0337926Y0218304D01*
X0337595Y0218300D01*
X0337264Y0218304D01*
X0336933Y0218316D01*
X0336602Y0218337D01*
X0336272Y0218365D01*
X0335942Y0218402D01*
X0335614Y0218446D01*
X0335287Y0218499D01*
X0334961Y0218559D01*
X0334637Y0218628D01*
X0334315Y0218705D01*
X0333994Y0218789D01*
X0333676Y0218881D01*
X0333360Y0218981D01*
X0333047Y0219089D01*
X0332736Y0219205D01*
X0332429Y0219328D01*
X0332124Y0219458D01*
X0331823Y0219596D01*
X0331525Y0219741D01*
X0331231Y0219894D01*
X0330941Y0220054D01*
X0330655Y0220221D01*
X0330373Y0220394D01*
X0330095Y0220575D01*
X0329822Y0220763D01*
X0329553Y0220957D01*
X0329289Y0221157D01*
X0329031Y0221364D01*
X0328777Y0221578D01*
X0328529Y0221797D01*
X0328286Y0222023D01*
X0328049Y0222254D01*
X0327818Y0222491D01*
X0327592Y0222734D01*
X0327373Y0222982D01*
X0327159Y0223236D01*
X0326952Y0223494D01*
X0326752Y0223758D01*
X0326558Y0224027D01*
X0326370Y0224300D01*
X0326189Y0224578D01*
X0326016Y0224860D01*
X0325849Y0225146D01*
X0325689Y0225436D01*
X0325536Y0225730D01*
X0325391Y0226028D01*
X0325253Y0226329D01*
X0325123Y0226634D01*
X0325000Y0226941D01*
X0324884Y0227252D01*
X0324776Y0227565D01*
X0324676Y0227881D01*
X0324584Y0228199D01*
X0324500Y0228520D01*
X0324423Y0228842D01*
X0324354Y0229166D01*
X0324294Y0229492D01*
X0324241Y0229819D01*
X0324197Y0230147D01*
X0324160Y0230477D01*
X0324132Y0230807D01*
X0324111Y0231138D01*
X0324099Y0231469D01*
X0324095Y0231800D01*
X0034095Y0231800D02*
X0034099Y0232131D01*
X0034111Y0232462D01*
X0034132Y0232793D01*
X0034160Y0233123D01*
X0034197Y0233453D01*
X0034241Y0233781D01*
X0034294Y0234108D01*
X0034354Y0234434D01*
X0034423Y0234758D01*
X0034500Y0235080D01*
X0034584Y0235401D01*
X0034676Y0235719D01*
X0034776Y0236035D01*
X0034884Y0236348D01*
X0035000Y0236659D01*
X0035123Y0236966D01*
X0035253Y0237271D01*
X0035391Y0237572D01*
X0035536Y0237870D01*
X0035689Y0238164D01*
X0035849Y0238454D01*
X0036016Y0238740D01*
X0036189Y0239022D01*
X0036370Y0239300D01*
X0036558Y0239573D01*
X0036752Y0239842D01*
X0036952Y0240106D01*
X0037159Y0240364D01*
X0037373Y0240618D01*
X0037592Y0240866D01*
X0037818Y0241109D01*
X0038049Y0241346D01*
X0038286Y0241577D01*
X0038529Y0241803D01*
X0038777Y0242022D01*
X0039031Y0242236D01*
X0039289Y0242443D01*
X0039553Y0242643D01*
X0039822Y0242837D01*
X0040095Y0243025D01*
X0040373Y0243206D01*
X0040655Y0243379D01*
X0040941Y0243546D01*
X0041231Y0243706D01*
X0041525Y0243859D01*
X0041823Y0244004D01*
X0042124Y0244142D01*
X0042429Y0244272D01*
X0042736Y0244395D01*
X0043047Y0244511D01*
X0043360Y0244619D01*
X0043676Y0244719D01*
X0043994Y0244811D01*
X0044315Y0244895D01*
X0044637Y0244972D01*
X0044961Y0245041D01*
X0045287Y0245101D01*
X0045614Y0245154D01*
X0045942Y0245198D01*
X0046272Y0245235D01*
X0046602Y0245263D01*
X0046933Y0245284D01*
X0047264Y0245296D01*
X0047595Y0245300D01*
X0047926Y0245296D01*
X0048257Y0245284D01*
X0048588Y0245263D01*
X0048918Y0245235D01*
X0049248Y0245198D01*
X0049576Y0245154D01*
X0049903Y0245101D01*
X0050229Y0245041D01*
X0050553Y0244972D01*
X0050875Y0244895D01*
X0051196Y0244811D01*
X0051514Y0244719D01*
X0051830Y0244619D01*
X0052143Y0244511D01*
X0052454Y0244395D01*
X0052761Y0244272D01*
X0053066Y0244142D01*
X0053367Y0244004D01*
X0053665Y0243859D01*
X0053959Y0243706D01*
X0054249Y0243546D01*
X0054535Y0243379D01*
X0054817Y0243206D01*
X0055095Y0243025D01*
X0055368Y0242837D01*
X0055637Y0242643D01*
X0055901Y0242443D01*
X0056159Y0242236D01*
X0056413Y0242022D01*
X0056661Y0241803D01*
X0056904Y0241577D01*
X0057141Y0241346D01*
X0057372Y0241109D01*
X0057598Y0240866D01*
X0057817Y0240618D01*
X0058031Y0240364D01*
X0058238Y0240106D01*
X0058438Y0239842D01*
X0058632Y0239573D01*
X0058820Y0239300D01*
X0059001Y0239022D01*
X0059174Y0238740D01*
X0059341Y0238454D01*
X0059501Y0238164D01*
X0059654Y0237870D01*
X0059799Y0237572D01*
X0059937Y0237271D01*
X0060067Y0236966D01*
X0060190Y0236659D01*
X0060306Y0236348D01*
X0060414Y0236035D01*
X0060514Y0235719D01*
X0060606Y0235401D01*
X0060690Y0235080D01*
X0060767Y0234758D01*
X0060836Y0234434D01*
X0060896Y0234108D01*
X0060949Y0233781D01*
X0060993Y0233453D01*
X0061030Y0233123D01*
X0061058Y0232793D01*
X0061079Y0232462D01*
X0061091Y0232131D01*
X0061095Y0231800D01*
X0061091Y0231469D01*
X0061079Y0231138D01*
X0061058Y0230807D01*
X0061030Y0230477D01*
X0060993Y0230147D01*
X0060949Y0229819D01*
X0060896Y0229492D01*
X0060836Y0229166D01*
X0060767Y0228842D01*
X0060690Y0228520D01*
X0060606Y0228199D01*
X0060514Y0227881D01*
X0060414Y0227565D01*
X0060306Y0227252D01*
X0060190Y0226941D01*
X0060067Y0226634D01*
X0059937Y0226329D01*
X0059799Y0226028D01*
X0059654Y0225730D01*
X0059501Y0225436D01*
X0059341Y0225146D01*
X0059174Y0224860D01*
X0059001Y0224578D01*
X0058820Y0224300D01*
X0058632Y0224027D01*
X0058438Y0223758D01*
X0058238Y0223494D01*
X0058031Y0223236D01*
X0057817Y0222982D01*
X0057598Y0222734D01*
X0057372Y0222491D01*
X0057141Y0222254D01*
X0056904Y0222023D01*
X0056661Y0221797D01*
X0056413Y0221578D01*
X0056159Y0221364D01*
X0055901Y0221157D01*
X0055637Y0220957D01*
X0055368Y0220763D01*
X0055095Y0220575D01*
X0054817Y0220394D01*
X0054535Y0220221D01*
X0054249Y0220054D01*
X0053959Y0219894D01*
X0053665Y0219741D01*
X0053367Y0219596D01*
X0053066Y0219458D01*
X0052761Y0219328D01*
X0052454Y0219205D01*
X0052143Y0219089D01*
X0051830Y0218981D01*
X0051514Y0218881D01*
X0051196Y0218789D01*
X0050875Y0218705D01*
X0050553Y0218628D01*
X0050229Y0218559D01*
X0049903Y0218499D01*
X0049576Y0218446D01*
X0049248Y0218402D01*
X0048918Y0218365D01*
X0048588Y0218337D01*
X0048257Y0218316D01*
X0047926Y0218304D01*
X0047595Y0218300D01*
X0047264Y0218304D01*
X0046933Y0218316D01*
X0046602Y0218337D01*
X0046272Y0218365D01*
X0045942Y0218402D01*
X0045614Y0218446D01*
X0045287Y0218499D01*
X0044961Y0218559D01*
X0044637Y0218628D01*
X0044315Y0218705D01*
X0043994Y0218789D01*
X0043676Y0218881D01*
X0043360Y0218981D01*
X0043047Y0219089D01*
X0042736Y0219205D01*
X0042429Y0219328D01*
X0042124Y0219458D01*
X0041823Y0219596D01*
X0041525Y0219741D01*
X0041231Y0219894D01*
X0040941Y0220054D01*
X0040655Y0220221D01*
X0040373Y0220394D01*
X0040095Y0220575D01*
X0039822Y0220763D01*
X0039553Y0220957D01*
X0039289Y0221157D01*
X0039031Y0221364D01*
X0038777Y0221578D01*
X0038529Y0221797D01*
X0038286Y0222023D01*
X0038049Y0222254D01*
X0037818Y0222491D01*
X0037592Y0222734D01*
X0037373Y0222982D01*
X0037159Y0223236D01*
X0036952Y0223494D01*
X0036752Y0223758D01*
X0036558Y0224027D01*
X0036370Y0224300D01*
X0036189Y0224578D01*
X0036016Y0224860D01*
X0035849Y0225146D01*
X0035689Y0225436D01*
X0035536Y0225730D01*
X0035391Y0226028D01*
X0035253Y0226329D01*
X0035123Y0226634D01*
X0035000Y0226941D01*
X0034884Y0227252D01*
X0034776Y0227565D01*
X0034676Y0227881D01*
X0034584Y0228199D01*
X0034500Y0228520D01*
X0034423Y0228842D01*
X0034354Y0229166D01*
X0034294Y0229492D01*
X0034241Y0229819D01*
X0034197Y0230147D01*
X0034160Y0230477D01*
X0034132Y0230807D01*
X0034111Y0231138D01*
X0034099Y0231469D01*
X0034095Y0231800D01*
X0034095Y0021800D02*
X0034099Y0022131D01*
X0034111Y0022462D01*
X0034132Y0022793D01*
X0034160Y0023123D01*
X0034197Y0023453D01*
X0034241Y0023781D01*
X0034294Y0024108D01*
X0034354Y0024434D01*
X0034423Y0024758D01*
X0034500Y0025080D01*
X0034584Y0025401D01*
X0034676Y0025719D01*
X0034776Y0026035D01*
X0034884Y0026348D01*
X0035000Y0026659D01*
X0035123Y0026966D01*
X0035253Y0027271D01*
X0035391Y0027572D01*
X0035536Y0027870D01*
X0035689Y0028164D01*
X0035849Y0028454D01*
X0036016Y0028740D01*
X0036189Y0029022D01*
X0036370Y0029300D01*
X0036558Y0029573D01*
X0036752Y0029842D01*
X0036952Y0030106D01*
X0037159Y0030364D01*
X0037373Y0030618D01*
X0037592Y0030866D01*
X0037818Y0031109D01*
X0038049Y0031346D01*
X0038286Y0031577D01*
X0038529Y0031803D01*
X0038777Y0032022D01*
X0039031Y0032236D01*
X0039289Y0032443D01*
X0039553Y0032643D01*
X0039822Y0032837D01*
X0040095Y0033025D01*
X0040373Y0033206D01*
X0040655Y0033379D01*
X0040941Y0033546D01*
X0041231Y0033706D01*
X0041525Y0033859D01*
X0041823Y0034004D01*
X0042124Y0034142D01*
X0042429Y0034272D01*
X0042736Y0034395D01*
X0043047Y0034511D01*
X0043360Y0034619D01*
X0043676Y0034719D01*
X0043994Y0034811D01*
X0044315Y0034895D01*
X0044637Y0034972D01*
X0044961Y0035041D01*
X0045287Y0035101D01*
X0045614Y0035154D01*
X0045942Y0035198D01*
X0046272Y0035235D01*
X0046602Y0035263D01*
X0046933Y0035284D01*
X0047264Y0035296D01*
X0047595Y0035300D01*
X0047926Y0035296D01*
X0048257Y0035284D01*
X0048588Y0035263D01*
X0048918Y0035235D01*
X0049248Y0035198D01*
X0049576Y0035154D01*
X0049903Y0035101D01*
X0050229Y0035041D01*
X0050553Y0034972D01*
X0050875Y0034895D01*
X0051196Y0034811D01*
X0051514Y0034719D01*
X0051830Y0034619D01*
X0052143Y0034511D01*
X0052454Y0034395D01*
X0052761Y0034272D01*
X0053066Y0034142D01*
X0053367Y0034004D01*
X0053665Y0033859D01*
X0053959Y0033706D01*
X0054249Y0033546D01*
X0054535Y0033379D01*
X0054817Y0033206D01*
X0055095Y0033025D01*
X0055368Y0032837D01*
X0055637Y0032643D01*
X0055901Y0032443D01*
X0056159Y0032236D01*
X0056413Y0032022D01*
X0056661Y0031803D01*
X0056904Y0031577D01*
X0057141Y0031346D01*
X0057372Y0031109D01*
X0057598Y0030866D01*
X0057817Y0030618D01*
X0058031Y0030364D01*
X0058238Y0030106D01*
X0058438Y0029842D01*
X0058632Y0029573D01*
X0058820Y0029300D01*
X0059001Y0029022D01*
X0059174Y0028740D01*
X0059341Y0028454D01*
X0059501Y0028164D01*
X0059654Y0027870D01*
X0059799Y0027572D01*
X0059937Y0027271D01*
X0060067Y0026966D01*
X0060190Y0026659D01*
X0060306Y0026348D01*
X0060414Y0026035D01*
X0060514Y0025719D01*
X0060606Y0025401D01*
X0060690Y0025080D01*
X0060767Y0024758D01*
X0060836Y0024434D01*
X0060896Y0024108D01*
X0060949Y0023781D01*
X0060993Y0023453D01*
X0061030Y0023123D01*
X0061058Y0022793D01*
X0061079Y0022462D01*
X0061091Y0022131D01*
X0061095Y0021800D01*
X0061091Y0021469D01*
X0061079Y0021138D01*
X0061058Y0020807D01*
X0061030Y0020477D01*
X0060993Y0020147D01*
X0060949Y0019819D01*
X0060896Y0019492D01*
X0060836Y0019166D01*
X0060767Y0018842D01*
X0060690Y0018520D01*
X0060606Y0018199D01*
X0060514Y0017881D01*
X0060414Y0017565D01*
X0060306Y0017252D01*
X0060190Y0016941D01*
X0060067Y0016634D01*
X0059937Y0016329D01*
X0059799Y0016028D01*
X0059654Y0015730D01*
X0059501Y0015436D01*
X0059341Y0015146D01*
X0059174Y0014860D01*
X0059001Y0014578D01*
X0058820Y0014300D01*
X0058632Y0014027D01*
X0058438Y0013758D01*
X0058238Y0013494D01*
X0058031Y0013236D01*
X0057817Y0012982D01*
X0057598Y0012734D01*
X0057372Y0012491D01*
X0057141Y0012254D01*
X0056904Y0012023D01*
X0056661Y0011797D01*
X0056413Y0011578D01*
X0056159Y0011364D01*
X0055901Y0011157D01*
X0055637Y0010957D01*
X0055368Y0010763D01*
X0055095Y0010575D01*
X0054817Y0010394D01*
X0054535Y0010221D01*
X0054249Y0010054D01*
X0053959Y0009894D01*
X0053665Y0009741D01*
X0053367Y0009596D01*
X0053066Y0009458D01*
X0052761Y0009328D01*
X0052454Y0009205D01*
X0052143Y0009089D01*
X0051830Y0008981D01*
X0051514Y0008881D01*
X0051196Y0008789D01*
X0050875Y0008705D01*
X0050553Y0008628D01*
X0050229Y0008559D01*
X0049903Y0008499D01*
X0049576Y0008446D01*
X0049248Y0008402D01*
X0048918Y0008365D01*
X0048588Y0008337D01*
X0048257Y0008316D01*
X0047926Y0008304D01*
X0047595Y0008300D01*
X0047264Y0008304D01*
X0046933Y0008316D01*
X0046602Y0008337D01*
X0046272Y0008365D01*
X0045942Y0008402D01*
X0045614Y0008446D01*
X0045287Y0008499D01*
X0044961Y0008559D01*
X0044637Y0008628D01*
X0044315Y0008705D01*
X0043994Y0008789D01*
X0043676Y0008881D01*
X0043360Y0008981D01*
X0043047Y0009089D01*
X0042736Y0009205D01*
X0042429Y0009328D01*
X0042124Y0009458D01*
X0041823Y0009596D01*
X0041525Y0009741D01*
X0041231Y0009894D01*
X0040941Y0010054D01*
X0040655Y0010221D01*
X0040373Y0010394D01*
X0040095Y0010575D01*
X0039822Y0010763D01*
X0039553Y0010957D01*
X0039289Y0011157D01*
X0039031Y0011364D01*
X0038777Y0011578D01*
X0038529Y0011797D01*
X0038286Y0012023D01*
X0038049Y0012254D01*
X0037818Y0012491D01*
X0037592Y0012734D01*
X0037373Y0012982D01*
X0037159Y0013236D01*
X0036952Y0013494D01*
X0036752Y0013758D01*
X0036558Y0014027D01*
X0036370Y0014300D01*
X0036189Y0014578D01*
X0036016Y0014860D01*
X0035849Y0015146D01*
X0035689Y0015436D01*
X0035536Y0015730D01*
X0035391Y0016028D01*
X0035253Y0016329D01*
X0035123Y0016634D01*
X0035000Y0016941D01*
X0034884Y0017252D01*
X0034776Y0017565D01*
X0034676Y0017881D01*
X0034584Y0018199D01*
X0034500Y0018520D01*
X0034423Y0018842D01*
X0034354Y0019166D01*
X0034294Y0019492D01*
X0034241Y0019819D01*
X0034197Y0020147D01*
X0034160Y0020477D01*
X0034132Y0020807D01*
X0034111Y0021138D01*
X0034099Y0021469D01*
X0034095Y0021800D01*
D12*
X0040705Y0021800D02*
X0040707Y0021969D01*
X0040713Y0022138D01*
X0040724Y0022307D01*
X0040738Y0022475D01*
X0040757Y0022643D01*
X0040780Y0022811D01*
X0040806Y0022978D01*
X0040837Y0023144D01*
X0040872Y0023310D01*
X0040911Y0023474D01*
X0040955Y0023638D01*
X0041002Y0023800D01*
X0041053Y0023961D01*
X0041108Y0024121D01*
X0041167Y0024280D01*
X0041229Y0024437D01*
X0041296Y0024592D01*
X0041367Y0024746D01*
X0041441Y0024898D01*
X0041519Y0025048D01*
X0041600Y0025196D01*
X0041685Y0025342D01*
X0041774Y0025486D01*
X0041866Y0025628D01*
X0041962Y0025767D01*
X0042061Y0025904D01*
X0042163Y0026039D01*
X0042269Y0026171D01*
X0042378Y0026300D01*
X0042490Y0026427D01*
X0042605Y0026551D01*
X0042723Y0026672D01*
X0042844Y0026790D01*
X0042968Y0026905D01*
X0043095Y0027017D01*
X0043224Y0027126D01*
X0043356Y0027232D01*
X0043491Y0027334D01*
X0043628Y0027433D01*
X0043767Y0027529D01*
X0043909Y0027621D01*
X0044053Y0027710D01*
X0044199Y0027795D01*
X0044347Y0027876D01*
X0044497Y0027954D01*
X0044649Y0028028D01*
X0044803Y0028099D01*
X0044958Y0028166D01*
X0045115Y0028228D01*
X0045274Y0028287D01*
X0045434Y0028342D01*
X0045595Y0028393D01*
X0045757Y0028440D01*
X0045921Y0028484D01*
X0046085Y0028523D01*
X0046251Y0028558D01*
X0046417Y0028589D01*
X0046584Y0028615D01*
X0046752Y0028638D01*
X0046920Y0028657D01*
X0047088Y0028671D01*
X0047257Y0028682D01*
X0047426Y0028688D01*
X0047595Y0028690D01*
X0047764Y0028688D01*
X0047933Y0028682D01*
X0048102Y0028671D01*
X0048270Y0028657D01*
X0048438Y0028638D01*
X0048606Y0028615D01*
X0048773Y0028589D01*
X0048939Y0028558D01*
X0049105Y0028523D01*
X0049269Y0028484D01*
X0049433Y0028440D01*
X0049595Y0028393D01*
X0049756Y0028342D01*
X0049916Y0028287D01*
X0050075Y0028228D01*
X0050232Y0028166D01*
X0050387Y0028099D01*
X0050541Y0028028D01*
X0050693Y0027954D01*
X0050843Y0027876D01*
X0050991Y0027795D01*
X0051137Y0027710D01*
X0051281Y0027621D01*
X0051423Y0027529D01*
X0051562Y0027433D01*
X0051699Y0027334D01*
X0051834Y0027232D01*
X0051966Y0027126D01*
X0052095Y0027017D01*
X0052222Y0026905D01*
X0052346Y0026790D01*
X0052467Y0026672D01*
X0052585Y0026551D01*
X0052700Y0026427D01*
X0052812Y0026300D01*
X0052921Y0026171D01*
X0053027Y0026039D01*
X0053129Y0025904D01*
X0053228Y0025767D01*
X0053324Y0025628D01*
X0053416Y0025486D01*
X0053505Y0025342D01*
X0053590Y0025196D01*
X0053671Y0025048D01*
X0053749Y0024898D01*
X0053823Y0024746D01*
X0053894Y0024592D01*
X0053961Y0024437D01*
X0054023Y0024280D01*
X0054082Y0024121D01*
X0054137Y0023961D01*
X0054188Y0023800D01*
X0054235Y0023638D01*
X0054279Y0023474D01*
X0054318Y0023310D01*
X0054353Y0023144D01*
X0054384Y0022978D01*
X0054410Y0022811D01*
X0054433Y0022643D01*
X0054452Y0022475D01*
X0054466Y0022307D01*
X0054477Y0022138D01*
X0054483Y0021969D01*
X0054485Y0021800D01*
X0054483Y0021631D01*
X0054477Y0021462D01*
X0054466Y0021293D01*
X0054452Y0021125D01*
X0054433Y0020957D01*
X0054410Y0020789D01*
X0054384Y0020622D01*
X0054353Y0020456D01*
X0054318Y0020290D01*
X0054279Y0020126D01*
X0054235Y0019962D01*
X0054188Y0019800D01*
X0054137Y0019639D01*
X0054082Y0019479D01*
X0054023Y0019320D01*
X0053961Y0019163D01*
X0053894Y0019008D01*
X0053823Y0018854D01*
X0053749Y0018702D01*
X0053671Y0018552D01*
X0053590Y0018404D01*
X0053505Y0018258D01*
X0053416Y0018114D01*
X0053324Y0017972D01*
X0053228Y0017833D01*
X0053129Y0017696D01*
X0053027Y0017561D01*
X0052921Y0017429D01*
X0052812Y0017300D01*
X0052700Y0017173D01*
X0052585Y0017049D01*
X0052467Y0016928D01*
X0052346Y0016810D01*
X0052222Y0016695D01*
X0052095Y0016583D01*
X0051966Y0016474D01*
X0051834Y0016368D01*
X0051699Y0016266D01*
X0051562Y0016167D01*
X0051423Y0016071D01*
X0051281Y0015979D01*
X0051137Y0015890D01*
X0050991Y0015805D01*
X0050843Y0015724D01*
X0050693Y0015646D01*
X0050541Y0015572D01*
X0050387Y0015501D01*
X0050232Y0015434D01*
X0050075Y0015372D01*
X0049916Y0015313D01*
X0049756Y0015258D01*
X0049595Y0015207D01*
X0049433Y0015160D01*
X0049269Y0015116D01*
X0049105Y0015077D01*
X0048939Y0015042D01*
X0048773Y0015011D01*
X0048606Y0014985D01*
X0048438Y0014962D01*
X0048270Y0014943D01*
X0048102Y0014929D01*
X0047933Y0014918D01*
X0047764Y0014912D01*
X0047595Y0014910D01*
X0047426Y0014912D01*
X0047257Y0014918D01*
X0047088Y0014929D01*
X0046920Y0014943D01*
X0046752Y0014962D01*
X0046584Y0014985D01*
X0046417Y0015011D01*
X0046251Y0015042D01*
X0046085Y0015077D01*
X0045921Y0015116D01*
X0045757Y0015160D01*
X0045595Y0015207D01*
X0045434Y0015258D01*
X0045274Y0015313D01*
X0045115Y0015372D01*
X0044958Y0015434D01*
X0044803Y0015501D01*
X0044649Y0015572D01*
X0044497Y0015646D01*
X0044347Y0015724D01*
X0044199Y0015805D01*
X0044053Y0015890D01*
X0043909Y0015979D01*
X0043767Y0016071D01*
X0043628Y0016167D01*
X0043491Y0016266D01*
X0043356Y0016368D01*
X0043224Y0016474D01*
X0043095Y0016583D01*
X0042968Y0016695D01*
X0042844Y0016810D01*
X0042723Y0016928D01*
X0042605Y0017049D01*
X0042490Y0017173D01*
X0042378Y0017300D01*
X0042269Y0017429D01*
X0042163Y0017561D01*
X0042061Y0017696D01*
X0041962Y0017833D01*
X0041866Y0017972D01*
X0041774Y0018114D01*
X0041685Y0018258D01*
X0041600Y0018404D01*
X0041519Y0018552D01*
X0041441Y0018702D01*
X0041367Y0018854D01*
X0041296Y0019008D01*
X0041229Y0019163D01*
X0041167Y0019320D01*
X0041108Y0019479D01*
X0041053Y0019639D01*
X0041002Y0019800D01*
X0040955Y0019962D01*
X0040911Y0020126D01*
X0040872Y0020290D01*
X0040837Y0020456D01*
X0040806Y0020622D01*
X0040780Y0020789D01*
X0040757Y0020957D01*
X0040738Y0021125D01*
X0040724Y0021293D01*
X0040713Y0021462D01*
X0040707Y0021631D01*
X0040705Y0021800D01*
X0123095Y0014655D02*
X0124296Y0015856D01*
X0126698Y0015856D01*
X0127899Y0014655D01*
X0127899Y0013454D01*
X0126698Y0012253D01*
X0127899Y0011052D01*
X0127899Y0009851D01*
X0126698Y0008650D01*
X0124296Y0008650D01*
X0123095Y0009851D01*
X0125497Y0012253D02*
X0126698Y0012253D01*
X0130461Y0011052D02*
X0134065Y0011052D01*
X0135266Y0012253D01*
X0135266Y0014655D01*
X0134065Y0015856D01*
X0130461Y0015856D01*
X0130461Y0008650D01*
X0137828Y0008650D02*
X0137828Y0015856D01*
X0137828Y0012253D02*
X0142632Y0012253D01*
X0145194Y0012253D02*
X0149998Y0012253D01*
X0149998Y0013454D02*
X0149998Y0008650D01*
X0152560Y0009851D02*
X0153761Y0008650D01*
X0156163Y0008650D01*
X0157364Y0009851D01*
X0157364Y0011052D01*
X0156163Y0012253D01*
X0153761Y0012253D01*
X0152560Y0013454D01*
X0152560Y0014655D01*
X0153761Y0015856D01*
X0156163Y0015856D01*
X0157364Y0014655D01*
X0159927Y0015856D02*
X0159927Y0008650D01*
X0164731Y0008650D01*
X0162329Y0012253D02*
X0159927Y0012253D01*
X0159927Y0015856D02*
X0164731Y0015856D01*
X0174659Y0015856D02*
X0174659Y0008650D01*
X0178262Y0008650D01*
X0179463Y0009851D01*
X0179463Y0011052D01*
X0178262Y0012253D01*
X0174659Y0012253D01*
X0174659Y0015856D02*
X0178262Y0015856D01*
X0179463Y0014655D01*
X0179463Y0013454D01*
X0178262Y0012253D01*
X0182025Y0008650D02*
X0186830Y0008650D01*
X0189392Y0008650D02*
X0192995Y0008650D01*
X0194196Y0009851D01*
X0194196Y0014655D01*
X0192995Y0015856D01*
X0189392Y0015856D01*
X0189392Y0008650D01*
X0182025Y0008650D02*
X0182025Y0015856D01*
X0196758Y0014655D02*
X0196758Y0009851D01*
X0197959Y0008650D01*
X0200361Y0008650D01*
X0201562Y0009851D01*
X0201562Y0014655D02*
X0200361Y0015856D01*
X0197959Y0015856D01*
X0196758Y0014655D01*
X0211491Y0015856D02*
X0211491Y0008650D01*
X0213893Y0013454D02*
X0216295Y0015856D01*
X0216295Y0008650D01*
X0218857Y0009851D02*
X0220058Y0008650D01*
X0222460Y0008650D01*
X0223661Y0009851D01*
X0223661Y0014655D01*
X0222460Y0015856D01*
X0220058Y0015856D01*
X0218857Y0014655D01*
X0218857Y0009851D01*
X0213893Y0013454D02*
X0211491Y0015856D01*
X0226223Y0015856D02*
X0231027Y0015856D01*
X0228625Y0015856D02*
X0228625Y0008650D01*
X0233589Y0009851D02*
X0234791Y0008650D01*
X0237193Y0008650D01*
X0238394Y0009851D01*
X0238394Y0014655D01*
X0237193Y0015856D01*
X0234791Y0015856D01*
X0233589Y0014655D01*
X0233589Y0009851D01*
X0240956Y0011052D02*
X0244559Y0011052D01*
X0245760Y0012253D01*
X0245760Y0014655D01*
X0244559Y0015856D01*
X0240956Y0015856D01*
X0240956Y0008650D01*
X0243358Y0011052D02*
X0245760Y0008650D01*
X0255688Y0008650D02*
X0259291Y0008650D01*
X0260492Y0009851D01*
X0260492Y0014655D01*
X0259291Y0015856D01*
X0255688Y0015856D01*
X0255688Y0008650D01*
X0263055Y0008650D02*
X0263055Y0015856D01*
X0266658Y0015856D01*
X0267859Y0014655D01*
X0267859Y0012253D01*
X0266658Y0011052D01*
X0263055Y0011052D01*
X0265457Y0011052D02*
X0267859Y0008650D01*
X0270421Y0008650D02*
X0272823Y0008650D01*
X0271622Y0008650D02*
X0271622Y0015856D01*
X0270421Y0015856D02*
X0272823Y0015856D01*
X0275332Y0015856D02*
X0275332Y0011052D01*
X0277734Y0008650D01*
X0280136Y0011052D01*
X0280136Y0015856D01*
X0282698Y0015856D02*
X0282698Y0008650D01*
X0287502Y0008650D01*
X0290064Y0008650D02*
X0290064Y0015856D01*
X0293667Y0015856D01*
X0294868Y0014655D01*
X0294868Y0012253D01*
X0293667Y0011052D01*
X0290064Y0011052D01*
X0292466Y0011052D02*
X0294868Y0008650D01*
X0287502Y0015856D02*
X0282698Y0015856D01*
X0282698Y0012253D02*
X0285100Y0012253D01*
X0330705Y0021800D02*
X0330707Y0021969D01*
X0330713Y0022138D01*
X0330724Y0022307D01*
X0330738Y0022475D01*
X0330757Y0022643D01*
X0330780Y0022811D01*
X0330806Y0022978D01*
X0330837Y0023144D01*
X0330872Y0023310D01*
X0330911Y0023474D01*
X0330955Y0023638D01*
X0331002Y0023800D01*
X0331053Y0023961D01*
X0331108Y0024121D01*
X0331167Y0024280D01*
X0331229Y0024437D01*
X0331296Y0024592D01*
X0331367Y0024746D01*
X0331441Y0024898D01*
X0331519Y0025048D01*
X0331600Y0025196D01*
X0331685Y0025342D01*
X0331774Y0025486D01*
X0331866Y0025628D01*
X0331962Y0025767D01*
X0332061Y0025904D01*
X0332163Y0026039D01*
X0332269Y0026171D01*
X0332378Y0026300D01*
X0332490Y0026427D01*
X0332605Y0026551D01*
X0332723Y0026672D01*
X0332844Y0026790D01*
X0332968Y0026905D01*
X0333095Y0027017D01*
X0333224Y0027126D01*
X0333356Y0027232D01*
X0333491Y0027334D01*
X0333628Y0027433D01*
X0333767Y0027529D01*
X0333909Y0027621D01*
X0334053Y0027710D01*
X0334199Y0027795D01*
X0334347Y0027876D01*
X0334497Y0027954D01*
X0334649Y0028028D01*
X0334803Y0028099D01*
X0334958Y0028166D01*
X0335115Y0028228D01*
X0335274Y0028287D01*
X0335434Y0028342D01*
X0335595Y0028393D01*
X0335757Y0028440D01*
X0335921Y0028484D01*
X0336085Y0028523D01*
X0336251Y0028558D01*
X0336417Y0028589D01*
X0336584Y0028615D01*
X0336752Y0028638D01*
X0336920Y0028657D01*
X0337088Y0028671D01*
X0337257Y0028682D01*
X0337426Y0028688D01*
X0337595Y0028690D01*
X0337764Y0028688D01*
X0337933Y0028682D01*
X0338102Y0028671D01*
X0338270Y0028657D01*
X0338438Y0028638D01*
X0338606Y0028615D01*
X0338773Y0028589D01*
X0338939Y0028558D01*
X0339105Y0028523D01*
X0339269Y0028484D01*
X0339433Y0028440D01*
X0339595Y0028393D01*
X0339756Y0028342D01*
X0339916Y0028287D01*
X0340075Y0028228D01*
X0340232Y0028166D01*
X0340387Y0028099D01*
X0340541Y0028028D01*
X0340693Y0027954D01*
X0340843Y0027876D01*
X0340991Y0027795D01*
X0341137Y0027710D01*
X0341281Y0027621D01*
X0341423Y0027529D01*
X0341562Y0027433D01*
X0341699Y0027334D01*
X0341834Y0027232D01*
X0341966Y0027126D01*
X0342095Y0027017D01*
X0342222Y0026905D01*
X0342346Y0026790D01*
X0342467Y0026672D01*
X0342585Y0026551D01*
X0342700Y0026427D01*
X0342812Y0026300D01*
X0342921Y0026171D01*
X0343027Y0026039D01*
X0343129Y0025904D01*
X0343228Y0025767D01*
X0343324Y0025628D01*
X0343416Y0025486D01*
X0343505Y0025342D01*
X0343590Y0025196D01*
X0343671Y0025048D01*
X0343749Y0024898D01*
X0343823Y0024746D01*
X0343894Y0024592D01*
X0343961Y0024437D01*
X0344023Y0024280D01*
X0344082Y0024121D01*
X0344137Y0023961D01*
X0344188Y0023800D01*
X0344235Y0023638D01*
X0344279Y0023474D01*
X0344318Y0023310D01*
X0344353Y0023144D01*
X0344384Y0022978D01*
X0344410Y0022811D01*
X0344433Y0022643D01*
X0344452Y0022475D01*
X0344466Y0022307D01*
X0344477Y0022138D01*
X0344483Y0021969D01*
X0344485Y0021800D01*
X0344483Y0021631D01*
X0344477Y0021462D01*
X0344466Y0021293D01*
X0344452Y0021125D01*
X0344433Y0020957D01*
X0344410Y0020789D01*
X0344384Y0020622D01*
X0344353Y0020456D01*
X0344318Y0020290D01*
X0344279Y0020126D01*
X0344235Y0019962D01*
X0344188Y0019800D01*
X0344137Y0019639D01*
X0344082Y0019479D01*
X0344023Y0019320D01*
X0343961Y0019163D01*
X0343894Y0019008D01*
X0343823Y0018854D01*
X0343749Y0018702D01*
X0343671Y0018552D01*
X0343590Y0018404D01*
X0343505Y0018258D01*
X0343416Y0018114D01*
X0343324Y0017972D01*
X0343228Y0017833D01*
X0343129Y0017696D01*
X0343027Y0017561D01*
X0342921Y0017429D01*
X0342812Y0017300D01*
X0342700Y0017173D01*
X0342585Y0017049D01*
X0342467Y0016928D01*
X0342346Y0016810D01*
X0342222Y0016695D01*
X0342095Y0016583D01*
X0341966Y0016474D01*
X0341834Y0016368D01*
X0341699Y0016266D01*
X0341562Y0016167D01*
X0341423Y0016071D01*
X0341281Y0015979D01*
X0341137Y0015890D01*
X0340991Y0015805D01*
X0340843Y0015724D01*
X0340693Y0015646D01*
X0340541Y0015572D01*
X0340387Y0015501D01*
X0340232Y0015434D01*
X0340075Y0015372D01*
X0339916Y0015313D01*
X0339756Y0015258D01*
X0339595Y0015207D01*
X0339433Y0015160D01*
X0339269Y0015116D01*
X0339105Y0015077D01*
X0338939Y0015042D01*
X0338773Y0015011D01*
X0338606Y0014985D01*
X0338438Y0014962D01*
X0338270Y0014943D01*
X0338102Y0014929D01*
X0337933Y0014918D01*
X0337764Y0014912D01*
X0337595Y0014910D01*
X0337426Y0014912D01*
X0337257Y0014918D01*
X0337088Y0014929D01*
X0336920Y0014943D01*
X0336752Y0014962D01*
X0336584Y0014985D01*
X0336417Y0015011D01*
X0336251Y0015042D01*
X0336085Y0015077D01*
X0335921Y0015116D01*
X0335757Y0015160D01*
X0335595Y0015207D01*
X0335434Y0015258D01*
X0335274Y0015313D01*
X0335115Y0015372D01*
X0334958Y0015434D01*
X0334803Y0015501D01*
X0334649Y0015572D01*
X0334497Y0015646D01*
X0334347Y0015724D01*
X0334199Y0015805D01*
X0334053Y0015890D01*
X0333909Y0015979D01*
X0333767Y0016071D01*
X0333628Y0016167D01*
X0333491Y0016266D01*
X0333356Y0016368D01*
X0333224Y0016474D01*
X0333095Y0016583D01*
X0332968Y0016695D01*
X0332844Y0016810D01*
X0332723Y0016928D01*
X0332605Y0017049D01*
X0332490Y0017173D01*
X0332378Y0017300D01*
X0332269Y0017429D01*
X0332163Y0017561D01*
X0332061Y0017696D01*
X0331962Y0017833D01*
X0331866Y0017972D01*
X0331774Y0018114D01*
X0331685Y0018258D01*
X0331600Y0018404D01*
X0331519Y0018552D01*
X0331441Y0018702D01*
X0331367Y0018854D01*
X0331296Y0019008D01*
X0331229Y0019163D01*
X0331167Y0019320D01*
X0331108Y0019479D01*
X0331053Y0019639D01*
X0331002Y0019800D01*
X0330955Y0019962D01*
X0330911Y0020126D01*
X0330872Y0020290D01*
X0330837Y0020456D01*
X0330806Y0020622D01*
X0330780Y0020789D01*
X0330757Y0020957D01*
X0330738Y0021125D01*
X0330724Y0021293D01*
X0330713Y0021462D01*
X0330707Y0021631D01*
X0330705Y0021800D01*
X0218540Y0113503D02*
X0218540Y0130038D01*
X0215942Y0130038D01*
X0215942Y0140668D01*
X0218540Y0140668D01*
X0218540Y0152479D01*
X0213422Y0157597D01*
X0162792Y0157597D02*
X0156886Y0157597D01*
X0156650Y0157597D02*
X0156650Y0141062D01*
X0159249Y0141062D01*
X0159249Y0130432D01*
X0156650Y0130432D01*
X0156650Y0113503D01*
X0156886Y0113503D02*
X0162792Y0113503D01*
X0212398Y0113503D02*
X0218304Y0113503D01*
X0147596Y0015856D02*
X0149998Y0013454D01*
X0147596Y0015856D02*
X0145194Y0013454D01*
X0145194Y0008650D01*
X0142632Y0008650D02*
X0142632Y0015856D01*
X0040705Y0231800D02*
X0040707Y0231969D01*
X0040713Y0232138D01*
X0040724Y0232307D01*
X0040738Y0232475D01*
X0040757Y0232643D01*
X0040780Y0232811D01*
X0040806Y0232978D01*
X0040837Y0233144D01*
X0040872Y0233310D01*
X0040911Y0233474D01*
X0040955Y0233638D01*
X0041002Y0233800D01*
X0041053Y0233961D01*
X0041108Y0234121D01*
X0041167Y0234280D01*
X0041229Y0234437D01*
X0041296Y0234592D01*
X0041367Y0234746D01*
X0041441Y0234898D01*
X0041519Y0235048D01*
X0041600Y0235196D01*
X0041685Y0235342D01*
X0041774Y0235486D01*
X0041866Y0235628D01*
X0041962Y0235767D01*
X0042061Y0235904D01*
X0042163Y0236039D01*
X0042269Y0236171D01*
X0042378Y0236300D01*
X0042490Y0236427D01*
X0042605Y0236551D01*
X0042723Y0236672D01*
X0042844Y0236790D01*
X0042968Y0236905D01*
X0043095Y0237017D01*
X0043224Y0237126D01*
X0043356Y0237232D01*
X0043491Y0237334D01*
X0043628Y0237433D01*
X0043767Y0237529D01*
X0043909Y0237621D01*
X0044053Y0237710D01*
X0044199Y0237795D01*
X0044347Y0237876D01*
X0044497Y0237954D01*
X0044649Y0238028D01*
X0044803Y0238099D01*
X0044958Y0238166D01*
X0045115Y0238228D01*
X0045274Y0238287D01*
X0045434Y0238342D01*
X0045595Y0238393D01*
X0045757Y0238440D01*
X0045921Y0238484D01*
X0046085Y0238523D01*
X0046251Y0238558D01*
X0046417Y0238589D01*
X0046584Y0238615D01*
X0046752Y0238638D01*
X0046920Y0238657D01*
X0047088Y0238671D01*
X0047257Y0238682D01*
X0047426Y0238688D01*
X0047595Y0238690D01*
X0047764Y0238688D01*
X0047933Y0238682D01*
X0048102Y0238671D01*
X0048270Y0238657D01*
X0048438Y0238638D01*
X0048606Y0238615D01*
X0048773Y0238589D01*
X0048939Y0238558D01*
X0049105Y0238523D01*
X0049269Y0238484D01*
X0049433Y0238440D01*
X0049595Y0238393D01*
X0049756Y0238342D01*
X0049916Y0238287D01*
X0050075Y0238228D01*
X0050232Y0238166D01*
X0050387Y0238099D01*
X0050541Y0238028D01*
X0050693Y0237954D01*
X0050843Y0237876D01*
X0050991Y0237795D01*
X0051137Y0237710D01*
X0051281Y0237621D01*
X0051423Y0237529D01*
X0051562Y0237433D01*
X0051699Y0237334D01*
X0051834Y0237232D01*
X0051966Y0237126D01*
X0052095Y0237017D01*
X0052222Y0236905D01*
X0052346Y0236790D01*
X0052467Y0236672D01*
X0052585Y0236551D01*
X0052700Y0236427D01*
X0052812Y0236300D01*
X0052921Y0236171D01*
X0053027Y0236039D01*
X0053129Y0235904D01*
X0053228Y0235767D01*
X0053324Y0235628D01*
X0053416Y0235486D01*
X0053505Y0235342D01*
X0053590Y0235196D01*
X0053671Y0235048D01*
X0053749Y0234898D01*
X0053823Y0234746D01*
X0053894Y0234592D01*
X0053961Y0234437D01*
X0054023Y0234280D01*
X0054082Y0234121D01*
X0054137Y0233961D01*
X0054188Y0233800D01*
X0054235Y0233638D01*
X0054279Y0233474D01*
X0054318Y0233310D01*
X0054353Y0233144D01*
X0054384Y0232978D01*
X0054410Y0232811D01*
X0054433Y0232643D01*
X0054452Y0232475D01*
X0054466Y0232307D01*
X0054477Y0232138D01*
X0054483Y0231969D01*
X0054485Y0231800D01*
X0054483Y0231631D01*
X0054477Y0231462D01*
X0054466Y0231293D01*
X0054452Y0231125D01*
X0054433Y0230957D01*
X0054410Y0230789D01*
X0054384Y0230622D01*
X0054353Y0230456D01*
X0054318Y0230290D01*
X0054279Y0230126D01*
X0054235Y0229962D01*
X0054188Y0229800D01*
X0054137Y0229639D01*
X0054082Y0229479D01*
X0054023Y0229320D01*
X0053961Y0229163D01*
X0053894Y0229008D01*
X0053823Y0228854D01*
X0053749Y0228702D01*
X0053671Y0228552D01*
X0053590Y0228404D01*
X0053505Y0228258D01*
X0053416Y0228114D01*
X0053324Y0227972D01*
X0053228Y0227833D01*
X0053129Y0227696D01*
X0053027Y0227561D01*
X0052921Y0227429D01*
X0052812Y0227300D01*
X0052700Y0227173D01*
X0052585Y0227049D01*
X0052467Y0226928D01*
X0052346Y0226810D01*
X0052222Y0226695D01*
X0052095Y0226583D01*
X0051966Y0226474D01*
X0051834Y0226368D01*
X0051699Y0226266D01*
X0051562Y0226167D01*
X0051423Y0226071D01*
X0051281Y0225979D01*
X0051137Y0225890D01*
X0050991Y0225805D01*
X0050843Y0225724D01*
X0050693Y0225646D01*
X0050541Y0225572D01*
X0050387Y0225501D01*
X0050232Y0225434D01*
X0050075Y0225372D01*
X0049916Y0225313D01*
X0049756Y0225258D01*
X0049595Y0225207D01*
X0049433Y0225160D01*
X0049269Y0225116D01*
X0049105Y0225077D01*
X0048939Y0225042D01*
X0048773Y0225011D01*
X0048606Y0224985D01*
X0048438Y0224962D01*
X0048270Y0224943D01*
X0048102Y0224929D01*
X0047933Y0224918D01*
X0047764Y0224912D01*
X0047595Y0224910D01*
X0047426Y0224912D01*
X0047257Y0224918D01*
X0047088Y0224929D01*
X0046920Y0224943D01*
X0046752Y0224962D01*
X0046584Y0224985D01*
X0046417Y0225011D01*
X0046251Y0225042D01*
X0046085Y0225077D01*
X0045921Y0225116D01*
X0045757Y0225160D01*
X0045595Y0225207D01*
X0045434Y0225258D01*
X0045274Y0225313D01*
X0045115Y0225372D01*
X0044958Y0225434D01*
X0044803Y0225501D01*
X0044649Y0225572D01*
X0044497Y0225646D01*
X0044347Y0225724D01*
X0044199Y0225805D01*
X0044053Y0225890D01*
X0043909Y0225979D01*
X0043767Y0226071D01*
X0043628Y0226167D01*
X0043491Y0226266D01*
X0043356Y0226368D01*
X0043224Y0226474D01*
X0043095Y0226583D01*
X0042968Y0226695D01*
X0042844Y0226810D01*
X0042723Y0226928D01*
X0042605Y0227049D01*
X0042490Y0227173D01*
X0042378Y0227300D01*
X0042269Y0227429D01*
X0042163Y0227561D01*
X0042061Y0227696D01*
X0041962Y0227833D01*
X0041866Y0227972D01*
X0041774Y0228114D01*
X0041685Y0228258D01*
X0041600Y0228404D01*
X0041519Y0228552D01*
X0041441Y0228702D01*
X0041367Y0228854D01*
X0041296Y0229008D01*
X0041229Y0229163D01*
X0041167Y0229320D01*
X0041108Y0229479D01*
X0041053Y0229639D01*
X0041002Y0229800D01*
X0040955Y0229962D01*
X0040911Y0230126D01*
X0040872Y0230290D01*
X0040837Y0230456D01*
X0040806Y0230622D01*
X0040780Y0230789D01*
X0040757Y0230957D01*
X0040738Y0231125D01*
X0040724Y0231293D01*
X0040713Y0231462D01*
X0040707Y0231631D01*
X0040705Y0231800D01*
X0330705Y0231800D02*
X0330707Y0231969D01*
X0330713Y0232138D01*
X0330724Y0232307D01*
X0330738Y0232475D01*
X0330757Y0232643D01*
X0330780Y0232811D01*
X0330806Y0232978D01*
X0330837Y0233144D01*
X0330872Y0233310D01*
X0330911Y0233474D01*
X0330955Y0233638D01*
X0331002Y0233800D01*
X0331053Y0233961D01*
X0331108Y0234121D01*
X0331167Y0234280D01*
X0331229Y0234437D01*
X0331296Y0234592D01*
X0331367Y0234746D01*
X0331441Y0234898D01*
X0331519Y0235048D01*
X0331600Y0235196D01*
X0331685Y0235342D01*
X0331774Y0235486D01*
X0331866Y0235628D01*
X0331962Y0235767D01*
X0332061Y0235904D01*
X0332163Y0236039D01*
X0332269Y0236171D01*
X0332378Y0236300D01*
X0332490Y0236427D01*
X0332605Y0236551D01*
X0332723Y0236672D01*
X0332844Y0236790D01*
X0332968Y0236905D01*
X0333095Y0237017D01*
X0333224Y0237126D01*
X0333356Y0237232D01*
X0333491Y0237334D01*
X0333628Y0237433D01*
X0333767Y0237529D01*
X0333909Y0237621D01*
X0334053Y0237710D01*
X0334199Y0237795D01*
X0334347Y0237876D01*
X0334497Y0237954D01*
X0334649Y0238028D01*
X0334803Y0238099D01*
X0334958Y0238166D01*
X0335115Y0238228D01*
X0335274Y0238287D01*
X0335434Y0238342D01*
X0335595Y0238393D01*
X0335757Y0238440D01*
X0335921Y0238484D01*
X0336085Y0238523D01*
X0336251Y0238558D01*
X0336417Y0238589D01*
X0336584Y0238615D01*
X0336752Y0238638D01*
X0336920Y0238657D01*
X0337088Y0238671D01*
X0337257Y0238682D01*
X0337426Y0238688D01*
X0337595Y0238690D01*
X0337764Y0238688D01*
X0337933Y0238682D01*
X0338102Y0238671D01*
X0338270Y0238657D01*
X0338438Y0238638D01*
X0338606Y0238615D01*
X0338773Y0238589D01*
X0338939Y0238558D01*
X0339105Y0238523D01*
X0339269Y0238484D01*
X0339433Y0238440D01*
X0339595Y0238393D01*
X0339756Y0238342D01*
X0339916Y0238287D01*
X0340075Y0238228D01*
X0340232Y0238166D01*
X0340387Y0238099D01*
X0340541Y0238028D01*
X0340693Y0237954D01*
X0340843Y0237876D01*
X0340991Y0237795D01*
X0341137Y0237710D01*
X0341281Y0237621D01*
X0341423Y0237529D01*
X0341562Y0237433D01*
X0341699Y0237334D01*
X0341834Y0237232D01*
X0341966Y0237126D01*
X0342095Y0237017D01*
X0342222Y0236905D01*
X0342346Y0236790D01*
X0342467Y0236672D01*
X0342585Y0236551D01*
X0342700Y0236427D01*
X0342812Y0236300D01*
X0342921Y0236171D01*
X0343027Y0236039D01*
X0343129Y0235904D01*
X0343228Y0235767D01*
X0343324Y0235628D01*
X0343416Y0235486D01*
X0343505Y0235342D01*
X0343590Y0235196D01*
X0343671Y0235048D01*
X0343749Y0234898D01*
X0343823Y0234746D01*
X0343894Y0234592D01*
X0343961Y0234437D01*
X0344023Y0234280D01*
X0344082Y0234121D01*
X0344137Y0233961D01*
X0344188Y0233800D01*
X0344235Y0233638D01*
X0344279Y0233474D01*
X0344318Y0233310D01*
X0344353Y0233144D01*
X0344384Y0232978D01*
X0344410Y0232811D01*
X0344433Y0232643D01*
X0344452Y0232475D01*
X0344466Y0232307D01*
X0344477Y0232138D01*
X0344483Y0231969D01*
X0344485Y0231800D01*
X0344483Y0231631D01*
X0344477Y0231462D01*
X0344466Y0231293D01*
X0344452Y0231125D01*
X0344433Y0230957D01*
X0344410Y0230789D01*
X0344384Y0230622D01*
X0344353Y0230456D01*
X0344318Y0230290D01*
X0344279Y0230126D01*
X0344235Y0229962D01*
X0344188Y0229800D01*
X0344137Y0229639D01*
X0344082Y0229479D01*
X0344023Y0229320D01*
X0343961Y0229163D01*
X0343894Y0229008D01*
X0343823Y0228854D01*
X0343749Y0228702D01*
X0343671Y0228552D01*
X0343590Y0228404D01*
X0343505Y0228258D01*
X0343416Y0228114D01*
X0343324Y0227972D01*
X0343228Y0227833D01*
X0343129Y0227696D01*
X0343027Y0227561D01*
X0342921Y0227429D01*
X0342812Y0227300D01*
X0342700Y0227173D01*
X0342585Y0227049D01*
X0342467Y0226928D01*
X0342346Y0226810D01*
X0342222Y0226695D01*
X0342095Y0226583D01*
X0341966Y0226474D01*
X0341834Y0226368D01*
X0341699Y0226266D01*
X0341562Y0226167D01*
X0341423Y0226071D01*
X0341281Y0225979D01*
X0341137Y0225890D01*
X0340991Y0225805D01*
X0340843Y0225724D01*
X0340693Y0225646D01*
X0340541Y0225572D01*
X0340387Y0225501D01*
X0340232Y0225434D01*
X0340075Y0225372D01*
X0339916Y0225313D01*
X0339756Y0225258D01*
X0339595Y0225207D01*
X0339433Y0225160D01*
X0339269Y0225116D01*
X0339105Y0225077D01*
X0338939Y0225042D01*
X0338773Y0225011D01*
X0338606Y0224985D01*
X0338438Y0224962D01*
X0338270Y0224943D01*
X0338102Y0224929D01*
X0337933Y0224918D01*
X0337764Y0224912D01*
X0337595Y0224910D01*
X0337426Y0224912D01*
X0337257Y0224918D01*
X0337088Y0224929D01*
X0336920Y0224943D01*
X0336752Y0224962D01*
X0336584Y0224985D01*
X0336417Y0225011D01*
X0336251Y0225042D01*
X0336085Y0225077D01*
X0335921Y0225116D01*
X0335757Y0225160D01*
X0335595Y0225207D01*
X0335434Y0225258D01*
X0335274Y0225313D01*
X0335115Y0225372D01*
X0334958Y0225434D01*
X0334803Y0225501D01*
X0334649Y0225572D01*
X0334497Y0225646D01*
X0334347Y0225724D01*
X0334199Y0225805D01*
X0334053Y0225890D01*
X0333909Y0225979D01*
X0333767Y0226071D01*
X0333628Y0226167D01*
X0333491Y0226266D01*
X0333356Y0226368D01*
X0333224Y0226474D01*
X0333095Y0226583D01*
X0332968Y0226695D01*
X0332844Y0226810D01*
X0332723Y0226928D01*
X0332605Y0227049D01*
X0332490Y0227173D01*
X0332378Y0227300D01*
X0332269Y0227429D01*
X0332163Y0227561D01*
X0332061Y0227696D01*
X0331962Y0227833D01*
X0331866Y0227972D01*
X0331774Y0228114D01*
X0331685Y0228258D01*
X0331600Y0228404D01*
X0331519Y0228552D01*
X0331441Y0228702D01*
X0331367Y0228854D01*
X0331296Y0229008D01*
X0331229Y0229163D01*
X0331167Y0229320D01*
X0331108Y0229479D01*
X0331053Y0229639D01*
X0331002Y0229800D01*
X0330955Y0229962D01*
X0330911Y0230126D01*
X0330872Y0230290D01*
X0330837Y0230456D01*
X0330806Y0230622D01*
X0330780Y0230789D01*
X0330757Y0230957D01*
X0330738Y0231125D01*
X0330724Y0231293D01*
X0330713Y0231462D01*
X0330707Y0231631D01*
X0330705Y0231800D01*
D13*
X0098895Y0012500D03*
X0098895Y0012400D03*
X0097095Y0007200D03*
D14*
X0091295Y0007300D03*
D15*
X0091345Y0007400D03*
D16*
X0091395Y0007500D03*
D17*
X0091445Y0007600D03*
D18*
X0091545Y0007700D03*
D19*
X0091545Y0007800D03*
D20*
X0091545Y0007900D03*
D21*
X0091595Y0008000D03*
D22*
X0091645Y0008100D03*
D23*
X0091595Y0008200D03*
D24*
X0091645Y0008300D03*
D25*
X0091245Y0009600D03*
X0091245Y0009700D03*
X0091245Y0009800D03*
X0089045Y0009500D03*
X0089045Y0009400D03*
X0089045Y0011200D03*
X0089045Y0011300D03*
X0084245Y0012000D03*
X0082345Y0009200D03*
X0080845Y0011400D03*
X0080745Y0011500D03*
X0076545Y0011500D03*
X0076545Y0011600D03*
X0076545Y0011700D03*
X0076545Y0011800D03*
X0076545Y0011900D03*
X0076545Y0012000D03*
X0076545Y0012100D03*
X0076545Y0012200D03*
X0076545Y0012300D03*
X0076545Y0012400D03*
X0076545Y0012500D03*
X0076545Y0012600D03*
X0076545Y0012700D03*
X0076545Y0012800D03*
X0076545Y0012900D03*
X0076545Y0013000D03*
X0076545Y0011400D03*
X0076545Y0011300D03*
X0076545Y0011200D03*
X0076545Y0011100D03*
X0076545Y0011000D03*
X0076545Y0010900D03*
X0076545Y0010800D03*
X0076545Y0010700D03*
X0076545Y0010600D03*
X0076545Y0010500D03*
X0076545Y0010400D03*
X0076545Y0010300D03*
X0076545Y0010200D03*
X0076545Y0010100D03*
X0076545Y0010000D03*
X0076545Y0009900D03*
X0076545Y0009800D03*
X0076545Y0009700D03*
X0076545Y0009600D03*
X0076545Y0009500D03*
X0076545Y0009400D03*
X0076545Y0009300D03*
X0076545Y0009200D03*
X0076545Y0009100D03*
X0076545Y0009000D03*
X0076545Y0008900D03*
X0076545Y0008800D03*
X0076545Y0008700D03*
X0076545Y0008600D03*
X0076545Y0008500D03*
X0076545Y0008400D03*
X0076545Y0015000D03*
X0074845Y0015600D03*
X0074845Y0017500D03*
X0076545Y0018100D03*
X0078645Y0015600D03*
X0072845Y0015300D03*
X0072845Y0015200D03*
X0072745Y0015400D03*
X0072745Y0015500D03*
X0072645Y0015900D03*
X0072645Y0016000D03*
X0072645Y0016100D03*
X0072645Y0016200D03*
X0072645Y0016300D03*
X0072645Y0016800D03*
X0072645Y0016900D03*
X0072645Y0017000D03*
X0072645Y0017100D03*
X0072645Y0017200D03*
X0072745Y0017500D03*
X0072745Y0017600D03*
X0072745Y0017700D03*
X0072845Y0017800D03*
X0079745Y0024200D03*
X0079745Y0024300D03*
X0079745Y0024400D03*
X0079745Y0024500D03*
X0081645Y0027700D03*
X0081645Y0027800D03*
X0081645Y0027900D03*
X0081545Y0028100D03*
X0081545Y0028200D03*
X0081445Y0028300D03*
X0081445Y0028400D03*
X0081345Y0028500D03*
X0081345Y0028600D03*
X0081345Y0028700D03*
X0081245Y0028800D03*
X0081245Y0028900D03*
X0081145Y0029100D03*
X0081145Y0029200D03*
X0081045Y0029300D03*
X0076845Y0035200D03*
X0081245Y0037300D03*
X0081245Y0037400D03*
X0081345Y0037500D03*
X0081345Y0037600D03*
X0081445Y0037800D03*
X0081445Y0037900D03*
X0081545Y0038000D03*
X0081545Y0038100D03*
X0081645Y0038200D03*
X0081645Y0038300D03*
X0081745Y0038500D03*
X0081745Y0038600D03*
X0079845Y0041800D03*
X0079745Y0042000D03*
X0079745Y0042100D03*
X0079745Y0042200D03*
X0079745Y0042300D03*
X0086645Y0043000D03*
X0088745Y0044700D03*
X0088845Y0044800D03*
X0089245Y0046900D03*
X0089245Y0047000D03*
X0089345Y0047400D03*
X0089345Y0047500D03*
X0089345Y0047600D03*
X0089445Y0047800D03*
X0094645Y0047700D03*
X0094645Y0047600D03*
X0094745Y0047300D03*
X0094745Y0047200D03*
X0094745Y0047100D03*
X0094845Y0046600D03*
X0095245Y0044700D03*
X0097445Y0043000D03*
X0102245Y0038700D03*
X0102245Y0038600D03*
X0102345Y0038400D03*
X0102345Y0038300D03*
X0102445Y0038200D03*
X0102445Y0038100D03*
X0102545Y0038000D03*
X0102545Y0037900D03*
X0102645Y0037700D03*
X0102745Y0037500D03*
X0102745Y0037400D03*
X0102845Y0037200D03*
X0107145Y0035200D03*
X0103045Y0029400D03*
X0102945Y0029300D03*
X0102945Y0029200D03*
X0102845Y0029100D03*
X0102845Y0029000D03*
X0102845Y0028900D03*
X0102745Y0028800D03*
X0102745Y0028700D03*
X0102645Y0028600D03*
X0102645Y0028500D03*
X0102645Y0028400D03*
X0102545Y0028300D03*
X0102545Y0028200D03*
X0102445Y0028100D03*
X0102445Y0028000D03*
X0102345Y0027800D03*
X0102345Y0027700D03*
X0102345Y0027600D03*
X0104245Y0024600D03*
X0104245Y0024500D03*
X0104245Y0024200D03*
X0107645Y0018200D03*
X0109245Y0017500D03*
X0111145Y0017800D03*
X0111145Y0017900D03*
X0111245Y0017700D03*
X0111245Y0017600D03*
X0111245Y0015200D03*
X0111245Y0015000D03*
X0105945Y0015500D03*
X0103645Y0012200D03*
X0104945Y0011300D03*
X0106945Y0011600D03*
X0107045Y0011400D03*
X0106945Y0008800D03*
X0100045Y0012000D03*
X0098245Y0011500D03*
X0098345Y0010000D03*
X0096145Y0009000D03*
X0096145Y0008900D03*
X0093845Y0009000D03*
X0094945Y0011500D03*
X0094945Y0011600D03*
X0094945Y0011700D03*
X0095345Y0015600D03*
X0095345Y0017500D03*
X0097045Y0018200D03*
X0097245Y0015100D03*
X0099245Y0015600D03*
X0086245Y0017400D03*
X0086245Y0017500D03*
X0084045Y0018200D03*
X0104245Y0041900D03*
X0104245Y0042300D03*
D26*
X0104095Y0042600D03*
X0103995Y0042700D03*
X0100895Y0045900D03*
X0088595Y0044500D03*
X0081995Y0044700D03*
X0081895Y0044600D03*
X0081795Y0044500D03*
X0080795Y0043500D03*
X0080695Y0043400D03*
X0080595Y0043300D03*
X0080095Y0042800D03*
X0079995Y0042700D03*
X0080995Y0037000D03*
X0079995Y0023800D03*
X0080095Y0023700D03*
X0080795Y0023000D03*
X0080895Y0022900D03*
X0080995Y0022800D03*
X0081995Y0021800D03*
X0082095Y0021700D03*
X0082195Y0021600D03*
X0082395Y0017300D03*
X0082395Y0017200D03*
X0082395Y0017100D03*
X0082395Y0016900D03*
X0080595Y0014900D03*
X0078695Y0015900D03*
X0078695Y0016000D03*
X0078695Y0016100D03*
X0078695Y0016200D03*
X0078695Y0016300D03*
X0078695Y0016400D03*
X0078695Y0016500D03*
X0078695Y0016600D03*
X0078695Y0016700D03*
X0078695Y0016800D03*
X0078695Y0016900D03*
X0078695Y0017000D03*
X0078695Y0017100D03*
X0076395Y0014700D03*
X0076395Y0013300D03*
X0074795Y0015900D03*
X0074795Y0017200D03*
X0073195Y0018300D03*
X0078695Y0011000D03*
X0078695Y0010900D03*
X0078695Y0010800D03*
X0078695Y0010700D03*
X0078695Y0010600D03*
X0078695Y0010500D03*
X0078695Y0010400D03*
X0078695Y0010300D03*
X0078695Y0010200D03*
X0078695Y0010100D03*
X0078695Y0010000D03*
X0078695Y0009900D03*
X0078695Y0009800D03*
X0078695Y0009700D03*
X0078695Y0009600D03*
X0078695Y0009500D03*
X0078695Y0009400D03*
X0078695Y0009300D03*
X0078695Y0009200D03*
X0078695Y0009100D03*
X0078695Y0009000D03*
X0078695Y0008900D03*
X0078695Y0008800D03*
X0078695Y0008700D03*
X0078695Y0008600D03*
X0078695Y0008500D03*
X0078695Y0008400D03*
X0082395Y0009800D03*
X0087695Y0012300D03*
X0086195Y0014700D03*
X0086195Y0014800D03*
X0086195Y0014900D03*
X0086195Y0015000D03*
X0086195Y0015100D03*
X0086195Y0015200D03*
X0086195Y0015300D03*
X0086195Y0015400D03*
X0086195Y0015500D03*
X0086195Y0015600D03*
X0086195Y0015700D03*
X0086195Y0015800D03*
X0086195Y0015900D03*
X0086195Y0016000D03*
X0086195Y0016100D03*
X0086195Y0016200D03*
X0086195Y0016300D03*
X0086195Y0016400D03*
X0086195Y0016500D03*
X0086195Y0016600D03*
X0086195Y0016700D03*
X0086195Y0016800D03*
X0086195Y0016900D03*
X0086195Y0017000D03*
X0092695Y0012200D03*
X0092695Y0012100D03*
X0092695Y0012000D03*
X0094895Y0012100D03*
X0096195Y0008700D03*
X0098195Y0009300D03*
X0098195Y0009400D03*
X0098195Y0009500D03*
X0098195Y0009600D03*
X0098195Y0009700D03*
X0098195Y0009800D03*
X0093795Y0008600D03*
X0093795Y0008500D03*
X0091395Y0008700D03*
X0091395Y0008800D03*
X0091395Y0008900D03*
X0095395Y0015800D03*
X0095395Y0015900D03*
X0095395Y0016000D03*
X0095395Y0017000D03*
X0095395Y0017100D03*
X0095395Y0017200D03*
X0099195Y0017200D03*
X0099195Y0017300D03*
X0099195Y0017400D03*
X0099195Y0017500D03*
X0099195Y0017600D03*
X0099195Y0017700D03*
X0099195Y0017800D03*
X0099195Y0017900D03*
X0099195Y0018000D03*
X0099195Y0018100D03*
X0099195Y0018200D03*
X0099195Y0018300D03*
X0099195Y0017100D03*
X0099195Y0017000D03*
X0099195Y0016900D03*
X0099195Y0016800D03*
X0099195Y0016700D03*
X0099195Y0016600D03*
X0099195Y0016500D03*
X0099195Y0016400D03*
X0099195Y0016300D03*
X0099195Y0016200D03*
X0099195Y0016100D03*
X0099195Y0016000D03*
X0099195Y0015900D03*
X0104995Y0011000D03*
X0106595Y0012100D03*
X0106695Y0012000D03*
X0106895Y0009300D03*
X0106795Y0008600D03*
X0106695Y0008500D03*
X0111095Y0014800D03*
X0111095Y0015500D03*
X0109195Y0016900D03*
X0109195Y0017100D03*
X0109195Y0017200D03*
X0109195Y0017300D03*
X0107595Y0018300D03*
X0110795Y0018300D03*
X0103995Y0023800D03*
D27*
X0104045Y0023900D03*
X0104145Y0024000D03*
X0104145Y0024800D03*
X0104045Y0024900D03*
X0104045Y0025000D03*
X0103945Y0025100D03*
X0103845Y0025200D03*
X0103845Y0025300D03*
X0103745Y0025400D03*
X0103545Y0025700D03*
X0103445Y0025800D03*
X0103345Y0026000D03*
X0103245Y0026100D03*
X0103145Y0026300D03*
X0103045Y0026400D03*
X0102945Y0026600D03*
X0102845Y0026700D03*
X0102745Y0026800D03*
X0102745Y0026900D03*
X0102645Y0027000D03*
X0102545Y0027100D03*
X0102545Y0027200D03*
X0102445Y0027300D03*
X0103145Y0029500D03*
X0097745Y0023200D03*
X0096945Y0018300D03*
X0095345Y0017300D03*
X0093645Y0018200D03*
X0097245Y0015000D03*
X0099245Y0015800D03*
X0098245Y0011400D03*
X0098245Y0009900D03*
X0096745Y0010600D03*
X0094945Y0011900D03*
X0094945Y0012000D03*
X0093845Y0008700D03*
X0091345Y0009000D03*
X0091345Y0009100D03*
X0089045Y0009600D03*
X0089045Y0009700D03*
X0089045Y0009800D03*
X0089045Y0009900D03*
X0089045Y0010000D03*
X0089045Y0010600D03*
X0089045Y0010700D03*
X0089045Y0010800D03*
X0089045Y0010900D03*
X0089045Y0011000D03*
X0089045Y0011100D03*
X0084145Y0012100D03*
X0082445Y0009900D03*
X0082345Y0009300D03*
X0080945Y0008400D03*
X0078645Y0011100D03*
X0076445Y0013200D03*
X0076445Y0014800D03*
X0074845Y0015700D03*
X0074845Y0015800D03*
X0074845Y0017300D03*
X0076445Y0018300D03*
X0078645Y0017200D03*
X0073045Y0018200D03*
X0073045Y0014900D03*
X0073145Y0014800D03*
X0083945Y0018300D03*
X0086245Y0017300D03*
X0086245Y0017200D03*
X0086245Y0017100D03*
X0079945Y0023900D03*
X0079945Y0024900D03*
X0080045Y0025000D03*
X0080145Y0025200D03*
X0080245Y0025300D03*
X0080345Y0025500D03*
X0080445Y0025600D03*
X0080545Y0025800D03*
X0080645Y0025900D03*
X0080745Y0026000D03*
X0080745Y0026100D03*
X0080845Y0026200D03*
X0080945Y0026300D03*
X0080945Y0026400D03*
X0081045Y0026500D03*
X0081145Y0026600D03*
X0081145Y0026700D03*
X0081245Y0026800D03*
X0081345Y0026900D03*
X0081345Y0027000D03*
X0081445Y0027100D03*
X0081545Y0027200D03*
X0080945Y0029500D03*
X0081645Y0039100D03*
X0081445Y0039400D03*
X0081245Y0039700D03*
X0081045Y0040000D03*
X0080845Y0040300D03*
X0080545Y0040700D03*
X0080345Y0041000D03*
X0080145Y0041300D03*
X0080045Y0041400D03*
X0079945Y0041600D03*
X0079945Y0042600D03*
X0083145Y0045900D03*
X0102445Y0039200D03*
X0102545Y0039300D03*
X0102645Y0039500D03*
X0102745Y0039600D03*
X0102845Y0039800D03*
X0102945Y0039900D03*
X0103045Y0040100D03*
X0103145Y0040200D03*
X0103345Y0040500D03*
X0103545Y0040800D03*
X0103745Y0041100D03*
X0103845Y0041200D03*
X0103945Y0041400D03*
X0104045Y0041500D03*
X0104145Y0042500D03*
X0103045Y0037000D03*
X0110945Y0018200D03*
X0111145Y0015400D03*
X0111145Y0014900D03*
X0107645Y0014800D03*
X0105945Y0015600D03*
X0106745Y0011900D03*
X0104945Y0011200D03*
X0104945Y0011100D03*
X0106945Y0009200D03*
D28*
X0104945Y0011600D03*
X0101645Y0012200D03*
X0096645Y0011800D03*
X0094945Y0010200D03*
X0093845Y0010400D03*
X0092645Y0010400D03*
X0092645Y0010300D03*
X0092645Y0010200D03*
X0092645Y0010100D03*
X0090845Y0012100D03*
X0090845Y0012200D03*
X0087545Y0011800D03*
X0087445Y0011700D03*
X0085845Y0012200D03*
X0089045Y0009100D03*
X0089645Y0008500D03*
X0082945Y0008400D03*
X0078145Y0012200D03*
X0078145Y0018400D03*
X0086245Y0023500D03*
X0093545Y0016100D03*
X0093545Y0016000D03*
X0093545Y0015900D03*
X0093545Y0015800D03*
X0102645Y0018400D03*
X0086545Y0042800D03*
D29*
X0086595Y0042900D03*
X0084195Y0017900D03*
X0084195Y0017800D03*
X0084195Y0015300D03*
X0080595Y0015300D03*
X0080595Y0015200D03*
X0080595Y0017800D03*
X0078695Y0017600D03*
X0076695Y0017700D03*
X0076695Y0017800D03*
X0076695Y0015300D03*
X0078695Y0011400D03*
X0080695Y0010400D03*
X0080695Y0008700D03*
X0082395Y0009100D03*
X0084395Y0009100D03*
X0084395Y0009200D03*
X0084395Y0009300D03*
X0084395Y0009400D03*
X0084395Y0009500D03*
X0084395Y0009600D03*
X0084395Y0009700D03*
X0084395Y0009800D03*
X0084395Y0009900D03*
X0084395Y0010000D03*
X0084395Y0010100D03*
X0084395Y0010200D03*
X0084395Y0010300D03*
X0084395Y0010400D03*
X0084395Y0010500D03*
X0084395Y0010600D03*
X0084395Y0010700D03*
X0084395Y0010800D03*
X0084395Y0010900D03*
X0084395Y0011000D03*
X0084395Y0011100D03*
X0084395Y0011200D03*
X0084395Y0011300D03*
X0084395Y0011400D03*
X0084395Y0011500D03*
X0084395Y0009000D03*
X0084395Y0008900D03*
X0084395Y0008800D03*
X0084395Y0008700D03*
X0084395Y0008600D03*
X0084395Y0008500D03*
X0084395Y0008400D03*
X0087695Y0012200D03*
X0091095Y0010800D03*
X0091095Y0010700D03*
X0091095Y0010600D03*
X0091095Y0010500D03*
X0092695Y0011100D03*
X0092695Y0011200D03*
X0093795Y0009600D03*
X0093795Y0009500D03*
X0096195Y0009500D03*
X0096195Y0009600D03*
X0096195Y0009400D03*
X0096295Y0010000D03*
X0096395Y0010200D03*
X0096795Y0011500D03*
X0100195Y0011500D03*
X0100195Y0011600D03*
X0100195Y0011400D03*
X0097295Y0015300D03*
X0097295Y0015400D03*
X0097195Y0017800D03*
X0097195Y0017900D03*
X0093695Y0018000D03*
X0093595Y0017900D03*
X0093495Y0017800D03*
X0093295Y0016700D03*
X0093595Y0015100D03*
X0091695Y0015300D03*
X0101195Y0018400D03*
X0105995Y0015400D03*
X0107595Y0015000D03*
D30*
X0103795Y0014700D03*
X0097195Y0014600D03*
X0097595Y0011300D03*
X0097595Y0011200D03*
X0097595Y0011100D03*
X0092395Y0017200D03*
X0089195Y0016500D03*
X0088995Y0017900D03*
X0089195Y0014800D03*
X0080595Y0012300D03*
X0086995Y0008400D03*
X0080095Y0029800D03*
X0086795Y0043400D03*
X0083195Y0045400D03*
X0100795Y0045400D03*
X0103895Y0029800D03*
D31*
X0104545Y0018200D03*
X0104245Y0017800D03*
X0104145Y0017700D03*
X0107445Y0017600D03*
X0107545Y0017700D03*
X0107645Y0017900D03*
X0107445Y0015400D03*
X0107545Y0015300D03*
X0107645Y0015200D03*
X0107645Y0015100D03*
X0103645Y0012000D03*
X0103545Y0011900D03*
X0103445Y0011800D03*
X0103345Y0011700D03*
X0103245Y0011500D03*
X0102245Y0011500D03*
X0105045Y0009100D03*
X0098245Y0011600D03*
X0096845Y0012100D03*
X0094945Y0010700D03*
X0094945Y0010600D03*
X0093845Y0010100D03*
X0093845Y0010000D03*
X0092645Y0010500D03*
X0092645Y0010600D03*
X0092645Y0010700D03*
X0090945Y0011500D03*
X0090945Y0011600D03*
X0090945Y0011700D03*
X0089045Y0011500D03*
X0087745Y0012100D03*
X0086345Y0011500D03*
X0084345Y0016300D03*
X0084345Y0016400D03*
X0084345Y0016500D03*
X0084345Y0016600D03*
X0084345Y0016700D03*
X0084345Y0016800D03*
X0084345Y0016900D03*
X0084345Y0017000D03*
X0084345Y0017100D03*
X0084345Y0017200D03*
X0086245Y0017700D03*
X0080545Y0017400D03*
X0080545Y0017300D03*
X0080545Y0017200D03*
X0080545Y0017100D03*
X0080545Y0017000D03*
X0080545Y0016000D03*
X0080545Y0015900D03*
X0080545Y0015800D03*
X0080545Y0015700D03*
X0080545Y0015600D03*
X0080545Y0010000D03*
X0080545Y0009900D03*
X0080545Y0009800D03*
X0080545Y0009700D03*
X0080545Y0009300D03*
X0080545Y0009200D03*
X0080545Y0009100D03*
X0080545Y0009000D03*
X0089545Y0008400D03*
X0093445Y0016400D03*
X0095345Y0017700D03*
X0097345Y0017000D03*
X0097345Y0016900D03*
X0097345Y0016800D03*
X0097345Y0016700D03*
X0097345Y0016600D03*
X0097345Y0016500D03*
X0097345Y0016400D03*
X0097345Y0016300D03*
X0097345Y0016200D03*
X0097345Y0016100D03*
X0097345Y0016000D03*
X0074845Y0017700D03*
D32*
X0074845Y0017100D03*
X0074845Y0017000D03*
X0074845Y0016900D03*
X0074845Y0016800D03*
X0074845Y0016700D03*
X0074845Y0016600D03*
X0074845Y0016500D03*
X0074845Y0016400D03*
X0074845Y0016300D03*
X0074845Y0016200D03*
X0074845Y0016100D03*
X0074845Y0016000D03*
X0073245Y0014700D03*
X0080545Y0012100D03*
X0082345Y0009700D03*
X0082345Y0009600D03*
X0082345Y0009500D03*
X0082345Y0009400D03*
X0084045Y0012200D03*
X0086745Y0011400D03*
X0089045Y0010500D03*
X0089045Y0010400D03*
X0089045Y0010300D03*
X0089045Y0010200D03*
X0089045Y0010100D03*
X0091445Y0008600D03*
X0091445Y0008500D03*
X0091445Y0008400D03*
X0093845Y0008400D03*
X0096245Y0008600D03*
X0094945Y0012200D03*
X0097245Y0014900D03*
X0095345Y0016100D03*
X0095345Y0016200D03*
X0095345Y0016300D03*
X0095345Y0016400D03*
X0095345Y0016500D03*
X0095345Y0016600D03*
X0095345Y0016700D03*
X0095345Y0016800D03*
X0095345Y0016900D03*
X0096845Y0018400D03*
X0099245Y0018400D03*
X0101845Y0021600D03*
X0101945Y0021700D03*
X0102045Y0021800D03*
X0102145Y0021900D03*
X0102245Y0022000D03*
X0102345Y0022100D03*
X0102445Y0022200D03*
X0102545Y0022300D03*
X0102645Y0022400D03*
X0102745Y0022500D03*
X0102845Y0022600D03*
X0102945Y0022700D03*
X0103045Y0022800D03*
X0103145Y0022900D03*
X0103245Y0023000D03*
X0103345Y0023100D03*
X0103445Y0023200D03*
X0103545Y0023300D03*
X0103645Y0023400D03*
X0103745Y0023500D03*
X0103845Y0023600D03*
X0103945Y0023700D03*
X0109245Y0017000D03*
X0110945Y0014700D03*
X0104945Y0010900D03*
X0104945Y0010800D03*
X0104945Y0010700D03*
X0099845Y0012200D03*
X0091645Y0015500D03*
X0083845Y0018400D03*
X0080645Y0018200D03*
X0081845Y0021900D03*
X0081745Y0022000D03*
X0081645Y0022100D03*
X0081545Y0022200D03*
X0081445Y0022300D03*
X0081345Y0022400D03*
X0081245Y0022500D03*
X0081145Y0022600D03*
X0081045Y0022700D03*
X0080645Y0023100D03*
X0080545Y0023200D03*
X0080445Y0023300D03*
X0080345Y0023400D03*
X0080245Y0023500D03*
X0080145Y0023600D03*
X0077045Y0035300D03*
X0080145Y0042900D03*
X0080245Y0043000D03*
X0080345Y0043100D03*
X0080445Y0043200D03*
X0080845Y0043600D03*
X0080945Y0043700D03*
X0081045Y0043800D03*
X0081145Y0043900D03*
X0081245Y0044000D03*
X0081345Y0044100D03*
X0081445Y0044200D03*
X0081545Y0044300D03*
X0081645Y0044400D03*
X0082045Y0044800D03*
X0086645Y0043100D03*
X0095445Y0044500D03*
X0097345Y0043100D03*
X0101945Y0044800D03*
X0102045Y0044700D03*
X0102145Y0044600D03*
X0102245Y0044500D03*
X0102345Y0044400D03*
X0102445Y0044300D03*
X0102545Y0044200D03*
X0102645Y0044100D03*
X0102745Y0044000D03*
X0102845Y0043900D03*
X0102945Y0043800D03*
X0103045Y0043700D03*
X0103145Y0043600D03*
X0103245Y0043500D03*
X0103345Y0043400D03*
X0103445Y0043300D03*
X0103545Y0043200D03*
X0103645Y0043100D03*
X0103745Y0043000D03*
X0103845Y0042900D03*
X0103945Y0042800D03*
X0106945Y0035300D03*
D33*
X0103645Y0029700D03*
X0103545Y0015100D03*
X0097245Y0014700D03*
X0102545Y0009000D03*
X0096445Y0008400D03*
X0086745Y0008700D03*
X0088945Y0015100D03*
X0088945Y0015300D03*
X0080645Y0018400D03*
X0083145Y0045600D03*
X0100845Y0045600D03*
D34*
X0100895Y0046100D03*
X0083095Y0046100D03*
X0097795Y0023500D03*
X0099195Y0015300D03*
X0099795Y0014700D03*
X0095395Y0015300D03*
X0093795Y0010700D03*
X0093795Y0010600D03*
X0093795Y0010500D03*
X0094995Y0010100D03*
X0094995Y0010000D03*
X0098795Y0008400D03*
X0089695Y0012100D03*
X0085595Y0018300D03*
X0078695Y0015300D03*
X0078095Y0014700D03*
X0074795Y0015300D03*
X0105995Y0015300D03*
D35*
X0107645Y0018000D03*
X0109245Y0017700D03*
X0104645Y0018300D03*
X0101245Y0018300D03*
X0101245Y0018200D03*
X0101245Y0018100D03*
X0101245Y0018000D03*
X0101245Y0017900D03*
X0101245Y0017800D03*
X0101245Y0017700D03*
X0101245Y0017600D03*
X0101245Y0017500D03*
X0101245Y0017400D03*
X0101245Y0017300D03*
X0101245Y0017200D03*
X0101245Y0017100D03*
X0101245Y0017000D03*
X0101245Y0016900D03*
X0101245Y0016800D03*
X0101245Y0016700D03*
X0101245Y0016600D03*
X0101245Y0016500D03*
X0101245Y0016400D03*
X0101245Y0016300D03*
X0101245Y0016200D03*
X0101245Y0016100D03*
X0101245Y0016000D03*
X0101245Y0015900D03*
X0101245Y0015800D03*
X0101245Y0015700D03*
X0101245Y0015600D03*
X0101245Y0015500D03*
X0101245Y0015400D03*
X0101245Y0015300D03*
X0101245Y0015200D03*
X0101245Y0015100D03*
X0101245Y0015000D03*
X0101245Y0014900D03*
X0101245Y0014800D03*
X0101245Y0014700D03*
X0099245Y0015400D03*
X0097245Y0015500D03*
X0095345Y0015400D03*
X0093645Y0015200D03*
X0093345Y0016600D03*
X0096945Y0012200D03*
X0096345Y0010100D03*
X0096245Y0009900D03*
X0096245Y0009800D03*
X0096245Y0009700D03*
X0094945Y0010900D03*
X0094945Y0011000D03*
X0094945Y0011100D03*
X0093845Y0009700D03*
X0092645Y0010900D03*
X0092645Y0011000D03*
X0091045Y0011000D03*
X0091045Y0011100D03*
X0091045Y0010900D03*
X0089445Y0012300D03*
X0089045Y0009200D03*
X0084245Y0015000D03*
X0084245Y0015200D03*
X0084245Y0017600D03*
X0084245Y0017700D03*
X0080545Y0017700D03*
X0078645Y0015400D03*
X0076745Y0015400D03*
X0076745Y0015500D03*
X0076745Y0015600D03*
X0076745Y0017400D03*
X0076745Y0017500D03*
X0076745Y0017600D03*
X0074845Y0015400D03*
X0080645Y0010300D03*
X0080645Y0008800D03*
X0086245Y0023400D03*
X0097245Y0017700D03*
X0097245Y0017600D03*
X0103645Y0012100D03*
X0104945Y0011500D03*
X0100245Y0011300D03*
X0100245Y0011200D03*
X0100245Y0011100D03*
X0100245Y0011000D03*
X0100245Y0010900D03*
X0100245Y0010800D03*
X0100245Y0010700D03*
X0100245Y0010600D03*
X0100245Y0010500D03*
X0100245Y0010400D03*
X0100245Y0010300D03*
X0100245Y0010200D03*
X0100245Y0010100D03*
X0100245Y0010000D03*
X0100245Y0009900D03*
X0100245Y0009800D03*
X0100245Y0009700D03*
X0100245Y0009600D03*
X0100245Y0009500D03*
X0100245Y0009400D03*
X0100245Y0009300D03*
X0100245Y0009200D03*
X0100245Y0009100D03*
X0100245Y0009000D03*
X0100245Y0008900D03*
X0100245Y0008800D03*
X0100245Y0008700D03*
X0100245Y0008600D03*
X0100245Y0008500D03*
X0100245Y0008400D03*
X0097445Y0042900D03*
D36*
X0097195Y0043500D03*
X0091995Y0037000D03*
X0104195Y0029900D03*
X0106095Y0035600D03*
X0088995Y0018200D03*
X0083095Y0016100D03*
X0075595Y0013500D03*
X0102995Y0008400D03*
X0077895Y0035600D03*
D37*
X0077245Y0031100D03*
X0080645Y0029600D03*
X0092045Y0037200D03*
X0088445Y0044400D03*
X0103345Y0029600D03*
X0106845Y0031100D03*
X0103445Y0017400D03*
X0103345Y0017100D03*
X0103345Y0017000D03*
X0103345Y0016900D03*
X0103345Y0016200D03*
X0103345Y0016100D03*
X0103345Y0016000D03*
X0103345Y0015900D03*
X0103345Y0015800D03*
X0103745Y0012300D03*
X0102645Y0011400D03*
X0102545Y0011300D03*
X0102545Y0011200D03*
X0102445Y0010900D03*
X0106545Y0008400D03*
X0096345Y0008500D03*
X0086545Y0009500D03*
X0086545Y0009600D03*
X0086545Y0009700D03*
X0086545Y0009800D03*
X0086545Y0009900D03*
X0086545Y0010000D03*
X0086545Y0010100D03*
X0086545Y0010200D03*
X0086545Y0010300D03*
X0086545Y0010400D03*
X0086545Y0010500D03*
X0086545Y0010600D03*
X0086545Y0010700D03*
X0086545Y0010800D03*
X0086545Y0010900D03*
X0086545Y0011000D03*
X0086545Y0011100D03*
X0086645Y0011200D03*
X0080645Y0014800D03*
X0080645Y0018300D03*
X0076245Y0014600D03*
X0073445Y0014600D03*
X0097245Y0014800D03*
D38*
X0095395Y0015500D03*
X0093595Y0015000D03*
X0093195Y0016800D03*
X0093695Y0018100D03*
X0097095Y0018100D03*
X0100095Y0011900D03*
X0096595Y0010500D03*
X0093795Y0009200D03*
X0093795Y0009100D03*
X0092695Y0011400D03*
X0092695Y0011500D03*
X0092695Y0011600D03*
X0091195Y0010100D03*
X0091195Y0010000D03*
X0091195Y0009900D03*
X0084295Y0011800D03*
X0084295Y0011900D03*
X0082395Y0011500D03*
X0080695Y0011600D03*
X0080495Y0011900D03*
X0080795Y0010500D03*
X0080795Y0008500D03*
X0078695Y0011300D03*
X0078695Y0015500D03*
X0080595Y0015100D03*
X0082495Y0015400D03*
X0084095Y0015500D03*
X0084095Y0014800D03*
X0082395Y0017600D03*
X0084095Y0018100D03*
X0080595Y0018000D03*
X0080595Y0017900D03*
X0078695Y0017500D03*
X0076595Y0018000D03*
X0072695Y0017400D03*
X0072695Y0017300D03*
X0072595Y0016700D03*
X0072595Y0016600D03*
X0072595Y0016500D03*
X0072595Y0016400D03*
X0072695Y0015800D03*
X0072695Y0015700D03*
X0072695Y0015600D03*
X0081595Y0028000D03*
X0076795Y0031300D03*
X0076795Y0031400D03*
X0076795Y0031500D03*
X0076795Y0031600D03*
X0076795Y0031700D03*
X0076795Y0031800D03*
X0076795Y0031900D03*
X0076795Y0032000D03*
X0076795Y0032100D03*
X0076795Y0032200D03*
X0076795Y0032300D03*
X0076795Y0032400D03*
X0076795Y0032500D03*
X0076795Y0032600D03*
X0076795Y0032700D03*
X0076795Y0032800D03*
X0076795Y0032900D03*
X0076795Y0033000D03*
X0076795Y0033100D03*
X0076795Y0033200D03*
X0076795Y0033300D03*
X0076795Y0033400D03*
X0076795Y0033500D03*
X0076795Y0033600D03*
X0076795Y0033700D03*
X0076795Y0033800D03*
X0076795Y0033900D03*
X0076795Y0034000D03*
X0076795Y0034100D03*
X0076795Y0034200D03*
X0076795Y0034300D03*
X0076795Y0034400D03*
X0076795Y0034500D03*
X0076795Y0034600D03*
X0076795Y0034700D03*
X0076795Y0034800D03*
X0076795Y0034900D03*
X0076795Y0035000D03*
X0076795Y0035100D03*
X0081695Y0038400D03*
X0088895Y0044900D03*
X0088895Y0045000D03*
X0088895Y0045100D03*
X0088895Y0045200D03*
X0088995Y0045300D03*
X0088995Y0045400D03*
X0088995Y0045500D03*
X0088995Y0045600D03*
X0088995Y0045700D03*
X0089095Y0045900D03*
X0089095Y0046000D03*
X0089095Y0046100D03*
X0089095Y0046200D03*
X0089095Y0046300D03*
X0089195Y0046400D03*
X0089195Y0046500D03*
X0089195Y0046600D03*
X0089195Y0046700D03*
X0089195Y0046800D03*
X0089295Y0047100D03*
X0089295Y0047200D03*
X0089295Y0047300D03*
X0089395Y0047700D03*
X0094695Y0047500D03*
X0094695Y0047400D03*
X0094795Y0047000D03*
X0094795Y0046900D03*
X0094795Y0046800D03*
X0094795Y0046700D03*
X0094895Y0046500D03*
X0094895Y0046400D03*
X0094895Y0046300D03*
X0094895Y0046200D03*
X0094895Y0046100D03*
X0094995Y0046000D03*
X0094995Y0045900D03*
X0094995Y0045800D03*
X0094995Y0045700D03*
X0094995Y0045600D03*
X0095095Y0045400D03*
X0095095Y0045300D03*
X0095095Y0045200D03*
X0095095Y0045100D03*
X0095195Y0045000D03*
X0095195Y0044900D03*
X0095195Y0044800D03*
X0100895Y0046000D03*
X0104295Y0042200D03*
X0104295Y0042100D03*
X0104295Y0042000D03*
X0102295Y0038500D03*
X0107195Y0035100D03*
X0107195Y0035000D03*
X0107195Y0034900D03*
X0107195Y0034800D03*
X0107195Y0034700D03*
X0107195Y0034600D03*
X0107195Y0034500D03*
X0107195Y0034400D03*
X0107195Y0034300D03*
X0107195Y0034200D03*
X0107195Y0034100D03*
X0107195Y0034000D03*
X0107195Y0033900D03*
X0107195Y0033800D03*
X0107195Y0033700D03*
X0107195Y0033600D03*
X0107195Y0033500D03*
X0107195Y0033400D03*
X0107195Y0033300D03*
X0107195Y0033200D03*
X0107195Y0033100D03*
X0107195Y0033000D03*
X0107195Y0032900D03*
X0107195Y0032800D03*
X0107195Y0032700D03*
X0107195Y0032600D03*
X0107195Y0032500D03*
X0107195Y0032400D03*
X0107195Y0032300D03*
X0107195Y0032200D03*
X0107195Y0032100D03*
X0107195Y0032000D03*
X0107195Y0031900D03*
X0107195Y0031800D03*
X0107195Y0031700D03*
X0107195Y0031600D03*
X0107195Y0031500D03*
X0107195Y0031400D03*
X0107195Y0031300D03*
X0102395Y0027900D03*
X0104295Y0024400D03*
X0104295Y0024300D03*
X0105995Y0017600D03*
X0107595Y0014900D03*
X0109195Y0017600D03*
X0111295Y0017500D03*
X0111295Y0017400D03*
X0111295Y0017300D03*
X0111395Y0017200D03*
X0111395Y0017100D03*
X0111395Y0017000D03*
X0111395Y0016900D03*
X0111395Y0016800D03*
X0111395Y0016700D03*
X0111395Y0016600D03*
X0111395Y0016500D03*
X0111395Y0016400D03*
X0111395Y0016300D03*
X0111295Y0015100D03*
X0106995Y0011500D03*
X0107095Y0011300D03*
X0107095Y0011200D03*
X0107095Y0011100D03*
X0107095Y0011000D03*
X0106995Y0009000D03*
X0106995Y0008900D03*
X0105095Y0009200D03*
X0086295Y0023300D03*
D39*
X0078045Y0018300D03*
X0078045Y0014800D03*
X0078045Y0012100D03*
X0083045Y0008500D03*
X0089745Y0008600D03*
X0092645Y0009800D03*
X0092645Y0009900D03*
X0092645Y0010000D03*
X0093845Y0010800D03*
X0094945Y0009900D03*
X0101545Y0012100D03*
X0102545Y0018300D03*
X0085745Y0012100D03*
D40*
X0089095Y0014900D03*
X0089095Y0015600D03*
X0089095Y0016700D03*
X0089095Y0016800D03*
X0088995Y0017500D03*
X0088995Y0017600D03*
X0088995Y0017700D03*
X0088995Y0017800D03*
X0092495Y0017000D03*
X0086895Y0008500D03*
X0102695Y0008700D03*
X0103695Y0014800D03*
X0106295Y0016000D03*
X0106295Y0016100D03*
X0106295Y0016200D03*
X0106295Y0016300D03*
X0106295Y0016400D03*
X0106295Y0016500D03*
X0106295Y0016600D03*
X0106295Y0016700D03*
X0106295Y0016800D03*
X0106295Y0016900D03*
X0106295Y0017000D03*
X0106395Y0017100D03*
X0106395Y0017200D03*
X0106395Y0017300D03*
X0106395Y0015900D03*
X0106395Y0015800D03*
X0080395Y0036800D03*
X0083195Y0045500D03*
X0091995Y0037100D03*
X0100795Y0045500D03*
D41*
X0086495Y0042700D03*
X0085495Y0018200D03*
X0085695Y0012000D03*
X0089795Y0012000D03*
X0089795Y0008700D03*
X0092595Y0009700D03*
X0093795Y0010900D03*
X0093795Y0011000D03*
X0094995Y0009800D03*
X0094995Y0009700D03*
X0098895Y0008500D03*
X0101495Y0012000D03*
X0099895Y0014800D03*
X0102495Y0018200D03*
X0109195Y0017800D03*
X0083095Y0008600D03*
X0077995Y0012000D03*
X0077995Y0018200D03*
D42*
X0088945Y0018000D03*
X0092445Y0017500D03*
X0092445Y0017400D03*
X0092445Y0017300D03*
X0097545Y0011000D03*
X0097545Y0010900D03*
X0097545Y0010800D03*
X0102845Y0008500D03*
X0097245Y0043400D03*
D43*
X0095045Y0045500D03*
X0089045Y0045800D03*
X0083145Y0046000D03*
X0097745Y0023300D03*
X0097145Y0018000D03*
X0095345Y0017600D03*
X0093445Y0017700D03*
X0093345Y0017600D03*
X0091745Y0017700D03*
X0086245Y0017600D03*
X0084145Y0018000D03*
X0084145Y0015400D03*
X0084145Y0014900D03*
X0084345Y0011700D03*
X0084345Y0011600D03*
X0080545Y0011700D03*
X0080545Y0011800D03*
X0080745Y0008600D03*
X0076645Y0015100D03*
X0076645Y0015200D03*
X0074845Y0015500D03*
X0074845Y0017600D03*
X0076645Y0017900D03*
X0089045Y0011400D03*
X0089045Y0009300D03*
X0091145Y0010200D03*
X0091145Y0010300D03*
X0091145Y0010400D03*
X0092645Y0011300D03*
X0093845Y0009400D03*
X0093845Y0009300D03*
X0094945Y0011200D03*
X0094945Y0011300D03*
X0094945Y0011400D03*
X0096445Y0010300D03*
X0096545Y0010400D03*
X0096845Y0011400D03*
X0096145Y0009300D03*
X0096145Y0009200D03*
X0096145Y0009100D03*
X0098245Y0009100D03*
X0100145Y0011700D03*
X0100145Y0011800D03*
X0099245Y0015500D03*
X0097245Y0015200D03*
X0104945Y0011400D03*
X0107145Y0010900D03*
X0107145Y0010800D03*
X0107145Y0010700D03*
X0107145Y0010600D03*
X0107145Y0010500D03*
X0107145Y0010400D03*
X0107145Y0010300D03*
X0107145Y0010200D03*
X0107145Y0010100D03*
X0109345Y0015400D03*
X0107645Y0018100D03*
D44*
X0107595Y0014600D03*
X0103595Y0015000D03*
X0102595Y0008900D03*
X0093595Y0018400D03*
X0088995Y0015400D03*
X0086795Y0008600D03*
X0086395Y0022900D03*
X0080395Y0029700D03*
X0077495Y0031000D03*
X0088095Y0044200D03*
X0095895Y0044200D03*
X0097295Y0043300D03*
X0106495Y0031000D03*
X0097695Y0022900D03*
D45*
X0099945Y0014900D03*
X0098945Y0008600D03*
X0077945Y0014900D03*
X0097545Y0042700D03*
D46*
X0106445Y0035500D03*
X0092445Y0017100D03*
X0093545Y0014600D03*
X0089145Y0015700D03*
X0089145Y0016600D03*
X0080645Y0014600D03*
X0075845Y0013400D03*
X0102745Y0008600D03*
X0077645Y0035500D03*
D47*
X0081095Y0037100D03*
X0081195Y0037200D03*
X0081395Y0037700D03*
X0081795Y0038700D03*
X0081795Y0038800D03*
X0081795Y0038900D03*
X0081695Y0039000D03*
X0081595Y0039200D03*
X0081495Y0039300D03*
X0081395Y0039500D03*
X0081295Y0039600D03*
X0081195Y0039800D03*
X0081095Y0039900D03*
X0080995Y0040100D03*
X0080895Y0040200D03*
X0080795Y0040400D03*
X0080695Y0040500D03*
X0080595Y0040600D03*
X0080495Y0040800D03*
X0080395Y0040900D03*
X0080295Y0041100D03*
X0080195Y0041200D03*
X0079995Y0041500D03*
X0079895Y0041700D03*
X0079795Y0041900D03*
X0079795Y0042400D03*
X0079895Y0042500D03*
X0088695Y0044600D03*
X0095295Y0044600D03*
X0094595Y0047800D03*
X0104195Y0042400D03*
X0104195Y0041800D03*
X0104095Y0041700D03*
X0104095Y0041600D03*
X0103895Y0041300D03*
X0103695Y0041000D03*
X0103595Y0040900D03*
X0103495Y0040700D03*
X0103395Y0040600D03*
X0103295Y0040400D03*
X0103195Y0040300D03*
X0102995Y0040000D03*
X0102795Y0039700D03*
X0102595Y0039400D03*
X0102395Y0039100D03*
X0102295Y0039000D03*
X0102295Y0038900D03*
X0102195Y0038800D03*
X0102595Y0037800D03*
X0102695Y0037600D03*
X0102795Y0037300D03*
X0102895Y0037100D03*
X0107095Y0031200D03*
X0102395Y0027400D03*
X0102295Y0027500D03*
X0102995Y0026500D03*
X0103195Y0026200D03*
X0103395Y0025900D03*
X0103595Y0025600D03*
X0103695Y0025500D03*
X0104195Y0024700D03*
X0104195Y0024100D03*
X0104695Y0018400D03*
X0105995Y0017500D03*
X0109195Y0017400D03*
X0109295Y0015500D03*
X0111195Y0015300D03*
X0111095Y0018000D03*
X0110995Y0018100D03*
X0106795Y0011800D03*
X0106895Y0011700D03*
X0106995Y0009100D03*
X0106895Y0008700D03*
X0105095Y0009300D03*
X0099995Y0012100D03*
X0098195Y0009200D03*
X0096195Y0008800D03*
X0093795Y0008800D03*
X0093795Y0008900D03*
X0091295Y0009200D03*
X0091295Y0009300D03*
X0091295Y0009400D03*
X0091295Y0009500D03*
X0092695Y0011700D03*
X0092695Y0011800D03*
X0092695Y0011900D03*
X0094895Y0011800D03*
X0093595Y0014900D03*
X0091695Y0015400D03*
X0091795Y0017600D03*
X0095395Y0017400D03*
X0095395Y0015700D03*
X0099195Y0015700D03*
X0086295Y0023200D03*
X0081695Y0027400D03*
X0081695Y0027500D03*
X0081695Y0027600D03*
X0081595Y0027300D03*
X0081195Y0029000D03*
X0080995Y0029400D03*
X0080495Y0025700D03*
X0080295Y0025400D03*
X0080095Y0025100D03*
X0079895Y0024800D03*
X0079895Y0024700D03*
X0079795Y0024600D03*
X0079795Y0024100D03*
X0079895Y0024000D03*
X0080595Y0018100D03*
X0082395Y0017500D03*
X0082395Y0017400D03*
X0082495Y0015500D03*
X0083995Y0014700D03*
X0080595Y0015000D03*
X0078695Y0015700D03*
X0078695Y0015800D03*
X0078695Y0017300D03*
X0078695Y0017400D03*
X0076495Y0018200D03*
X0074795Y0017400D03*
X0072995Y0018100D03*
X0072895Y0018000D03*
X0072895Y0017900D03*
X0072895Y0015100D03*
X0072995Y0015000D03*
X0076495Y0014900D03*
X0076495Y0013100D03*
X0078695Y0011200D03*
X0080495Y0012000D03*
X0080895Y0010600D03*
X0082395Y0011400D03*
X0082495Y0010000D03*
X0076895Y0031200D03*
D48*
X0077395Y0035400D03*
X0084395Y0044800D03*
X0084595Y0044700D03*
X0085295Y0044200D03*
X0088295Y0044300D03*
X0095795Y0044300D03*
X0098695Y0044200D03*
X0098895Y0044300D03*
X0099595Y0044800D03*
X0106695Y0035400D03*
X0103495Y0015200D03*
X0102495Y0009200D03*
X0102495Y0009100D03*
X0088895Y0015200D03*
X0086695Y0008900D03*
X0086695Y0008800D03*
D49*
X0089045Y0015000D03*
X0089045Y0015500D03*
X0089045Y0016900D03*
X0089045Y0017000D03*
X0089045Y0017100D03*
X0089045Y0017200D03*
X0089045Y0017300D03*
X0089045Y0017400D03*
X0103645Y0014900D03*
X0106445Y0015700D03*
X0106445Y0017400D03*
X0102645Y0008800D03*
X0103645Y0036800D03*
X0086745Y0043300D03*
D50*
X0091995Y0037300D03*
X0097795Y0023400D03*
X0097295Y0017500D03*
X0097295Y0017400D03*
X0097295Y0017300D03*
X0097295Y0017200D03*
X0097295Y0017100D03*
X0097295Y0015900D03*
X0097295Y0015800D03*
X0097295Y0015700D03*
X0097295Y0015600D03*
X0093595Y0015400D03*
X0093595Y0015300D03*
X0093395Y0016500D03*
X0090995Y0011400D03*
X0090995Y0011300D03*
X0090995Y0011200D03*
X0092695Y0010800D03*
X0093795Y0009900D03*
X0093795Y0009800D03*
X0094995Y0010800D03*
X0096695Y0011600D03*
X0103295Y0011600D03*
X0107295Y0015600D03*
X0107395Y0015500D03*
X0109295Y0015300D03*
X0107395Y0017500D03*
X0105995Y0017700D03*
X0084295Y0017500D03*
X0084295Y0017400D03*
X0084295Y0017300D03*
X0082395Y0017700D03*
X0080595Y0017600D03*
X0080595Y0017500D03*
X0078695Y0017700D03*
X0076795Y0017300D03*
X0076795Y0017200D03*
X0076795Y0017100D03*
X0076795Y0017000D03*
X0076795Y0016900D03*
X0076795Y0016800D03*
X0076795Y0016700D03*
X0076795Y0016600D03*
X0076795Y0016500D03*
X0076795Y0016400D03*
X0076795Y0016300D03*
X0076795Y0016200D03*
X0076795Y0016100D03*
X0076795Y0016000D03*
X0076795Y0015900D03*
X0076795Y0015800D03*
X0076795Y0015700D03*
X0078295Y0012300D03*
X0078695Y0011500D03*
X0080595Y0010200D03*
X0080595Y0010100D03*
X0080595Y0008900D03*
X0082395Y0011600D03*
X0082495Y0015300D03*
X0084295Y0015100D03*
X0080595Y0015400D03*
X0080595Y0015500D03*
D51*
X0080645Y0014700D03*
X0080545Y0012200D03*
X0086645Y0009000D03*
X0093545Y0014700D03*
X0103445Y0015300D03*
X0103445Y0015400D03*
X0106245Y0012300D03*
X0102445Y0009600D03*
X0102445Y0009500D03*
X0102445Y0009400D03*
X0102445Y0009300D03*
X0097745Y0023000D03*
X0086345Y0023000D03*
X0080645Y0036900D03*
X0084945Y0044400D03*
X0084845Y0044500D03*
X0084745Y0044600D03*
X0085145Y0044300D03*
X0083145Y0045700D03*
X0097345Y0043200D03*
X0099045Y0044400D03*
X0099145Y0044500D03*
X0099345Y0044600D03*
X0099445Y0044700D03*
X0103345Y0036900D03*
D52*
X0100895Y0045700D03*
X0086695Y0043200D03*
X0107595Y0018400D03*
X0110795Y0014600D03*
X0103395Y0015500D03*
X0103395Y0015600D03*
X0103395Y0015700D03*
X0102495Y0011100D03*
X0102495Y0011000D03*
X0102395Y0010800D03*
X0102395Y0010700D03*
X0102395Y0010600D03*
X0102395Y0010500D03*
X0102395Y0010400D03*
X0102395Y0010300D03*
X0102395Y0010200D03*
X0102395Y0010100D03*
X0102395Y0010000D03*
X0102395Y0009900D03*
X0102395Y0009800D03*
X0102395Y0009700D03*
X0091595Y0015700D03*
X0086595Y0009400D03*
X0086595Y0009300D03*
X0086595Y0009200D03*
X0086595Y0009100D03*
D53*
X0087295Y0011500D03*
X0087395Y0011600D03*
X0087595Y0011900D03*
X0087695Y0012000D03*
X0089595Y0012200D03*
X0090895Y0012000D03*
X0090895Y0011900D03*
X0090895Y0011800D03*
X0093795Y0010300D03*
X0093795Y0010200D03*
X0094995Y0010300D03*
X0094995Y0010400D03*
X0094995Y0010500D03*
X0096695Y0011700D03*
X0096695Y0011900D03*
X0096795Y0012000D03*
X0099695Y0014600D03*
X0103195Y0017700D03*
X0104295Y0017900D03*
X0104395Y0018000D03*
X0104495Y0018100D03*
X0107595Y0017800D03*
X0093595Y0015700D03*
X0093595Y0015600D03*
X0093595Y0015500D03*
X0093495Y0016200D03*
X0093495Y0016300D03*
X0085695Y0018400D03*
X0080495Y0016900D03*
X0080495Y0016800D03*
X0080495Y0016700D03*
X0080495Y0016600D03*
X0080495Y0016500D03*
X0080495Y0016400D03*
X0080495Y0016300D03*
X0080495Y0016200D03*
X0080495Y0016100D03*
X0078195Y0014600D03*
X0080495Y0009600D03*
X0080495Y0009500D03*
X0080495Y0009400D03*
X0097495Y0042800D03*
D54*
X0091995Y0029400D03*
X0091995Y0029100D03*
X0105995Y0009400D03*
D55*
X0105945Y0009500D03*
X0105945Y0009600D03*
X0105945Y0009700D03*
X0110245Y0015600D03*
X0110245Y0015700D03*
X0105945Y0030800D03*
X0104145Y0036600D03*
X0100745Y0045100D03*
X0092045Y0029000D03*
X0092045Y0028900D03*
X0079845Y0036600D03*
X0078145Y0030800D03*
D56*
X0078195Y0035700D03*
X0083295Y0045100D03*
X0091995Y0028800D03*
X0088995Y0018300D03*
X0100395Y0012300D03*
X0105895Y0010000D03*
X0105895Y0009900D03*
X0105895Y0009800D03*
X0110195Y0015800D03*
X0110195Y0015900D03*
X0110195Y0016000D03*
X0110195Y0016100D03*
X0110195Y0016200D03*
X0075395Y0013600D03*
D57*
X0081695Y0011300D03*
X0081695Y0011200D03*
X0081695Y0011100D03*
X0081695Y0011000D03*
X0081695Y0010900D03*
X0081695Y0010800D03*
X0081695Y0010700D03*
X0083195Y0015600D03*
X0083195Y0015700D03*
X0089295Y0016400D03*
X0089295Y0014700D03*
X0088995Y0018100D03*
X0097495Y0010700D03*
X0106195Y0030900D03*
X0103895Y0036700D03*
X0080095Y0036700D03*
X0077795Y0030900D03*
D58*
X0086295Y0023100D03*
X0093595Y0018300D03*
X0092895Y0016900D03*
X0091595Y0015600D03*
X0093595Y0014800D03*
X0086695Y0011300D03*
X0082395Y0017000D03*
X0076295Y0018400D03*
X0073295Y0018400D03*
X0097695Y0023100D03*
X0103495Y0017500D03*
X0103595Y0017600D03*
X0103395Y0017300D03*
X0103395Y0017200D03*
X0103295Y0016800D03*
X0103295Y0016700D03*
X0103295Y0016600D03*
X0103295Y0016500D03*
X0103295Y0016400D03*
X0103295Y0016300D03*
X0107595Y0014700D03*
X0106495Y0012200D03*
X0110695Y0018400D03*
X0095595Y0044400D03*
X0100895Y0045800D03*
X0083095Y0045800D03*
D59*
X0086945Y0043600D03*
X0092045Y0036900D03*
X0092045Y0028700D03*
X0079545Y0030000D03*
X0097145Y0043600D03*
X0105845Y0035700D03*
X0084545Y0012300D03*
D60*
X0094245Y0012300D03*
X0092045Y0024300D03*
X0092045Y0035100D03*
D61*
X0083895Y0013800D03*
X0083895Y0013700D03*
X0083895Y0013600D03*
X0083895Y0013500D03*
X0083895Y0013400D03*
X0083895Y0013300D03*
X0083895Y0013200D03*
X0083895Y0013100D03*
X0083895Y0013000D03*
X0083895Y0012900D03*
X0083895Y0012800D03*
X0083895Y0012700D03*
X0083895Y0012600D03*
X0083895Y0012500D03*
X0083895Y0012400D03*
D62*
X0098845Y0012600D03*
X0098845Y0012700D03*
X0098845Y0013100D03*
X0098845Y0013200D03*
D63*
X0098795Y0013000D03*
X0098795Y0012900D03*
X0098795Y0012800D03*
X0091995Y0022000D03*
D64*
X0092045Y0021900D03*
X0098945Y0013300D03*
D65*
X0100095Y0013400D03*
X0091995Y0020000D03*
X0091995Y0020500D03*
D66*
X0100395Y0013500D03*
D67*
X0100545Y0013600D03*
X0092045Y0020900D03*
D68*
X0091995Y0028600D03*
X0091995Y0029500D03*
X0104495Y0030000D03*
X0100695Y0045000D03*
X0083295Y0045000D03*
X0075295Y0013700D03*
D69*
X0092045Y0021000D03*
X0100645Y0013700D03*
D70*
X0092045Y0028500D03*
X0104445Y0036500D03*
X0075245Y0013800D03*
D71*
X0100745Y0013800D03*
D72*
X0089845Y0016200D03*
X0092045Y0028200D03*
X0105545Y0035800D03*
X0097045Y0043700D03*
X0086945Y0043700D03*
X0083345Y0044900D03*
X0078445Y0035800D03*
X0075145Y0013900D03*
D73*
X0094495Y0013900D03*
D74*
X0091995Y0028100D03*
X0079295Y0030100D03*
X0075095Y0014000D03*
X0104695Y0030100D03*
D75*
X0094545Y0014000D03*
D76*
X0092045Y0027900D03*
X0092045Y0028000D03*
X0092045Y0029700D03*
X0079345Y0036400D03*
X0075045Y0014100D03*
D77*
X0094595Y0014100D03*
D78*
X0091995Y0027800D03*
X0091995Y0036700D03*
X0086995Y0043800D03*
X0104695Y0036400D03*
X0104895Y0030200D03*
X0074995Y0014200D03*
D79*
X0094645Y0014200D03*
D80*
X0092045Y0027700D03*
X0079145Y0030200D03*
X0079045Y0030300D03*
X0078745Y0030600D03*
X0074945Y0014400D03*
X0074945Y0014300D03*
X0105345Y0030600D03*
X0104845Y0036300D03*
X0097045Y0043800D03*
D81*
X0094695Y0014300D03*
D82*
X0094745Y0014400D03*
D83*
X0090095Y0016100D03*
X0091995Y0027500D03*
X0091995Y0027600D03*
X0091995Y0029800D03*
X0079195Y0036300D03*
X0079095Y0036200D03*
X0078795Y0035900D03*
X0078895Y0030500D03*
X0078995Y0030400D03*
X0074895Y0014500D03*
X0104995Y0030300D03*
X0105095Y0030400D03*
X0105295Y0035900D03*
X0097095Y0043900D03*
X0091995Y0049000D03*
D84*
X0094795Y0014500D03*
D85*
X0087045Y0014600D03*
X0092045Y0023400D03*
X0092045Y0032400D03*
X0092045Y0032500D03*
X0092045Y0033900D03*
X0092045Y0034000D03*
D86*
X0092045Y0036600D03*
X0086945Y0043900D03*
X0079045Y0036100D03*
X0092045Y0027400D03*
X0090145Y0016000D03*
X0090145Y0015900D03*
X0103145Y0014600D03*
X0105145Y0030500D03*
X0105145Y0036000D03*
X0105045Y0036100D03*
X0104945Y0036200D03*
D87*
X0100745Y0045300D03*
X0083245Y0045300D03*
X0083145Y0016200D03*
X0083145Y0016000D03*
X0083145Y0015900D03*
X0083145Y0015800D03*
D88*
X0090195Y0015800D03*
X0091995Y0027300D03*
X0091995Y0029900D03*
X0078895Y0036000D03*
X0086895Y0044000D03*
X0097095Y0044000D03*
D89*
X0100745Y0045200D03*
X0086845Y0043500D03*
X0083245Y0045200D03*
X0079845Y0029900D03*
X0092045Y0029300D03*
X0092045Y0029200D03*
X0089445Y0016300D03*
D90*
X0088995Y0018400D03*
X0091995Y0028300D03*
X0091995Y0028400D03*
X0091995Y0029600D03*
X0091995Y0036800D03*
X0100695Y0044900D03*
X0105595Y0030700D03*
X0079595Y0036500D03*
X0078395Y0030700D03*
D91*
X0091995Y0018500D03*
D92*
X0092045Y0018600D03*
D93*
X0091995Y0018700D03*
D94*
X0091995Y0018800D03*
D95*
X0091995Y0018900D03*
D96*
X0091995Y0019000D03*
D97*
X0091995Y0019100D03*
D98*
X0091995Y0019200D03*
D99*
X0091995Y0019300D03*
D100*
X0091995Y0019400D03*
D101*
X0091995Y0019500D03*
D102*
X0091945Y0019600D03*
D103*
X0091945Y0019700D03*
D104*
X0092045Y0019800D03*
D105*
X0092045Y0019900D03*
D106*
X0092045Y0020100D03*
X0092045Y0020300D03*
X0092045Y0020400D03*
D107*
X0091995Y0020200D03*
D108*
X0091995Y0020600D03*
D109*
X0092045Y0020700D03*
D110*
X0092045Y0020800D03*
D111*
X0091995Y0021100D03*
D112*
X0092045Y0021200D03*
D113*
X0092045Y0021300D03*
D114*
X0092045Y0021400D03*
D115*
X0092045Y0021500D03*
D116*
X0092045Y0021600D03*
D117*
X0091995Y0021700D03*
D118*
X0091995Y0021800D03*
D119*
X0092045Y0022100D03*
D120*
X0091995Y0022200D03*
D121*
X0092045Y0022300D03*
D122*
X0091995Y0022400D03*
D123*
X0092045Y0022500D03*
D124*
X0091995Y0022600D03*
D125*
X0092045Y0022700D03*
D126*
X0091995Y0022800D03*
D127*
X0092045Y0022900D03*
D128*
X0091995Y0023000D03*
D129*
X0092045Y0023100D03*
X0092045Y0023200D03*
X0092045Y0033200D03*
D130*
X0091995Y0033300D03*
X0091995Y0033400D03*
X0091995Y0033500D03*
X0091995Y0033600D03*
X0091995Y0033700D03*
X0091995Y0033800D03*
X0091995Y0033100D03*
X0091995Y0033000D03*
X0091995Y0032900D03*
X0091995Y0032800D03*
X0091995Y0032700D03*
X0091995Y0032600D03*
X0091995Y0023300D03*
D131*
X0091995Y0023500D03*
X0091995Y0032200D03*
X0091995Y0032300D03*
X0091995Y0034100D03*
X0091995Y0034200D03*
X0091995Y0034300D03*
D132*
X0092045Y0034400D03*
X0092045Y0032100D03*
X0092045Y0032000D03*
X0092045Y0023600D03*
D133*
X0091995Y0023700D03*
X0091995Y0031900D03*
X0091995Y0034500D03*
X0091995Y0034600D03*
D134*
X0092045Y0034700D03*
X0092045Y0031800D03*
X0092045Y0023800D03*
D135*
X0091995Y0023900D03*
X0091995Y0024000D03*
X0091995Y0031600D03*
X0091995Y0031700D03*
X0091995Y0034800D03*
D136*
X0092045Y0034900D03*
X0092045Y0024100D03*
D137*
X0091995Y0024200D03*
X0091995Y0031400D03*
X0091995Y0031500D03*
X0091995Y0035000D03*
D138*
X0091995Y0035200D03*
X0091995Y0031300D03*
X0091995Y0024400D03*
D139*
X0092045Y0024500D03*
X0092045Y0024600D03*
X0092045Y0031200D03*
X0092045Y0035300D03*
D140*
X0091995Y0035400D03*
X0091995Y0031100D03*
X0091995Y0024700D03*
D141*
X0092045Y0024800D03*
X0092045Y0031000D03*
D142*
X0091995Y0030900D03*
X0091995Y0035500D03*
X0091995Y0024900D03*
D143*
X0092045Y0025000D03*
X0092045Y0035600D03*
D144*
X0091995Y0035700D03*
X0091995Y0030800D03*
X0091995Y0025200D03*
X0091995Y0025100D03*
D145*
X0092045Y0025300D03*
X0092045Y0030700D03*
X0092045Y0047900D03*
D146*
X0091995Y0048000D03*
X0091995Y0048100D03*
X0091995Y0035800D03*
X0091995Y0030600D03*
X0091995Y0025500D03*
X0091995Y0025400D03*
D147*
X0092045Y0025600D03*
X0092045Y0048200D03*
D148*
X0091995Y0048300D03*
X0091995Y0035900D03*
X0091995Y0030500D03*
X0091995Y0025700D03*
D149*
X0092045Y0025800D03*
X0092045Y0048400D03*
D150*
X0091995Y0036000D03*
X0091995Y0030400D03*
X0091995Y0025900D03*
D151*
X0092045Y0026000D03*
X0092045Y0026100D03*
X0092045Y0048500D03*
D152*
X0091995Y0048600D03*
X0091995Y0036100D03*
X0091995Y0030300D03*
X0091995Y0026200D03*
D153*
X0092045Y0026300D03*
X0092045Y0036200D03*
D154*
X0091995Y0030200D03*
X0091995Y0026400D03*
X0091995Y0048700D03*
D155*
X0092045Y0026500D03*
D156*
X0091995Y0026600D03*
X0091995Y0036300D03*
X0091995Y0048800D03*
D157*
X0092045Y0030100D03*
X0092045Y0026800D03*
X0092045Y0026700D03*
D158*
X0091995Y0026900D03*
X0091995Y0036400D03*
D159*
X0092045Y0030000D03*
X0092045Y0027000D03*
D160*
X0091995Y0027100D03*
X0097195Y0044100D03*
X0091995Y0048900D03*
D161*
X0086845Y0044100D03*
X0092045Y0036500D03*
X0092045Y0027200D03*
D162*
X0052770Y0068250D02*
X0052770Y0072854D01*
X0050468Y0070552D01*
X0053538Y0070552D01*
X0048934Y0072087D02*
X0048166Y0072854D01*
X0046632Y0072854D01*
X0045864Y0072087D01*
X0045864Y0069017D01*
X0046632Y0068250D01*
X0048166Y0068250D01*
X0048934Y0069017D01*
X0044330Y0068250D02*
X0042795Y0068250D01*
X0043562Y0068250D02*
X0043562Y0072854D01*
X0042795Y0072854D02*
X0044330Y0072854D01*
X0142791Y0077792D02*
X0142791Y0080094D01*
X0143559Y0080861D01*
X0146628Y0080861D01*
X0147395Y0080094D01*
X0147395Y0077792D01*
X0142791Y0077792D01*
X0143559Y0082396D02*
X0142791Y0083163D01*
X0142791Y0084698D01*
X0143559Y0085465D01*
X0144326Y0085465D01*
X0147395Y0082396D01*
X0147395Y0085465D01*
X0156145Y0060465D02*
X0156145Y0057396D01*
X0156145Y0058931D02*
X0151541Y0058931D01*
X0153076Y0057396D01*
X0152309Y0055861D02*
X0151541Y0055094D01*
X0151541Y0053559D01*
X0152309Y0052792D01*
X0155378Y0052792D01*
X0156145Y0053559D01*
X0156145Y0055094D01*
X0155378Y0055861D01*
X0185295Y0079017D02*
X0186062Y0078250D01*
X0187597Y0078250D01*
X0188364Y0079017D01*
X0189899Y0079017D02*
X0190666Y0078250D01*
X0192201Y0078250D01*
X0192968Y0079017D01*
X0192968Y0079785D01*
X0192201Y0080552D01*
X0191434Y0080552D01*
X0192201Y0080552D02*
X0192968Y0081319D01*
X0192968Y0082087D01*
X0192201Y0082854D01*
X0190666Y0082854D01*
X0189899Y0082087D01*
X0188364Y0082087D02*
X0187597Y0082854D01*
X0186062Y0082854D01*
X0185295Y0082087D01*
X0185295Y0079017D01*
X0196087Y0079017D02*
X0196855Y0078250D01*
X0198389Y0078250D01*
X0199157Y0079017D01*
X0200691Y0079017D02*
X0201459Y0078250D01*
X0202993Y0078250D01*
X0203760Y0079017D01*
X0203760Y0080552D01*
X0202993Y0081319D01*
X0202226Y0081319D01*
X0200691Y0080552D01*
X0200691Y0082854D01*
X0203760Y0082854D01*
X0199157Y0082087D02*
X0198389Y0082854D01*
X0196855Y0082854D01*
X0196087Y0082087D01*
X0196087Y0079017D01*
X0211087Y0072854D02*
X0211087Y0068250D01*
X0211087Y0069785D02*
X0213389Y0069785D01*
X0214157Y0070552D01*
X0214157Y0072087D01*
X0213389Y0072854D01*
X0211087Y0072854D01*
X0212622Y0069785D02*
X0214157Y0068250D01*
X0215691Y0070552D02*
X0218760Y0070552D01*
X0217993Y0072854D02*
X0215691Y0070552D01*
X0217993Y0068250D02*
X0217993Y0072854D01*
X0226768Y0061104D02*
X0228303Y0061104D01*
X0227535Y0061104D02*
X0227535Y0056500D01*
X0226768Y0056500D02*
X0228303Y0056500D01*
X0229837Y0057267D02*
X0230605Y0056500D01*
X0232139Y0056500D01*
X0232907Y0057267D01*
X0234441Y0057267D02*
X0235209Y0056500D01*
X0236743Y0056500D01*
X0237510Y0057267D01*
X0237510Y0058802D01*
X0236743Y0059569D01*
X0235976Y0059569D01*
X0234441Y0058802D01*
X0234441Y0061104D01*
X0237510Y0061104D01*
X0232907Y0060337D02*
X0232139Y0061104D01*
X0230605Y0061104D01*
X0229837Y0060337D01*
X0229837Y0057267D01*
X0218451Y0036604D02*
X0216916Y0036604D01*
X0216149Y0035837D01*
X0214614Y0035837D02*
X0213847Y0036604D01*
X0212312Y0036604D01*
X0211545Y0035837D01*
X0211545Y0032767D01*
X0212312Y0032000D01*
X0213847Y0032000D01*
X0214614Y0032767D01*
X0216149Y0032000D02*
X0219218Y0035069D01*
X0219218Y0035837D01*
X0218451Y0036604D01*
X0219218Y0032000D02*
X0216149Y0032000D01*
X0232183Y0032829D02*
X0232183Y0028225D01*
X0232183Y0029760D02*
X0234485Y0029760D01*
X0235252Y0030527D01*
X0235252Y0032062D01*
X0234485Y0032829D01*
X0232183Y0032829D01*
X0233717Y0029760D02*
X0235252Y0028225D01*
X0236787Y0028992D02*
X0237554Y0028225D01*
X0239089Y0028225D01*
X0239856Y0028992D01*
X0239856Y0029760D01*
X0239089Y0030527D01*
X0238321Y0030527D01*
X0239089Y0030527D02*
X0239856Y0031294D01*
X0239856Y0032062D01*
X0239089Y0032829D01*
X0237554Y0032829D01*
X0236787Y0032062D01*
X0259041Y0032637D02*
X0259041Y0034939D01*
X0259809Y0035707D01*
X0261343Y0035707D01*
X0262111Y0034939D01*
X0262111Y0032637D01*
X0263645Y0032637D02*
X0259041Y0032637D01*
X0262111Y0034172D02*
X0263645Y0035707D01*
X0263645Y0037241D02*
X0260576Y0040311D01*
X0259809Y0040311D01*
X0259041Y0039543D01*
X0259041Y0038009D01*
X0259809Y0037241D01*
X0263645Y0037241D02*
X0263645Y0040311D01*
X0211545Y0115858D02*
X0211545Y0118927D01*
X0211545Y0117392D02*
X0216149Y0117392D01*
X0214614Y0118927D01*
X0215382Y0120461D02*
X0216149Y0121229D01*
X0216149Y0122763D01*
X0215382Y0123531D01*
X0212312Y0123531D01*
X0211545Y0122763D01*
X0211545Y0121229D01*
X0212312Y0120461D01*
X0211545Y0125065D02*
X0211545Y0126600D01*
X0211545Y0125833D02*
X0216149Y0125833D01*
X0216149Y0126600D02*
X0216149Y0125065D01*
X0159895Y0174809D02*
X0159895Y0176344D01*
X0159128Y0177111D01*
X0159128Y0178646D02*
X0159895Y0179413D01*
X0159895Y0180948D01*
X0159128Y0181715D01*
X0158361Y0181715D01*
X0157593Y0180948D01*
X0157593Y0178646D01*
X0159128Y0178646D01*
X0157593Y0178646D02*
X0156059Y0180181D01*
X0155291Y0181715D01*
X0156059Y0177111D02*
X0155291Y0176344D01*
X0155291Y0174809D01*
X0156059Y0174042D01*
X0159128Y0174042D01*
X0159895Y0174809D01*
X0320295Y0189500D02*
X0320295Y0194104D01*
X0322597Y0194104D01*
X0323364Y0193337D01*
X0323364Y0191802D01*
X0322597Y0191035D01*
X0320295Y0191035D01*
X0321830Y0191035D02*
X0323364Y0189500D01*
X0324899Y0189500D02*
X0324899Y0190267D01*
X0327968Y0193337D01*
X0327968Y0194104D01*
X0324899Y0194104D01*
X0330908Y0194104D02*
X0330908Y0189500D01*
X0330908Y0191035D02*
X0333210Y0191035D01*
X0333977Y0191802D01*
X0333977Y0193337D01*
X0333210Y0194104D01*
X0330908Y0194104D01*
X0332442Y0191035D02*
X0333977Y0189500D01*
X0335512Y0190267D02*
X0335512Y0191802D01*
X0337814Y0191802D01*
X0338581Y0191035D01*
X0338581Y0190267D01*
X0337814Y0189500D01*
X0336279Y0189500D01*
X0335512Y0190267D01*
X0335512Y0191802D02*
X0337046Y0193337D01*
X0338581Y0194104D01*
X0341545Y0194104D02*
X0343847Y0194104D01*
X0344614Y0193337D01*
X0344614Y0191802D01*
X0343847Y0191035D01*
X0341545Y0191035D01*
X0343080Y0191035D02*
X0344614Y0189500D01*
X0346149Y0190267D02*
X0346916Y0189500D01*
X0348451Y0189500D01*
X0349218Y0190267D01*
X0349218Y0191802D01*
X0348451Y0192569D01*
X0347684Y0192569D01*
X0346149Y0191802D01*
X0346149Y0194104D01*
X0349218Y0194104D01*
X0341545Y0194104D02*
X0341545Y0189500D01*
D163*
X0207595Y0050500D02*
X0172595Y0050500D01*
D164*
X0171345Y0050801D02*
X0166841Y0050801D01*
X0166841Y0051551D02*
X0166841Y0050050D01*
X0167592Y0053119D02*
X0170595Y0053119D01*
X0171345Y0053870D01*
X0171345Y0055371D01*
X0170595Y0056122D01*
X0171345Y0057723D02*
X0168343Y0060726D01*
X0167592Y0060726D01*
X0166841Y0059975D01*
X0166841Y0058474D01*
X0167592Y0057723D01*
X0167592Y0056122D02*
X0166841Y0055371D01*
X0166841Y0053870D01*
X0167592Y0053119D01*
X0171345Y0051551D02*
X0171345Y0050050D01*
X0171345Y0057723D02*
X0171345Y0060726D01*
X0243141Y0060210D02*
X0246895Y0060210D01*
X0247645Y0059460D01*
X0247645Y0057958D01*
X0246895Y0057208D01*
X0243141Y0057208D01*
X0243892Y0055606D02*
X0243141Y0054856D01*
X0243141Y0053355D01*
X0243892Y0052604D01*
X0246895Y0052604D01*
X0247645Y0053355D01*
X0247645Y0054856D01*
X0246895Y0055606D01*
X0243892Y0055606D01*
X0244643Y0051003D02*
X0243141Y0049501D01*
X0244643Y0048000D01*
X0247645Y0048000D01*
X0245393Y0048000D02*
X0245393Y0051003D01*
X0244643Y0051003D02*
X0247645Y0051003D01*
X0243141Y0061812D02*
X0243141Y0064814D01*
X0243141Y0063313D02*
X0247645Y0063313D01*
X0249078Y0075550D02*
X0246075Y0075550D01*
X0246075Y0080054D01*
X0244474Y0079303D02*
X0243723Y0080054D01*
X0242222Y0080054D01*
X0241472Y0079303D01*
X0241472Y0076301D01*
X0242222Y0075550D01*
X0243723Y0075550D01*
X0244474Y0076301D01*
X0244474Y0077802D01*
X0242973Y0077802D01*
X0250679Y0077802D02*
X0252931Y0077802D01*
X0253682Y0077051D01*
X0253682Y0076301D01*
X0252931Y0075550D01*
X0250679Y0075550D01*
X0250679Y0080054D01*
X0252931Y0080054D01*
X0253682Y0079303D01*
X0253682Y0078553D01*
X0252931Y0077802D01*
X0255283Y0074799D02*
X0258286Y0074799D01*
X0259887Y0076301D02*
X0260638Y0075550D01*
X0262139Y0075550D01*
X0262890Y0076301D01*
X0262890Y0077051D01*
X0262139Y0077802D01*
X0260638Y0077802D01*
X0259887Y0078553D01*
X0259887Y0079303D01*
X0260638Y0080054D01*
X0262139Y0080054D01*
X0262890Y0079303D01*
X0264491Y0080054D02*
X0264491Y0075550D01*
X0265992Y0077051D01*
X0267494Y0075550D01*
X0267494Y0080054D01*
X0270796Y0058754D02*
X0270045Y0058003D01*
X0270045Y0055001D01*
X0270796Y0054250D01*
X0272297Y0054250D01*
X0273048Y0055001D01*
X0274649Y0055001D02*
X0274649Y0058003D01*
X0275400Y0058754D01*
X0276901Y0058754D01*
X0277652Y0058003D01*
X0277652Y0055001D01*
X0276901Y0054250D01*
X0275400Y0054250D01*
X0274649Y0055001D01*
X0273048Y0058003D02*
X0272297Y0058754D01*
X0270796Y0058754D01*
X0279253Y0058754D02*
X0279253Y0054250D01*
X0282256Y0054250D02*
X0282256Y0058754D01*
X0280754Y0057253D01*
X0279253Y0058754D01*
X0283857Y0058754D02*
X0283857Y0054250D01*
X0283857Y0055751D02*
X0286109Y0055751D01*
X0286859Y0056502D01*
X0286859Y0058003D01*
X0286109Y0058754D01*
X0283857Y0058754D01*
X0288461Y0053499D02*
X0291463Y0053499D01*
X0293065Y0055001D02*
X0293815Y0054250D01*
X0295317Y0054250D01*
X0296067Y0055001D01*
X0296067Y0058003D01*
X0295317Y0058754D01*
X0293815Y0058754D01*
X0293065Y0058003D01*
X0293065Y0055001D01*
X0297669Y0055001D02*
X0297669Y0058754D01*
X0300671Y0058754D02*
X0300671Y0055001D01*
X0299921Y0054250D01*
X0298419Y0054250D01*
X0297669Y0055001D01*
X0302273Y0058754D02*
X0305275Y0058754D01*
X0303774Y0058754D02*
X0303774Y0054250D01*
X0302342Y0108176D02*
X0301591Y0108927D01*
X0301591Y0110428D01*
X0302342Y0111179D01*
X0302342Y0112780D02*
X0305345Y0112780D01*
X0306095Y0113531D01*
X0306095Y0115032D01*
X0305345Y0115783D01*
X0302342Y0115783D01*
X0301591Y0115032D01*
X0301591Y0113531D01*
X0302342Y0112780D01*
X0305345Y0111179D02*
X0306095Y0110428D01*
X0306095Y0108927D01*
X0305345Y0108176D01*
X0302342Y0108176D01*
X0301591Y0117384D02*
X0306095Y0120387D01*
X0301591Y0120387D01*
X0301591Y0121988D02*
X0306095Y0124991D01*
X0301591Y0124991D01*
X0301591Y0121988D02*
X0306095Y0121988D01*
X0306095Y0117384D02*
X0301591Y0117384D01*
X0306846Y0126592D02*
X0306846Y0129595D01*
X0306095Y0132697D02*
X0301591Y0132697D01*
X0301591Y0131196D02*
X0301591Y0134199D01*
X0302342Y0135800D02*
X0301591Y0136551D01*
X0301591Y0138052D01*
X0302342Y0138802D01*
X0305345Y0138802D01*
X0306095Y0138052D01*
X0306095Y0136551D01*
X0305345Y0135800D01*
X0302342Y0135800D01*
X0306846Y0140404D02*
X0306846Y0143406D01*
X0306095Y0145008D02*
X0301591Y0145008D01*
X0301591Y0148010D01*
X0301591Y0149612D02*
X0301591Y0151864D01*
X0302342Y0152614D01*
X0303843Y0152614D01*
X0304594Y0151864D01*
X0304594Y0149612D01*
X0306095Y0149612D02*
X0301591Y0149612D01*
X0303843Y0146509D02*
X0303843Y0145008D01*
X0302342Y0154216D02*
X0301591Y0154966D01*
X0301591Y0156468D01*
X0302342Y0157218D01*
X0303843Y0157218D02*
X0303843Y0155717D01*
X0303843Y0157218D02*
X0305345Y0157218D01*
X0306095Y0156468D01*
X0306095Y0154966D01*
X0305345Y0154216D01*
X0302342Y0154216D01*
X0303093Y0158820D02*
X0301591Y0160321D01*
X0303093Y0161822D01*
X0306095Y0161822D01*
X0303843Y0161822D02*
X0303843Y0158820D01*
X0303093Y0158820D02*
X0306095Y0158820D01*
X0296295Y0187684D02*
X0297045Y0188435D01*
X0297045Y0189936D01*
X0296295Y0190687D01*
X0295544Y0190687D01*
X0294793Y0189936D01*
X0294793Y0187684D01*
X0296295Y0187684D01*
X0294793Y0187684D02*
X0293292Y0189186D01*
X0292541Y0190687D01*
X0293292Y0192288D02*
X0292541Y0193039D01*
X0292541Y0194540D01*
X0293292Y0195291D01*
X0296295Y0192288D01*
X0297045Y0193039D01*
X0297045Y0194540D01*
X0296295Y0195291D01*
X0293292Y0195291D01*
X0294793Y0196892D02*
X0294793Y0199895D01*
X0294043Y0201496D02*
X0292541Y0202997D01*
X0297045Y0202997D01*
X0297045Y0201496D02*
X0297045Y0204499D01*
X0303791Y0203748D02*
X0304542Y0204499D01*
X0307545Y0204499D01*
X0308295Y0203748D01*
X0308295Y0202247D01*
X0307545Y0201496D01*
X0304542Y0201496D01*
X0303791Y0202247D01*
X0303791Y0203748D01*
X0305293Y0199895D02*
X0308295Y0199895D01*
X0306043Y0199895D02*
X0306043Y0196892D01*
X0305293Y0196892D02*
X0308295Y0196892D01*
X0305293Y0196892D02*
X0303791Y0198393D01*
X0305293Y0199895D01*
X0296295Y0192288D02*
X0293292Y0192288D01*
X0290548Y0219749D02*
X0287545Y0219749D01*
X0285944Y0221251D02*
X0285944Y0224253D01*
X0285193Y0225004D01*
X0283692Y0225004D01*
X0282941Y0224253D01*
X0282941Y0221251D01*
X0283692Y0220500D01*
X0285193Y0220500D01*
X0285944Y0221251D01*
X0281340Y0225004D02*
X0278337Y0225004D01*
X0279839Y0225004D02*
X0279839Y0220500D01*
X0276736Y0222752D02*
X0275985Y0222001D01*
X0273733Y0222001D01*
X0273733Y0220500D02*
X0273733Y0225004D01*
X0275985Y0225004D01*
X0276736Y0224253D01*
X0276736Y0222752D01*
X0272132Y0221251D02*
X0272132Y0224253D01*
X0271381Y0225004D01*
X0269880Y0225004D01*
X0269129Y0224253D01*
X0269129Y0221251D01*
X0269880Y0220500D01*
X0271381Y0220500D01*
X0272132Y0221251D01*
X0262241Y0225048D02*
X0202949Y0225048D01*
X0202949Y0247686D01*
X0262241Y0247686D01*
X0262241Y0225048D01*
X0259485Y0227804D02*
X0205705Y0227804D01*
X0205705Y0239300D01*
X0259485Y0239300D01*
X0259485Y0227804D01*
X0252775Y0221753D02*
X0252025Y0222504D01*
X0250523Y0222504D01*
X0249773Y0221753D01*
X0249773Y0218751D01*
X0250523Y0218000D01*
X0252025Y0218000D01*
X0252775Y0218751D01*
X0248171Y0218000D02*
X0248171Y0222504D01*
X0245169Y0222504D02*
X0248171Y0218000D01*
X0245169Y0218000D02*
X0245169Y0222504D01*
X0243567Y0222504D02*
X0240565Y0222504D01*
X0240565Y0218000D01*
X0243567Y0218000D01*
X0242066Y0220252D02*
X0240565Y0220252D01*
X0238963Y0217249D02*
X0235961Y0217249D01*
X0234359Y0218000D02*
X0231357Y0218000D01*
X0231357Y0222504D01*
X0226753Y0222504D02*
X0226753Y0218000D01*
X0229756Y0218000D01*
X0225152Y0218000D02*
X0225152Y0221003D01*
X0223650Y0222504D01*
X0222149Y0221003D01*
X0222149Y0218000D01*
X0220548Y0218000D02*
X0220548Y0222504D01*
X0220548Y0220252D02*
X0217545Y0220252D01*
X0217545Y0218000D02*
X0217545Y0222504D01*
X0222149Y0220252D02*
X0225152Y0220252D01*
X0205705Y0239300D02*
X0205705Y0244930D01*
X0259485Y0244930D01*
X0259485Y0239300D01*
X0292149Y0225004D02*
X0292149Y0220500D01*
X0295152Y0220500D01*
X0296753Y0220500D02*
X0296753Y0225004D01*
X0299756Y0220500D01*
X0299756Y0225004D01*
X0301357Y0224253D02*
X0301357Y0221251D01*
X0302108Y0220500D01*
X0303609Y0220500D01*
X0304359Y0221251D01*
X0304359Y0224253D02*
X0303609Y0225004D01*
X0302108Y0225004D01*
X0301357Y0224253D01*
X0295152Y0225004D02*
X0292149Y0225004D01*
X0292149Y0222752D02*
X0293650Y0222752D01*
X0178128Y0190174D02*
X0178128Y0188673D01*
X0177378Y0187923D01*
X0175126Y0187923D01*
X0176627Y0187923D02*
X0178128Y0186421D01*
X0175126Y0186421D02*
X0175126Y0190925D01*
X0177378Y0190925D01*
X0178128Y0190174D01*
X0173524Y0190174D02*
X0173524Y0187172D01*
X0172774Y0186421D01*
X0171273Y0186421D01*
X0170522Y0187172D01*
X0170522Y0190174D01*
X0171273Y0190925D01*
X0172774Y0190925D01*
X0173524Y0190174D01*
X0168921Y0190925D02*
X0165918Y0190925D01*
X0167419Y0190925D02*
X0167419Y0186421D01*
X0164317Y0187172D02*
X0164317Y0190174D01*
X0163566Y0190925D01*
X0162065Y0190925D01*
X0161314Y0190174D01*
X0161314Y0187172D01*
X0162065Y0186421D01*
X0163566Y0186421D01*
X0164317Y0187172D01*
X0159713Y0186421D02*
X0159713Y0190925D01*
X0158211Y0189424D01*
X0156710Y0190925D01*
X0156710Y0186421D01*
X0120336Y0222050D02*
X0117334Y0222050D01*
X0118835Y0222050D02*
X0118835Y0226554D01*
X0117334Y0225053D01*
X0100836Y0225053D02*
X0100836Y0225803D01*
X0100086Y0226554D01*
X0098584Y0226554D01*
X0097834Y0225803D01*
X0100836Y0225053D02*
X0097834Y0222050D01*
X0100836Y0222050D01*
X0082645Y0224527D02*
X0082645Y0226029D01*
X0081895Y0226779D01*
X0078892Y0226779D01*
X0078141Y0226029D01*
X0078141Y0224527D01*
X0078892Y0223777D01*
X0081895Y0223777D01*
X0082645Y0224527D01*
X0080393Y0222175D02*
X0081144Y0221425D01*
X0081144Y0219173D01*
X0082645Y0219173D02*
X0078141Y0219173D01*
X0078141Y0221425D01*
X0078892Y0222175D01*
X0080393Y0222175D01*
X0078141Y0228381D02*
X0082645Y0228381D01*
X0081144Y0229882D01*
X0082645Y0231383D01*
X0078141Y0231383D01*
X0078141Y0232985D02*
X0082645Y0232985D01*
X0082645Y0235987D01*
X0082645Y0237589D02*
X0078141Y0237589D01*
X0078141Y0239840D01*
X0078892Y0240591D01*
X0080393Y0240591D01*
X0081144Y0239840D01*
X0081144Y0237589D01*
X0081144Y0239090D02*
X0082645Y0240591D01*
X0078141Y0235987D02*
X0078141Y0232985D01*
X0080393Y0232985D02*
X0080393Y0234486D01*
X0073492Y0206554D02*
X0073492Y0202050D01*
X0071991Y0202050D02*
X0074994Y0202050D01*
X0071991Y0205053D02*
X0073492Y0206554D01*
X0070390Y0205803D02*
X0070390Y0202801D01*
X0069639Y0202050D01*
X0067387Y0202050D01*
X0067387Y0206554D01*
X0069639Y0206554D01*
X0070390Y0205803D01*
X0045888Y0137931D02*
X0044826Y0137931D01*
X0042703Y0135808D01*
X0042703Y0134747D01*
X0043765Y0133685D01*
X0044826Y0133685D01*
X0045959Y0132553D02*
X0046489Y0133083D01*
X0047551Y0133083D01*
X0048612Y0132022D01*
X0048612Y0130960D01*
X0048082Y0130430D01*
X0047020Y0130430D01*
X0045959Y0131491D01*
X0045959Y0132553D01*
X0047551Y0133083D02*
X0047551Y0134145D01*
X0048082Y0134676D01*
X0049143Y0134676D01*
X0050205Y0133614D01*
X0050205Y0132553D01*
X0049674Y0132022D01*
X0048612Y0132022D01*
X0046949Y0135808D02*
X0046949Y0136870D01*
X0045888Y0137931D01*
X0042595Y0104300D02*
X0042595Y0074300D01*
X0087595Y0074300D01*
X0087595Y0104300D01*
X0042595Y0104300D01*
D165*
X0101345Y0189300D03*
D166*
X0108095Y0189300D03*
X0064595Y0189300D03*
D167*
G36*
X0055789Y0148176D02*
X0057557Y0146408D01*
X0050487Y0139338D01*
X0048719Y0141106D01*
X0055789Y0148176D01*
G37*
M02*
