G75*
%MOIN*%
%OFA0B0*%
%FSLAX25Y25*%
%IPPOS*%
%LPD*%
%AMOC8*
5,1,8,0,0,1.08239X$1,22.5*
%
%ADD10R,0.07087X0.12598*%
%ADD11R,0.08799X0.04799*%
%ADD12R,0.08661X0.14173*%
%ADD13C,0.06500*%
%ADD14R,0.07874X0.06299*%
%ADD15R,0.06299X0.07874*%
%ADD16R,0.05118X0.05906*%
%ADD17C,0.07050*%
%ADD18C,0.05600*%
%ADD19C,0.06000*%
%ADD20OC8,0.06000*%
%ADD21C,0.08850*%
%ADD22C,0.06600*%
%ADD23C,0.10000*%
%ADD24C,0.02000*%
%ADD25R,0.07874X0.05906*%
%ADD26R,0.05906X0.07874*%
%ADD27C,0.05000*%
%ADD28C,0.05000*%
%ADD29C,0.01600*%
%ADD30C,0.04000*%
%ADD31C,0.01000*%
D10*
X0216572Y0086800D03*
X0238619Y0086800D03*
D11*
X0086644Y0064648D03*
X0086644Y0055550D03*
X0086644Y0046452D03*
D12*
X0111046Y0055550D03*
D13*
X0075095Y0081050D02*
X0075095Y0087550D01*
X0065095Y0087550D02*
X0065095Y0081050D01*
X0055095Y0081050D02*
X0055095Y0087550D01*
D14*
X0263845Y0207538D03*
X0273845Y0207538D03*
X0283845Y0207538D03*
X0283845Y0218562D03*
X0273845Y0218562D03*
X0263845Y0218562D03*
X0272595Y0083562D03*
X0272595Y0072538D03*
D15*
X0228744Y0069300D03*
X0217721Y0069300D03*
X0155607Y0064300D03*
X0144583Y0064300D03*
X0143107Y0080550D03*
X0132083Y0080550D03*
D16*
X0151355Y0090550D03*
X0158835Y0090550D03*
X0212605Y0219300D03*
X0220085Y0219300D03*
D17*
X0187280Y0230854D02*
X0187280Y0237904D01*
X0167595Y0237904D02*
X0167595Y0230854D01*
X0147910Y0230854D02*
X0147910Y0237904D01*
X0113688Y0237825D02*
X0113688Y0230775D01*
X0094003Y0230775D02*
X0094003Y0237825D01*
D18*
X0250095Y0089600D02*
X0250095Y0084000D01*
X0260095Y0084000D02*
X0260095Y0089600D01*
D19*
X0316978Y0039679D02*
X0321221Y0035437D01*
X0328292Y0042508D02*
X0324049Y0046750D01*
X0309907Y0032608D02*
X0314150Y0028366D01*
X0307079Y0021295D02*
X0302836Y0025537D01*
X0187595Y0195050D02*
X0187595Y0201050D01*
X0167595Y0201050D02*
X0167595Y0195050D01*
X0147595Y0195050D02*
X0147595Y0201050D01*
X0232595Y0206300D02*
X0232595Y0212300D01*
X0242595Y0212300D02*
X0242595Y0206300D01*
X0252595Y0206300D02*
X0252595Y0212300D01*
X0271345Y0232550D02*
X0271345Y0238550D01*
X0281345Y0238550D02*
X0281345Y0232550D01*
X0291345Y0232550D02*
X0291345Y0238550D01*
X0301345Y0238550D02*
X0301345Y0232550D01*
D20*
X0305095Y0211800D03*
X0295095Y0211800D03*
X0317595Y0180550D03*
X0327595Y0180550D03*
X0327595Y0160550D03*
X0317595Y0160550D03*
X0317595Y0150550D03*
X0317595Y0140550D03*
X0327595Y0140550D03*
X0327595Y0150550D03*
X0327595Y0130550D03*
X0317595Y0130550D03*
X0317595Y0120550D03*
X0327595Y0120550D03*
X0327595Y0110550D03*
X0317595Y0110550D03*
X0317595Y0100550D03*
X0327595Y0100550D03*
X0327595Y0090550D03*
X0317595Y0090550D03*
X0263845Y0056800D03*
X0253845Y0056800D03*
D21*
X0120770Y0189300D02*
X0111920Y0189300D01*
X0060770Y0189300D02*
X0051920Y0189300D01*
D22*
X0212595Y0231000D02*
X0212595Y0237600D01*
X0222595Y0237600D02*
X0222595Y0231000D01*
X0232595Y0231000D02*
X0232595Y0237600D01*
X0242595Y0237600D02*
X0242595Y0231000D01*
X0252595Y0231000D02*
X0252595Y0237600D01*
D23*
X0248845Y0158000D03*
X0260095Y0158000D03*
X0271345Y0158050D03*
X0282595Y0158050D03*
X0282595Y0146800D03*
X0271345Y0146800D03*
X0260095Y0146750D03*
X0248845Y0146750D03*
X0237545Y0146800D03*
X0226295Y0146750D03*
X0226295Y0135500D03*
X0226295Y0124250D03*
X0226295Y0113000D03*
X0237545Y0113050D03*
X0248845Y0113000D03*
X0260095Y0113000D03*
X0271345Y0113050D03*
X0282595Y0113050D03*
X0282595Y0124300D03*
X0271345Y0124300D03*
X0260095Y0124250D03*
X0248845Y0124250D03*
X0237545Y0124300D03*
X0237545Y0135550D03*
X0248845Y0135500D03*
X0260095Y0135500D03*
X0271345Y0135550D03*
X0282595Y0135550D03*
X0237545Y0158050D03*
X0226295Y0158000D03*
X0147595Y0158050D03*
X0136345Y0158050D03*
X0125095Y0158000D03*
X0113845Y0158000D03*
X0102545Y0158050D03*
X0091295Y0158000D03*
X0091295Y0146750D03*
X0102545Y0146800D03*
X0113845Y0146750D03*
X0125095Y0146750D03*
X0136345Y0146800D03*
X0136345Y0135550D03*
X0125095Y0135500D03*
X0113845Y0135500D03*
X0102545Y0135550D03*
X0091295Y0135500D03*
X0091295Y0124250D03*
X0102545Y0124300D03*
X0113845Y0124250D03*
X0125095Y0124250D03*
X0136345Y0124300D03*
X0136345Y0113050D03*
X0125095Y0113000D03*
X0113845Y0113000D03*
X0102545Y0113050D03*
X0091295Y0113000D03*
X0061800Y0135095D03*
X0147595Y0135550D03*
X0147595Y0124300D03*
X0147595Y0113050D03*
X0147595Y0146800D03*
D24*
X0177595Y0170550D02*
X0177595Y0118050D01*
X0180095Y0115550D01*
X0180095Y0090550D01*
X0195095Y0075550D01*
X0200095Y0077438D02*
X0200095Y0071800D01*
X0196345Y0068050D01*
X0192595Y0068050D01*
X0191345Y0066800D01*
X0182595Y0066800D02*
X0177595Y0066800D01*
X0172595Y0071800D01*
X0167595Y0071800D01*
X0160095Y0064300D01*
X0170095Y0065550D02*
X0170095Y0051800D01*
X0175095Y0046800D01*
X0201345Y0046800D01*
X0215095Y0060550D01*
X0217595Y0063050D01*
X0217595Y0069174D01*
X0217721Y0069300D01*
X0217595Y0068562D01*
X0217595Y0068050D01*
X0215095Y0060550D02*
X0215095Y0050550D01*
X0205095Y0064300D02*
X0197595Y0056800D01*
X0178845Y0056800D01*
X0165095Y0074300D02*
X0150095Y0074300D01*
X0144357Y0068562D01*
X0144583Y0064300D01*
X0144357Y0048185D01*
X0161992Y0030550D01*
X0268845Y0030550D01*
X0312595Y0074300D01*
X0332595Y0074300D01*
X0340095Y0081800D01*
X0340095Y0098050D01*
X0327595Y0110550D01*
X0327595Y0100550D02*
X0333845Y0094300D01*
X0333845Y0084300D01*
X0330095Y0080550D01*
X0310095Y0080550D01*
X0285095Y0055550D01*
X0273208Y0055550D01*
X0266958Y0061800D01*
X0251345Y0061800D01*
X0243845Y0069300D01*
X0228744Y0069300D01*
X0243845Y0076800D02*
X0212595Y0076800D01*
X0200095Y0089300D01*
X0200095Y0188050D01*
X0195095Y0168050D02*
X0195095Y0089300D01*
X0205095Y0079300D01*
X0205095Y0064300D01*
X0200095Y0077438D02*
X0190733Y0086800D01*
X0175095Y0091800D02*
X0163845Y0080550D01*
X0143845Y0080550D01*
X0143845Y0078050D01*
X0135095Y0069300D01*
X0135095Y0048050D01*
X0157595Y0025550D01*
X0272595Y0025550D01*
X0315095Y0068050D01*
X0336345Y0068050D01*
X0346345Y0078050D01*
X0346345Y0101800D01*
X0327595Y0120550D01*
X0327595Y0130550D02*
X0322595Y0135550D01*
X0312595Y0135550D01*
X0302595Y0125550D01*
X0302595Y0091800D01*
X0281345Y0070550D01*
X0276345Y0070550D01*
X0274357Y0072538D01*
X0272595Y0072538D01*
X0271345Y0070550D01*
X0270095Y0070550D02*
X0272595Y0072538D01*
X0270095Y0070550D02*
X0250095Y0070550D01*
X0243845Y0076800D01*
X0225095Y0088050D02*
X0225095Y0089300D01*
X0233845Y0098050D01*
X0287595Y0098050D01*
X0307595Y0095550D02*
X0307595Y0088050D01*
X0284320Y0064775D01*
X0271470Y0064775D01*
X0307595Y0095550D02*
X0312595Y0100550D01*
X0317595Y0100550D01*
X0351345Y0119300D02*
X0335095Y0135550D01*
X0351345Y0119300D02*
X0351345Y0061800D01*
X0343845Y0054300D01*
X0321345Y0054300D01*
X0292595Y0025550D01*
X0281345Y0025550D02*
X0317595Y0061800D01*
X0340095Y0061800D01*
X0343845Y0065550D01*
X0268845Y0189300D02*
X0245095Y0189300D01*
X0232595Y0201800D01*
X0232595Y0209300D01*
X0242595Y0209300D02*
X0242595Y0206800D01*
X0250095Y0199300D01*
X0268845Y0199300D01*
X0273845Y0204300D01*
X0273845Y0207538D01*
X0283845Y0207538D02*
X0283845Y0204300D01*
X0268845Y0189300D01*
X0263845Y0207538D02*
X0256857Y0207538D01*
X0252595Y0209300D01*
X0291345Y0221800D02*
X0291345Y0235550D01*
X0301345Y0235550D02*
X0301345Y0223050D01*
X0305095Y0219300D01*
X0305095Y0211800D01*
X0295095Y0211800D02*
X0295095Y0218050D01*
X0291345Y0221800D01*
X0171345Y0174300D02*
X0171345Y0116800D01*
X0175095Y0113050D01*
X0175095Y0091800D01*
X0171345Y0080550D02*
X0165095Y0074300D01*
X0151355Y0089881D02*
X0145764Y0089881D01*
X0145095Y0090550D01*
X0151355Y0090550D02*
X0151355Y0089881D01*
X0143845Y0080550D02*
X0143107Y0080550D01*
X0143845Y0068050D02*
X0144583Y0064300D01*
X0110120Y0061775D02*
X0110120Y0056162D01*
X0086644Y0055550D01*
X0106345Y0055550D02*
X0110120Y0061775D01*
X0110120Y0056162D02*
X0110120Y0050575D01*
X0111046Y0055550D02*
X0106345Y0055550D01*
X0047001Y0152236D02*
X0046001Y0153236D01*
X0049315Y0153236D01*
X0051657Y0150894D01*
X0051657Y0147580D01*
X0049315Y0145238D01*
X0046001Y0145238D01*
X0043659Y0147580D01*
X0043659Y0150894D01*
X0046001Y0153236D01*
X0046623Y0151736D01*
X0048693Y0151736D01*
X0050157Y0150272D01*
X0050157Y0148202D01*
X0048693Y0146738D01*
X0046623Y0146738D01*
X0045159Y0148202D01*
X0045159Y0150272D01*
X0046623Y0151736D01*
X0047244Y0150236D01*
X0048072Y0150236D01*
X0048657Y0149651D01*
X0048657Y0148823D01*
X0048072Y0148238D01*
X0047244Y0148238D01*
X0046659Y0148823D01*
X0046659Y0149651D01*
X0047244Y0150236D01*
D25*
X0074470Y0055668D03*
X0074470Y0043857D03*
D26*
X0084190Y0084300D03*
X0096001Y0084300D03*
D27*
X0110120Y0061775D03*
X0110120Y0056162D03*
X0110120Y0050575D03*
X0116408Y0050800D03*
X0116408Y0056312D03*
X0116408Y0061825D03*
X0122595Y0061800D03*
X0122595Y0056187D03*
X0122595Y0050575D03*
X0157595Y0046800D03*
X0178845Y0056800D03*
X0170095Y0065550D03*
X0180095Y0074300D03*
X0180095Y0083050D03*
X0171345Y0080550D03*
X0185095Y0093050D03*
X0185095Y0099300D03*
X0190733Y0086800D03*
X0195095Y0075550D03*
X0208845Y0086800D03*
X0208845Y0096800D03*
X0225095Y0088050D03*
X0245095Y0086800D03*
X0243845Y0069300D03*
X0271470Y0064775D03*
X0265095Y0045550D03*
X0241345Y0044300D03*
X0215095Y0050550D03*
X0208845Y0039300D03*
X0145095Y0090550D03*
X0161345Y0099300D03*
X0170095Y0100550D03*
X0170095Y0094300D03*
X0177595Y0170550D03*
X0171345Y0174300D03*
X0163220Y0173675D03*
X0195095Y0168050D03*
X0208845Y0179300D03*
X0200095Y0188050D03*
X0222595Y0176800D03*
X0222595Y0210550D03*
X0123845Y0176800D03*
X0111345Y0176800D03*
X0285095Y0088050D03*
X0287595Y0098050D03*
X0335095Y0135550D03*
X0343845Y0065550D03*
X0292595Y0025550D03*
X0281345Y0025550D03*
D28*
X0250095Y0086800D02*
X0245095Y0086800D01*
X0238619Y0086800D01*
X0216572Y0086800D02*
X0208845Y0086800D01*
X0208845Y0096800D01*
X0208845Y0179300D01*
X0187595Y0198050D02*
X0187595Y0230314D01*
X0187280Y0234379D01*
X0167595Y0234379D02*
X0167595Y0198050D01*
X0157595Y0183050D02*
X0177595Y0183050D01*
X0185095Y0175550D01*
X0185095Y0099300D01*
X0185095Y0093050D01*
X0180095Y0083050D02*
X0180095Y0074300D01*
X0166345Y0090550D02*
X0170095Y0094300D01*
X0170095Y0100550D01*
X0170095Y0108050D01*
X0163845Y0114300D01*
X0163845Y0173050D01*
X0163220Y0173675D01*
X0157595Y0183050D02*
X0147595Y0193050D01*
X0147595Y0198050D01*
X0147595Y0230314D01*
X0147910Y0234379D01*
X0116345Y0189300D02*
X0090095Y0189300D01*
X0061800Y0161005D01*
X0061800Y0135095D01*
X0061800Y0111005D01*
X0055095Y0104300D01*
X0055095Y0084300D01*
X0075095Y0084300D02*
X0075095Y0073050D01*
X0083497Y0064648D01*
X0086644Y0064648D01*
X0086644Y0055550D02*
X0074588Y0055550D01*
X0074470Y0055668D01*
X0086644Y0055550D02*
X0111046Y0055550D01*
X0084190Y0084300D02*
X0075095Y0084300D01*
X0158835Y0090550D02*
X0166345Y0090550D01*
X0235095Y0183050D02*
X0315095Y0183050D01*
X0317595Y0180550D01*
X0273845Y0219300D02*
X0273107Y0218562D01*
X0263845Y0218562D01*
X0235095Y0183050D02*
X0212605Y0205540D01*
X0212605Y0219300D01*
X0212605Y0234290D01*
X0212595Y0234300D01*
D29*
X0031395Y0220687D02*
X0031395Y0032913D01*
X0032236Y0034296D01*
X0032236Y0034296D01*
X0036177Y0037976D01*
X0036177Y0037976D01*
X0040965Y0040457D01*
X0040965Y0040457D01*
X0046244Y0041554D01*
X0046244Y0041554D01*
X0051624Y0041186D01*
X0051624Y0041186D01*
X0056704Y0039380D01*
X0056704Y0039380D01*
X0061110Y0036271D01*
X0061110Y0036271D01*
X0061110Y0036271D01*
X0064513Y0032088D01*
X0064513Y0032088D01*
X0066661Y0027142D01*
X0066661Y0027142D01*
X0067395Y0021800D01*
X0067395Y0021800D01*
X0066661Y0016458D01*
X0064513Y0011512D01*
X0064513Y0011512D01*
X0061110Y0007329D01*
X0061110Y0007329D01*
X0058660Y0005600D01*
X0326223Y0005600D01*
X0326177Y0005624D01*
X0326177Y0005624D01*
X0322236Y0009304D01*
X0322236Y0009304D01*
X0319434Y0013912D01*
X0317980Y0019104D01*
X0317980Y0024496D01*
X0319434Y0029688D01*
X0322236Y0034296D01*
X0322236Y0034296D01*
X0326177Y0037976D01*
X0326177Y0037976D01*
X0330965Y0040457D01*
X0330965Y0040457D01*
X0336244Y0041554D01*
X0336244Y0041554D01*
X0341624Y0041186D01*
X0341624Y0041186D01*
X0346704Y0039380D01*
X0346704Y0039380D01*
X0351110Y0036271D01*
X0351110Y0036271D01*
X0353795Y0032970D01*
X0353795Y0057462D01*
X0346564Y0050231D01*
X0344800Y0049500D01*
X0323333Y0049500D01*
X0298895Y0025062D01*
X0298895Y0024297D01*
X0297936Y0021981D01*
X0296164Y0020209D01*
X0293848Y0019250D01*
X0291342Y0019250D01*
X0289026Y0020209D01*
X0287254Y0021981D01*
X0286970Y0022667D01*
X0286686Y0021981D01*
X0284914Y0020209D01*
X0282598Y0019250D01*
X0280092Y0019250D01*
X0277776Y0020209D01*
X0276004Y0021981D01*
X0275949Y0022115D01*
X0275314Y0021481D01*
X0273550Y0020750D01*
X0156640Y0020750D01*
X0154876Y0021481D01*
X0153526Y0022831D01*
X0131026Y0045331D01*
X0130295Y0047095D01*
X0130295Y0070255D01*
X0131026Y0072019D01*
X0132376Y0073369D01*
X0136157Y0077150D01*
X0136157Y0085243D01*
X0136736Y0086640D01*
X0137805Y0087708D01*
X0139201Y0088287D01*
X0139213Y0088287D01*
X0138795Y0089297D01*
X0138795Y0091803D01*
X0139754Y0094119D01*
X0141526Y0095891D01*
X0143842Y0096850D01*
X0146348Y0096850D01*
X0146648Y0096726D01*
X0148040Y0097303D01*
X0154670Y0097303D01*
X0155095Y0097127D01*
X0155520Y0097303D01*
X0162150Y0097303D01*
X0163243Y0096850D01*
X0163736Y0096850D01*
X0163795Y0096910D01*
X0163795Y0105440D01*
X0160276Y0108959D01*
X0158691Y0110544D01*
X0158540Y0110138D01*
X0158504Y0109803D01*
X0158223Y0109289D01*
X0158018Y0108740D01*
X0157788Y0108493D01*
X0157534Y0108028D01*
X0157451Y0107701D01*
X0157100Y0107232D01*
X0156819Y0106718D01*
X0156556Y0106506D01*
X0156239Y0106082D01*
X0156110Y0105771D01*
X0155696Y0105356D01*
X0155344Y0104887D01*
X0155054Y0104715D01*
X0154680Y0104341D01*
X0154508Y0104051D01*
X0154039Y0103700D01*
X0153624Y0103285D01*
X0153313Y0103156D01*
X0152889Y0102839D01*
X0152677Y0102576D01*
X0152163Y0102295D01*
X0151694Y0101944D01*
X0151367Y0101861D01*
X0150902Y0101607D01*
X0150655Y0101377D01*
X0150106Y0101172D01*
X0149592Y0100892D01*
X0149257Y0100855D01*
X0148761Y0100670D01*
X0148484Y0100478D01*
X0147911Y0100353D01*
X0147362Y0100149D01*
X0147025Y0100161D01*
X0146507Y0100048D01*
X0146206Y0099897D01*
X0145621Y0099855D01*
X0145049Y0099731D01*
X0144717Y0099791D01*
X0144356Y0099765D01*
X0144199Y0099700D01*
X0143448Y0099700D01*
X0142700Y0099646D01*
X0142539Y0099700D01*
X0096402Y0099700D01*
X0096241Y0099646D01*
X0095492Y0099700D01*
X0094741Y0099700D01*
X0094584Y0099765D01*
X0094223Y0099791D01*
X0093892Y0099731D01*
X0093319Y0099855D01*
X0092734Y0099897D01*
X0092433Y0100048D01*
X0091915Y0100161D01*
X0091578Y0100149D01*
X0091029Y0100353D01*
X0090457Y0100478D01*
X0090180Y0100670D01*
X0089684Y0100855D01*
X0089348Y0100892D01*
X0088834Y0101172D01*
X0088285Y0101377D01*
X0088038Y0101607D01*
X0087573Y0101861D01*
X0087246Y0101944D01*
X0086777Y0102295D01*
X0086263Y0102576D01*
X0086051Y0102839D01*
X0085627Y0103156D01*
X0085316Y0103285D01*
X0084902Y0103700D01*
X0084432Y0104051D01*
X0084260Y0104341D01*
X0083886Y0104715D01*
X0083596Y0104887D01*
X0083245Y0105356D01*
X0082830Y0105771D01*
X0082701Y0106082D01*
X0082384Y0106506D01*
X0082121Y0106718D01*
X0081840Y0107232D01*
X0081489Y0107701D01*
X0081406Y0108028D01*
X0081152Y0108493D01*
X0080922Y0108740D01*
X0080717Y0109289D01*
X0080437Y0109803D01*
X0080401Y0110138D01*
X0080216Y0110635D01*
X0080023Y0110912D01*
X0079899Y0111484D01*
X0079694Y0112033D01*
X0079706Y0112370D01*
X0079593Y0112888D01*
X0079442Y0113189D01*
X0079401Y0113774D01*
X0079276Y0114346D01*
X0079336Y0114678D01*
X0079310Y0115039D01*
X0079245Y0115196D01*
X0079245Y0115947D01*
X0079192Y0116696D01*
X0079245Y0116856D01*
X0079245Y0154244D01*
X0079192Y0154404D01*
X0079245Y0155153D01*
X0079245Y0155904D01*
X0079310Y0156061D01*
X0079336Y0156422D01*
X0079276Y0156754D01*
X0079401Y0157326D01*
X0079442Y0157911D01*
X0079593Y0158212D01*
X0079706Y0158730D01*
X0079694Y0159067D01*
X0079899Y0159616D01*
X0080023Y0160188D01*
X0080216Y0160465D01*
X0080401Y0160962D01*
X0080437Y0161297D01*
X0080717Y0161811D01*
X0080922Y0162360D01*
X0081152Y0162607D01*
X0081406Y0163072D01*
X0081489Y0163399D01*
X0081840Y0163868D01*
X0082121Y0164382D01*
X0082384Y0164594D01*
X0082701Y0165018D01*
X0082830Y0165329D01*
X0083245Y0165744D01*
X0083596Y0166213D01*
X0083886Y0166385D01*
X0084260Y0166759D01*
X0084432Y0167049D01*
X0084902Y0167400D01*
X0085316Y0167815D01*
X0085627Y0167944D01*
X0086051Y0168261D01*
X0086263Y0168524D01*
X0086777Y0168805D01*
X0087246Y0169156D01*
X0087573Y0169239D01*
X0088038Y0169493D01*
X0088285Y0169723D01*
X0088834Y0169928D01*
X0089348Y0170208D01*
X0089684Y0170245D01*
X0090180Y0170430D01*
X0090457Y0170622D01*
X0091029Y0170746D01*
X0091578Y0170951D01*
X0091915Y0170939D01*
X0092433Y0171052D01*
X0092734Y0171203D01*
X0093319Y0171245D01*
X0093892Y0171369D01*
X0094223Y0171309D01*
X0094584Y0171335D01*
X0094741Y0171400D01*
X0095492Y0171400D01*
X0096241Y0171454D01*
X0096402Y0171400D01*
X0142539Y0171400D01*
X0142700Y0171454D01*
X0143448Y0171400D01*
X0144199Y0171400D01*
X0144356Y0171335D01*
X0144717Y0171309D01*
X0145049Y0171369D01*
X0145621Y0171245D01*
X0146206Y0171203D01*
X0146507Y0171052D01*
X0147025Y0170939D01*
X0147362Y0170951D01*
X0147911Y0170746D01*
X0148484Y0170622D01*
X0148761Y0170430D01*
X0149257Y0170245D01*
X0149592Y0170208D01*
X0150106Y0169928D01*
X0150655Y0169723D01*
X0150902Y0169493D01*
X0151367Y0169239D01*
X0151694Y0169156D01*
X0152163Y0168805D01*
X0152677Y0168524D01*
X0152889Y0168261D01*
X0153313Y0167944D01*
X0153624Y0167815D01*
X0154039Y0167400D01*
X0154508Y0167049D01*
X0154680Y0166759D01*
X0155054Y0166385D01*
X0155344Y0166213D01*
X0155696Y0165744D01*
X0156110Y0165329D01*
X0156239Y0165018D01*
X0156556Y0164594D01*
X0156819Y0164382D01*
X0157100Y0163868D01*
X0157451Y0163399D01*
X0157534Y0163072D01*
X0157545Y0163052D01*
X0157545Y0170913D01*
X0156920Y0172422D01*
X0156920Y0174928D01*
X0157675Y0176750D01*
X0156342Y0176750D01*
X0154026Y0177709D01*
X0152254Y0179481D01*
X0144026Y0187709D01*
X0142254Y0189481D01*
X0141295Y0191797D01*
X0141295Y0192490D01*
X0140795Y0193697D01*
X0140795Y0202403D01*
X0141295Y0203610D01*
X0141295Y0227683D01*
X0140585Y0229397D01*
X0140585Y0239361D01*
X0141700Y0242053D01*
X0143761Y0244114D01*
X0146453Y0245229D01*
X0149367Y0245229D01*
X0152059Y0244114D01*
X0154120Y0242053D01*
X0155235Y0239361D01*
X0155235Y0229397D01*
X0154120Y0226704D01*
X0153895Y0226480D01*
X0153895Y0203610D01*
X0154395Y0202403D01*
X0154395Y0195160D01*
X0160205Y0189350D01*
X0163679Y0189350D01*
X0161830Y0191198D01*
X0160795Y0193697D01*
X0160795Y0202403D01*
X0161295Y0203610D01*
X0161295Y0226922D01*
X0160270Y0229397D01*
X0160270Y0239361D01*
X0161385Y0242053D01*
X0163446Y0244114D01*
X0166138Y0245229D01*
X0169052Y0245229D01*
X0171744Y0244114D01*
X0173805Y0242053D01*
X0174920Y0239361D01*
X0174920Y0229397D01*
X0173895Y0226922D01*
X0173895Y0203610D01*
X0174395Y0202403D01*
X0174395Y0193697D01*
X0173360Y0191198D01*
X0171512Y0189350D01*
X0178848Y0189350D01*
X0181164Y0188391D01*
X0190436Y0179119D01*
X0191395Y0176803D01*
X0191395Y0173260D01*
X0191526Y0173391D01*
X0193842Y0174350D01*
X0195295Y0174350D01*
X0195295Y0183940D01*
X0194754Y0184481D01*
X0193795Y0186797D01*
X0193795Y0189303D01*
X0194754Y0191619D01*
X0196526Y0193391D01*
X0198842Y0194350D01*
X0201348Y0194350D01*
X0203664Y0193391D01*
X0205436Y0191619D01*
X0206395Y0189303D01*
X0206395Y0186797D01*
X0205549Y0184754D01*
X0207592Y0185600D01*
X0210098Y0185600D01*
X0212414Y0184641D01*
X0214186Y0182869D01*
X0215145Y0180553D01*
X0215145Y0096899D01*
X0220871Y0096899D01*
X0222267Y0096321D01*
X0223336Y0095252D01*
X0223606Y0094600D01*
X0228931Y0099924D01*
X0228683Y0100048D01*
X0228165Y0100161D01*
X0227828Y0100149D01*
X0227279Y0100353D01*
X0226707Y0100478D01*
X0226430Y0100670D01*
X0225934Y0100855D01*
X0225598Y0100892D01*
X0225084Y0101172D01*
X0224535Y0101377D01*
X0224288Y0101607D01*
X0223823Y0101861D01*
X0223496Y0101944D01*
X0223027Y0102295D01*
X0222513Y0102576D01*
X0222301Y0102839D01*
X0221877Y0103156D01*
X0221566Y0103285D01*
X0221152Y0103700D01*
X0220682Y0104051D01*
X0220510Y0104341D01*
X0220136Y0104715D01*
X0219846Y0104887D01*
X0219495Y0105356D01*
X0219080Y0105771D01*
X0218951Y0106082D01*
X0218634Y0106506D01*
X0218371Y0106718D01*
X0218090Y0107232D01*
X0217739Y0107701D01*
X0217656Y0108028D01*
X0217402Y0108493D01*
X0217172Y0108740D01*
X0216967Y0109289D01*
X0216687Y0109803D01*
X0216651Y0110138D01*
X0216466Y0110635D01*
X0216273Y0110912D01*
X0216149Y0111484D01*
X0215944Y0112033D01*
X0215956Y0112370D01*
X0215843Y0112888D01*
X0215692Y0113189D01*
X0215651Y0113774D01*
X0215526Y0114346D01*
X0215586Y0114678D01*
X0215560Y0115039D01*
X0215495Y0115196D01*
X0215495Y0115947D01*
X0215442Y0116696D01*
X0215495Y0116856D01*
X0215495Y0154244D01*
X0215442Y0154404D01*
X0215495Y0155153D01*
X0215495Y0155904D01*
X0215560Y0156061D01*
X0215586Y0156422D01*
X0215526Y0156754D01*
X0215651Y0157326D01*
X0215692Y0157911D01*
X0215843Y0158212D01*
X0215956Y0158730D01*
X0215944Y0159067D01*
X0216149Y0159616D01*
X0216273Y0160188D01*
X0216466Y0160465D01*
X0216651Y0160962D01*
X0216687Y0161297D01*
X0216967Y0161811D01*
X0217172Y0162360D01*
X0217402Y0162607D01*
X0217656Y0163072D01*
X0217739Y0163399D01*
X0218090Y0163868D01*
X0218371Y0164382D01*
X0218634Y0164594D01*
X0218951Y0165018D01*
X0219080Y0165329D01*
X0219495Y0165744D01*
X0219846Y0166213D01*
X0220136Y0166385D01*
X0220510Y0166759D01*
X0220682Y0167049D01*
X0221152Y0167400D01*
X0221566Y0167815D01*
X0221877Y0167944D01*
X0222301Y0168261D01*
X0222513Y0168524D01*
X0223027Y0168805D01*
X0223496Y0169156D01*
X0223823Y0169239D01*
X0224288Y0169493D01*
X0224535Y0169723D01*
X0225084Y0169928D01*
X0225598Y0170208D01*
X0225934Y0170245D01*
X0226430Y0170430D01*
X0226707Y0170622D01*
X0227279Y0170746D01*
X0227828Y0170951D01*
X0228165Y0170939D01*
X0228683Y0171052D01*
X0228984Y0171203D01*
X0229569Y0171245D01*
X0230142Y0171369D01*
X0230473Y0171309D01*
X0230834Y0171335D01*
X0230991Y0171400D01*
X0231742Y0171400D01*
X0232491Y0171454D01*
X0232652Y0171400D01*
X0277539Y0171400D01*
X0277700Y0171454D01*
X0278448Y0171400D01*
X0279199Y0171400D01*
X0279356Y0171335D01*
X0279717Y0171309D01*
X0280049Y0171369D01*
X0280621Y0171245D01*
X0281206Y0171203D01*
X0281507Y0171052D01*
X0282025Y0170939D01*
X0282362Y0170951D01*
X0282911Y0170746D01*
X0283484Y0170622D01*
X0283761Y0170430D01*
X0284257Y0170245D01*
X0284592Y0170208D01*
X0285106Y0169928D01*
X0285655Y0169723D01*
X0285902Y0169493D01*
X0286367Y0169239D01*
X0286694Y0169156D01*
X0287163Y0168805D01*
X0287677Y0168524D01*
X0287889Y0168261D01*
X0288313Y0167944D01*
X0288624Y0167815D01*
X0289039Y0167400D01*
X0289508Y0167049D01*
X0289680Y0166759D01*
X0290054Y0166385D01*
X0290344Y0166213D01*
X0290696Y0165744D01*
X0291110Y0165329D01*
X0291239Y0165018D01*
X0291556Y0164594D01*
X0291819Y0164382D01*
X0292100Y0163868D01*
X0292451Y0163399D01*
X0292534Y0163072D01*
X0292788Y0162607D01*
X0293018Y0162360D01*
X0293223Y0161811D01*
X0293504Y0161297D01*
X0293540Y0160962D01*
X0293725Y0160465D01*
X0293917Y0160188D01*
X0294042Y0159616D01*
X0294246Y0159067D01*
X0294234Y0158730D01*
X0294347Y0158212D01*
X0294498Y0157911D01*
X0294540Y0157326D01*
X0294664Y0156754D01*
X0294604Y0156422D01*
X0294630Y0156061D01*
X0294695Y0155904D01*
X0294695Y0155153D01*
X0294749Y0154404D01*
X0294695Y0154244D01*
X0294695Y0116856D01*
X0294749Y0116696D01*
X0294695Y0115947D01*
X0294695Y0115196D01*
X0294630Y0115039D01*
X0294604Y0114678D01*
X0294664Y0114346D01*
X0294540Y0113774D01*
X0294498Y0113189D01*
X0294347Y0112888D01*
X0294234Y0112370D01*
X0294246Y0112033D01*
X0294042Y0111484D01*
X0293917Y0110912D01*
X0293725Y0110635D01*
X0293540Y0110138D01*
X0293504Y0109803D01*
X0293223Y0109289D01*
X0293018Y0108740D01*
X0292788Y0108493D01*
X0292534Y0108028D01*
X0292451Y0107701D01*
X0292100Y0107232D01*
X0291819Y0106718D01*
X0291556Y0106506D01*
X0291239Y0106082D01*
X0291110Y0105771D01*
X0290696Y0105356D01*
X0290344Y0104887D01*
X0290054Y0104715D01*
X0289680Y0104341D01*
X0289520Y0104072D01*
X0291164Y0103391D01*
X0292936Y0101619D01*
X0293895Y0099303D01*
X0293895Y0096797D01*
X0292936Y0094481D01*
X0291164Y0092709D01*
X0288848Y0091750D01*
X0286342Y0091750D01*
X0284026Y0092709D01*
X0283486Y0093250D01*
X0255727Y0093250D01*
X0256695Y0090913D01*
X0256695Y0082687D01*
X0255690Y0080261D01*
X0253834Y0078405D01*
X0251408Y0077400D01*
X0250033Y0077400D01*
X0252083Y0075350D01*
X0264858Y0075350D01*
X0264858Y0076444D01*
X0265437Y0077840D01*
X0266506Y0078909D01*
X0267902Y0079488D01*
X0277288Y0079488D01*
X0278685Y0078909D01*
X0279754Y0077840D01*
X0280332Y0076444D01*
X0280332Y0076325D01*
X0297795Y0093788D01*
X0297795Y0126505D01*
X0298526Y0128269D01*
X0299876Y0129619D01*
X0299876Y0129619D01*
X0308526Y0138269D01*
X0308526Y0138269D01*
X0309876Y0139619D01*
X0310795Y0140000D01*
X0310795Y0143367D01*
X0312978Y0145550D01*
X0310795Y0147733D01*
X0310795Y0153367D01*
X0312978Y0155550D01*
X0310795Y0157733D01*
X0310795Y0163367D01*
X0314778Y0167350D01*
X0320412Y0167350D01*
X0322595Y0165167D01*
X0324778Y0167350D01*
X0330412Y0167350D01*
X0334395Y0163367D01*
X0334395Y0157733D01*
X0332212Y0155550D01*
X0334395Y0153367D01*
X0334395Y0147733D01*
X0330412Y0143750D01*
X0324778Y0143750D01*
X0322595Y0145933D01*
X0322212Y0145550D01*
X0324395Y0143367D01*
X0324395Y0140000D01*
X0325314Y0139619D01*
X0327583Y0137350D01*
X0329022Y0137350D01*
X0329754Y0139119D01*
X0331526Y0140891D01*
X0333842Y0141850D01*
X0336348Y0141850D01*
X0338664Y0140891D01*
X0340436Y0139119D01*
X0341395Y0136803D01*
X0341395Y0136038D01*
X0353795Y0123638D01*
X0353795Y0220630D01*
X0351110Y0217329D01*
X0351110Y0217329D01*
X0351110Y0217329D01*
X0346704Y0214220D01*
X0346704Y0214220D01*
X0341624Y0212414D01*
X0341624Y0212414D01*
X0336244Y0212046D01*
X0336244Y0212046D01*
X0330965Y0213143D01*
X0330965Y0213143D01*
X0326177Y0215624D01*
X0326177Y0215624D01*
X0322236Y0219304D01*
X0322236Y0219304D01*
X0319434Y0223912D01*
X0319434Y0223912D01*
X0317980Y0229104D01*
X0317980Y0234496D01*
X0319434Y0239688D01*
X0319434Y0239688D01*
X0322236Y0244296D01*
X0322236Y0244296D01*
X0326177Y0247976D01*
X0326177Y0247976D01*
X0326223Y0248000D01*
X0058660Y0248000D01*
X0061110Y0246271D01*
X0061110Y0246271D01*
X0064513Y0242088D01*
X0064513Y0242088D01*
X0066661Y0237142D01*
X0066661Y0237142D01*
X0067395Y0231800D01*
X0066661Y0226458D01*
X0066661Y0226458D01*
X0064513Y0221512D01*
X0064513Y0221512D01*
X0061110Y0217329D01*
X0061110Y0217329D01*
X0061110Y0217329D01*
X0056704Y0214220D01*
X0056704Y0214220D01*
X0051624Y0212414D01*
X0051624Y0212414D01*
X0046244Y0212046D01*
X0046244Y0212046D01*
X0040965Y0213143D01*
X0040965Y0213143D01*
X0036177Y0215624D01*
X0036177Y0215624D01*
X0032236Y0219304D01*
X0032236Y0219304D01*
X0031395Y0220687D01*
X0031395Y0219198D02*
X0032351Y0219198D01*
X0031395Y0217599D02*
X0034062Y0217599D01*
X0035774Y0216001D02*
X0031395Y0216001D01*
X0031395Y0214402D02*
X0038535Y0214402D01*
X0042599Y0212803D02*
X0031395Y0212803D01*
X0031395Y0211205D02*
X0141295Y0211205D01*
X0141295Y0212803D02*
X0052719Y0212803D01*
X0056962Y0214402D02*
X0141295Y0214402D01*
X0141295Y0216001D02*
X0059227Y0216001D01*
X0061329Y0217599D02*
X0141295Y0217599D01*
X0141295Y0219198D02*
X0062629Y0219198D01*
X0063930Y0220796D02*
X0141295Y0220796D01*
X0141295Y0222395D02*
X0064896Y0222395D01*
X0065590Y0223993D02*
X0110920Y0223993D01*
X0112231Y0223450D02*
X0109538Y0224565D01*
X0107478Y0226626D01*
X0106363Y0229318D01*
X0106363Y0239282D01*
X0107478Y0241974D01*
X0109538Y0244035D01*
X0112231Y0245150D01*
X0115145Y0245150D01*
X0117837Y0244035D01*
X0119897Y0241974D01*
X0121013Y0239282D01*
X0121013Y0229318D01*
X0119897Y0226626D01*
X0117837Y0224565D01*
X0115145Y0223450D01*
X0112231Y0223450D01*
X0116456Y0223993D02*
X0141295Y0223993D01*
X0141295Y0225592D02*
X0118863Y0225592D01*
X0120131Y0227190D02*
X0141295Y0227190D01*
X0140837Y0228789D02*
X0120793Y0228789D01*
X0121013Y0230387D02*
X0140585Y0230387D01*
X0140585Y0231986D02*
X0121013Y0231986D01*
X0121013Y0233584D02*
X0140585Y0233584D01*
X0140585Y0235183D02*
X0121013Y0235183D01*
X0121013Y0236781D02*
X0140585Y0236781D01*
X0140585Y0238380D02*
X0121013Y0238380D01*
X0120724Y0239978D02*
X0140841Y0239978D01*
X0141503Y0241577D02*
X0120062Y0241577D01*
X0118697Y0243175D02*
X0142822Y0243175D01*
X0145355Y0244774D02*
X0116053Y0244774D01*
X0111322Y0244774D02*
X0062327Y0244774D01*
X0063628Y0243175D02*
X0108679Y0243175D01*
X0107313Y0241577D02*
X0064735Y0241577D01*
X0065429Y0239978D02*
X0106651Y0239978D01*
X0106363Y0238380D02*
X0066123Y0238380D01*
X0066710Y0236781D02*
X0106363Y0236781D01*
X0106363Y0235183D02*
X0066930Y0235183D01*
X0067150Y0233584D02*
X0106363Y0233584D01*
X0106363Y0231986D02*
X0067370Y0231986D01*
X0067201Y0230387D02*
X0106363Y0230387D01*
X0106582Y0228789D02*
X0066981Y0228789D01*
X0066762Y0227190D02*
X0107244Y0227190D01*
X0108512Y0225592D02*
X0066285Y0225592D01*
X0060966Y0246372D02*
X0324460Y0246372D01*
X0326171Y0247971D02*
X0058701Y0247971D01*
X0031395Y0209606D02*
X0141295Y0209606D01*
X0141295Y0208008D02*
X0031395Y0208008D01*
X0031395Y0206409D02*
X0141295Y0206409D01*
X0141295Y0204811D02*
X0031395Y0204811D01*
X0031395Y0203212D02*
X0141131Y0203212D01*
X0140795Y0201614D02*
X0031395Y0201614D01*
X0031395Y0200015D02*
X0140795Y0200015D01*
X0140795Y0198417D02*
X0031395Y0198417D01*
X0031395Y0196818D02*
X0048578Y0196818D01*
X0047261Y0196273D02*
X0044947Y0193959D01*
X0043695Y0190936D01*
X0043695Y0187664D01*
X0044947Y0184641D01*
X0047261Y0182327D01*
X0050284Y0181075D01*
X0062406Y0181075D01*
X0065429Y0182327D01*
X0067743Y0184641D01*
X0068995Y0187664D01*
X0068995Y0190936D01*
X0067743Y0193959D01*
X0065429Y0196273D01*
X0062406Y0197525D01*
X0050284Y0197525D01*
X0047261Y0196273D01*
X0046208Y0195220D02*
X0031395Y0195220D01*
X0031395Y0193621D02*
X0044807Y0193621D01*
X0044145Y0192023D02*
X0031395Y0192023D01*
X0031395Y0190424D02*
X0043695Y0190424D01*
X0043695Y0188826D02*
X0031395Y0188826D01*
X0031395Y0187227D02*
X0043876Y0187227D01*
X0044538Y0185629D02*
X0031395Y0185629D01*
X0031395Y0184030D02*
X0045558Y0184030D01*
X0047156Y0182432D02*
X0031395Y0182432D01*
X0031395Y0180833D02*
X0072719Y0180833D01*
X0071120Y0179235D02*
X0031395Y0179235D01*
X0031395Y0177636D02*
X0069522Y0177636D01*
X0067923Y0176038D02*
X0031395Y0176038D01*
X0031395Y0174439D02*
X0066325Y0174439D01*
X0064726Y0172841D02*
X0031395Y0172841D01*
X0031395Y0171242D02*
X0063128Y0171242D01*
X0061529Y0169644D02*
X0031395Y0169644D01*
X0031395Y0168045D02*
X0059931Y0168045D01*
X0058332Y0166447D02*
X0031395Y0166447D01*
X0031395Y0164848D02*
X0056734Y0164848D01*
X0056459Y0164574D02*
X0055500Y0162258D01*
X0055500Y0141240D01*
X0054340Y0140080D01*
X0053000Y0136845D01*
X0053000Y0133345D01*
X0054340Y0130110D01*
X0055500Y0128950D01*
X0055500Y0113614D01*
X0049754Y0107869D01*
X0048795Y0105553D01*
X0048795Y0090763D01*
X0048045Y0088952D01*
X0048045Y0079648D01*
X0049118Y0077056D01*
X0051102Y0075073D01*
X0053693Y0074000D01*
X0056497Y0074000D01*
X0059089Y0075073D01*
X0061072Y0077056D01*
X0062145Y0079648D01*
X0062145Y0088952D01*
X0061395Y0090763D01*
X0061395Y0101690D01*
X0067141Y0107436D01*
X0068100Y0109752D01*
X0068100Y0128950D01*
X0069260Y0130110D01*
X0070600Y0133345D01*
X0070600Y0136845D01*
X0069260Y0140080D01*
X0068100Y0141240D01*
X0068100Y0158395D01*
X0092705Y0183000D01*
X0106588Y0183000D01*
X0107261Y0182327D01*
X0110284Y0181075D01*
X0122406Y0181075D01*
X0125429Y0182327D01*
X0127743Y0184641D01*
X0128995Y0187664D01*
X0128995Y0190936D01*
X0127743Y0193959D01*
X0125429Y0196273D01*
X0122406Y0197525D01*
X0110284Y0197525D01*
X0107261Y0196273D01*
X0106588Y0195600D01*
X0088842Y0195600D01*
X0086526Y0194641D01*
X0084754Y0192869D01*
X0058231Y0166346D01*
X0056459Y0164574D01*
X0055911Y0163250D02*
X0031395Y0163250D01*
X0031395Y0161651D02*
X0055500Y0161651D01*
X0055500Y0160053D02*
X0031395Y0160053D01*
X0031395Y0158454D02*
X0055500Y0158454D01*
X0055500Y0156856D02*
X0031395Y0156856D01*
X0031395Y0155257D02*
X0055500Y0155257D01*
X0055500Y0153659D02*
X0031395Y0153659D01*
X0031395Y0152060D02*
X0055500Y0152060D01*
X0055500Y0150462D02*
X0031395Y0150462D01*
X0031395Y0148863D02*
X0055500Y0148863D01*
X0055500Y0147265D02*
X0031395Y0147265D01*
X0031395Y0145666D02*
X0055500Y0145666D01*
X0055500Y0144068D02*
X0031395Y0144068D01*
X0031395Y0142469D02*
X0055500Y0142469D01*
X0055130Y0140870D02*
X0031395Y0140870D01*
X0031395Y0139272D02*
X0054005Y0139272D01*
X0053343Y0137673D02*
X0031395Y0137673D01*
X0031395Y0136075D02*
X0053000Y0136075D01*
X0053000Y0134476D02*
X0031395Y0134476D01*
X0031395Y0132878D02*
X0053193Y0132878D01*
X0053855Y0131279D02*
X0031395Y0131279D01*
X0031395Y0129681D02*
X0054769Y0129681D01*
X0055500Y0128082D02*
X0031395Y0128082D01*
X0031395Y0126484D02*
X0055500Y0126484D01*
X0055500Y0124885D02*
X0031395Y0124885D01*
X0031395Y0123287D02*
X0055500Y0123287D01*
X0055500Y0121688D02*
X0031395Y0121688D01*
X0031395Y0120090D02*
X0055500Y0120090D01*
X0055500Y0118491D02*
X0031395Y0118491D01*
X0031395Y0116893D02*
X0055500Y0116893D01*
X0055500Y0115294D02*
X0031395Y0115294D01*
X0031395Y0113696D02*
X0055500Y0113696D01*
X0053983Y0112097D02*
X0031395Y0112097D01*
X0031395Y0110499D02*
X0052384Y0110499D01*
X0050786Y0108900D02*
X0031395Y0108900D01*
X0031395Y0107302D02*
X0049519Y0107302D01*
X0048857Y0105703D02*
X0031395Y0105703D01*
X0031395Y0104105D02*
X0048795Y0104105D01*
X0048795Y0102506D02*
X0031395Y0102506D01*
X0031395Y0100908D02*
X0048795Y0100908D01*
X0048795Y0099309D02*
X0031395Y0099309D01*
X0031395Y0097711D02*
X0048795Y0097711D01*
X0048795Y0096112D02*
X0031395Y0096112D01*
X0031395Y0094514D02*
X0048795Y0094514D01*
X0048795Y0092915D02*
X0031395Y0092915D01*
X0031395Y0091317D02*
X0048795Y0091317D01*
X0048362Y0089718D02*
X0031395Y0089718D01*
X0031395Y0088120D02*
X0048045Y0088120D01*
X0048045Y0086521D02*
X0031395Y0086521D01*
X0031395Y0084923D02*
X0048045Y0084923D01*
X0048045Y0083324D02*
X0031395Y0083324D01*
X0031395Y0081726D02*
X0048045Y0081726D01*
X0048045Y0080127D02*
X0031395Y0080127D01*
X0031395Y0078529D02*
X0048509Y0078529D01*
X0049245Y0076930D02*
X0031395Y0076930D01*
X0031395Y0075332D02*
X0050843Y0075332D01*
X0059347Y0075332D02*
X0068795Y0075332D01*
X0068795Y0076930D02*
X0060945Y0076930D01*
X0061682Y0078529D02*
X0068509Y0078529D01*
X0068795Y0077837D02*
X0068795Y0071797D01*
X0069754Y0069481D01*
X0071526Y0067709D01*
X0076815Y0062421D01*
X0069777Y0062421D01*
X0068381Y0061842D01*
X0067312Y0060773D01*
X0066733Y0059377D01*
X0066733Y0051959D01*
X0067312Y0050563D01*
X0068381Y0049494D01*
X0069777Y0048915D01*
X0079163Y0048915D01*
X0079971Y0049250D01*
X0102915Y0049250D01*
X0102915Y0047708D01*
X0103494Y0046311D01*
X0104563Y0045242D01*
X0105959Y0044663D01*
X0106258Y0044663D01*
X0106500Y0044447D01*
X0106850Y0044324D01*
X0107164Y0044127D01*
X0107511Y0044068D01*
X0107819Y0043898D01*
X0108187Y0043856D01*
X0108537Y0043734D01*
X0108697Y0043743D01*
X0108740Y0043725D01*
X0109354Y0043725D01*
X0109964Y0043656D01*
X0110202Y0043725D01*
X0122488Y0043725D01*
X0122727Y0043656D01*
X0123337Y0043725D01*
X0123950Y0043725D01*
X0123994Y0043743D01*
X0124153Y0043734D01*
X0124503Y0043856D01*
X0124872Y0043898D01*
X0125180Y0044068D01*
X0125526Y0044127D01*
X0125840Y0044324D01*
X0126190Y0044447D01*
X0126453Y0044681D01*
X0126778Y0044816D01*
X0127040Y0045078D01*
X0127354Y0045275D01*
X0127558Y0045562D01*
X0127845Y0045766D01*
X0128042Y0046080D01*
X0128304Y0046342D01*
X0128439Y0046667D01*
X0128673Y0046930D01*
X0128796Y0047280D01*
X0128993Y0047594D01*
X0129052Y0047941D01*
X0129222Y0048249D01*
X0129264Y0048617D01*
X0129386Y0048967D01*
X0129377Y0049126D01*
X0129395Y0049170D01*
X0129395Y0049784D01*
X0129464Y0050393D01*
X0129395Y0050632D01*
X0129395Y0061693D01*
X0129464Y0061932D01*
X0129395Y0062541D01*
X0129395Y0063155D01*
X0129377Y0063199D01*
X0129386Y0063358D01*
X0129264Y0063708D01*
X0129222Y0064076D01*
X0129052Y0064384D01*
X0128993Y0064731D01*
X0128796Y0065045D01*
X0128673Y0065395D01*
X0128439Y0065658D01*
X0128304Y0065983D01*
X0128042Y0066245D01*
X0127845Y0066559D01*
X0127558Y0066763D01*
X0127354Y0067050D01*
X0127040Y0067247D01*
X0126778Y0067509D01*
X0126453Y0067644D01*
X0126190Y0067878D01*
X0125840Y0068001D01*
X0125526Y0068198D01*
X0125180Y0068257D01*
X0124872Y0068427D01*
X0124503Y0068469D01*
X0124153Y0068591D01*
X0123994Y0068582D01*
X0123950Y0068600D01*
X0123337Y0068600D01*
X0122727Y0068669D01*
X0122488Y0068600D01*
X0110202Y0068600D01*
X0109964Y0068669D01*
X0109354Y0068600D01*
X0108740Y0068600D01*
X0108697Y0068582D01*
X0108537Y0068591D01*
X0108187Y0068469D01*
X0107819Y0068427D01*
X0107511Y0068257D01*
X0107164Y0068198D01*
X0106850Y0068001D01*
X0106500Y0067878D01*
X0106237Y0067644D01*
X0105912Y0067509D01*
X0105650Y0067247D01*
X0105336Y0067050D01*
X0105133Y0066763D01*
X0104846Y0066559D01*
X0104648Y0066245D01*
X0104386Y0065983D01*
X0104251Y0065658D01*
X0104017Y0065395D01*
X0103972Y0065268D01*
X0103494Y0064789D01*
X0102915Y0063392D01*
X0102915Y0061850D01*
X0094844Y0061850D01*
X0094844Y0067804D01*
X0094265Y0069201D01*
X0093196Y0070270D01*
X0091800Y0070848D01*
X0088140Y0070848D01*
X0087898Y0070948D01*
X0086106Y0070948D01*
X0081395Y0075660D01*
X0081395Y0076563D01*
X0087898Y0076563D01*
X0089295Y0077142D01*
X0090364Y0078210D01*
X0090942Y0079607D01*
X0090942Y0088993D01*
X0090364Y0090390D01*
X0089295Y0091458D01*
X0087898Y0092037D01*
X0080578Y0092037D01*
X0079089Y0093527D01*
X0076497Y0094600D01*
X0073693Y0094600D01*
X0071102Y0093527D01*
X0069118Y0091543D01*
X0068045Y0088952D01*
X0068045Y0079648D01*
X0068795Y0077837D01*
X0068045Y0080127D02*
X0062145Y0080127D01*
X0062145Y0081726D02*
X0068045Y0081726D01*
X0068045Y0083324D02*
X0062145Y0083324D01*
X0062145Y0084923D02*
X0068045Y0084923D01*
X0068045Y0086521D02*
X0062145Y0086521D01*
X0062145Y0088120D02*
X0068045Y0088120D01*
X0068362Y0089718D02*
X0061828Y0089718D01*
X0061395Y0091317D02*
X0069024Y0091317D01*
X0070490Y0092915D02*
X0061395Y0092915D01*
X0061395Y0094514D02*
X0073484Y0094514D01*
X0076706Y0094514D02*
X0140149Y0094514D01*
X0139256Y0092915D02*
X0079700Y0092915D01*
X0089437Y0091317D02*
X0138795Y0091317D01*
X0138795Y0089718D02*
X0090642Y0089718D01*
X0090942Y0088120D02*
X0138797Y0088120D01*
X0136687Y0086521D02*
X0090942Y0086521D01*
X0090942Y0084923D02*
X0136157Y0084923D01*
X0136157Y0083324D02*
X0090942Y0083324D01*
X0090942Y0081726D02*
X0136157Y0081726D01*
X0136157Y0080127D02*
X0090942Y0080127D01*
X0090496Y0078529D02*
X0136157Y0078529D01*
X0135937Y0076930D02*
X0088784Y0076930D01*
X0084920Y0072134D02*
X0131141Y0072134D01*
X0130412Y0070536D02*
X0092553Y0070536D01*
X0094374Y0068937D02*
X0130295Y0068937D01*
X0130295Y0067339D02*
X0126948Y0067339D01*
X0128405Y0065740D02*
X0130295Y0065740D01*
X0130295Y0064142D02*
X0129186Y0064142D01*
X0129395Y0062543D02*
X0130295Y0062543D01*
X0130295Y0060945D02*
X0129395Y0060945D01*
X0129395Y0059346D02*
X0130295Y0059346D01*
X0130295Y0057748D02*
X0129395Y0057748D01*
X0129395Y0056149D02*
X0130295Y0056149D01*
X0130295Y0054551D02*
X0129395Y0054551D01*
X0129395Y0052952D02*
X0130295Y0052952D01*
X0130295Y0051354D02*
X0129395Y0051354D01*
X0129395Y0049755D02*
X0130295Y0049755D01*
X0130295Y0048157D02*
X0129171Y0048157D01*
X0128394Y0046558D02*
X0130518Y0046558D01*
X0131397Y0044960D02*
X0126922Y0044960D01*
X0132996Y0043361D02*
X0031395Y0043361D01*
X0031395Y0041763D02*
X0134594Y0041763D01*
X0136193Y0040164D02*
X0054498Y0040164D01*
X0057858Y0038566D02*
X0137791Y0038566D01*
X0139390Y0036967D02*
X0060123Y0036967D01*
X0061843Y0035369D02*
X0140988Y0035369D01*
X0142587Y0033770D02*
X0063144Y0033770D01*
X0064444Y0032172D02*
X0144185Y0032172D01*
X0145784Y0030573D02*
X0065170Y0030573D01*
X0065865Y0028975D02*
X0147382Y0028975D01*
X0148981Y0027376D02*
X0066559Y0027376D01*
X0066848Y0025778D02*
X0150579Y0025778D01*
X0152178Y0024179D02*
X0067068Y0024179D01*
X0067288Y0022581D02*
X0153776Y0022581D01*
X0156080Y0020982D02*
X0067283Y0020982D01*
X0067063Y0019384D02*
X0279769Y0019384D01*
X0282921Y0019384D02*
X0291019Y0019384D01*
X0294171Y0019384D02*
X0317980Y0019384D01*
X0317980Y0020982D02*
X0296937Y0020982D01*
X0298184Y0022581D02*
X0317980Y0022581D01*
X0317980Y0024179D02*
X0298846Y0024179D01*
X0299611Y0025778D02*
X0318339Y0025778D01*
X0318787Y0027376D02*
X0301210Y0027376D01*
X0302808Y0028975D02*
X0319234Y0028975D01*
X0319972Y0030573D02*
X0304407Y0030573D01*
X0306005Y0032172D02*
X0320945Y0032172D01*
X0321917Y0033770D02*
X0307604Y0033770D01*
X0309202Y0035369D02*
X0323385Y0035369D01*
X0325097Y0036967D02*
X0310801Y0036967D01*
X0312399Y0038566D02*
X0327315Y0038566D01*
X0326177Y0037976D02*
X0326177Y0037976D01*
X0330400Y0040164D02*
X0313998Y0040164D01*
X0315596Y0041763D02*
X0353795Y0041763D01*
X0353795Y0043361D02*
X0317195Y0043361D01*
X0318793Y0044960D02*
X0353795Y0044960D01*
X0353795Y0046558D02*
X0320392Y0046558D01*
X0321990Y0048157D02*
X0353795Y0048157D01*
X0353795Y0049755D02*
X0345416Y0049755D01*
X0347687Y0051354D02*
X0353795Y0051354D01*
X0353795Y0052952D02*
X0349286Y0052952D01*
X0350884Y0054551D02*
X0353795Y0054551D01*
X0353795Y0056149D02*
X0352483Y0056149D01*
X0353795Y0040164D02*
X0344498Y0040164D01*
X0347858Y0038566D02*
X0353795Y0038566D01*
X0353795Y0036967D02*
X0350123Y0036967D01*
X0351843Y0035369D02*
X0353795Y0035369D01*
X0353795Y0033770D02*
X0353144Y0033770D01*
X0325137Y0006596D02*
X0060070Y0006596D01*
X0061813Y0008194D02*
X0323425Y0008194D01*
X0321939Y0009793D02*
X0063114Y0009793D01*
X0064414Y0011391D02*
X0320967Y0011391D01*
X0319995Y0012990D02*
X0065154Y0012990D01*
X0065849Y0014588D02*
X0319245Y0014588D01*
X0318797Y0016187D02*
X0066543Y0016187D01*
X0066843Y0017785D02*
X0318349Y0017785D01*
X0288253Y0020982D02*
X0285687Y0020982D01*
X0286934Y0022581D02*
X0287006Y0022581D01*
X0277003Y0020982D02*
X0274110Y0020982D01*
X0266857Y0035350D02*
X0163980Y0035350D01*
X0149185Y0050145D01*
X0149280Y0056891D01*
X0149885Y0057142D01*
X0150954Y0058210D01*
X0151533Y0059607D01*
X0151533Y0068950D01*
X0152083Y0069500D01*
X0165136Y0069500D01*
X0164754Y0069119D01*
X0163795Y0066803D01*
X0163795Y0064297D01*
X0164754Y0061981D01*
X0165295Y0061440D01*
X0165295Y0050845D01*
X0166026Y0049081D01*
X0167376Y0047731D01*
X0172376Y0042731D01*
X0174140Y0042000D01*
X0202300Y0042000D01*
X0204064Y0042731D01*
X0205414Y0044081D01*
X0209333Y0047999D01*
X0209754Y0046981D01*
X0211526Y0045209D01*
X0213842Y0044250D01*
X0216348Y0044250D01*
X0218664Y0045209D01*
X0220436Y0046981D01*
X0221395Y0049297D01*
X0221395Y0051803D01*
X0220436Y0054119D01*
X0219895Y0054660D01*
X0219895Y0058562D01*
X0220314Y0058981D01*
X0221664Y0060331D01*
X0222288Y0061837D01*
X0223023Y0062142D01*
X0223233Y0062351D01*
X0223442Y0062142D01*
X0224839Y0061563D01*
X0232650Y0061563D01*
X0234047Y0062142D01*
X0235116Y0063210D01*
X0235650Y0064500D01*
X0239736Y0064500D01*
X0240276Y0063959D01*
X0242592Y0063000D01*
X0243357Y0063000D01*
X0247045Y0059312D01*
X0247045Y0053983D01*
X0251028Y0050000D01*
X0256662Y0050000D01*
X0258845Y0052183D01*
X0261028Y0050000D01*
X0266662Y0050000D01*
X0269316Y0052654D01*
X0270489Y0051481D01*
X0272253Y0050750D01*
X0282257Y0050750D01*
X0266857Y0035350D01*
X0266876Y0035369D02*
X0163962Y0035369D01*
X0162363Y0036967D02*
X0268474Y0036967D01*
X0270073Y0038566D02*
X0160765Y0038566D01*
X0159166Y0040164D02*
X0271671Y0040164D01*
X0273270Y0041763D02*
X0157568Y0041763D01*
X0155969Y0043361D02*
X0171746Y0043361D01*
X0170147Y0044960D02*
X0154370Y0044960D01*
X0152772Y0046558D02*
X0168549Y0046558D01*
X0166950Y0048157D02*
X0151173Y0048157D01*
X0149575Y0049755D02*
X0165747Y0049755D01*
X0165295Y0051354D02*
X0149202Y0051354D01*
X0149224Y0052952D02*
X0165295Y0052952D01*
X0165295Y0054551D02*
X0149247Y0054551D01*
X0149269Y0056149D02*
X0165295Y0056149D01*
X0165295Y0057748D02*
X0150492Y0057748D01*
X0151425Y0059346D02*
X0165295Y0059346D01*
X0165295Y0060945D02*
X0151533Y0060945D01*
X0151533Y0062543D02*
X0164521Y0062543D01*
X0163859Y0064142D02*
X0151533Y0064142D01*
X0151533Y0065740D02*
X0163795Y0065740D01*
X0164017Y0067339D02*
X0151533Y0067339D01*
X0151533Y0068937D02*
X0164679Y0068937D01*
X0169433Y0071850D02*
X0171833Y0074250D01*
X0172598Y0074250D01*
X0173795Y0074746D01*
X0173795Y0073047D01*
X0174754Y0070731D01*
X0176526Y0068959D01*
X0178842Y0068000D01*
X0181348Y0068000D01*
X0183664Y0068959D01*
X0185436Y0070731D01*
X0186395Y0073047D01*
X0186395Y0077462D01*
X0188795Y0075062D01*
X0188795Y0074297D01*
X0189754Y0071981D01*
X0191526Y0070209D01*
X0193842Y0069250D01*
X0196348Y0069250D01*
X0198664Y0070209D01*
X0200295Y0071840D01*
X0200295Y0066288D01*
X0195607Y0061600D01*
X0182955Y0061600D01*
X0182414Y0062141D01*
X0180098Y0063100D01*
X0177592Y0063100D01*
X0175549Y0062254D01*
X0176395Y0064297D01*
X0176395Y0066803D01*
X0175436Y0069119D01*
X0173664Y0070891D01*
X0171348Y0071850D01*
X0169433Y0071850D01*
X0169718Y0072134D02*
X0174173Y0072134D01*
X0174019Y0070536D02*
X0174950Y0070536D01*
X0175511Y0068937D02*
X0176579Y0068937D01*
X0176173Y0067339D02*
X0200295Y0067339D01*
X0200295Y0068937D02*
X0183612Y0068937D01*
X0185241Y0070536D02*
X0191200Y0070536D01*
X0189691Y0072134D02*
X0186017Y0072134D01*
X0186395Y0073733D02*
X0189029Y0073733D01*
X0188525Y0075332D02*
X0186395Y0075332D01*
X0186395Y0076930D02*
X0186927Y0076930D01*
X0194109Y0083324D02*
X0194283Y0083324D01*
X0195583Y0081850D02*
X0189194Y0088239D01*
X0190295Y0089340D01*
X0190295Y0088345D01*
X0191026Y0086581D01*
X0195757Y0081850D01*
X0195583Y0081850D01*
X0192684Y0084923D02*
X0192511Y0084923D01*
X0191086Y0086521D02*
X0190912Y0086521D01*
X0190389Y0088120D02*
X0189314Y0088120D01*
X0173795Y0073733D02*
X0171316Y0073733D01*
X0176395Y0065740D02*
X0199747Y0065740D01*
X0198149Y0064142D02*
X0176331Y0064142D01*
X0176248Y0062543D02*
X0175669Y0062543D01*
X0181442Y0062543D02*
X0196550Y0062543D01*
X0198991Y0070536D02*
X0200295Y0070536D01*
X0220680Y0059346D02*
X0247011Y0059346D01*
X0247045Y0057748D02*
X0219895Y0057748D01*
X0219895Y0056149D02*
X0247045Y0056149D01*
X0247045Y0054551D02*
X0220004Y0054551D01*
X0220919Y0052952D02*
X0248076Y0052952D01*
X0249675Y0051354D02*
X0221395Y0051354D01*
X0221395Y0049755D02*
X0281262Y0049755D01*
X0279664Y0048157D02*
X0220923Y0048157D01*
X0220013Y0046558D02*
X0278065Y0046558D01*
X0276467Y0044960D02*
X0218062Y0044960D01*
X0212128Y0044960D02*
X0206293Y0044960D01*
X0207892Y0046558D02*
X0210177Y0046558D01*
X0204695Y0043361D02*
X0274868Y0043361D01*
X0270795Y0051354D02*
X0268016Y0051354D01*
X0259675Y0051354D02*
X0258016Y0051354D01*
X0245412Y0060945D02*
X0221919Y0060945D01*
X0234448Y0062543D02*
X0243813Y0062543D01*
X0240094Y0064142D02*
X0235501Y0064142D01*
X0250503Y0076930D02*
X0265060Y0076930D01*
X0266125Y0078529D02*
X0253957Y0078529D01*
X0255556Y0080127D02*
X0284134Y0080127D01*
X0282535Y0078529D02*
X0279065Y0078529D01*
X0280131Y0076930D02*
X0280937Y0076930D01*
X0285733Y0081726D02*
X0256297Y0081726D01*
X0256695Y0083324D02*
X0287331Y0083324D01*
X0288930Y0084923D02*
X0256695Y0084923D01*
X0256695Y0086521D02*
X0290528Y0086521D01*
X0292127Y0088120D02*
X0256695Y0088120D01*
X0256695Y0089718D02*
X0293725Y0089718D01*
X0295324Y0091317D02*
X0256528Y0091317D01*
X0255866Y0092915D02*
X0283820Y0092915D01*
X0291370Y0092915D02*
X0296922Y0092915D01*
X0297795Y0094514D02*
X0292949Y0094514D01*
X0293612Y0096112D02*
X0297795Y0096112D01*
X0297795Y0097711D02*
X0293895Y0097711D01*
X0293893Y0099309D02*
X0297795Y0099309D01*
X0297795Y0100908D02*
X0293230Y0100908D01*
X0292048Y0102506D02*
X0297795Y0102506D01*
X0297795Y0104105D02*
X0289540Y0104105D01*
X0291042Y0105703D02*
X0297795Y0105703D01*
X0297795Y0107302D02*
X0292152Y0107302D01*
X0293078Y0108900D02*
X0297795Y0108900D01*
X0297795Y0110499D02*
X0293674Y0110499D01*
X0294244Y0112097D02*
X0297795Y0112097D01*
X0297795Y0113696D02*
X0294534Y0113696D01*
X0294695Y0115294D02*
X0297795Y0115294D01*
X0297795Y0116893D02*
X0294695Y0116893D01*
X0294695Y0118491D02*
X0297795Y0118491D01*
X0297795Y0120090D02*
X0294695Y0120090D01*
X0294695Y0121688D02*
X0297795Y0121688D01*
X0297795Y0123287D02*
X0294695Y0123287D01*
X0294695Y0124885D02*
X0297795Y0124885D01*
X0297795Y0126484D02*
X0294695Y0126484D01*
X0294695Y0128082D02*
X0298449Y0128082D01*
X0299938Y0129681D02*
X0294695Y0129681D01*
X0294695Y0131279D02*
X0301536Y0131279D01*
X0303135Y0132878D02*
X0294695Y0132878D01*
X0294695Y0134476D02*
X0304733Y0134476D01*
X0306332Y0136075D02*
X0294695Y0136075D01*
X0294695Y0137673D02*
X0307930Y0137673D01*
X0309529Y0139272D02*
X0294695Y0139272D01*
X0294695Y0140870D02*
X0310795Y0140870D01*
X0310795Y0142469D02*
X0294695Y0142469D01*
X0294695Y0144068D02*
X0311496Y0144068D01*
X0312862Y0145666D02*
X0294695Y0145666D01*
X0294695Y0147265D02*
X0311264Y0147265D01*
X0310795Y0148863D02*
X0294695Y0148863D01*
X0294695Y0150462D02*
X0310795Y0150462D01*
X0310795Y0152060D02*
X0294695Y0152060D01*
X0294695Y0153659D02*
X0311087Y0153659D01*
X0312686Y0155257D02*
X0294695Y0155257D01*
X0294642Y0156856D02*
X0311673Y0156856D01*
X0310795Y0158454D02*
X0294294Y0158454D01*
X0293947Y0160053D02*
X0310795Y0160053D01*
X0310795Y0161651D02*
X0293310Y0161651D01*
X0292489Y0163250D02*
X0310795Y0163250D01*
X0312277Y0164848D02*
X0291366Y0164848D01*
X0289993Y0166447D02*
X0313875Y0166447D01*
X0321315Y0166447D02*
X0323875Y0166447D01*
X0331315Y0166447D02*
X0353795Y0166447D01*
X0353795Y0168045D02*
X0288177Y0168045D01*
X0285740Y0169644D02*
X0353795Y0169644D01*
X0353795Y0171242D02*
X0280655Y0171242D01*
X0279965Y0166680D02*
X0281612Y0166322D01*
X0283191Y0165733D01*
X0284670Y0164925D01*
X0286019Y0163915D01*
X0287210Y0162724D01*
X0288220Y0161374D01*
X0289028Y0159895D01*
X0289617Y0158317D01*
X0289975Y0156670D01*
X0290095Y0154989D01*
X0290095Y0116111D01*
X0289975Y0114430D01*
X0289617Y0112783D01*
X0289028Y0111205D01*
X0288220Y0109726D01*
X0287210Y0108376D01*
X0286019Y0107185D01*
X0284670Y0106175D01*
X0283191Y0105367D01*
X0281612Y0104778D01*
X0279965Y0104420D01*
X0278284Y0104300D01*
X0231906Y0104300D01*
X0230225Y0104420D01*
X0228579Y0104778D01*
X0227000Y0105367D01*
X0225521Y0106175D01*
X0224172Y0107185D01*
X0222980Y0108376D01*
X0221970Y0109726D01*
X0221162Y0111205D01*
X0220574Y0112783D01*
X0220215Y0114430D01*
X0220095Y0116111D01*
X0220095Y0154989D01*
X0220215Y0156670D01*
X0220574Y0158317D01*
X0221162Y0159895D01*
X0221970Y0161374D01*
X0222980Y0162724D01*
X0224172Y0163915D01*
X0225521Y0164925D01*
X0227000Y0165733D01*
X0228579Y0166322D01*
X0230225Y0166680D01*
X0231906Y0166800D01*
X0278284Y0166800D01*
X0279965Y0166680D01*
X0281037Y0166447D02*
X0229154Y0166447D01*
X0225418Y0164848D02*
X0284772Y0164848D01*
X0286684Y0163250D02*
X0223506Y0163250D01*
X0222177Y0161651D02*
X0288013Y0161651D01*
X0288942Y0160053D02*
X0221248Y0160053D01*
X0220625Y0158454D02*
X0289565Y0158454D01*
X0289935Y0156856D02*
X0220256Y0156856D01*
X0220114Y0155257D02*
X0290076Y0155257D01*
X0290095Y0153659D02*
X0220095Y0153659D01*
X0220095Y0152060D02*
X0290095Y0152060D01*
X0290095Y0150462D02*
X0220095Y0150462D01*
X0220095Y0148863D02*
X0290095Y0148863D01*
X0290095Y0147265D02*
X0220095Y0147265D01*
X0220095Y0145666D02*
X0290095Y0145666D01*
X0290095Y0144068D02*
X0220095Y0144068D01*
X0220095Y0142469D02*
X0290095Y0142469D01*
X0290095Y0140870D02*
X0220095Y0140870D01*
X0220095Y0139272D02*
X0290095Y0139272D01*
X0290095Y0137673D02*
X0220095Y0137673D01*
X0220095Y0136075D02*
X0290095Y0136075D01*
X0290095Y0134476D02*
X0220095Y0134476D01*
X0220095Y0132878D02*
X0290095Y0132878D01*
X0290095Y0131279D02*
X0220095Y0131279D01*
X0220095Y0129681D02*
X0290095Y0129681D01*
X0290095Y0128082D02*
X0220095Y0128082D01*
X0220095Y0126484D02*
X0290095Y0126484D01*
X0290095Y0124885D02*
X0220095Y0124885D01*
X0220095Y0123287D02*
X0290095Y0123287D01*
X0290095Y0121688D02*
X0220095Y0121688D01*
X0220095Y0120090D02*
X0290095Y0120090D01*
X0290095Y0118491D02*
X0220095Y0118491D01*
X0220095Y0116893D02*
X0290095Y0116893D01*
X0290037Y0115294D02*
X0220154Y0115294D01*
X0220375Y0113696D02*
X0289815Y0113696D01*
X0289361Y0112097D02*
X0220830Y0112097D01*
X0221548Y0110499D02*
X0288642Y0110499D01*
X0287602Y0108900D02*
X0222588Y0108900D01*
X0224055Y0107302D02*
X0286136Y0107302D01*
X0283806Y0105703D02*
X0226385Y0105703D01*
X0222641Y0102506D02*
X0215145Y0102506D01*
X0215145Y0100908D02*
X0225569Y0100908D01*
X0228316Y0099309D02*
X0215145Y0099309D01*
X0215145Y0097711D02*
X0226718Y0097711D01*
X0225119Y0096112D02*
X0222476Y0096112D01*
X0220650Y0104105D02*
X0215145Y0104105D01*
X0215145Y0105703D02*
X0219148Y0105703D01*
X0218038Y0107302D02*
X0215145Y0107302D01*
X0215145Y0108900D02*
X0217112Y0108900D01*
X0216516Y0110499D02*
X0215145Y0110499D01*
X0215145Y0112097D02*
X0215946Y0112097D01*
X0215656Y0113696D02*
X0215145Y0113696D01*
X0215145Y0115294D02*
X0215495Y0115294D01*
X0215495Y0116893D02*
X0215145Y0116893D01*
X0215145Y0118491D02*
X0215495Y0118491D01*
X0215495Y0120090D02*
X0215145Y0120090D01*
X0215145Y0121688D02*
X0215495Y0121688D01*
X0215495Y0123287D02*
X0215145Y0123287D01*
X0215145Y0124885D02*
X0215495Y0124885D01*
X0215495Y0126484D02*
X0215145Y0126484D01*
X0215145Y0128082D02*
X0215495Y0128082D01*
X0215495Y0129681D02*
X0215145Y0129681D01*
X0215145Y0131279D02*
X0215495Y0131279D01*
X0215495Y0132878D02*
X0215145Y0132878D01*
X0215145Y0134476D02*
X0215495Y0134476D01*
X0215495Y0136075D02*
X0215145Y0136075D01*
X0215145Y0137673D02*
X0215495Y0137673D01*
X0215495Y0139272D02*
X0215145Y0139272D01*
X0215145Y0140870D02*
X0215495Y0140870D01*
X0215495Y0142469D02*
X0215145Y0142469D01*
X0215145Y0144068D02*
X0215495Y0144068D01*
X0215495Y0145666D02*
X0215145Y0145666D01*
X0215145Y0147265D02*
X0215495Y0147265D01*
X0215495Y0148863D02*
X0215145Y0148863D01*
X0215145Y0150462D02*
X0215495Y0150462D01*
X0215495Y0152060D02*
X0215145Y0152060D01*
X0215145Y0153659D02*
X0215495Y0153659D01*
X0215495Y0155257D02*
X0215145Y0155257D01*
X0215145Y0156856D02*
X0215548Y0156856D01*
X0215896Y0158454D02*
X0215145Y0158454D01*
X0215145Y0160053D02*
X0216244Y0160053D01*
X0216880Y0161651D02*
X0215145Y0161651D01*
X0215145Y0163250D02*
X0217701Y0163250D01*
X0218824Y0164848D02*
X0215145Y0164848D01*
X0215145Y0166447D02*
X0220198Y0166447D01*
X0222013Y0168045D02*
X0215145Y0168045D01*
X0215145Y0169644D02*
X0224450Y0169644D01*
X0229536Y0171242D02*
X0215145Y0171242D01*
X0215145Y0172841D02*
X0353795Y0172841D01*
X0353795Y0174439D02*
X0321101Y0174439D01*
X0320412Y0173750D02*
X0324395Y0177733D01*
X0324395Y0183367D01*
X0320412Y0187350D01*
X0319705Y0187350D01*
X0318664Y0188391D01*
X0316348Y0189350D01*
X0275683Y0189350D01*
X0286922Y0200589D01*
X0288538Y0200589D01*
X0289935Y0201167D01*
X0291004Y0202236D01*
X0291582Y0203633D01*
X0291582Y0205696D01*
X0292278Y0205000D01*
X0297912Y0205000D01*
X0300095Y0207183D01*
X0302278Y0205000D01*
X0307912Y0205000D01*
X0311895Y0208983D01*
X0311895Y0214617D01*
X0309895Y0216617D01*
X0309895Y0220255D01*
X0309164Y0222019D01*
X0306145Y0225038D01*
X0306145Y0227733D01*
X0307110Y0228698D01*
X0308145Y0231197D01*
X0308145Y0239903D01*
X0307110Y0242402D01*
X0305197Y0244315D01*
X0302698Y0245350D01*
X0299993Y0245350D01*
X0297493Y0244315D01*
X0296345Y0243167D01*
X0295197Y0244315D01*
X0292698Y0245350D01*
X0289993Y0245350D01*
X0287493Y0244315D01*
X0285580Y0242402D01*
X0284545Y0239903D01*
X0284545Y0231197D01*
X0285580Y0228698D01*
X0286545Y0227733D01*
X0286545Y0225511D01*
X0279152Y0225511D01*
X0279111Y0225494D01*
X0278762Y0226335D01*
X0277145Y0227952D01*
X0277145Y0228783D01*
X0278145Y0231197D01*
X0278145Y0239903D01*
X0277110Y0242402D01*
X0275197Y0244315D01*
X0272698Y0245350D01*
X0269993Y0245350D01*
X0267493Y0244315D01*
X0265580Y0242402D01*
X0264545Y0239903D01*
X0264545Y0231197D01*
X0265545Y0228783D01*
X0265545Y0225511D01*
X0259152Y0225511D01*
X0258395Y0225198D01*
X0258395Y0226759D01*
X0258614Y0226978D01*
X0259695Y0229588D01*
X0259695Y0239012D01*
X0258614Y0241622D01*
X0256617Y0243619D01*
X0254007Y0244700D01*
X0251183Y0244700D01*
X0248573Y0243619D01*
X0247595Y0242641D01*
X0246617Y0243619D01*
X0244007Y0244700D01*
X0241183Y0244700D01*
X0238573Y0243619D01*
X0237595Y0242641D01*
X0236617Y0243619D01*
X0234007Y0244700D01*
X0231183Y0244700D01*
X0228573Y0243619D01*
X0226576Y0241622D01*
X0225495Y0239012D01*
X0225495Y0229588D01*
X0226576Y0226978D01*
X0226795Y0226759D01*
X0226795Y0216067D01*
X0225795Y0213653D01*
X0225795Y0204947D01*
X0226830Y0202448D01*
X0227795Y0201483D01*
X0227795Y0200845D01*
X0228526Y0199081D01*
X0229876Y0197731D01*
X0229876Y0197731D01*
X0238257Y0189350D01*
X0237705Y0189350D01*
X0218905Y0208150D01*
X0218905Y0215449D01*
X0218964Y0215591D01*
X0218964Y0223009D01*
X0218905Y0223151D01*
X0218905Y0227680D01*
X0219695Y0229588D01*
X0219695Y0239012D01*
X0218614Y0241622D01*
X0216617Y0243619D01*
X0214007Y0244700D01*
X0211183Y0244700D01*
X0208573Y0243619D01*
X0206576Y0241622D01*
X0205495Y0239012D01*
X0205495Y0229588D01*
X0206305Y0227633D01*
X0206305Y0223151D01*
X0206246Y0223009D01*
X0206246Y0215591D01*
X0206305Y0215449D01*
X0206305Y0204287D01*
X0207264Y0201971D01*
X0229754Y0179481D01*
X0231526Y0177709D01*
X0233842Y0176750D01*
X0311778Y0176750D01*
X0314778Y0173750D01*
X0320412Y0173750D01*
X0322700Y0176038D02*
X0353795Y0176038D01*
X0353795Y0177636D02*
X0324298Y0177636D01*
X0324395Y0179235D02*
X0353795Y0179235D01*
X0353795Y0180833D02*
X0324395Y0180833D01*
X0324395Y0182432D02*
X0353795Y0182432D01*
X0353795Y0184030D02*
X0323731Y0184030D01*
X0322133Y0185629D02*
X0353795Y0185629D01*
X0353795Y0187227D02*
X0320534Y0187227D01*
X0317614Y0188826D02*
X0353795Y0188826D01*
X0353795Y0190424D02*
X0276758Y0190424D01*
X0278356Y0192023D02*
X0353795Y0192023D01*
X0353795Y0193621D02*
X0279955Y0193621D01*
X0281553Y0195220D02*
X0353795Y0195220D01*
X0353795Y0196818D02*
X0283152Y0196818D01*
X0284750Y0198417D02*
X0353795Y0198417D01*
X0353795Y0200015D02*
X0286349Y0200015D01*
X0290381Y0201614D02*
X0353795Y0201614D01*
X0353795Y0203212D02*
X0291408Y0203212D01*
X0291582Y0204811D02*
X0353795Y0204811D01*
X0353795Y0206409D02*
X0309321Y0206409D01*
X0310920Y0208008D02*
X0353795Y0208008D01*
X0353795Y0209606D02*
X0311895Y0209606D01*
X0311895Y0211205D02*
X0353795Y0211205D01*
X0353795Y0212803D02*
X0342719Y0212803D01*
X0346962Y0214402D02*
X0353795Y0214402D01*
X0353795Y0216001D02*
X0349227Y0216001D01*
X0351329Y0217599D02*
X0353795Y0217599D01*
X0353795Y0219198D02*
X0352629Y0219198D01*
X0332599Y0212803D02*
X0311895Y0212803D01*
X0311895Y0214402D02*
X0328535Y0214402D01*
X0325774Y0216001D02*
X0310511Y0216001D01*
X0309895Y0217599D02*
X0324062Y0217599D01*
X0322351Y0219198D02*
X0309895Y0219198D01*
X0309671Y0220796D02*
X0321329Y0220796D01*
X0320357Y0222395D02*
X0308789Y0222395D01*
X0307190Y0223993D02*
X0319412Y0223993D01*
X0318964Y0225592D02*
X0306145Y0225592D01*
X0306145Y0227190D02*
X0318516Y0227190D01*
X0318068Y0228789D02*
X0307147Y0228789D01*
X0307809Y0230387D02*
X0317980Y0230387D01*
X0317980Y0231986D02*
X0308145Y0231986D01*
X0308145Y0233584D02*
X0317980Y0233584D01*
X0318172Y0235183D02*
X0308145Y0235183D01*
X0308145Y0236781D02*
X0318620Y0236781D01*
X0319068Y0238380D02*
X0308145Y0238380D01*
X0308114Y0239978D02*
X0319611Y0239978D01*
X0320583Y0241577D02*
X0307452Y0241577D01*
X0306337Y0243175D02*
X0321555Y0243175D01*
X0322748Y0244774D02*
X0304089Y0244774D01*
X0298601Y0244774D02*
X0294089Y0244774D01*
X0296337Y0243175D02*
X0296354Y0243175D01*
X0288601Y0244774D02*
X0274089Y0244774D01*
X0276337Y0243175D02*
X0286354Y0243175D01*
X0285239Y0241577D02*
X0277452Y0241577D01*
X0278114Y0239978D02*
X0284576Y0239978D01*
X0284545Y0238380D02*
X0278145Y0238380D01*
X0278145Y0236781D02*
X0284545Y0236781D01*
X0284545Y0235183D02*
X0278145Y0235183D01*
X0278145Y0233584D02*
X0284545Y0233584D01*
X0284545Y0231986D02*
X0278145Y0231986D01*
X0277809Y0230387D02*
X0284881Y0230387D01*
X0285543Y0228789D02*
X0277147Y0228789D01*
X0277907Y0227190D02*
X0286545Y0227190D01*
X0286545Y0225592D02*
X0279070Y0225592D01*
X0265545Y0225592D02*
X0258395Y0225592D01*
X0258702Y0227190D02*
X0265545Y0227190D01*
X0265543Y0228789D02*
X0259364Y0228789D01*
X0259695Y0230387D02*
X0264881Y0230387D01*
X0264545Y0231986D02*
X0259695Y0231986D01*
X0259695Y0233584D02*
X0264545Y0233584D01*
X0264545Y0235183D02*
X0259695Y0235183D01*
X0259695Y0236781D02*
X0264545Y0236781D01*
X0264545Y0238380D02*
X0259695Y0238380D01*
X0259295Y0239978D02*
X0264576Y0239978D01*
X0265239Y0241577D02*
X0258633Y0241577D01*
X0257061Y0243175D02*
X0266354Y0243175D01*
X0268601Y0244774D02*
X0189836Y0244774D01*
X0188737Y0245229D02*
X0185823Y0245229D01*
X0183131Y0244114D01*
X0181070Y0242053D01*
X0179955Y0239361D01*
X0179955Y0229397D01*
X0181070Y0226704D01*
X0181295Y0226480D01*
X0181295Y0203610D01*
X0180795Y0202403D01*
X0180795Y0193697D01*
X0181830Y0191198D01*
X0183743Y0189285D01*
X0186243Y0188250D01*
X0188948Y0188250D01*
X0191447Y0189285D01*
X0193360Y0191198D01*
X0194395Y0193697D01*
X0194395Y0202403D01*
X0193895Y0203610D01*
X0193895Y0227683D01*
X0194605Y0229397D01*
X0194605Y0239361D01*
X0193490Y0242053D01*
X0191429Y0244114D01*
X0188737Y0245229D01*
X0184725Y0244774D02*
X0170151Y0244774D01*
X0172683Y0243175D02*
X0182193Y0243175D01*
X0180873Y0241577D02*
X0174002Y0241577D01*
X0174664Y0239978D02*
X0180211Y0239978D01*
X0179955Y0238380D02*
X0174920Y0238380D01*
X0174920Y0236781D02*
X0179955Y0236781D01*
X0179955Y0235183D02*
X0174920Y0235183D01*
X0174920Y0233584D02*
X0179955Y0233584D01*
X0179955Y0231986D02*
X0174920Y0231986D01*
X0174920Y0230387D02*
X0179955Y0230387D01*
X0180207Y0228789D02*
X0174668Y0228789D01*
X0174006Y0227190D02*
X0180869Y0227190D01*
X0181295Y0225592D02*
X0173895Y0225592D01*
X0173895Y0223993D02*
X0181295Y0223993D01*
X0181295Y0222395D02*
X0173895Y0222395D01*
X0173895Y0220796D02*
X0181295Y0220796D01*
X0181295Y0219198D02*
X0173895Y0219198D01*
X0173895Y0217599D02*
X0181295Y0217599D01*
X0181295Y0216001D02*
X0173895Y0216001D01*
X0173895Y0214402D02*
X0181295Y0214402D01*
X0181295Y0212803D02*
X0173895Y0212803D01*
X0173895Y0211205D02*
X0181295Y0211205D01*
X0181295Y0209606D02*
X0173895Y0209606D01*
X0173895Y0208008D02*
X0181295Y0208008D01*
X0181295Y0206409D02*
X0173895Y0206409D01*
X0173895Y0204811D02*
X0181295Y0204811D01*
X0181131Y0203212D02*
X0174060Y0203212D01*
X0174395Y0201614D02*
X0180795Y0201614D01*
X0180795Y0200015D02*
X0174395Y0200015D01*
X0174395Y0198417D02*
X0180795Y0198417D01*
X0180795Y0196818D02*
X0174395Y0196818D01*
X0174395Y0195220D02*
X0180795Y0195220D01*
X0180827Y0193621D02*
X0174364Y0193621D01*
X0173702Y0192023D02*
X0181489Y0192023D01*
X0182604Y0190424D02*
X0172586Y0190424D01*
X0180114Y0188826D02*
X0184852Y0188826D01*
X0182327Y0187227D02*
X0193795Y0187227D01*
X0193795Y0188826D02*
X0190338Y0188826D01*
X0192586Y0190424D02*
X0194260Y0190424D01*
X0193702Y0192023D02*
X0195158Y0192023D01*
X0194364Y0193621D02*
X0197083Y0193621D01*
X0194395Y0195220D02*
X0214016Y0195220D01*
X0215614Y0193621D02*
X0203107Y0193621D01*
X0205032Y0192023D02*
X0217213Y0192023D01*
X0218811Y0190424D02*
X0205931Y0190424D01*
X0206395Y0188826D02*
X0220410Y0188826D01*
X0222008Y0187227D02*
X0206395Y0187227D01*
X0205911Y0185629D02*
X0223607Y0185629D01*
X0225205Y0184030D02*
X0213024Y0184030D01*
X0214367Y0182432D02*
X0226804Y0182432D01*
X0228402Y0180833D02*
X0215029Y0180833D01*
X0215145Y0179235D02*
X0230001Y0179235D01*
X0231702Y0177636D02*
X0215145Y0177636D01*
X0215145Y0176038D02*
X0312491Y0176038D01*
X0314089Y0174439D02*
X0215145Y0174439D01*
X0195295Y0174439D02*
X0191395Y0174439D01*
X0191395Y0176038D02*
X0195295Y0176038D01*
X0195295Y0177636D02*
X0191050Y0177636D01*
X0190320Y0179235D02*
X0195295Y0179235D01*
X0195295Y0180833D02*
X0188721Y0180833D01*
X0187123Y0182432D02*
X0195295Y0182432D01*
X0195205Y0184030D02*
X0185524Y0184030D01*
X0183926Y0185629D02*
X0194279Y0185629D01*
X0194395Y0196818D02*
X0212417Y0196818D01*
X0210819Y0198417D02*
X0194395Y0198417D01*
X0194395Y0200015D02*
X0209220Y0200015D01*
X0207622Y0201614D02*
X0194395Y0201614D01*
X0194060Y0203212D02*
X0206750Y0203212D01*
X0206305Y0204811D02*
X0193895Y0204811D01*
X0193895Y0206409D02*
X0206305Y0206409D01*
X0206305Y0208008D02*
X0193895Y0208008D01*
X0193895Y0209606D02*
X0206305Y0209606D01*
X0206305Y0211205D02*
X0193895Y0211205D01*
X0193895Y0212803D02*
X0206305Y0212803D01*
X0206305Y0214402D02*
X0193895Y0214402D01*
X0193895Y0216001D02*
X0206246Y0216001D01*
X0206246Y0217599D02*
X0193895Y0217599D01*
X0193895Y0219198D02*
X0206246Y0219198D01*
X0206246Y0220796D02*
X0193895Y0220796D01*
X0193895Y0222395D02*
X0206246Y0222395D01*
X0206305Y0223993D02*
X0193895Y0223993D01*
X0193895Y0225592D02*
X0206305Y0225592D01*
X0206305Y0227190D02*
X0193895Y0227190D01*
X0194353Y0228789D02*
X0205826Y0228789D01*
X0205495Y0230387D02*
X0194605Y0230387D01*
X0194605Y0231986D02*
X0205495Y0231986D01*
X0205495Y0233584D02*
X0194605Y0233584D01*
X0194605Y0235183D02*
X0205495Y0235183D01*
X0205495Y0236781D02*
X0194605Y0236781D01*
X0194605Y0238380D02*
X0205495Y0238380D01*
X0205895Y0239978D02*
X0194349Y0239978D01*
X0193687Y0241577D02*
X0206557Y0241577D01*
X0208129Y0243175D02*
X0192368Y0243175D01*
X0217061Y0243175D02*
X0228129Y0243175D01*
X0226557Y0241577D02*
X0218633Y0241577D01*
X0219295Y0239978D02*
X0225895Y0239978D01*
X0225495Y0238380D02*
X0219695Y0238380D01*
X0219695Y0236781D02*
X0225495Y0236781D01*
X0225495Y0235183D02*
X0219695Y0235183D01*
X0219695Y0233584D02*
X0225495Y0233584D01*
X0225495Y0231986D02*
X0219695Y0231986D01*
X0219695Y0230387D02*
X0225495Y0230387D01*
X0225826Y0228789D02*
X0219364Y0228789D01*
X0218905Y0227190D02*
X0226488Y0227190D01*
X0226795Y0225592D02*
X0218905Y0225592D01*
X0218905Y0223993D02*
X0226795Y0223993D01*
X0226795Y0222395D02*
X0218964Y0222395D01*
X0218964Y0220796D02*
X0226795Y0220796D01*
X0226795Y0219198D02*
X0218964Y0219198D01*
X0218964Y0217599D02*
X0226795Y0217599D01*
X0226768Y0216001D02*
X0218964Y0216001D01*
X0218905Y0214402D02*
X0226106Y0214402D01*
X0225795Y0212803D02*
X0218905Y0212803D01*
X0218905Y0211205D02*
X0225795Y0211205D01*
X0225795Y0209606D02*
X0218905Y0209606D01*
X0219047Y0208008D02*
X0225795Y0208008D01*
X0225795Y0206409D02*
X0220645Y0206409D01*
X0222244Y0204811D02*
X0225852Y0204811D01*
X0226514Y0203212D02*
X0223842Y0203212D01*
X0225441Y0201614D02*
X0227665Y0201614D01*
X0228139Y0200015D02*
X0227039Y0200015D01*
X0228638Y0198417D02*
X0229190Y0198417D01*
X0230236Y0196818D02*
X0230789Y0196818D01*
X0231835Y0195220D02*
X0232387Y0195220D01*
X0233433Y0193621D02*
X0233986Y0193621D01*
X0235032Y0192023D02*
X0235584Y0192023D01*
X0236630Y0190424D02*
X0237183Y0190424D01*
X0299321Y0206409D02*
X0300869Y0206409D01*
X0248129Y0243175D02*
X0247061Y0243175D01*
X0238129Y0243175D02*
X0237061Y0243175D01*
X0165040Y0244774D02*
X0150466Y0244774D01*
X0152998Y0243175D02*
X0162507Y0243175D01*
X0161188Y0241577D02*
X0154317Y0241577D01*
X0154979Y0239978D02*
X0160526Y0239978D01*
X0160270Y0238380D02*
X0155235Y0238380D01*
X0155235Y0236781D02*
X0160270Y0236781D01*
X0160270Y0235183D02*
X0155235Y0235183D01*
X0155235Y0233584D02*
X0160270Y0233584D01*
X0160270Y0231986D02*
X0155235Y0231986D01*
X0155235Y0230387D02*
X0160270Y0230387D01*
X0160522Y0228789D02*
X0154983Y0228789D01*
X0154321Y0227190D02*
X0161184Y0227190D01*
X0161295Y0225592D02*
X0153895Y0225592D01*
X0153895Y0223993D02*
X0161295Y0223993D01*
X0161295Y0222395D02*
X0153895Y0222395D01*
X0153895Y0220796D02*
X0161295Y0220796D01*
X0161295Y0219198D02*
X0153895Y0219198D01*
X0153895Y0217599D02*
X0161295Y0217599D01*
X0161295Y0216001D02*
X0153895Y0216001D01*
X0153895Y0214402D02*
X0161295Y0214402D01*
X0161295Y0212803D02*
X0153895Y0212803D01*
X0153895Y0211205D02*
X0161295Y0211205D01*
X0161295Y0209606D02*
X0153895Y0209606D01*
X0153895Y0208008D02*
X0161295Y0208008D01*
X0161295Y0206409D02*
X0153895Y0206409D01*
X0153895Y0204811D02*
X0161295Y0204811D01*
X0161131Y0203212D02*
X0154060Y0203212D01*
X0154395Y0201614D02*
X0160795Y0201614D01*
X0160795Y0200015D02*
X0154395Y0200015D01*
X0154395Y0198417D02*
X0160795Y0198417D01*
X0160795Y0196818D02*
X0154395Y0196818D01*
X0154395Y0195220D02*
X0160795Y0195220D01*
X0160827Y0193621D02*
X0155933Y0193621D01*
X0157532Y0192023D02*
X0161489Y0192023D01*
X0162604Y0190424D02*
X0159130Y0190424D01*
X0150902Y0180833D02*
X0090538Y0180833D01*
X0088939Y0179235D02*
X0152501Y0179235D01*
X0154202Y0177636D02*
X0087341Y0177636D01*
X0085742Y0176038D02*
X0157380Y0176038D01*
X0156920Y0174439D02*
X0084144Y0174439D01*
X0082545Y0172841D02*
X0156920Y0172841D01*
X0157409Y0171242D02*
X0145655Y0171242D01*
X0150740Y0169644D02*
X0157545Y0169644D01*
X0157545Y0168045D02*
X0153177Y0168045D01*
X0154993Y0166447D02*
X0157545Y0166447D01*
X0157545Y0164848D02*
X0156366Y0164848D01*
X0157489Y0163250D02*
X0157545Y0163250D01*
X0153220Y0161374D02*
X0154028Y0159895D01*
X0154617Y0158317D01*
X0154975Y0156670D01*
X0155095Y0154989D01*
X0155095Y0116111D01*
X0154975Y0114430D01*
X0154617Y0112783D01*
X0154028Y0111205D01*
X0153220Y0109726D01*
X0152210Y0108376D01*
X0151019Y0107185D01*
X0149670Y0106175D01*
X0148191Y0105367D01*
X0146612Y0104778D01*
X0144965Y0104420D01*
X0143284Y0104300D01*
X0095656Y0104300D01*
X0093975Y0104420D01*
X0092329Y0104778D01*
X0090750Y0105367D01*
X0089271Y0106175D01*
X0087922Y0107185D01*
X0086730Y0108376D01*
X0085720Y0109726D01*
X0084912Y0111205D01*
X0084324Y0112783D01*
X0083965Y0114430D01*
X0083845Y0116111D01*
X0083845Y0154989D01*
X0083965Y0156670D01*
X0084324Y0158317D01*
X0084912Y0159895D01*
X0085720Y0161374D01*
X0086730Y0162724D01*
X0087922Y0163915D01*
X0089271Y0164925D01*
X0090750Y0165733D01*
X0092329Y0166322D01*
X0093975Y0166680D01*
X0095656Y0166800D01*
X0143284Y0166800D01*
X0144965Y0166680D01*
X0146612Y0166322D01*
X0148191Y0165733D01*
X0149670Y0164925D01*
X0151019Y0163915D01*
X0152210Y0162724D01*
X0153220Y0161374D01*
X0153013Y0161651D02*
X0085927Y0161651D01*
X0084998Y0160053D02*
X0153942Y0160053D01*
X0154565Y0158454D02*
X0084375Y0158454D01*
X0084006Y0156856D02*
X0154935Y0156856D01*
X0155076Y0155257D02*
X0083864Y0155257D01*
X0083845Y0153659D02*
X0155095Y0153659D01*
X0155095Y0152060D02*
X0083845Y0152060D01*
X0083845Y0150462D02*
X0155095Y0150462D01*
X0155095Y0148863D02*
X0083845Y0148863D01*
X0083845Y0147265D02*
X0155095Y0147265D01*
X0155095Y0145666D02*
X0083845Y0145666D01*
X0083845Y0144068D02*
X0155095Y0144068D01*
X0155095Y0142469D02*
X0083845Y0142469D01*
X0083845Y0140870D02*
X0155095Y0140870D01*
X0155095Y0139272D02*
X0083845Y0139272D01*
X0083845Y0137673D02*
X0155095Y0137673D01*
X0155095Y0136075D02*
X0083845Y0136075D01*
X0083845Y0134476D02*
X0155095Y0134476D01*
X0155095Y0132878D02*
X0083845Y0132878D01*
X0083845Y0131279D02*
X0155095Y0131279D01*
X0155095Y0129681D02*
X0083845Y0129681D01*
X0083845Y0128082D02*
X0155095Y0128082D01*
X0155095Y0126484D02*
X0083845Y0126484D01*
X0083845Y0124885D02*
X0155095Y0124885D01*
X0155095Y0123287D02*
X0083845Y0123287D01*
X0083845Y0121688D02*
X0155095Y0121688D01*
X0155095Y0120090D02*
X0083845Y0120090D01*
X0083845Y0118491D02*
X0155095Y0118491D01*
X0155095Y0116893D02*
X0083845Y0116893D01*
X0083904Y0115294D02*
X0155037Y0115294D01*
X0154815Y0113696D02*
X0084125Y0113696D01*
X0084580Y0112097D02*
X0154361Y0112097D01*
X0153642Y0110499D02*
X0085298Y0110499D01*
X0086338Y0108900D02*
X0152602Y0108900D01*
X0151136Y0107302D02*
X0087805Y0107302D01*
X0090135Y0105703D02*
X0148806Y0105703D01*
X0152549Y0102506D02*
X0163795Y0102506D01*
X0163795Y0100908D02*
X0149622Y0100908D01*
X0154540Y0104105D02*
X0163795Y0104105D01*
X0163532Y0105703D02*
X0156042Y0105703D01*
X0157152Y0107302D02*
X0161934Y0107302D01*
X0160335Y0108900D02*
X0158078Y0108900D01*
X0158674Y0110499D02*
X0158737Y0110499D01*
X0163795Y0099309D02*
X0061395Y0099309D01*
X0061395Y0097711D02*
X0163795Y0097711D01*
X0142061Y0096112D02*
X0061395Y0096112D01*
X0061395Y0100908D02*
X0089319Y0100908D01*
X0086391Y0102506D02*
X0062211Y0102506D01*
X0063809Y0104105D02*
X0084400Y0104105D01*
X0082898Y0105703D02*
X0065408Y0105703D01*
X0067006Y0107302D02*
X0081788Y0107302D01*
X0080862Y0108900D02*
X0067747Y0108900D01*
X0068100Y0110499D02*
X0080266Y0110499D01*
X0079696Y0112097D02*
X0068100Y0112097D01*
X0068100Y0113696D02*
X0079406Y0113696D01*
X0079245Y0115294D02*
X0068100Y0115294D01*
X0068100Y0116893D02*
X0079245Y0116893D01*
X0079245Y0118491D02*
X0068100Y0118491D01*
X0068100Y0120090D02*
X0079245Y0120090D01*
X0079245Y0121688D02*
X0068100Y0121688D01*
X0068100Y0123287D02*
X0079245Y0123287D01*
X0079245Y0124885D02*
X0068100Y0124885D01*
X0068100Y0126484D02*
X0079245Y0126484D01*
X0079245Y0128082D02*
X0068100Y0128082D01*
X0068831Y0129681D02*
X0079245Y0129681D01*
X0079245Y0131279D02*
X0069745Y0131279D01*
X0070407Y0132878D02*
X0079245Y0132878D01*
X0079245Y0134476D02*
X0070600Y0134476D01*
X0070600Y0136075D02*
X0079245Y0136075D01*
X0079245Y0137673D02*
X0070257Y0137673D01*
X0069595Y0139272D02*
X0079245Y0139272D01*
X0079245Y0140870D02*
X0068470Y0140870D01*
X0068100Y0142469D02*
X0079245Y0142469D01*
X0079245Y0144068D02*
X0068100Y0144068D01*
X0068100Y0145666D02*
X0079245Y0145666D01*
X0079245Y0147265D02*
X0068100Y0147265D01*
X0068100Y0148863D02*
X0079245Y0148863D01*
X0079245Y0150462D02*
X0068100Y0150462D01*
X0068100Y0152060D02*
X0079245Y0152060D01*
X0079245Y0153659D02*
X0068100Y0153659D01*
X0068100Y0155257D02*
X0079245Y0155257D01*
X0079298Y0156856D02*
X0068100Y0156856D01*
X0068159Y0158454D02*
X0079646Y0158454D01*
X0079994Y0160053D02*
X0069757Y0160053D01*
X0071356Y0161651D02*
X0080630Y0161651D01*
X0081451Y0163250D02*
X0072954Y0163250D01*
X0074553Y0164848D02*
X0082574Y0164848D01*
X0083948Y0166447D02*
X0076151Y0166447D01*
X0077750Y0168045D02*
X0085763Y0168045D01*
X0088200Y0169644D02*
X0079348Y0169644D01*
X0080947Y0171242D02*
X0093286Y0171242D01*
X0092904Y0166447D02*
X0146037Y0166447D01*
X0149772Y0164848D02*
X0089168Y0164848D01*
X0087256Y0163250D02*
X0151684Y0163250D01*
X0149304Y0182432D02*
X0125534Y0182432D01*
X0127132Y0184030D02*
X0147705Y0184030D01*
X0146107Y0185629D02*
X0128152Y0185629D01*
X0128814Y0187227D02*
X0144508Y0187227D01*
X0142910Y0188826D02*
X0128995Y0188826D01*
X0128995Y0190424D02*
X0141864Y0190424D01*
X0141295Y0192023D02*
X0128545Y0192023D01*
X0127883Y0193621D02*
X0140827Y0193621D01*
X0140795Y0195220D02*
X0126482Y0195220D01*
X0124112Y0196818D02*
X0140795Y0196818D01*
X0108578Y0196818D02*
X0064112Y0196818D01*
X0066482Y0195220D02*
X0087924Y0195220D01*
X0085507Y0193621D02*
X0067883Y0193621D01*
X0068545Y0192023D02*
X0083908Y0192023D01*
X0084754Y0192869D02*
X0084754Y0192869D01*
X0082310Y0190424D02*
X0068995Y0190424D01*
X0068995Y0188826D02*
X0080711Y0188826D01*
X0079113Y0187227D02*
X0068814Y0187227D01*
X0068152Y0185629D02*
X0077514Y0185629D01*
X0075916Y0184030D02*
X0067132Y0184030D01*
X0065534Y0182432D02*
X0074317Y0182432D01*
X0092136Y0182432D02*
X0107156Y0182432D01*
X0081723Y0075332D02*
X0134338Y0075332D01*
X0132740Y0073733D02*
X0083322Y0073733D01*
X0075094Y0064142D02*
X0031395Y0064142D01*
X0031395Y0065740D02*
X0073495Y0065740D01*
X0071897Y0067339D02*
X0031395Y0067339D01*
X0031395Y0068937D02*
X0070298Y0068937D01*
X0069317Y0070536D02*
X0031395Y0070536D01*
X0031395Y0072134D02*
X0068795Y0072134D01*
X0068795Y0073733D02*
X0031395Y0073733D01*
X0031395Y0062543D02*
X0076692Y0062543D01*
X0067483Y0060945D02*
X0031395Y0060945D01*
X0031395Y0059346D02*
X0066733Y0059346D01*
X0066733Y0057748D02*
X0031395Y0057748D01*
X0031395Y0056149D02*
X0066733Y0056149D01*
X0066733Y0054551D02*
X0031395Y0054551D01*
X0031395Y0052952D02*
X0066733Y0052952D01*
X0066984Y0051354D02*
X0031395Y0051354D01*
X0031395Y0049755D02*
X0068119Y0049755D01*
X0040400Y0040164D02*
X0031395Y0040164D01*
X0031395Y0038566D02*
X0037315Y0038566D01*
X0035097Y0036967D02*
X0031395Y0036967D01*
X0031395Y0035369D02*
X0033385Y0035369D01*
X0031917Y0033770D02*
X0031395Y0033770D01*
X0031395Y0044960D02*
X0105244Y0044960D01*
X0103391Y0046558D02*
X0031395Y0046558D01*
X0031395Y0048157D02*
X0102915Y0048157D01*
X0102915Y0062543D02*
X0094844Y0062543D01*
X0094844Y0064142D02*
X0103226Y0064142D01*
X0104286Y0065740D02*
X0094844Y0065740D01*
X0094844Y0067339D02*
X0105742Y0067339D01*
X0311672Y0085350D02*
X0312395Y0087095D01*
X0312395Y0093562D01*
X0313681Y0094848D01*
X0314778Y0093750D01*
X0320412Y0093750D01*
X0322595Y0095933D01*
X0324778Y0093750D01*
X0327607Y0093750D01*
X0329045Y0092312D01*
X0329045Y0086288D01*
X0328107Y0085350D01*
X0311672Y0085350D01*
X0312157Y0086521D02*
X0329045Y0086521D01*
X0329045Y0088120D02*
X0312395Y0088120D01*
X0312395Y0089718D02*
X0329045Y0089718D01*
X0329045Y0091317D02*
X0312395Y0091317D01*
X0312395Y0092915D02*
X0328442Y0092915D01*
X0324015Y0094514D02*
X0321175Y0094514D01*
X0314015Y0094514D02*
X0313347Y0094514D01*
X0350949Y0126484D02*
X0353795Y0126484D01*
X0353795Y0128082D02*
X0349351Y0128082D01*
X0347752Y0129681D02*
X0353795Y0129681D01*
X0353795Y0131279D02*
X0346154Y0131279D01*
X0344555Y0132878D02*
X0353795Y0132878D01*
X0353795Y0134476D02*
X0342957Y0134476D01*
X0341395Y0136075D02*
X0353795Y0136075D01*
X0353795Y0137673D02*
X0341035Y0137673D01*
X0340283Y0139272D02*
X0353795Y0139272D01*
X0353795Y0140870D02*
X0338684Y0140870D01*
X0331506Y0140870D02*
X0324395Y0140870D01*
X0324395Y0142469D02*
X0353795Y0142469D01*
X0353795Y0144068D02*
X0330729Y0144068D01*
X0332328Y0145666D02*
X0353795Y0145666D01*
X0353795Y0147265D02*
X0333926Y0147265D01*
X0334395Y0148863D02*
X0353795Y0148863D01*
X0353795Y0150462D02*
X0334395Y0150462D01*
X0334395Y0152060D02*
X0353795Y0152060D01*
X0353795Y0153659D02*
X0334103Y0153659D01*
X0332505Y0155257D02*
X0353795Y0155257D01*
X0353795Y0156856D02*
X0333517Y0156856D01*
X0334395Y0158454D02*
X0353795Y0158454D01*
X0353795Y0160053D02*
X0334395Y0160053D01*
X0334395Y0161651D02*
X0353795Y0161651D01*
X0353795Y0163250D02*
X0334395Y0163250D01*
X0332914Y0164848D02*
X0353795Y0164848D01*
X0324461Y0144068D02*
X0323694Y0144068D01*
X0322862Y0145666D02*
X0322328Y0145666D01*
X0325661Y0139272D02*
X0329908Y0139272D01*
X0329156Y0137673D02*
X0327260Y0137673D01*
X0352548Y0124885D02*
X0353795Y0124885D01*
D30*
X0252595Y0209300D02*
X0252595Y0234300D01*
X0242595Y0234300D02*
X0242595Y0209300D01*
X0232595Y0209300D02*
X0232595Y0234300D01*
X0263845Y0218562D02*
X0273845Y0218562D01*
X0273845Y0219300D01*
X0273845Y0223050D01*
X0271345Y0225550D01*
X0271345Y0235550D01*
X0273845Y0218562D02*
X0283845Y0218562D01*
D31*
X0124659Y0063547D02*
X0124897Y0063168D01*
X0125045Y0062745D01*
X0125095Y0062300D01*
X0125095Y0050025D01*
X0125045Y0049580D01*
X0124897Y0049157D01*
X0124659Y0048778D01*
X0124342Y0048461D01*
X0123963Y0048223D01*
X0123540Y0048075D01*
X0123095Y0048025D01*
X0109595Y0048025D01*
X0109150Y0048075D01*
X0108727Y0048223D01*
X0108348Y0048461D01*
X0108031Y0048778D01*
X0107793Y0049157D01*
X0107645Y0049580D01*
X0107595Y0050025D01*
X0107595Y0062300D01*
X0107645Y0062745D01*
X0107793Y0063168D01*
X0108031Y0063547D01*
X0108348Y0063864D01*
X0108727Y0064102D01*
X0109150Y0064250D01*
X0109595Y0064300D01*
X0123095Y0064300D01*
X0123540Y0064250D01*
X0123963Y0064102D01*
X0124342Y0063864D01*
X0124659Y0063547D01*
X0124897Y0063168D01*
X0125045Y0062745D01*
X0125095Y0062300D01*
X0125095Y0050025D01*
X0125045Y0049580D01*
X0124897Y0049157D01*
X0124659Y0048778D01*
X0124342Y0048461D01*
X0123963Y0048223D01*
X0123540Y0048075D01*
X0123095Y0048025D01*
X0109595Y0048025D01*
X0109150Y0048075D01*
X0108727Y0048223D01*
X0108348Y0048461D01*
X0108031Y0048778D01*
X0107793Y0049157D01*
X0107645Y0049580D01*
X0107595Y0050025D01*
X0107595Y0062300D01*
X0107645Y0062745D01*
X0107793Y0063168D01*
X0108031Y0063547D01*
X0108348Y0063864D01*
X0108727Y0064102D01*
X0109150Y0064250D01*
X0109595Y0064300D01*
X0123095Y0064300D01*
X0123540Y0064250D01*
X0123963Y0064102D01*
X0124342Y0063864D01*
X0124659Y0063547D01*
X0124498Y0063708D02*
X0108192Y0063708D01*
X0124498Y0063708D01*
X0125049Y0062709D02*
X0107641Y0062709D01*
X0125049Y0062709D01*
X0125095Y0061711D02*
X0107595Y0061711D01*
X0125095Y0061711D01*
X0125095Y0060712D02*
X0107595Y0060712D01*
X0125095Y0060712D01*
X0125095Y0059714D02*
X0107595Y0059714D01*
X0125095Y0059714D01*
X0125095Y0058715D02*
X0107595Y0058715D01*
X0125095Y0058715D01*
X0125095Y0057717D02*
X0107595Y0057717D01*
X0125095Y0057717D01*
X0125095Y0056718D02*
X0107595Y0056718D01*
X0125095Y0056718D01*
X0125095Y0055720D02*
X0107595Y0055720D01*
X0125095Y0055720D01*
X0125095Y0054721D02*
X0107595Y0054721D01*
X0125095Y0054721D01*
X0125095Y0053723D02*
X0107595Y0053723D01*
X0125095Y0053723D01*
X0125095Y0052724D02*
X0107595Y0052724D01*
X0125095Y0052724D01*
X0125095Y0051726D02*
X0107595Y0051726D01*
X0125095Y0051726D01*
X0125095Y0050727D02*
X0107595Y0050727D01*
X0125095Y0050727D01*
X0125062Y0049729D02*
X0107629Y0049729D01*
X0125062Y0049729D01*
X0124611Y0048730D02*
X0108079Y0048730D01*
X0124611Y0048730D01*
M02*
