%
M48
M72
T01C0.0236
T02C0.0315
T03C0.0360
T04C0.0394
T05C0.0400
T06C0.0470
T07C0.0590
T08C0.1299
%
T01
X11012Y5058
X11012Y5616
X11012Y6178
X11641Y6183
X11641Y5631
X11641Y5080
X12260Y5058
X12260Y5619
X12260Y6180
X15760Y4680
X17885Y5680
X17010Y6555
X18010Y7430
X18010Y8305
X17135Y8055
X18510Y9305
X18510Y9930
X19073Y8680
X19510Y7555
X20885Y8680
X20885Y9680
X22510Y8805
X24510Y8680
X24385Y6930
X27147Y6478
X26510Y4555
X24135Y4430
X21510Y5055
X20885Y3930
X14510Y9055
X16135Y9930
X17010Y10055
X17010Y9430
X17760Y17055
X17135Y17430
X16322Y17368
X19510Y16805
X20885Y17930
X20010Y18805
X22260Y17680
X22260Y21055
X12385Y17680
X11135Y17680
X28510Y8805
X28760Y9805
X33510Y13555
X34385Y6555
X29260Y2555
X28135Y2555
T02
X7510Y8430
X6510Y8430
X5510Y8430
X21260Y23430
X22260Y23430
X23260Y23430
X24260Y23430
X25260Y23430
T03
X25010Y8680
X26010Y8680
T04
X26010Y11300
X27135Y11305
X28260Y11305
X28260Y12430
X27135Y12430
X26010Y12425
X24885Y12425
X23755Y12430
X23755Y11305
X24885Y11300
X22630Y11300
X22630Y12425
X22630Y13550
X23755Y13555
X24885Y13550
X26010Y13550
X27135Y13555
X28260Y13555
X28260Y14680
X27135Y14680
X26010Y14675
X24885Y14675
X23755Y14680
X23755Y15805
X24885Y15800
X26010Y15800
X27135Y15805
X28260Y15805
X22630Y15800
X22630Y14675
X14760Y14680
X14760Y13555
X14760Y12430
X14760Y11305
X13635Y11305
X12510Y11300
X11385Y11300
X10255Y11305
X9130Y11300
X9130Y12425
X10255Y12430
X11385Y12425
X12510Y12425
X13635Y12430
X13635Y13555
X12510Y13550
X11385Y13550
X10255Y13555
X9130Y13550
X9130Y14675
X10255Y14680
X11385Y14675
X12510Y14675
X13635Y14680
X13635Y15805
X12510Y15800
X11385Y15800
X10255Y15805
X9130Y15800
X14760Y15805
T05
X14760Y19805
X16760Y19805
X18760Y19805
X23260Y20930
X24260Y20930
X25260Y20930
X27135Y23555
X28135Y23555
X29135Y23555
X30135Y23555
X30510Y21180
X29510Y21180
X31760Y18055
X32760Y18055
X32760Y16055
X31760Y16055
X31760Y15055
X32760Y15055
X32760Y14055
X31760Y14055
X31760Y13055
X32760Y13055
X32760Y12055
X31760Y12055
X31760Y11055
X32760Y11055
X32760Y10055
X31760Y10055
X31760Y9055
X32760Y9055
X32617Y4463
X31910Y3756
X31203Y3049
X30496Y2342
X26385Y5680
X25385Y5680
X6180Y13510
X4766Y14924
T06
X9400Y23430
X11369Y23430
X14791Y23438
X16760Y23438
X18728Y23438
T07
X11635Y18930
X5635Y18930
T08
X4760Y2180
X4760Y23180
X33760Y23180
X33760Y2180
M30
