G75*
%MOIN*%
%OFA0B0*%
%FSLAX25Y25*%
%IPPOS*%
%LPD*%
%AMOC8*
5,1,8,0,0,1.08239X$1,22.5*
%
%ADD10C,0.00000*%
%ADD11C,0.00400*%
%ADD12C,0.00800*%
%ADD13C,0.00300*%
D10*
X0027595Y0013611D02*
X0027595Y0239989D01*
X0027598Y0240274D01*
X0027609Y0240560D01*
X0027626Y0240845D01*
X0027650Y0241129D01*
X0027681Y0241413D01*
X0027719Y0241696D01*
X0027764Y0241977D01*
X0027815Y0242258D01*
X0027873Y0242538D01*
X0027938Y0242816D01*
X0028010Y0243092D01*
X0028088Y0243366D01*
X0028173Y0243639D01*
X0028265Y0243909D01*
X0028363Y0244177D01*
X0028467Y0244443D01*
X0028578Y0244706D01*
X0028695Y0244966D01*
X0028818Y0245224D01*
X0028948Y0245478D01*
X0029084Y0245729D01*
X0029225Y0245977D01*
X0029373Y0246221D01*
X0029526Y0246462D01*
X0029686Y0246698D01*
X0029851Y0246931D01*
X0030021Y0247160D01*
X0030197Y0247385D01*
X0030379Y0247605D01*
X0030565Y0247821D01*
X0030757Y0248032D01*
X0030954Y0248239D01*
X0031156Y0248441D01*
X0031363Y0248638D01*
X0031574Y0248830D01*
X0031790Y0249016D01*
X0032010Y0249198D01*
X0032235Y0249374D01*
X0032464Y0249544D01*
X0032697Y0249709D01*
X0032933Y0249869D01*
X0033174Y0250022D01*
X0033418Y0250170D01*
X0033666Y0250311D01*
X0033917Y0250447D01*
X0034171Y0250577D01*
X0034429Y0250700D01*
X0034689Y0250817D01*
X0034952Y0250928D01*
X0035218Y0251032D01*
X0035486Y0251130D01*
X0035756Y0251222D01*
X0036029Y0251307D01*
X0036303Y0251385D01*
X0036579Y0251457D01*
X0036857Y0251522D01*
X0037137Y0251580D01*
X0037418Y0251631D01*
X0037699Y0251676D01*
X0037982Y0251714D01*
X0038266Y0251745D01*
X0038550Y0251769D01*
X0038835Y0251786D01*
X0039121Y0251797D01*
X0039406Y0251800D01*
X0345784Y0251800D01*
X0346069Y0251797D01*
X0346355Y0251786D01*
X0346640Y0251769D01*
X0346924Y0251745D01*
X0347208Y0251714D01*
X0347491Y0251676D01*
X0347772Y0251631D01*
X0348053Y0251580D01*
X0348333Y0251522D01*
X0348611Y0251457D01*
X0348887Y0251385D01*
X0349161Y0251307D01*
X0349434Y0251222D01*
X0349704Y0251130D01*
X0349972Y0251032D01*
X0350238Y0250928D01*
X0350501Y0250817D01*
X0350761Y0250700D01*
X0351019Y0250577D01*
X0351273Y0250447D01*
X0351524Y0250311D01*
X0351772Y0250170D01*
X0352016Y0250022D01*
X0352257Y0249869D01*
X0352493Y0249709D01*
X0352726Y0249544D01*
X0352955Y0249374D01*
X0353180Y0249198D01*
X0353400Y0249016D01*
X0353616Y0248830D01*
X0353827Y0248638D01*
X0354034Y0248441D01*
X0354236Y0248239D01*
X0354433Y0248032D01*
X0354625Y0247821D01*
X0354811Y0247605D01*
X0354993Y0247385D01*
X0355169Y0247160D01*
X0355339Y0246931D01*
X0355504Y0246698D01*
X0355664Y0246462D01*
X0355817Y0246221D01*
X0355965Y0245977D01*
X0356106Y0245729D01*
X0356242Y0245478D01*
X0356372Y0245224D01*
X0356495Y0244966D01*
X0356612Y0244706D01*
X0356723Y0244443D01*
X0356827Y0244177D01*
X0356925Y0243909D01*
X0357017Y0243639D01*
X0357102Y0243366D01*
X0357180Y0243092D01*
X0357252Y0242816D01*
X0357317Y0242538D01*
X0357375Y0242258D01*
X0357426Y0241977D01*
X0357471Y0241696D01*
X0357509Y0241413D01*
X0357540Y0241129D01*
X0357564Y0240845D01*
X0357581Y0240560D01*
X0357592Y0240274D01*
X0357595Y0239989D01*
X0357595Y0013611D01*
X0357592Y0013326D01*
X0357581Y0013040D01*
X0357564Y0012755D01*
X0357540Y0012471D01*
X0357509Y0012187D01*
X0357471Y0011904D01*
X0357426Y0011623D01*
X0357375Y0011342D01*
X0357317Y0011062D01*
X0357252Y0010784D01*
X0357180Y0010508D01*
X0357102Y0010234D01*
X0357017Y0009961D01*
X0356925Y0009691D01*
X0356827Y0009423D01*
X0356723Y0009157D01*
X0356612Y0008894D01*
X0356495Y0008634D01*
X0356372Y0008376D01*
X0356242Y0008122D01*
X0356106Y0007871D01*
X0355965Y0007623D01*
X0355817Y0007379D01*
X0355664Y0007138D01*
X0355504Y0006902D01*
X0355339Y0006669D01*
X0355169Y0006440D01*
X0354993Y0006215D01*
X0354811Y0005995D01*
X0354625Y0005779D01*
X0354433Y0005568D01*
X0354236Y0005361D01*
X0354034Y0005159D01*
X0353827Y0004962D01*
X0353616Y0004770D01*
X0353400Y0004584D01*
X0353180Y0004402D01*
X0352955Y0004226D01*
X0352726Y0004056D01*
X0352493Y0003891D01*
X0352257Y0003731D01*
X0352016Y0003578D01*
X0351772Y0003430D01*
X0351524Y0003289D01*
X0351273Y0003153D01*
X0351019Y0003023D01*
X0350761Y0002900D01*
X0350501Y0002783D01*
X0350238Y0002672D01*
X0349972Y0002568D01*
X0349704Y0002470D01*
X0349434Y0002378D01*
X0349161Y0002293D01*
X0348887Y0002215D01*
X0348611Y0002143D01*
X0348333Y0002078D01*
X0348053Y0002020D01*
X0347772Y0001969D01*
X0347491Y0001924D01*
X0347208Y0001886D01*
X0346924Y0001855D01*
X0346640Y0001831D01*
X0346355Y0001814D01*
X0346069Y0001803D01*
X0345784Y0001800D01*
X0039406Y0001800D01*
X0039121Y0001803D01*
X0038835Y0001814D01*
X0038550Y0001831D01*
X0038266Y0001855D01*
X0037982Y0001886D01*
X0037699Y0001924D01*
X0037418Y0001969D01*
X0037137Y0002020D01*
X0036857Y0002078D01*
X0036579Y0002143D01*
X0036303Y0002215D01*
X0036029Y0002293D01*
X0035756Y0002378D01*
X0035486Y0002470D01*
X0035218Y0002568D01*
X0034952Y0002672D01*
X0034689Y0002783D01*
X0034429Y0002900D01*
X0034171Y0003023D01*
X0033917Y0003153D01*
X0033666Y0003289D01*
X0033418Y0003430D01*
X0033174Y0003578D01*
X0032933Y0003731D01*
X0032697Y0003891D01*
X0032464Y0004056D01*
X0032235Y0004226D01*
X0032010Y0004402D01*
X0031790Y0004584D01*
X0031574Y0004770D01*
X0031363Y0004962D01*
X0031156Y0005159D01*
X0030954Y0005361D01*
X0030757Y0005568D01*
X0030565Y0005779D01*
X0030379Y0005995D01*
X0030197Y0006215D01*
X0030021Y0006440D01*
X0029851Y0006669D01*
X0029686Y0006902D01*
X0029526Y0007138D01*
X0029373Y0007379D01*
X0029225Y0007623D01*
X0029084Y0007871D01*
X0028948Y0008122D01*
X0028818Y0008376D01*
X0028695Y0008634D01*
X0028578Y0008894D01*
X0028467Y0009157D01*
X0028363Y0009423D01*
X0028265Y0009691D01*
X0028173Y0009961D01*
X0028088Y0010234D01*
X0028010Y0010508D01*
X0027938Y0010784D01*
X0027873Y0011062D01*
X0027815Y0011342D01*
X0027764Y0011623D01*
X0027719Y0011904D01*
X0027681Y0012187D01*
X0027650Y0012471D01*
X0027626Y0012755D01*
X0027609Y0013040D01*
X0027598Y0013326D01*
X0027595Y0013611D01*
X0041099Y0021800D02*
X0041101Y0021961D01*
X0041107Y0022121D01*
X0041117Y0022282D01*
X0041131Y0022442D01*
X0041149Y0022601D01*
X0041170Y0022761D01*
X0041196Y0022919D01*
X0041226Y0023077D01*
X0041259Y0023234D01*
X0041297Y0023391D01*
X0041338Y0023546D01*
X0041383Y0023700D01*
X0041432Y0023853D01*
X0041485Y0024005D01*
X0041541Y0024155D01*
X0041601Y0024304D01*
X0041665Y0024452D01*
X0041732Y0024598D01*
X0041803Y0024742D01*
X0041878Y0024884D01*
X0041956Y0025025D01*
X0042037Y0025163D01*
X0042122Y0025300D01*
X0042211Y0025434D01*
X0042302Y0025566D01*
X0042397Y0025696D01*
X0042495Y0025823D01*
X0042596Y0025948D01*
X0042700Y0026071D01*
X0042807Y0026190D01*
X0042917Y0026307D01*
X0043030Y0026422D01*
X0043146Y0026533D01*
X0043264Y0026642D01*
X0043385Y0026747D01*
X0043509Y0026850D01*
X0043635Y0026950D01*
X0043764Y0027046D01*
X0043895Y0027139D01*
X0044028Y0027229D01*
X0044163Y0027316D01*
X0044301Y0027399D01*
X0044440Y0027478D01*
X0044582Y0027555D01*
X0044725Y0027628D01*
X0044870Y0027697D01*
X0045017Y0027762D01*
X0045165Y0027824D01*
X0045315Y0027883D01*
X0045466Y0027937D01*
X0045618Y0027988D01*
X0045772Y0028035D01*
X0045927Y0028078D01*
X0046082Y0028117D01*
X0046239Y0028153D01*
X0046397Y0028185D01*
X0046555Y0028212D01*
X0046714Y0028236D01*
X0046873Y0028256D01*
X0047033Y0028272D01*
X0047194Y0028284D01*
X0047354Y0028292D01*
X0047515Y0028296D01*
X0047675Y0028296D01*
X0047836Y0028292D01*
X0047996Y0028284D01*
X0048157Y0028272D01*
X0048317Y0028256D01*
X0048476Y0028236D01*
X0048635Y0028212D01*
X0048793Y0028185D01*
X0048951Y0028153D01*
X0049108Y0028117D01*
X0049263Y0028078D01*
X0049418Y0028035D01*
X0049572Y0027988D01*
X0049724Y0027937D01*
X0049875Y0027883D01*
X0050025Y0027824D01*
X0050173Y0027762D01*
X0050320Y0027697D01*
X0050465Y0027628D01*
X0050608Y0027555D01*
X0050750Y0027478D01*
X0050889Y0027399D01*
X0051027Y0027316D01*
X0051162Y0027229D01*
X0051295Y0027139D01*
X0051426Y0027046D01*
X0051555Y0026950D01*
X0051681Y0026850D01*
X0051805Y0026747D01*
X0051926Y0026642D01*
X0052044Y0026533D01*
X0052160Y0026422D01*
X0052273Y0026307D01*
X0052383Y0026190D01*
X0052490Y0026071D01*
X0052594Y0025948D01*
X0052695Y0025823D01*
X0052793Y0025696D01*
X0052888Y0025566D01*
X0052979Y0025434D01*
X0053068Y0025300D01*
X0053153Y0025163D01*
X0053234Y0025025D01*
X0053312Y0024884D01*
X0053387Y0024742D01*
X0053458Y0024598D01*
X0053525Y0024452D01*
X0053589Y0024304D01*
X0053649Y0024155D01*
X0053705Y0024005D01*
X0053758Y0023853D01*
X0053807Y0023700D01*
X0053852Y0023546D01*
X0053893Y0023391D01*
X0053931Y0023234D01*
X0053964Y0023077D01*
X0053994Y0022919D01*
X0054020Y0022761D01*
X0054041Y0022601D01*
X0054059Y0022442D01*
X0054073Y0022282D01*
X0054083Y0022121D01*
X0054089Y0021961D01*
X0054091Y0021800D01*
X0054089Y0021639D01*
X0054083Y0021479D01*
X0054073Y0021318D01*
X0054059Y0021158D01*
X0054041Y0020999D01*
X0054020Y0020839D01*
X0053994Y0020681D01*
X0053964Y0020523D01*
X0053931Y0020366D01*
X0053893Y0020209D01*
X0053852Y0020054D01*
X0053807Y0019900D01*
X0053758Y0019747D01*
X0053705Y0019595D01*
X0053649Y0019445D01*
X0053589Y0019296D01*
X0053525Y0019148D01*
X0053458Y0019002D01*
X0053387Y0018858D01*
X0053312Y0018716D01*
X0053234Y0018575D01*
X0053153Y0018437D01*
X0053068Y0018300D01*
X0052979Y0018166D01*
X0052888Y0018034D01*
X0052793Y0017904D01*
X0052695Y0017777D01*
X0052594Y0017652D01*
X0052490Y0017529D01*
X0052383Y0017410D01*
X0052273Y0017293D01*
X0052160Y0017178D01*
X0052044Y0017067D01*
X0051926Y0016958D01*
X0051805Y0016853D01*
X0051681Y0016750D01*
X0051555Y0016650D01*
X0051426Y0016554D01*
X0051295Y0016461D01*
X0051162Y0016371D01*
X0051027Y0016284D01*
X0050889Y0016201D01*
X0050750Y0016122D01*
X0050608Y0016045D01*
X0050465Y0015972D01*
X0050320Y0015903D01*
X0050173Y0015838D01*
X0050025Y0015776D01*
X0049875Y0015717D01*
X0049724Y0015663D01*
X0049572Y0015612D01*
X0049418Y0015565D01*
X0049263Y0015522D01*
X0049108Y0015483D01*
X0048951Y0015447D01*
X0048793Y0015415D01*
X0048635Y0015388D01*
X0048476Y0015364D01*
X0048317Y0015344D01*
X0048157Y0015328D01*
X0047996Y0015316D01*
X0047836Y0015308D01*
X0047675Y0015304D01*
X0047515Y0015304D01*
X0047354Y0015308D01*
X0047194Y0015316D01*
X0047033Y0015328D01*
X0046873Y0015344D01*
X0046714Y0015364D01*
X0046555Y0015388D01*
X0046397Y0015415D01*
X0046239Y0015447D01*
X0046082Y0015483D01*
X0045927Y0015522D01*
X0045772Y0015565D01*
X0045618Y0015612D01*
X0045466Y0015663D01*
X0045315Y0015717D01*
X0045165Y0015776D01*
X0045017Y0015838D01*
X0044870Y0015903D01*
X0044725Y0015972D01*
X0044582Y0016045D01*
X0044440Y0016122D01*
X0044301Y0016201D01*
X0044163Y0016284D01*
X0044028Y0016371D01*
X0043895Y0016461D01*
X0043764Y0016554D01*
X0043635Y0016650D01*
X0043509Y0016750D01*
X0043385Y0016853D01*
X0043264Y0016958D01*
X0043146Y0017067D01*
X0043030Y0017178D01*
X0042917Y0017293D01*
X0042807Y0017410D01*
X0042700Y0017529D01*
X0042596Y0017652D01*
X0042495Y0017777D01*
X0042397Y0017904D01*
X0042302Y0018034D01*
X0042211Y0018166D01*
X0042122Y0018300D01*
X0042037Y0018437D01*
X0041956Y0018575D01*
X0041878Y0018716D01*
X0041803Y0018858D01*
X0041732Y0019002D01*
X0041665Y0019148D01*
X0041601Y0019296D01*
X0041541Y0019445D01*
X0041485Y0019595D01*
X0041432Y0019747D01*
X0041383Y0019900D01*
X0041338Y0020054D01*
X0041297Y0020209D01*
X0041259Y0020366D01*
X0041226Y0020523D01*
X0041196Y0020681D01*
X0041170Y0020839D01*
X0041149Y0020999D01*
X0041131Y0021158D01*
X0041117Y0021318D01*
X0041107Y0021479D01*
X0041101Y0021639D01*
X0041099Y0021800D01*
X0041099Y0231800D02*
X0041101Y0231961D01*
X0041107Y0232121D01*
X0041117Y0232282D01*
X0041131Y0232442D01*
X0041149Y0232601D01*
X0041170Y0232761D01*
X0041196Y0232919D01*
X0041226Y0233077D01*
X0041259Y0233234D01*
X0041297Y0233391D01*
X0041338Y0233546D01*
X0041383Y0233700D01*
X0041432Y0233853D01*
X0041485Y0234005D01*
X0041541Y0234155D01*
X0041601Y0234304D01*
X0041665Y0234452D01*
X0041732Y0234598D01*
X0041803Y0234742D01*
X0041878Y0234884D01*
X0041956Y0235025D01*
X0042037Y0235163D01*
X0042122Y0235300D01*
X0042211Y0235434D01*
X0042302Y0235566D01*
X0042397Y0235696D01*
X0042495Y0235823D01*
X0042596Y0235948D01*
X0042700Y0236071D01*
X0042807Y0236190D01*
X0042917Y0236307D01*
X0043030Y0236422D01*
X0043146Y0236533D01*
X0043264Y0236642D01*
X0043385Y0236747D01*
X0043509Y0236850D01*
X0043635Y0236950D01*
X0043764Y0237046D01*
X0043895Y0237139D01*
X0044028Y0237229D01*
X0044163Y0237316D01*
X0044301Y0237399D01*
X0044440Y0237478D01*
X0044582Y0237555D01*
X0044725Y0237628D01*
X0044870Y0237697D01*
X0045017Y0237762D01*
X0045165Y0237824D01*
X0045315Y0237883D01*
X0045466Y0237937D01*
X0045618Y0237988D01*
X0045772Y0238035D01*
X0045927Y0238078D01*
X0046082Y0238117D01*
X0046239Y0238153D01*
X0046397Y0238185D01*
X0046555Y0238212D01*
X0046714Y0238236D01*
X0046873Y0238256D01*
X0047033Y0238272D01*
X0047194Y0238284D01*
X0047354Y0238292D01*
X0047515Y0238296D01*
X0047675Y0238296D01*
X0047836Y0238292D01*
X0047996Y0238284D01*
X0048157Y0238272D01*
X0048317Y0238256D01*
X0048476Y0238236D01*
X0048635Y0238212D01*
X0048793Y0238185D01*
X0048951Y0238153D01*
X0049108Y0238117D01*
X0049263Y0238078D01*
X0049418Y0238035D01*
X0049572Y0237988D01*
X0049724Y0237937D01*
X0049875Y0237883D01*
X0050025Y0237824D01*
X0050173Y0237762D01*
X0050320Y0237697D01*
X0050465Y0237628D01*
X0050608Y0237555D01*
X0050750Y0237478D01*
X0050889Y0237399D01*
X0051027Y0237316D01*
X0051162Y0237229D01*
X0051295Y0237139D01*
X0051426Y0237046D01*
X0051555Y0236950D01*
X0051681Y0236850D01*
X0051805Y0236747D01*
X0051926Y0236642D01*
X0052044Y0236533D01*
X0052160Y0236422D01*
X0052273Y0236307D01*
X0052383Y0236190D01*
X0052490Y0236071D01*
X0052594Y0235948D01*
X0052695Y0235823D01*
X0052793Y0235696D01*
X0052888Y0235566D01*
X0052979Y0235434D01*
X0053068Y0235300D01*
X0053153Y0235163D01*
X0053234Y0235025D01*
X0053312Y0234884D01*
X0053387Y0234742D01*
X0053458Y0234598D01*
X0053525Y0234452D01*
X0053589Y0234304D01*
X0053649Y0234155D01*
X0053705Y0234005D01*
X0053758Y0233853D01*
X0053807Y0233700D01*
X0053852Y0233546D01*
X0053893Y0233391D01*
X0053931Y0233234D01*
X0053964Y0233077D01*
X0053994Y0232919D01*
X0054020Y0232761D01*
X0054041Y0232601D01*
X0054059Y0232442D01*
X0054073Y0232282D01*
X0054083Y0232121D01*
X0054089Y0231961D01*
X0054091Y0231800D01*
X0054089Y0231639D01*
X0054083Y0231479D01*
X0054073Y0231318D01*
X0054059Y0231158D01*
X0054041Y0230999D01*
X0054020Y0230839D01*
X0053994Y0230681D01*
X0053964Y0230523D01*
X0053931Y0230366D01*
X0053893Y0230209D01*
X0053852Y0230054D01*
X0053807Y0229900D01*
X0053758Y0229747D01*
X0053705Y0229595D01*
X0053649Y0229445D01*
X0053589Y0229296D01*
X0053525Y0229148D01*
X0053458Y0229002D01*
X0053387Y0228858D01*
X0053312Y0228716D01*
X0053234Y0228575D01*
X0053153Y0228437D01*
X0053068Y0228300D01*
X0052979Y0228166D01*
X0052888Y0228034D01*
X0052793Y0227904D01*
X0052695Y0227777D01*
X0052594Y0227652D01*
X0052490Y0227529D01*
X0052383Y0227410D01*
X0052273Y0227293D01*
X0052160Y0227178D01*
X0052044Y0227067D01*
X0051926Y0226958D01*
X0051805Y0226853D01*
X0051681Y0226750D01*
X0051555Y0226650D01*
X0051426Y0226554D01*
X0051295Y0226461D01*
X0051162Y0226371D01*
X0051027Y0226284D01*
X0050889Y0226201D01*
X0050750Y0226122D01*
X0050608Y0226045D01*
X0050465Y0225972D01*
X0050320Y0225903D01*
X0050173Y0225838D01*
X0050025Y0225776D01*
X0049875Y0225717D01*
X0049724Y0225663D01*
X0049572Y0225612D01*
X0049418Y0225565D01*
X0049263Y0225522D01*
X0049108Y0225483D01*
X0048951Y0225447D01*
X0048793Y0225415D01*
X0048635Y0225388D01*
X0048476Y0225364D01*
X0048317Y0225344D01*
X0048157Y0225328D01*
X0047996Y0225316D01*
X0047836Y0225308D01*
X0047675Y0225304D01*
X0047515Y0225304D01*
X0047354Y0225308D01*
X0047194Y0225316D01*
X0047033Y0225328D01*
X0046873Y0225344D01*
X0046714Y0225364D01*
X0046555Y0225388D01*
X0046397Y0225415D01*
X0046239Y0225447D01*
X0046082Y0225483D01*
X0045927Y0225522D01*
X0045772Y0225565D01*
X0045618Y0225612D01*
X0045466Y0225663D01*
X0045315Y0225717D01*
X0045165Y0225776D01*
X0045017Y0225838D01*
X0044870Y0225903D01*
X0044725Y0225972D01*
X0044582Y0226045D01*
X0044440Y0226122D01*
X0044301Y0226201D01*
X0044163Y0226284D01*
X0044028Y0226371D01*
X0043895Y0226461D01*
X0043764Y0226554D01*
X0043635Y0226650D01*
X0043509Y0226750D01*
X0043385Y0226853D01*
X0043264Y0226958D01*
X0043146Y0227067D01*
X0043030Y0227178D01*
X0042917Y0227293D01*
X0042807Y0227410D01*
X0042700Y0227529D01*
X0042596Y0227652D01*
X0042495Y0227777D01*
X0042397Y0227904D01*
X0042302Y0228034D01*
X0042211Y0228166D01*
X0042122Y0228300D01*
X0042037Y0228437D01*
X0041956Y0228575D01*
X0041878Y0228716D01*
X0041803Y0228858D01*
X0041732Y0229002D01*
X0041665Y0229148D01*
X0041601Y0229296D01*
X0041541Y0229445D01*
X0041485Y0229595D01*
X0041432Y0229747D01*
X0041383Y0229900D01*
X0041338Y0230054D01*
X0041297Y0230209D01*
X0041259Y0230366D01*
X0041226Y0230523D01*
X0041196Y0230681D01*
X0041170Y0230839D01*
X0041149Y0230999D01*
X0041131Y0231158D01*
X0041117Y0231318D01*
X0041107Y0231479D01*
X0041101Y0231639D01*
X0041099Y0231800D01*
X0331099Y0231800D02*
X0331101Y0231961D01*
X0331107Y0232121D01*
X0331117Y0232282D01*
X0331131Y0232442D01*
X0331149Y0232601D01*
X0331170Y0232761D01*
X0331196Y0232919D01*
X0331226Y0233077D01*
X0331259Y0233234D01*
X0331297Y0233391D01*
X0331338Y0233546D01*
X0331383Y0233700D01*
X0331432Y0233853D01*
X0331485Y0234005D01*
X0331541Y0234155D01*
X0331601Y0234304D01*
X0331665Y0234452D01*
X0331732Y0234598D01*
X0331803Y0234742D01*
X0331878Y0234884D01*
X0331956Y0235025D01*
X0332037Y0235163D01*
X0332122Y0235300D01*
X0332211Y0235434D01*
X0332302Y0235566D01*
X0332397Y0235696D01*
X0332495Y0235823D01*
X0332596Y0235948D01*
X0332700Y0236071D01*
X0332807Y0236190D01*
X0332917Y0236307D01*
X0333030Y0236422D01*
X0333146Y0236533D01*
X0333264Y0236642D01*
X0333385Y0236747D01*
X0333509Y0236850D01*
X0333635Y0236950D01*
X0333764Y0237046D01*
X0333895Y0237139D01*
X0334028Y0237229D01*
X0334163Y0237316D01*
X0334301Y0237399D01*
X0334440Y0237478D01*
X0334582Y0237555D01*
X0334725Y0237628D01*
X0334870Y0237697D01*
X0335017Y0237762D01*
X0335165Y0237824D01*
X0335315Y0237883D01*
X0335466Y0237937D01*
X0335618Y0237988D01*
X0335772Y0238035D01*
X0335927Y0238078D01*
X0336082Y0238117D01*
X0336239Y0238153D01*
X0336397Y0238185D01*
X0336555Y0238212D01*
X0336714Y0238236D01*
X0336873Y0238256D01*
X0337033Y0238272D01*
X0337194Y0238284D01*
X0337354Y0238292D01*
X0337515Y0238296D01*
X0337675Y0238296D01*
X0337836Y0238292D01*
X0337996Y0238284D01*
X0338157Y0238272D01*
X0338317Y0238256D01*
X0338476Y0238236D01*
X0338635Y0238212D01*
X0338793Y0238185D01*
X0338951Y0238153D01*
X0339108Y0238117D01*
X0339263Y0238078D01*
X0339418Y0238035D01*
X0339572Y0237988D01*
X0339724Y0237937D01*
X0339875Y0237883D01*
X0340025Y0237824D01*
X0340173Y0237762D01*
X0340320Y0237697D01*
X0340465Y0237628D01*
X0340608Y0237555D01*
X0340750Y0237478D01*
X0340889Y0237399D01*
X0341027Y0237316D01*
X0341162Y0237229D01*
X0341295Y0237139D01*
X0341426Y0237046D01*
X0341555Y0236950D01*
X0341681Y0236850D01*
X0341805Y0236747D01*
X0341926Y0236642D01*
X0342044Y0236533D01*
X0342160Y0236422D01*
X0342273Y0236307D01*
X0342383Y0236190D01*
X0342490Y0236071D01*
X0342594Y0235948D01*
X0342695Y0235823D01*
X0342793Y0235696D01*
X0342888Y0235566D01*
X0342979Y0235434D01*
X0343068Y0235300D01*
X0343153Y0235163D01*
X0343234Y0235025D01*
X0343312Y0234884D01*
X0343387Y0234742D01*
X0343458Y0234598D01*
X0343525Y0234452D01*
X0343589Y0234304D01*
X0343649Y0234155D01*
X0343705Y0234005D01*
X0343758Y0233853D01*
X0343807Y0233700D01*
X0343852Y0233546D01*
X0343893Y0233391D01*
X0343931Y0233234D01*
X0343964Y0233077D01*
X0343994Y0232919D01*
X0344020Y0232761D01*
X0344041Y0232601D01*
X0344059Y0232442D01*
X0344073Y0232282D01*
X0344083Y0232121D01*
X0344089Y0231961D01*
X0344091Y0231800D01*
X0344089Y0231639D01*
X0344083Y0231479D01*
X0344073Y0231318D01*
X0344059Y0231158D01*
X0344041Y0230999D01*
X0344020Y0230839D01*
X0343994Y0230681D01*
X0343964Y0230523D01*
X0343931Y0230366D01*
X0343893Y0230209D01*
X0343852Y0230054D01*
X0343807Y0229900D01*
X0343758Y0229747D01*
X0343705Y0229595D01*
X0343649Y0229445D01*
X0343589Y0229296D01*
X0343525Y0229148D01*
X0343458Y0229002D01*
X0343387Y0228858D01*
X0343312Y0228716D01*
X0343234Y0228575D01*
X0343153Y0228437D01*
X0343068Y0228300D01*
X0342979Y0228166D01*
X0342888Y0228034D01*
X0342793Y0227904D01*
X0342695Y0227777D01*
X0342594Y0227652D01*
X0342490Y0227529D01*
X0342383Y0227410D01*
X0342273Y0227293D01*
X0342160Y0227178D01*
X0342044Y0227067D01*
X0341926Y0226958D01*
X0341805Y0226853D01*
X0341681Y0226750D01*
X0341555Y0226650D01*
X0341426Y0226554D01*
X0341295Y0226461D01*
X0341162Y0226371D01*
X0341027Y0226284D01*
X0340889Y0226201D01*
X0340750Y0226122D01*
X0340608Y0226045D01*
X0340465Y0225972D01*
X0340320Y0225903D01*
X0340173Y0225838D01*
X0340025Y0225776D01*
X0339875Y0225717D01*
X0339724Y0225663D01*
X0339572Y0225612D01*
X0339418Y0225565D01*
X0339263Y0225522D01*
X0339108Y0225483D01*
X0338951Y0225447D01*
X0338793Y0225415D01*
X0338635Y0225388D01*
X0338476Y0225364D01*
X0338317Y0225344D01*
X0338157Y0225328D01*
X0337996Y0225316D01*
X0337836Y0225308D01*
X0337675Y0225304D01*
X0337515Y0225304D01*
X0337354Y0225308D01*
X0337194Y0225316D01*
X0337033Y0225328D01*
X0336873Y0225344D01*
X0336714Y0225364D01*
X0336555Y0225388D01*
X0336397Y0225415D01*
X0336239Y0225447D01*
X0336082Y0225483D01*
X0335927Y0225522D01*
X0335772Y0225565D01*
X0335618Y0225612D01*
X0335466Y0225663D01*
X0335315Y0225717D01*
X0335165Y0225776D01*
X0335017Y0225838D01*
X0334870Y0225903D01*
X0334725Y0225972D01*
X0334582Y0226045D01*
X0334440Y0226122D01*
X0334301Y0226201D01*
X0334163Y0226284D01*
X0334028Y0226371D01*
X0333895Y0226461D01*
X0333764Y0226554D01*
X0333635Y0226650D01*
X0333509Y0226750D01*
X0333385Y0226853D01*
X0333264Y0226958D01*
X0333146Y0227067D01*
X0333030Y0227178D01*
X0332917Y0227293D01*
X0332807Y0227410D01*
X0332700Y0227529D01*
X0332596Y0227652D01*
X0332495Y0227777D01*
X0332397Y0227904D01*
X0332302Y0228034D01*
X0332211Y0228166D01*
X0332122Y0228300D01*
X0332037Y0228437D01*
X0331956Y0228575D01*
X0331878Y0228716D01*
X0331803Y0228858D01*
X0331732Y0229002D01*
X0331665Y0229148D01*
X0331601Y0229296D01*
X0331541Y0229445D01*
X0331485Y0229595D01*
X0331432Y0229747D01*
X0331383Y0229900D01*
X0331338Y0230054D01*
X0331297Y0230209D01*
X0331259Y0230366D01*
X0331226Y0230523D01*
X0331196Y0230681D01*
X0331170Y0230839D01*
X0331149Y0230999D01*
X0331131Y0231158D01*
X0331117Y0231318D01*
X0331107Y0231479D01*
X0331101Y0231639D01*
X0331099Y0231800D01*
X0331099Y0021800D02*
X0331101Y0021961D01*
X0331107Y0022121D01*
X0331117Y0022282D01*
X0331131Y0022442D01*
X0331149Y0022601D01*
X0331170Y0022761D01*
X0331196Y0022919D01*
X0331226Y0023077D01*
X0331259Y0023234D01*
X0331297Y0023391D01*
X0331338Y0023546D01*
X0331383Y0023700D01*
X0331432Y0023853D01*
X0331485Y0024005D01*
X0331541Y0024155D01*
X0331601Y0024304D01*
X0331665Y0024452D01*
X0331732Y0024598D01*
X0331803Y0024742D01*
X0331878Y0024884D01*
X0331956Y0025025D01*
X0332037Y0025163D01*
X0332122Y0025300D01*
X0332211Y0025434D01*
X0332302Y0025566D01*
X0332397Y0025696D01*
X0332495Y0025823D01*
X0332596Y0025948D01*
X0332700Y0026071D01*
X0332807Y0026190D01*
X0332917Y0026307D01*
X0333030Y0026422D01*
X0333146Y0026533D01*
X0333264Y0026642D01*
X0333385Y0026747D01*
X0333509Y0026850D01*
X0333635Y0026950D01*
X0333764Y0027046D01*
X0333895Y0027139D01*
X0334028Y0027229D01*
X0334163Y0027316D01*
X0334301Y0027399D01*
X0334440Y0027478D01*
X0334582Y0027555D01*
X0334725Y0027628D01*
X0334870Y0027697D01*
X0335017Y0027762D01*
X0335165Y0027824D01*
X0335315Y0027883D01*
X0335466Y0027937D01*
X0335618Y0027988D01*
X0335772Y0028035D01*
X0335927Y0028078D01*
X0336082Y0028117D01*
X0336239Y0028153D01*
X0336397Y0028185D01*
X0336555Y0028212D01*
X0336714Y0028236D01*
X0336873Y0028256D01*
X0337033Y0028272D01*
X0337194Y0028284D01*
X0337354Y0028292D01*
X0337515Y0028296D01*
X0337675Y0028296D01*
X0337836Y0028292D01*
X0337996Y0028284D01*
X0338157Y0028272D01*
X0338317Y0028256D01*
X0338476Y0028236D01*
X0338635Y0028212D01*
X0338793Y0028185D01*
X0338951Y0028153D01*
X0339108Y0028117D01*
X0339263Y0028078D01*
X0339418Y0028035D01*
X0339572Y0027988D01*
X0339724Y0027937D01*
X0339875Y0027883D01*
X0340025Y0027824D01*
X0340173Y0027762D01*
X0340320Y0027697D01*
X0340465Y0027628D01*
X0340608Y0027555D01*
X0340750Y0027478D01*
X0340889Y0027399D01*
X0341027Y0027316D01*
X0341162Y0027229D01*
X0341295Y0027139D01*
X0341426Y0027046D01*
X0341555Y0026950D01*
X0341681Y0026850D01*
X0341805Y0026747D01*
X0341926Y0026642D01*
X0342044Y0026533D01*
X0342160Y0026422D01*
X0342273Y0026307D01*
X0342383Y0026190D01*
X0342490Y0026071D01*
X0342594Y0025948D01*
X0342695Y0025823D01*
X0342793Y0025696D01*
X0342888Y0025566D01*
X0342979Y0025434D01*
X0343068Y0025300D01*
X0343153Y0025163D01*
X0343234Y0025025D01*
X0343312Y0024884D01*
X0343387Y0024742D01*
X0343458Y0024598D01*
X0343525Y0024452D01*
X0343589Y0024304D01*
X0343649Y0024155D01*
X0343705Y0024005D01*
X0343758Y0023853D01*
X0343807Y0023700D01*
X0343852Y0023546D01*
X0343893Y0023391D01*
X0343931Y0023234D01*
X0343964Y0023077D01*
X0343994Y0022919D01*
X0344020Y0022761D01*
X0344041Y0022601D01*
X0344059Y0022442D01*
X0344073Y0022282D01*
X0344083Y0022121D01*
X0344089Y0021961D01*
X0344091Y0021800D01*
X0344089Y0021639D01*
X0344083Y0021479D01*
X0344073Y0021318D01*
X0344059Y0021158D01*
X0344041Y0020999D01*
X0344020Y0020839D01*
X0343994Y0020681D01*
X0343964Y0020523D01*
X0343931Y0020366D01*
X0343893Y0020209D01*
X0343852Y0020054D01*
X0343807Y0019900D01*
X0343758Y0019747D01*
X0343705Y0019595D01*
X0343649Y0019445D01*
X0343589Y0019296D01*
X0343525Y0019148D01*
X0343458Y0019002D01*
X0343387Y0018858D01*
X0343312Y0018716D01*
X0343234Y0018575D01*
X0343153Y0018437D01*
X0343068Y0018300D01*
X0342979Y0018166D01*
X0342888Y0018034D01*
X0342793Y0017904D01*
X0342695Y0017777D01*
X0342594Y0017652D01*
X0342490Y0017529D01*
X0342383Y0017410D01*
X0342273Y0017293D01*
X0342160Y0017178D01*
X0342044Y0017067D01*
X0341926Y0016958D01*
X0341805Y0016853D01*
X0341681Y0016750D01*
X0341555Y0016650D01*
X0341426Y0016554D01*
X0341295Y0016461D01*
X0341162Y0016371D01*
X0341027Y0016284D01*
X0340889Y0016201D01*
X0340750Y0016122D01*
X0340608Y0016045D01*
X0340465Y0015972D01*
X0340320Y0015903D01*
X0340173Y0015838D01*
X0340025Y0015776D01*
X0339875Y0015717D01*
X0339724Y0015663D01*
X0339572Y0015612D01*
X0339418Y0015565D01*
X0339263Y0015522D01*
X0339108Y0015483D01*
X0338951Y0015447D01*
X0338793Y0015415D01*
X0338635Y0015388D01*
X0338476Y0015364D01*
X0338317Y0015344D01*
X0338157Y0015328D01*
X0337996Y0015316D01*
X0337836Y0015308D01*
X0337675Y0015304D01*
X0337515Y0015304D01*
X0337354Y0015308D01*
X0337194Y0015316D01*
X0337033Y0015328D01*
X0336873Y0015344D01*
X0336714Y0015364D01*
X0336555Y0015388D01*
X0336397Y0015415D01*
X0336239Y0015447D01*
X0336082Y0015483D01*
X0335927Y0015522D01*
X0335772Y0015565D01*
X0335618Y0015612D01*
X0335466Y0015663D01*
X0335315Y0015717D01*
X0335165Y0015776D01*
X0335017Y0015838D01*
X0334870Y0015903D01*
X0334725Y0015972D01*
X0334582Y0016045D01*
X0334440Y0016122D01*
X0334301Y0016201D01*
X0334163Y0016284D01*
X0334028Y0016371D01*
X0333895Y0016461D01*
X0333764Y0016554D01*
X0333635Y0016650D01*
X0333509Y0016750D01*
X0333385Y0016853D01*
X0333264Y0016958D01*
X0333146Y0017067D01*
X0333030Y0017178D01*
X0332917Y0017293D01*
X0332807Y0017410D01*
X0332700Y0017529D01*
X0332596Y0017652D01*
X0332495Y0017777D01*
X0332397Y0017904D01*
X0332302Y0018034D01*
X0332211Y0018166D01*
X0332122Y0018300D01*
X0332037Y0018437D01*
X0331956Y0018575D01*
X0331878Y0018716D01*
X0331803Y0018858D01*
X0331732Y0019002D01*
X0331665Y0019148D01*
X0331601Y0019296D01*
X0331541Y0019445D01*
X0331485Y0019595D01*
X0331432Y0019747D01*
X0331383Y0019900D01*
X0331338Y0020054D01*
X0331297Y0020209D01*
X0331259Y0020366D01*
X0331226Y0020523D01*
X0331196Y0020681D01*
X0331170Y0020839D01*
X0331149Y0020999D01*
X0331131Y0021158D01*
X0331117Y0021318D01*
X0331107Y0021479D01*
X0331101Y0021639D01*
X0331099Y0021800D01*
D11*
X0267399Y0072792D02*
X0267399Y0075094D01*
X0266632Y0075861D01*
X0265097Y0075861D01*
X0264330Y0075094D01*
X0264330Y0072792D01*
X0264330Y0074327D02*
X0262795Y0075861D01*
X0263562Y0077396D02*
X0262795Y0078163D01*
X0262795Y0079698D01*
X0263562Y0080465D01*
X0266632Y0080465D01*
X0267399Y0079698D01*
X0267399Y0078163D01*
X0266632Y0077396D01*
X0265864Y0077396D01*
X0265097Y0078163D01*
X0265097Y0080465D01*
X0262795Y0072792D02*
X0267399Y0072792D01*
X0230594Y0062854D02*
X0230594Y0058250D01*
X0230594Y0059785D02*
X0228292Y0059785D01*
X0227525Y0060552D01*
X0227525Y0062087D01*
X0228292Y0062854D01*
X0230594Y0062854D01*
X0229060Y0059785D02*
X0227525Y0058250D01*
X0225991Y0058250D02*
X0222921Y0058250D01*
X0224456Y0058250D02*
X0224456Y0062854D01*
X0225991Y0061319D01*
X0221387Y0060552D02*
X0218317Y0060552D01*
X0219085Y0058250D02*
X0219085Y0062854D01*
X0221387Y0060552D01*
X0223472Y0095750D02*
X0226541Y0095750D01*
X0225007Y0095750D02*
X0225007Y0100354D01*
X0226541Y0098819D01*
X0228076Y0098052D02*
X0228843Y0097285D01*
X0231145Y0097285D01*
X0229611Y0097285D02*
X0228076Y0095750D01*
X0228076Y0098052D02*
X0228076Y0099587D01*
X0228843Y0100354D01*
X0231145Y0100354D01*
X0231145Y0095750D01*
X0159103Y0084587D02*
X0159103Y0081517D01*
X0158336Y0080750D01*
X0156801Y0080750D01*
X0156034Y0081517D01*
X0154499Y0083052D02*
X0151430Y0083052D01*
X0152197Y0085354D02*
X0154499Y0083052D01*
X0156034Y0084587D02*
X0156801Y0085354D01*
X0158336Y0085354D01*
X0159103Y0084587D01*
X0152197Y0085354D02*
X0152197Y0080750D01*
X0141603Y0075354D02*
X0139301Y0075354D01*
X0138534Y0074587D01*
X0138534Y0073052D01*
X0139301Y0072285D01*
X0141603Y0072285D01*
X0140068Y0072285D02*
X0138534Y0070750D01*
X0136999Y0071517D02*
X0136999Y0072285D01*
X0136232Y0073052D01*
X0134697Y0073052D01*
X0133930Y0072285D01*
X0133930Y0071517D01*
X0134697Y0070750D01*
X0136232Y0070750D01*
X0136999Y0071517D01*
X0136232Y0073052D02*
X0136999Y0073819D01*
X0136999Y0074587D01*
X0136232Y0075354D01*
X0134697Y0075354D01*
X0133930Y0074587D01*
X0133930Y0073819D01*
X0134697Y0073052D01*
X0141603Y0070750D02*
X0141603Y0075354D01*
X0149635Y0057854D02*
X0148868Y0057087D01*
X0151937Y0054017D01*
X0151170Y0053250D01*
X0149635Y0053250D01*
X0148868Y0054017D01*
X0148868Y0057087D01*
X0149635Y0057854D02*
X0151170Y0057854D01*
X0151937Y0057087D01*
X0151937Y0054017D01*
X0153472Y0053250D02*
X0156541Y0053250D01*
X0155007Y0053250D02*
X0155007Y0057854D01*
X0156541Y0056319D01*
X0158076Y0055552D02*
X0158843Y0054785D01*
X0161145Y0054785D01*
X0159611Y0054785D02*
X0158076Y0053250D01*
X0158076Y0055552D02*
X0158076Y0057087D01*
X0158843Y0057854D01*
X0161145Y0057854D01*
X0161145Y0053250D01*
X0103645Y0070950D02*
X0102111Y0070950D01*
X0102878Y0070950D02*
X0102878Y0075554D01*
X0103645Y0075554D02*
X0102111Y0075554D01*
X0100576Y0074787D02*
X0100576Y0071717D01*
X0099809Y0070950D01*
X0098274Y0070950D01*
X0097507Y0071717D01*
X0095972Y0071717D02*
X0095205Y0070950D01*
X0093670Y0070950D01*
X0092903Y0071717D01*
X0092903Y0072485D01*
X0093670Y0073252D01*
X0094437Y0073252D01*
X0093670Y0073252D02*
X0092903Y0074019D01*
X0092903Y0074787D01*
X0093670Y0075554D01*
X0095205Y0075554D01*
X0095972Y0074787D01*
X0097507Y0074787D02*
X0098274Y0075554D01*
X0099809Y0075554D01*
X0100576Y0074787D01*
X0256368Y0198250D02*
X0259437Y0198250D01*
X0257903Y0198250D02*
X0257903Y0202854D01*
X0259437Y0201319D01*
X0260972Y0198250D02*
X0264041Y0198250D01*
X0262507Y0198250D02*
X0262507Y0202854D01*
X0264041Y0201319D01*
X0265576Y0200552D02*
X0266343Y0199785D01*
X0268645Y0199785D01*
X0267111Y0199785D02*
X0265576Y0198250D01*
X0265576Y0200552D02*
X0265576Y0202087D01*
X0266343Y0202854D01*
X0268645Y0202854D01*
X0268645Y0198250D01*
X0277618Y0199017D02*
X0278385Y0198250D01*
X0279920Y0198250D01*
X0280687Y0199017D01*
X0282222Y0198250D02*
X0285291Y0198250D01*
X0283757Y0198250D02*
X0283757Y0202854D01*
X0285291Y0201319D01*
X0286826Y0200552D02*
X0287593Y0199785D01*
X0289895Y0199785D01*
X0288361Y0199785D02*
X0286826Y0198250D01*
X0286826Y0200552D02*
X0286826Y0202087D01*
X0287593Y0202854D01*
X0289895Y0202854D01*
X0289895Y0198250D01*
X0280687Y0202087D02*
X0279920Y0202854D01*
X0278385Y0202854D01*
X0277618Y0202087D01*
X0277618Y0201319D01*
X0278385Y0200552D01*
X0277618Y0199785D01*
X0277618Y0199017D01*
X0278385Y0200552D02*
X0279153Y0200552D01*
X0279895Y0223250D02*
X0279895Y0227854D01*
X0277593Y0227854D01*
X0276826Y0227087D01*
X0276826Y0225552D01*
X0277593Y0224785D01*
X0279895Y0224785D01*
X0278361Y0224785D02*
X0276826Y0223250D01*
X0275291Y0223250D02*
X0272222Y0223250D01*
X0273757Y0223250D02*
X0273757Y0227854D01*
X0275291Y0226319D01*
X0270687Y0227087D02*
X0269920Y0227854D01*
X0268385Y0227854D01*
X0267618Y0227087D01*
X0267618Y0226319D01*
X0270687Y0223250D01*
X0267618Y0223250D01*
X0217853Y0213337D02*
X0217853Y0210267D01*
X0217086Y0209500D01*
X0215551Y0209500D01*
X0214784Y0210267D01*
X0213249Y0210267D02*
X0213249Y0209500D01*
X0213249Y0210267D02*
X0210180Y0213337D01*
X0210180Y0214104D01*
X0213249Y0214104D01*
X0214784Y0213337D02*
X0215551Y0214104D01*
X0217086Y0214104D01*
X0217853Y0213337D01*
D12*
X0105845Y0068452D02*
X0091845Y0068452D01*
X0091845Y0042648D01*
X0105845Y0042648D01*
X0105845Y0068452D01*
D13*
X0094078Y0091119D02*
X0092844Y0091119D01*
X0092227Y0091736D01*
X0091012Y0091119D02*
X0088543Y0091119D01*
X0087329Y0091119D02*
X0084860Y0091119D01*
X0086095Y0091119D02*
X0086095Y0094822D01*
X0087329Y0093588D01*
X0089778Y0094822D02*
X0089778Y0091119D01*
X0091012Y0093588D02*
X0089778Y0094822D01*
X0092227Y0094205D02*
X0092844Y0094822D01*
X0094078Y0094822D01*
X0094695Y0094205D01*
X0094695Y0091736D01*
X0094078Y0091119D01*
X0068125Y0053747D02*
X0065657Y0051279D01*
X0065039Y0051896D01*
X0065039Y0053130D01*
X0065657Y0053747D01*
X0068125Y0053747D01*
X0068743Y0053130D01*
X0068743Y0051896D01*
X0068125Y0051279D01*
X0065657Y0051279D01*
X0065039Y0050064D02*
X0065039Y0047595D01*
X0065039Y0048830D02*
X0068743Y0048830D01*
X0067508Y0047595D01*
X0068125Y0046381D02*
X0068743Y0045764D01*
X0068743Y0044529D01*
X0068125Y0043912D01*
X0065657Y0043912D01*
X0065039Y0044529D01*
X0065039Y0045764D01*
X0065657Y0046381D01*
M02*
