G75*
%MOIN*%
%OFA0B0*%
%FSLAX25Y25*%
%IPPOS*%
%LPD*%
%AMOC8*
5,1,8,0,0,1.08239X$1,22.5*
%
%ADD10R,0.02362X0.08661*%
%ADD11R,0.38583X0.25197*%
%ADD12R,0.40000X0.25000*%
%ADD13R,0.20000X0.10000*%
%ADD14R,0.02600X0.08000*%
%ADD15R,0.05906X0.05118*%
%ADD16C,0.06500*%
%ADD17R,0.07874X0.06299*%
%ADD18R,0.06299X0.07874*%
%ADD19C,0.07050*%
%ADD20C,0.05600*%
%ADD21C,0.06000*%
%ADD22OC8,0.06000*%
%ADD23C,0.08850*%
%ADD24C,0.06600*%
%ADD25C,0.10000*%
%ADD26C,0.02000*%
%ADD27R,0.03937X0.05512*%
%ADD28C,0.05000*%
%ADD29C,0.05000*%
%ADD30C,0.01600*%
%ADD31C,0.02300*%
%ADD32C,0.03000*%
%ADD33C,0.01000*%
D10*
X0165095Y0109959D03*
X0170095Y0109959D03*
X0175095Y0109959D03*
X0180095Y0109959D03*
X0185095Y0109959D03*
X0190095Y0109959D03*
X0195095Y0109959D03*
X0200095Y0109959D03*
X0205095Y0109959D03*
X0210095Y0109959D03*
X0225095Y0069536D03*
X0230095Y0069536D03*
X0235095Y0069536D03*
X0240095Y0069536D03*
X0240095Y0049064D03*
X0235095Y0049064D03*
X0230095Y0049064D03*
X0225095Y0049064D03*
X0210095Y0161141D03*
X0205095Y0161141D03*
X0200095Y0161141D03*
X0195095Y0161141D03*
X0190095Y0161141D03*
X0185095Y0161141D03*
X0180095Y0161141D03*
X0175095Y0161141D03*
X0170095Y0161141D03*
X0165095Y0161141D03*
D11*
X0187595Y0135550D03*
D12*
X0187595Y0135550D03*
D13*
X0166345Y0135550D03*
X0208845Y0135550D03*
D14*
X0205095Y0068900D03*
X0200095Y0068900D03*
X0195095Y0068900D03*
X0190095Y0068900D03*
X0185095Y0068900D03*
X0180095Y0068900D03*
X0175095Y0068900D03*
X0175095Y0044700D03*
X0180095Y0044700D03*
X0185095Y0044700D03*
X0190095Y0044700D03*
X0195095Y0044700D03*
X0200095Y0044700D03*
X0205095Y0044700D03*
D15*
X0215095Y0048040D03*
X0215095Y0040560D03*
X0161345Y0053060D03*
X0161345Y0060540D03*
X0192595Y0088060D03*
X0200095Y0088060D03*
X0200095Y0095540D03*
X0192595Y0095540D03*
X0150095Y0174310D03*
X0150095Y0181790D03*
D16*
X0075095Y0087550D02*
X0075095Y0081050D01*
X0065095Y0081050D02*
X0065095Y0087550D01*
X0055095Y0087550D02*
X0055095Y0081050D01*
D17*
X0215095Y0063562D03*
X0215095Y0052538D03*
X0253845Y0047949D03*
X0253845Y0036926D03*
X0323845Y0198788D03*
X0334458Y0198788D03*
X0345095Y0198788D03*
X0345095Y0209812D03*
X0334458Y0209812D03*
X0323845Y0209812D03*
D18*
X0234994Y0038025D03*
X0223971Y0038025D03*
D19*
X0187280Y0230854D02*
X0187280Y0237904D01*
X0167595Y0237904D02*
X0167595Y0230854D01*
X0147910Y0230854D02*
X0147910Y0237904D01*
X0113688Y0237825D02*
X0113688Y0230775D01*
X0094003Y0230775D02*
X0094003Y0237825D01*
D20*
X0250095Y0089600D02*
X0250095Y0084000D01*
X0260095Y0084000D02*
X0260095Y0089600D01*
D21*
X0316978Y0039679D02*
X0321221Y0035437D01*
X0328292Y0042508D02*
X0324049Y0046750D01*
X0309907Y0032608D02*
X0314150Y0028366D01*
X0307079Y0021295D02*
X0302836Y0025537D01*
X0187595Y0195050D02*
X0187595Y0201050D01*
X0167595Y0201050D02*
X0167595Y0195050D01*
X0147595Y0195050D02*
X0147595Y0201050D01*
X0232595Y0206300D02*
X0232595Y0212300D01*
X0242595Y0212300D02*
X0242595Y0206300D01*
X0252595Y0206300D02*
X0252595Y0212300D01*
X0271345Y0232550D02*
X0271345Y0238550D01*
X0281345Y0238550D02*
X0281345Y0232550D01*
X0291345Y0232550D02*
X0291345Y0238550D01*
X0301345Y0238550D02*
X0301345Y0232550D01*
D22*
X0305095Y0211800D03*
X0295095Y0211800D03*
X0317595Y0180550D03*
X0327595Y0180550D03*
X0327595Y0160550D03*
X0317595Y0160550D03*
X0317595Y0150550D03*
X0317595Y0140550D03*
X0327595Y0140550D03*
X0327595Y0150550D03*
X0327595Y0130550D03*
X0317595Y0130550D03*
X0317595Y0120550D03*
X0327595Y0120550D03*
X0327595Y0110550D03*
X0317595Y0110550D03*
X0317595Y0100550D03*
X0327595Y0100550D03*
X0327595Y0090550D03*
X0317595Y0090550D03*
X0263845Y0056800D03*
X0253845Y0056800D03*
D23*
X0120770Y0189300D02*
X0111920Y0189300D01*
X0060770Y0189300D02*
X0051920Y0189300D01*
D24*
X0212595Y0231000D02*
X0212595Y0237600D01*
X0222595Y0237600D02*
X0222595Y0231000D01*
X0232595Y0231000D02*
X0232595Y0237600D01*
X0242595Y0237600D02*
X0242595Y0231000D01*
X0252595Y0231000D02*
X0252595Y0237600D01*
D25*
X0248845Y0158000D03*
X0260095Y0158000D03*
X0271345Y0158050D03*
X0282595Y0158050D03*
X0282595Y0146800D03*
X0271345Y0146800D03*
X0260095Y0146750D03*
X0248845Y0146750D03*
X0237545Y0146800D03*
X0226295Y0146750D03*
X0226295Y0135500D03*
X0226295Y0124250D03*
X0226295Y0113000D03*
X0237545Y0113050D03*
X0248845Y0113000D03*
X0260095Y0113000D03*
X0271345Y0113050D03*
X0282595Y0113050D03*
X0282595Y0124300D03*
X0271345Y0124300D03*
X0260095Y0124250D03*
X0248845Y0124250D03*
X0237545Y0124300D03*
X0237545Y0135550D03*
X0248845Y0135500D03*
X0260095Y0135500D03*
X0271345Y0135550D03*
X0282595Y0135550D03*
X0237545Y0158050D03*
X0226295Y0158000D03*
X0147595Y0158050D03*
X0136345Y0158050D03*
X0125095Y0158000D03*
X0113845Y0158000D03*
X0102545Y0158050D03*
X0091295Y0158000D03*
X0091295Y0146750D03*
X0102545Y0146800D03*
X0113845Y0146750D03*
X0125095Y0146750D03*
X0136345Y0146800D03*
X0136345Y0135550D03*
X0125095Y0135500D03*
X0113845Y0135500D03*
X0102545Y0135550D03*
X0091295Y0135500D03*
X0091295Y0124250D03*
X0102545Y0124300D03*
X0113845Y0124250D03*
X0125095Y0124250D03*
X0136345Y0124300D03*
X0136345Y0113050D03*
X0125095Y0113000D03*
X0113845Y0113000D03*
X0102545Y0113050D03*
X0091295Y0113000D03*
X0061800Y0135095D03*
X0147595Y0135550D03*
X0147595Y0124300D03*
X0147595Y0113050D03*
X0147595Y0146800D03*
D26*
X0166345Y0135550D02*
X0187595Y0135550D01*
X0208845Y0135550D01*
X0197595Y0118050D02*
X0162595Y0118050D01*
X0160095Y0115550D01*
X0160095Y0108050D01*
X0151345Y0099300D01*
X0151345Y0089891D01*
X0151355Y0089881D01*
X0150686Y0090550D01*
X0145095Y0090550D01*
X0155095Y0081219D02*
X0157595Y0078719D01*
X0157595Y0078663D01*
X0157745Y0078663D01*
X0161220Y0075188D01*
X0172858Y0075188D01*
X0176333Y0078663D01*
X0191958Y0078663D01*
X0198845Y0085550D01*
X0198845Y0086810D01*
X0200095Y0088060D01*
X0200095Y0095540D02*
X0200095Y0099300D01*
X0195095Y0104300D01*
X0195095Y0109959D01*
X0200095Y0109959D02*
X0200095Y0115550D01*
X0197595Y0118050D01*
X0190095Y0109959D02*
X0190095Y0103050D01*
X0192595Y0100550D01*
X0192595Y0095540D01*
X0185095Y0099300D02*
X0185095Y0109959D01*
X0180095Y0109959D02*
X0180095Y0083050D01*
X0175095Y0084300D02*
X0171345Y0080550D01*
X0175095Y0084300D02*
X0175095Y0109959D01*
X0170095Y0109959D02*
X0170095Y0100550D01*
X0165095Y0103050D02*
X0161345Y0099300D01*
X0155095Y0081219D02*
X0155095Y0080550D01*
X0170095Y0065550D02*
X0173445Y0068900D01*
X0175095Y0068900D01*
X0170095Y0065550D02*
X0165095Y0060550D01*
X0161345Y0060540D01*
X0161345Y0053060D02*
X0163855Y0053060D01*
X0160095Y0049300D01*
X0167595Y0046800D02*
X0167595Y0033050D01*
X0175095Y0025550D01*
X0281345Y0025550D01*
X0287595Y0030550D02*
X0292595Y0025550D01*
X0287595Y0030550D02*
X0191345Y0030550D01*
X0185095Y0036800D01*
X0185095Y0044700D01*
X0180095Y0044700D02*
X0180095Y0050550D01*
X0183845Y0054300D01*
X0190095Y0054300D01*
X0190095Y0058050D01*
X0195095Y0058050D01*
X0200095Y0063050D01*
X0200095Y0068900D01*
X0195095Y0068900D02*
X0195095Y0075550D01*
X0190095Y0068900D02*
X0190095Y0058050D01*
X0190095Y0054300D02*
X0190095Y0044700D01*
X0195095Y0044700D02*
X0200095Y0044700D01*
X0200095Y0045550D01*
X0197595Y0048050D01*
X0195095Y0045550D01*
X0197595Y0045550D01*
X0197595Y0051800D01*
X0198845Y0053050D01*
X0202595Y0053050D01*
X0212595Y0063050D01*
X0213333Y0063050D01*
X0215095Y0063562D01*
X0215833Y0064812D01*
X0221345Y0059300D01*
X0230095Y0059300D01*
X0235095Y0064300D01*
X0235095Y0069536D01*
X0235095Y0075550D01*
X0237595Y0078050D01*
X0242595Y0078050D01*
X0253845Y0066800D01*
X0258845Y0066800D01*
X0263845Y0061800D01*
X0266820Y0064775D01*
X0271470Y0064775D01*
X0263845Y0061800D02*
X0263845Y0056800D01*
X0253845Y0056800D02*
X0250095Y0060550D01*
X0238845Y0060550D01*
X0230095Y0053050D01*
X0230095Y0049064D01*
X0235095Y0049064D02*
X0235095Y0036876D01*
X0234994Y0038025D01*
X0225095Y0049064D02*
X0217359Y0049064D01*
X0217585Y0048040D01*
X0215095Y0048040D01*
X0215095Y0049300D01*
X0213845Y0050550D01*
X0213845Y0051800D01*
X0215095Y0053050D01*
X0215095Y0052538D02*
X0215095Y0050550D01*
X0215095Y0051800D02*
X0213845Y0050550D01*
X0215095Y0051800D02*
X0215095Y0052538D01*
X0205095Y0044700D02*
X0205095Y0043050D01*
X0208845Y0039300D01*
X0215095Y0040560D01*
X0185095Y0063050D02*
X0183845Y0061800D01*
X0176345Y0061800D01*
X0171345Y0056800D01*
X0171345Y0050550D01*
X0167595Y0046800D01*
X0175095Y0044700D02*
X0175095Y0053050D01*
X0178845Y0056800D01*
X0185095Y0063050D02*
X0185095Y0068900D01*
X0180095Y0068900D02*
X0180095Y0074300D01*
X0205095Y0068900D02*
X0208445Y0068900D01*
X0215095Y0075550D01*
X0215095Y0078050D01*
X0225095Y0088050D01*
X0228845Y0093050D02*
X0220095Y0093050D01*
X0213845Y0086800D01*
X0208845Y0086800D01*
X0208845Y0096800D02*
X0208845Y0100550D01*
X0205095Y0104300D01*
X0205095Y0109959D01*
X0210095Y0109959D02*
X0210095Y0105550D01*
X0215095Y0103050D01*
X0228845Y0093050D02*
X0231345Y0090550D01*
X0231345Y0086800D01*
X0225095Y0080550D01*
X0225095Y0069536D01*
X0230095Y0069536D02*
X0230095Y0079526D01*
X0237369Y0086800D01*
X0245095Y0086800D01*
X0243609Y0069536D02*
X0240095Y0069536D01*
X0243609Y0069536D02*
X0243845Y0069300D01*
X0287595Y0098050D02*
X0310095Y0120550D01*
X0317595Y0120550D01*
X0322595Y0125550D01*
X0335708Y0125550D01*
X0340708Y0130550D01*
X0340708Y0186800D01*
X0334458Y0193050D01*
X0334458Y0198788D01*
X0323845Y0198788D02*
X0323845Y0193050D01*
X0336345Y0180550D01*
X0336345Y0136800D01*
X0335095Y0135550D01*
X0322595Y0135550D01*
X0317595Y0130550D01*
X0317595Y0140550D02*
X0295095Y0163050D01*
X0295095Y0171800D01*
X0273845Y0193050D01*
X0241345Y0193050D01*
X0232595Y0201800D01*
X0232595Y0209300D01*
X0242595Y0209300D02*
X0242595Y0206800D01*
X0250095Y0199300D01*
X0278845Y0199300D01*
X0300095Y0178050D01*
X0300095Y0168050D01*
X0317595Y0150550D01*
X0317595Y0160550D02*
X0307595Y0170550D01*
X0307595Y0180550D01*
X0277595Y0209300D01*
X0252595Y0209300D01*
X0295095Y0211800D02*
X0295095Y0204300D01*
X0307595Y0191800D01*
X0317595Y0191800D01*
X0322595Y0186800D01*
X0322595Y0165550D01*
X0327595Y0160550D01*
X0345095Y0126800D02*
X0345095Y0198788D01*
X0345095Y0199300D01*
X0345095Y0126800D02*
X0333845Y0115550D01*
X0343845Y0105550D01*
X0343845Y0065550D01*
X0317595Y0110550D02*
X0322595Y0115550D01*
X0333845Y0115550D01*
X0212595Y0165550D02*
X0210095Y0163050D01*
X0210095Y0161141D01*
X0205095Y0161141D02*
X0205095Y0175550D01*
X0208845Y0179300D01*
X0200095Y0188050D02*
X0200095Y0161141D01*
X0195095Y0161141D02*
X0195095Y0168050D01*
X0190095Y0174300D02*
X0190095Y0161141D01*
X0185095Y0161141D02*
X0185095Y0170550D01*
X0181345Y0175550D01*
X0177595Y0170550D02*
X0180095Y0168050D01*
X0180095Y0161141D01*
X0175095Y0161141D02*
X0175095Y0166800D01*
X0171345Y0170550D01*
X0171345Y0174300D01*
X0170095Y0166800D02*
X0163220Y0173675D01*
X0170095Y0166800D02*
X0170095Y0161141D01*
X0165095Y0161141D02*
X0165095Y0164300D01*
X0162595Y0164300D01*
X0150095Y0174300D01*
X0150095Y0181790D02*
X0151335Y0181790D01*
X0152595Y0183050D01*
X0047001Y0152236D02*
X0046001Y0153236D01*
X0049315Y0153236D01*
X0051657Y0150894D01*
X0051657Y0147580D01*
X0049315Y0145238D01*
X0046001Y0145238D01*
X0043659Y0147580D01*
X0043659Y0150894D01*
X0046001Y0153236D01*
X0046623Y0151736D01*
X0048693Y0151736D01*
X0050157Y0150272D01*
X0050157Y0148202D01*
X0048693Y0146738D01*
X0046623Y0146738D01*
X0045159Y0148202D01*
X0045159Y0150272D01*
X0046623Y0151736D01*
X0047244Y0150236D01*
X0048072Y0150236D01*
X0048657Y0149651D01*
X0048657Y0148823D01*
X0048072Y0148238D01*
X0047244Y0148238D01*
X0046659Y0148823D01*
X0046659Y0149651D01*
X0047244Y0150236D01*
X0110120Y0061775D02*
X0116958Y0056162D01*
X0112595Y0051800D01*
X0110120Y0050575D01*
X0111345Y0053050D01*
X0114458Y0056162D01*
X0111345Y0058050D01*
X0110120Y0061775D01*
X0111345Y0058050D02*
X0110120Y0056162D01*
X0110120Y0050575D01*
X0110120Y0056162D02*
X0114458Y0056162D01*
X0116958Y0056162D01*
X0119458Y0056162D01*
X0123835Y0060540D01*
D27*
X0155095Y0081219D03*
X0151355Y0089881D03*
X0158835Y0089881D03*
D28*
X0161345Y0099300D03*
X0170095Y0100550D03*
X0170095Y0094300D03*
X0180095Y0083050D03*
X0180095Y0074300D03*
X0171345Y0080550D03*
X0185095Y0093050D03*
X0185095Y0099300D03*
X0190733Y0086800D03*
X0195095Y0075550D03*
X0208845Y0086800D03*
X0208845Y0096800D03*
X0225095Y0088050D03*
X0245095Y0086800D03*
X0243845Y0069300D03*
X0271470Y0064775D03*
X0265095Y0045550D03*
X0241345Y0044300D03*
X0215095Y0050550D03*
X0208845Y0039300D03*
X0178845Y0056800D03*
X0170095Y0065550D03*
X0157595Y0046800D03*
X0122595Y0050575D03*
X0122595Y0056187D03*
X0122595Y0061800D03*
X0116408Y0061825D03*
X0116408Y0056312D03*
X0116408Y0050800D03*
X0110120Y0050575D03*
X0110120Y0056162D03*
X0110120Y0061775D03*
X0145095Y0090550D03*
X0177595Y0170550D03*
X0171345Y0174300D03*
X0163220Y0173675D03*
X0195095Y0168050D03*
X0208845Y0179300D03*
X0200095Y0188050D03*
X0222595Y0176800D03*
X0222595Y0210550D03*
X0123845Y0176800D03*
X0111345Y0176800D03*
X0285095Y0088050D03*
X0287595Y0098050D03*
X0335095Y0135550D03*
X0343845Y0065550D03*
X0292595Y0025550D03*
X0281345Y0025550D03*
D29*
X0254332Y0038025D02*
X0253845Y0036926D01*
X0254332Y0038025D02*
X0234994Y0038025D01*
X0253845Y0047949D02*
X0253845Y0056800D01*
X0250095Y0086800D02*
X0245095Y0086800D01*
X0208845Y0086800D02*
X0208845Y0096800D01*
X0185095Y0099300D02*
X0185095Y0093050D01*
X0170095Y0094300D02*
X0170095Y0100550D01*
X0161345Y0060540D02*
X0146335Y0060540D01*
X0142595Y0056800D01*
X0122595Y0056800D01*
X0122595Y0061800D01*
X0075095Y0084300D02*
X0075095Y0094300D01*
X0072595Y0096800D01*
X0072595Y0188050D01*
X0093845Y0209300D01*
X0116345Y0209300D01*
X0125095Y0218050D01*
X0205095Y0218050D01*
X0212595Y0225550D01*
X0212595Y0234300D01*
X0187595Y0198050D02*
X0187595Y0190550D01*
X0190095Y0188050D01*
X0190095Y0174300D01*
X0181345Y0175550D02*
X0167595Y0189300D01*
X0167595Y0198050D01*
X0153845Y0183050D02*
X0152595Y0183050D01*
X0133845Y0183050D01*
X0127595Y0189300D01*
X0116345Y0189300D01*
X0153845Y0183050D02*
X0163220Y0173675D01*
X0113688Y0225393D02*
X0107595Y0219300D01*
X0090095Y0219300D01*
X0060095Y0189300D01*
X0056345Y0189300D01*
X0113688Y0225393D02*
X0113688Y0234300D01*
D30*
X0031395Y0220687D02*
X0031395Y0032913D01*
X0032236Y0034296D01*
X0032236Y0034296D01*
X0036177Y0037976D01*
X0036177Y0037976D01*
X0040965Y0040457D01*
X0040965Y0040457D01*
X0046244Y0041554D01*
X0046244Y0041554D01*
X0051624Y0041186D01*
X0051624Y0041186D01*
X0056704Y0039380D01*
X0056704Y0039380D01*
X0061110Y0036271D01*
X0061110Y0036271D01*
X0061110Y0036271D01*
X0064513Y0032088D01*
X0064513Y0032088D01*
X0066661Y0027142D01*
X0066661Y0027142D01*
X0067395Y0021800D01*
X0066661Y0016458D01*
X0066661Y0016458D01*
X0064513Y0011512D01*
X0064513Y0011512D01*
X0061110Y0007329D01*
X0061110Y0007329D01*
X0061110Y0007329D01*
X0058660Y0005600D01*
X0326223Y0005600D01*
X0326177Y0005624D01*
X0326177Y0005624D01*
X0322236Y0009304D01*
X0322236Y0009304D01*
X0322236Y0009304D01*
X0319434Y0013912D01*
X0319434Y0013912D01*
X0317980Y0019104D01*
X0317980Y0024496D01*
X0319434Y0029688D01*
X0319434Y0029688D01*
X0322236Y0034296D01*
X0322236Y0034296D01*
X0326177Y0037976D01*
X0326177Y0037976D01*
X0330965Y0040457D01*
X0330965Y0040457D01*
X0336244Y0041554D01*
X0336244Y0041554D01*
X0341624Y0041186D01*
X0341624Y0041186D01*
X0346704Y0039380D01*
X0346704Y0039380D01*
X0351110Y0036271D01*
X0351110Y0036271D01*
X0353795Y0032970D01*
X0353795Y0220630D01*
X0351110Y0217329D01*
X0351110Y0217329D01*
X0351110Y0217329D01*
X0350114Y0216626D01*
X0351185Y0216183D01*
X0352254Y0215114D01*
X0352832Y0213717D01*
X0352832Y0205906D01*
X0352254Y0204510D01*
X0352044Y0204300D01*
X0352254Y0204090D01*
X0352832Y0202694D01*
X0352832Y0194883D01*
X0352254Y0193486D01*
X0351185Y0192417D01*
X0349895Y0191883D01*
X0349895Y0125845D01*
X0349164Y0124081D01*
X0347814Y0122731D01*
X0340633Y0115550D01*
X0347914Y0108269D01*
X0348645Y0106505D01*
X0348645Y0069660D01*
X0349186Y0069119D01*
X0350145Y0066803D01*
X0350145Y0064297D01*
X0349186Y0061981D01*
X0347414Y0060209D01*
X0345098Y0059250D01*
X0342592Y0059250D01*
X0340276Y0060209D01*
X0338504Y0061981D01*
X0337545Y0064297D01*
X0337545Y0066803D01*
X0338504Y0069119D01*
X0339045Y0069660D01*
X0339045Y0103562D01*
X0334395Y0108212D01*
X0334395Y0107733D01*
X0332212Y0105550D01*
X0334395Y0103367D01*
X0334395Y0097733D01*
X0330412Y0093750D01*
X0324778Y0093750D01*
X0322595Y0095933D01*
X0320412Y0093750D01*
X0314778Y0093750D01*
X0310795Y0097733D01*
X0310795Y0103367D01*
X0312978Y0105550D01*
X0310795Y0107733D01*
X0310795Y0113367D01*
X0312978Y0115550D01*
X0312778Y0115750D01*
X0312083Y0115750D01*
X0293895Y0097562D01*
X0293895Y0096797D01*
X0292936Y0094481D01*
X0291164Y0092709D01*
X0288848Y0091750D01*
X0286342Y0091750D01*
X0284026Y0092709D01*
X0282254Y0094481D01*
X0281295Y0096797D01*
X0281295Y0099303D01*
X0281613Y0100071D01*
X0281507Y0100048D01*
X0281206Y0099897D01*
X0280621Y0099855D01*
X0280049Y0099731D01*
X0279717Y0099791D01*
X0279356Y0099765D01*
X0279199Y0099700D01*
X0278448Y0099700D01*
X0277700Y0099646D01*
X0277539Y0099700D01*
X0232652Y0099700D01*
X0232491Y0099646D01*
X0231742Y0099700D01*
X0230991Y0099700D01*
X0230834Y0099765D01*
X0230473Y0099791D01*
X0230142Y0099731D01*
X0229569Y0099855D01*
X0228984Y0099897D01*
X0228683Y0100048D01*
X0228165Y0100161D01*
X0227828Y0100149D01*
X0227279Y0100353D01*
X0226707Y0100478D01*
X0226430Y0100670D01*
X0225934Y0100855D01*
X0225598Y0100892D01*
X0225084Y0101172D01*
X0224535Y0101377D01*
X0224288Y0101607D01*
X0223823Y0101861D01*
X0223496Y0101944D01*
X0223027Y0102295D01*
X0222513Y0102576D01*
X0222301Y0102839D01*
X0221877Y0103156D01*
X0221566Y0103285D01*
X0221152Y0103700D01*
X0220682Y0104051D01*
X0220510Y0104341D01*
X0220136Y0104715D01*
X0219846Y0104887D01*
X0219495Y0105356D01*
X0219080Y0105771D01*
X0218951Y0106082D01*
X0218634Y0106506D01*
X0218371Y0106718D01*
X0218090Y0107232D01*
X0217739Y0107701D01*
X0217656Y0108028D01*
X0217402Y0108493D01*
X0217172Y0108740D01*
X0216967Y0109289D01*
X0216687Y0109803D01*
X0216651Y0110138D01*
X0216466Y0110635D01*
X0216273Y0110912D01*
X0216149Y0111484D01*
X0215944Y0112033D01*
X0215956Y0112370D01*
X0215843Y0112888D01*
X0215692Y0113189D01*
X0215651Y0113774D01*
X0215526Y0114346D01*
X0215576Y0114621D01*
X0214914Y0113959D01*
X0214883Y0113946D01*
X0214858Y0113922D01*
X0213726Y0113467D01*
X0212598Y0113000D01*
X0212564Y0113000D01*
X0212533Y0112987D01*
X0211313Y0113000D01*
X0210092Y0113000D01*
X0210076Y0113007D01*
X0210076Y0106107D01*
X0211564Y0104619D01*
X0212914Y0103269D01*
X0213645Y0101505D01*
X0213645Y0100910D01*
X0214186Y0100369D01*
X0215145Y0098053D01*
X0215145Y0094888D01*
X0216026Y0095769D01*
X0217376Y0097119D01*
X0219140Y0097850D01*
X0229800Y0097850D01*
X0231564Y0097119D01*
X0232914Y0095769D01*
X0232914Y0095769D01*
X0234064Y0094619D01*
X0234064Y0094619D01*
X0235414Y0093269D01*
X0236145Y0091505D01*
X0236145Y0091489D01*
X0236414Y0091600D01*
X0240986Y0091600D01*
X0241526Y0092141D01*
X0243842Y0093100D01*
X0244401Y0093100D01*
X0244500Y0093339D01*
X0246357Y0095195D01*
X0248782Y0096200D01*
X0251408Y0096200D01*
X0253834Y0095195D01*
X0255690Y0093339D01*
X0256695Y0090913D01*
X0256695Y0082687D01*
X0255690Y0080261D01*
X0253834Y0078405D01*
X0251408Y0077400D01*
X0250033Y0077400D01*
X0255833Y0071600D01*
X0259800Y0071600D01*
X0261564Y0070869D01*
X0262914Y0069519D01*
X0263845Y0068588D01*
X0264101Y0068844D01*
X0265865Y0069575D01*
X0267361Y0069575D01*
X0267901Y0070116D01*
X0270217Y0071075D01*
X0272723Y0071075D01*
X0275039Y0070116D01*
X0276811Y0068344D01*
X0277770Y0066028D01*
X0277770Y0063522D01*
X0276811Y0061206D01*
X0275039Y0059434D01*
X0272723Y0058475D01*
X0270645Y0058475D01*
X0270645Y0053983D01*
X0266662Y0050000D01*
X0261582Y0050000D01*
X0261582Y0044044D01*
X0261004Y0042647D01*
X0260794Y0042437D01*
X0261004Y0042228D01*
X0261582Y0040831D01*
X0261582Y0035350D01*
X0288550Y0035350D01*
X0290314Y0034619D01*
X0293083Y0031850D01*
X0293848Y0031850D01*
X0296164Y0030891D01*
X0297936Y0029119D01*
X0298895Y0026803D01*
X0298895Y0024297D01*
X0297936Y0021981D01*
X0296164Y0020209D01*
X0293848Y0019250D01*
X0291342Y0019250D01*
X0289026Y0020209D01*
X0287254Y0021981D01*
X0286970Y0022667D01*
X0286686Y0021981D01*
X0284914Y0020209D01*
X0282598Y0019250D01*
X0280092Y0019250D01*
X0277776Y0020209D01*
X0277236Y0020750D01*
X0174140Y0020750D01*
X0172376Y0021481D01*
X0171026Y0022831D01*
X0163526Y0030331D01*
X0162795Y0032095D01*
X0162795Y0047755D01*
X0163526Y0049519D01*
X0164876Y0050869D01*
X0166545Y0052538D01*
X0166545Y0054854D01*
X0166450Y0054760D01*
X0165054Y0054181D01*
X0157637Y0054181D01*
X0157494Y0054240D01*
X0148945Y0054240D01*
X0146164Y0051459D01*
X0143848Y0050500D01*
X0129433Y0050500D01*
X0129464Y0050393D01*
X0129395Y0049784D01*
X0129395Y0049170D01*
X0129377Y0049126D01*
X0129386Y0048967D01*
X0129264Y0048617D01*
X0129222Y0048249D01*
X0129052Y0047941D01*
X0128993Y0047594D01*
X0128796Y0047280D01*
X0128673Y0046930D01*
X0128439Y0046667D01*
X0128304Y0046342D01*
X0128042Y0046080D01*
X0127845Y0045766D01*
X0127558Y0045562D01*
X0127354Y0045275D01*
X0127040Y0045078D01*
X0126778Y0044816D01*
X0126453Y0044681D01*
X0126190Y0044447D01*
X0125840Y0044324D01*
X0125526Y0044127D01*
X0125180Y0044068D01*
X0124872Y0043898D01*
X0124503Y0043856D01*
X0124153Y0043734D01*
X0123994Y0043743D01*
X0123950Y0043725D01*
X0123337Y0043725D01*
X0122727Y0043656D01*
X0122488Y0043725D01*
X0110202Y0043725D01*
X0109964Y0043656D01*
X0109354Y0043725D01*
X0108740Y0043725D01*
X0108697Y0043743D01*
X0108537Y0043734D01*
X0108187Y0043856D01*
X0107819Y0043898D01*
X0107511Y0044068D01*
X0107164Y0044127D01*
X0106850Y0044324D01*
X0106500Y0044447D01*
X0106237Y0044681D01*
X0105912Y0044816D01*
X0105650Y0045078D01*
X0105336Y0045275D01*
X0105133Y0045562D01*
X0104846Y0045766D01*
X0104648Y0046080D01*
X0104386Y0046342D01*
X0104251Y0046667D01*
X0104017Y0046930D01*
X0103895Y0047280D01*
X0103697Y0047594D01*
X0103638Y0047941D01*
X0103468Y0048249D01*
X0103427Y0048617D01*
X0103304Y0048967D01*
X0103313Y0049126D01*
X0103295Y0049170D01*
X0103295Y0049784D01*
X0103226Y0050393D01*
X0103295Y0050632D01*
X0103295Y0052967D01*
X0098343Y0057919D01*
X0096852Y0059410D01*
X0096045Y0061358D01*
X0096045Y0078355D01*
X0081395Y0093005D01*
X0081395Y0090763D01*
X0082145Y0088952D01*
X0082145Y0079648D01*
X0081072Y0077056D01*
X0079089Y0075073D01*
X0076497Y0074000D01*
X0073693Y0074000D01*
X0071102Y0075073D01*
X0069118Y0077056D01*
X0068045Y0079648D01*
X0068045Y0088952D01*
X0068795Y0090763D01*
X0068795Y0091690D01*
X0067254Y0093231D01*
X0066295Y0095547D01*
X0066295Y0127432D01*
X0063551Y0126295D01*
X0060050Y0126295D01*
X0056815Y0127635D01*
X0054340Y0130110D01*
X0053000Y0133345D01*
X0053000Y0136845D01*
X0054340Y0140080D01*
X0056815Y0142555D01*
X0060050Y0143895D01*
X0063551Y0143895D01*
X0066295Y0142758D01*
X0066295Y0183193D01*
X0065429Y0182327D01*
X0062406Y0181075D01*
X0050284Y0181075D01*
X0047261Y0182327D01*
X0044947Y0184641D01*
X0043695Y0187664D01*
X0043695Y0190936D01*
X0044947Y0193959D01*
X0047261Y0196273D01*
X0050284Y0197525D01*
X0059411Y0197525D01*
X0084754Y0222869D01*
X0086526Y0224641D01*
X0088842Y0225600D01*
X0104986Y0225600D01*
X0107048Y0227663D01*
X0106363Y0229318D01*
X0106363Y0239282D01*
X0107478Y0241974D01*
X0109538Y0244035D01*
X0112231Y0245150D01*
X0115145Y0245150D01*
X0117837Y0244035D01*
X0119897Y0241974D01*
X0121013Y0239282D01*
X0121013Y0229318D01*
X0119988Y0226843D01*
X0119988Y0224139D01*
X0119029Y0221824D01*
X0117256Y0220052D01*
X0112805Y0215600D01*
X0113736Y0215600D01*
X0121526Y0223391D01*
X0123842Y0224350D01*
X0144470Y0224350D01*
X0143761Y0224644D01*
X0141700Y0226704D01*
X0140585Y0229397D01*
X0140585Y0239361D01*
X0141700Y0242053D01*
X0143761Y0244114D01*
X0146453Y0245229D01*
X0149367Y0245229D01*
X0152059Y0244114D01*
X0154120Y0242053D01*
X0155235Y0239361D01*
X0155235Y0229397D01*
X0154120Y0226704D01*
X0152059Y0224644D01*
X0151350Y0224350D01*
X0164155Y0224350D01*
X0163446Y0224644D01*
X0161385Y0226704D01*
X0160270Y0229397D01*
X0160270Y0239361D01*
X0161385Y0242053D01*
X0163446Y0244114D01*
X0166138Y0245229D01*
X0169052Y0245229D01*
X0171744Y0244114D01*
X0173805Y0242053D01*
X0174920Y0239361D01*
X0174920Y0229397D01*
X0173805Y0226704D01*
X0171744Y0224644D01*
X0171035Y0224350D01*
X0183840Y0224350D01*
X0183131Y0224644D01*
X0181070Y0226704D01*
X0179955Y0229397D01*
X0179955Y0239361D01*
X0181070Y0242053D01*
X0183131Y0244114D01*
X0185823Y0245229D01*
X0188737Y0245229D01*
X0191429Y0244114D01*
X0193490Y0242053D01*
X0194605Y0239361D01*
X0194605Y0229397D01*
X0193490Y0226704D01*
X0191429Y0224644D01*
X0190720Y0224350D01*
X0202486Y0224350D01*
X0206148Y0228012D01*
X0205495Y0229588D01*
X0205495Y0239012D01*
X0206576Y0241622D01*
X0208573Y0243619D01*
X0211183Y0244700D01*
X0214007Y0244700D01*
X0216617Y0243619D01*
X0218614Y0241622D01*
X0219695Y0239012D01*
X0219695Y0229588D01*
X0218895Y0227656D01*
X0218895Y0225595D01*
X0219593Y0226293D01*
X0221541Y0227100D01*
X0226526Y0227100D01*
X0225495Y0229588D01*
X0225495Y0239012D01*
X0226576Y0241622D01*
X0228573Y0243619D01*
X0231183Y0244700D01*
X0234007Y0244700D01*
X0236617Y0243619D01*
X0237595Y0242641D01*
X0238573Y0243619D01*
X0241183Y0244700D01*
X0244007Y0244700D01*
X0246617Y0243619D01*
X0247595Y0242641D01*
X0248573Y0243619D01*
X0251183Y0244700D01*
X0254007Y0244700D01*
X0256617Y0243619D01*
X0258614Y0241622D01*
X0259695Y0239012D01*
X0259695Y0229588D01*
X0258665Y0227100D01*
X0262925Y0227100D01*
X0265271Y0229446D01*
X0264545Y0231197D01*
X0264545Y0239903D01*
X0265580Y0242402D01*
X0267493Y0244315D01*
X0269993Y0245350D01*
X0272698Y0245350D01*
X0275197Y0244315D01*
X0277110Y0242402D01*
X0278145Y0239903D01*
X0278145Y0231197D01*
X0277427Y0229464D01*
X0278540Y0228350D01*
X0285929Y0228350D01*
X0285580Y0228698D01*
X0284545Y0231197D01*
X0284545Y0239903D01*
X0285580Y0242402D01*
X0287493Y0244315D01*
X0289993Y0245350D01*
X0292698Y0245350D01*
X0295197Y0244315D01*
X0296345Y0243167D01*
X0297493Y0244315D01*
X0299993Y0245350D01*
X0302698Y0245350D01*
X0305197Y0244315D01*
X0307110Y0242402D01*
X0308145Y0239903D01*
X0308145Y0231197D01*
X0307110Y0228698D01*
X0306762Y0228350D01*
X0309899Y0228350D01*
X0311847Y0227543D01*
X0322629Y0216761D01*
X0324959Y0216761D01*
X0322236Y0219304D01*
X0322236Y0219304D01*
X0319434Y0223912D01*
X0319434Y0223912D01*
X0317980Y0229104D01*
X0317980Y0234496D01*
X0319434Y0239688D01*
X0319434Y0239688D01*
X0322236Y0244296D01*
X0322236Y0244296D01*
X0326177Y0247976D01*
X0326177Y0247976D01*
X0326223Y0248000D01*
X0058660Y0248000D01*
X0061110Y0246271D01*
X0061110Y0246271D01*
X0064513Y0242088D01*
X0064513Y0242088D01*
X0066661Y0237142D01*
X0066661Y0237142D01*
X0067395Y0231800D01*
X0066661Y0226458D01*
X0066661Y0226458D01*
X0064513Y0221512D01*
X0064513Y0221512D01*
X0061110Y0217329D01*
X0061110Y0217329D01*
X0061110Y0217329D01*
X0056704Y0214220D01*
X0051624Y0212414D01*
X0046244Y0212046D01*
X0040965Y0213143D01*
X0036177Y0215624D01*
X0036177Y0215624D01*
X0032236Y0219304D01*
X0032236Y0219304D01*
X0032236Y0219304D01*
X0031395Y0220687D01*
X0031395Y0219198D02*
X0032351Y0219198D01*
X0031395Y0217599D02*
X0034062Y0217599D01*
X0035774Y0216001D02*
X0031395Y0216001D01*
X0031395Y0214402D02*
X0038535Y0214402D01*
X0042599Y0212803D02*
X0031395Y0212803D01*
X0031395Y0211205D02*
X0073091Y0211205D01*
X0074689Y0212803D02*
X0052719Y0212803D01*
X0056962Y0214402D02*
X0076288Y0214402D01*
X0077886Y0216001D02*
X0059227Y0216001D01*
X0061329Y0217599D02*
X0079485Y0217599D01*
X0081083Y0219198D02*
X0062629Y0219198D01*
X0063930Y0220796D02*
X0082682Y0220796D01*
X0084280Y0222395D02*
X0064896Y0222395D01*
X0065590Y0223993D02*
X0085879Y0223993D01*
X0088822Y0225592D02*
X0066285Y0225592D01*
X0066762Y0227190D02*
X0106576Y0227190D01*
X0106582Y0228789D02*
X0066981Y0228789D01*
X0067201Y0230387D02*
X0106363Y0230387D01*
X0106363Y0231986D02*
X0067370Y0231986D01*
X0067150Y0233584D02*
X0106363Y0233584D01*
X0106363Y0235183D02*
X0066930Y0235183D01*
X0066710Y0236781D02*
X0106363Y0236781D01*
X0106363Y0238380D02*
X0066123Y0238380D01*
X0065429Y0239978D02*
X0106651Y0239978D01*
X0107313Y0241577D02*
X0064735Y0241577D01*
X0063628Y0243175D02*
X0108679Y0243175D01*
X0111322Y0244774D02*
X0062327Y0244774D01*
X0060966Y0246372D02*
X0324460Y0246372D01*
X0326171Y0247971D02*
X0058701Y0247971D01*
X0071492Y0209606D02*
X0031395Y0209606D01*
X0031395Y0208008D02*
X0069894Y0208008D01*
X0068295Y0206409D02*
X0031395Y0206409D01*
X0031395Y0204811D02*
X0066697Y0204811D01*
X0065098Y0203212D02*
X0031395Y0203212D01*
X0031395Y0201614D02*
X0063500Y0201614D01*
X0061901Y0200015D02*
X0031395Y0200015D01*
X0031395Y0198417D02*
X0060303Y0198417D01*
X0048578Y0196818D02*
X0031395Y0196818D01*
X0031395Y0195220D02*
X0046208Y0195220D01*
X0044807Y0193621D02*
X0031395Y0193621D01*
X0031395Y0192023D02*
X0044145Y0192023D01*
X0043695Y0190424D02*
X0031395Y0190424D01*
X0031395Y0188826D02*
X0043695Y0188826D01*
X0043876Y0187227D02*
X0031395Y0187227D01*
X0031395Y0185629D02*
X0044538Y0185629D01*
X0045558Y0184030D02*
X0031395Y0184030D01*
X0031395Y0182432D02*
X0047156Y0182432D01*
X0031395Y0180833D02*
X0066295Y0180833D01*
X0066295Y0179235D02*
X0031395Y0179235D01*
X0031395Y0177636D02*
X0066295Y0177636D01*
X0066295Y0176038D02*
X0031395Y0176038D01*
X0031395Y0174439D02*
X0066295Y0174439D01*
X0066295Y0172841D02*
X0031395Y0172841D01*
X0031395Y0171242D02*
X0066295Y0171242D01*
X0066295Y0169644D02*
X0031395Y0169644D01*
X0031395Y0168045D02*
X0066295Y0168045D01*
X0066295Y0166447D02*
X0031395Y0166447D01*
X0031395Y0164848D02*
X0066295Y0164848D01*
X0066295Y0163250D02*
X0031395Y0163250D01*
X0031395Y0161651D02*
X0066295Y0161651D01*
X0066295Y0160053D02*
X0031395Y0160053D01*
X0031395Y0158454D02*
X0066295Y0158454D01*
X0066295Y0156856D02*
X0031395Y0156856D01*
X0031395Y0155257D02*
X0066295Y0155257D01*
X0066295Y0153659D02*
X0031395Y0153659D01*
X0031395Y0152060D02*
X0066295Y0152060D01*
X0066295Y0150462D02*
X0031395Y0150462D01*
X0031395Y0148863D02*
X0066295Y0148863D01*
X0066295Y0147265D02*
X0031395Y0147265D01*
X0031395Y0145666D02*
X0066295Y0145666D01*
X0066295Y0144068D02*
X0031395Y0144068D01*
X0031395Y0142469D02*
X0056729Y0142469D01*
X0055130Y0140870D02*
X0031395Y0140870D01*
X0031395Y0139272D02*
X0054005Y0139272D01*
X0053343Y0137673D02*
X0031395Y0137673D01*
X0031395Y0136075D02*
X0053000Y0136075D01*
X0053000Y0134476D02*
X0031395Y0134476D01*
X0031395Y0132878D02*
X0053193Y0132878D01*
X0053855Y0131279D02*
X0031395Y0131279D01*
X0031395Y0129681D02*
X0054769Y0129681D01*
X0056368Y0128082D02*
X0031395Y0128082D01*
X0031395Y0126484D02*
X0059594Y0126484D01*
X0064006Y0126484D02*
X0066295Y0126484D01*
X0066295Y0124885D02*
X0031395Y0124885D01*
X0031395Y0123287D02*
X0066295Y0123287D01*
X0066295Y0121688D02*
X0031395Y0121688D01*
X0031395Y0120090D02*
X0066295Y0120090D01*
X0066295Y0118491D02*
X0031395Y0118491D01*
X0031395Y0116893D02*
X0066295Y0116893D01*
X0066295Y0115294D02*
X0031395Y0115294D01*
X0031395Y0113696D02*
X0066295Y0113696D01*
X0066295Y0112097D02*
X0031395Y0112097D01*
X0031395Y0110499D02*
X0066295Y0110499D01*
X0066295Y0108900D02*
X0031395Y0108900D01*
X0031395Y0107302D02*
X0066295Y0107302D01*
X0066295Y0105703D02*
X0031395Y0105703D01*
X0031395Y0104105D02*
X0066295Y0104105D01*
X0066295Y0102506D02*
X0031395Y0102506D01*
X0031395Y0100908D02*
X0066295Y0100908D01*
X0066295Y0099309D02*
X0031395Y0099309D01*
X0031395Y0097711D02*
X0066295Y0097711D01*
X0066295Y0096112D02*
X0031395Y0096112D01*
X0031395Y0094514D02*
X0053484Y0094514D01*
X0053693Y0094600D02*
X0051102Y0093527D01*
X0049118Y0091543D01*
X0048045Y0088952D01*
X0048045Y0079648D01*
X0049118Y0077056D01*
X0051102Y0075073D01*
X0053693Y0074000D01*
X0056497Y0074000D01*
X0059089Y0075073D01*
X0061072Y0077056D01*
X0062145Y0079648D01*
X0062145Y0088952D01*
X0061072Y0091543D01*
X0059089Y0093527D01*
X0056497Y0094600D01*
X0053693Y0094600D01*
X0056706Y0094514D02*
X0066723Y0094514D01*
X0067570Y0092915D02*
X0059700Y0092915D01*
X0061166Y0091317D02*
X0068795Y0091317D01*
X0068362Y0089718D02*
X0061828Y0089718D01*
X0062145Y0088120D02*
X0068045Y0088120D01*
X0068045Y0086521D02*
X0062145Y0086521D01*
X0062145Y0084923D02*
X0068045Y0084923D01*
X0068045Y0083324D02*
X0062145Y0083324D01*
X0062145Y0081726D02*
X0068045Y0081726D01*
X0068045Y0080127D02*
X0062145Y0080127D01*
X0061682Y0078529D02*
X0068509Y0078529D01*
X0069245Y0076930D02*
X0060945Y0076930D01*
X0059347Y0075332D02*
X0070843Y0075332D01*
X0079347Y0075332D02*
X0096045Y0075332D01*
X0096045Y0076930D02*
X0080945Y0076930D01*
X0081682Y0078529D02*
X0095871Y0078529D01*
X0094273Y0080127D02*
X0082145Y0080127D01*
X0082145Y0081726D02*
X0092674Y0081726D01*
X0091076Y0083324D02*
X0082145Y0083324D01*
X0082145Y0084923D02*
X0089477Y0084923D01*
X0087879Y0086521D02*
X0082145Y0086521D01*
X0082145Y0088120D02*
X0086280Y0088120D01*
X0084682Y0089718D02*
X0081828Y0089718D01*
X0081395Y0091317D02*
X0083083Y0091317D01*
X0081485Y0092915D02*
X0081395Y0092915D01*
X0090750Y0105367D02*
X0092329Y0104778D01*
X0093975Y0104420D01*
X0095656Y0104300D01*
X0143284Y0104300D01*
X0144965Y0104420D01*
X0146612Y0104778D01*
X0148191Y0105367D01*
X0149670Y0106175D01*
X0151019Y0107185D01*
X0152210Y0108376D01*
X0153220Y0109726D01*
X0154028Y0111205D01*
X0154617Y0112783D01*
X0154975Y0114430D01*
X0155095Y0116111D01*
X0155095Y0126800D01*
X0158045Y0129750D01*
X0158045Y0141350D01*
X0155095Y0144300D01*
X0155095Y0154989D01*
X0154975Y0156670D01*
X0154617Y0158317D01*
X0154028Y0159895D01*
X0153220Y0161374D01*
X0152210Y0162724D01*
X0151019Y0163915D01*
X0149670Y0164925D01*
X0148191Y0165733D01*
X0146612Y0166322D01*
X0144965Y0166680D01*
X0143284Y0166800D01*
X0095656Y0166800D01*
X0093975Y0166680D01*
X0092329Y0166322D01*
X0090750Y0165733D01*
X0089271Y0164925D01*
X0087922Y0163915D01*
X0086730Y0162724D01*
X0085720Y0161374D01*
X0084912Y0159895D01*
X0084324Y0158317D01*
X0083965Y0156670D01*
X0083845Y0154989D01*
X0083845Y0116111D01*
X0083965Y0114430D01*
X0084324Y0112783D01*
X0084912Y0111205D01*
X0085720Y0109726D01*
X0086730Y0108376D01*
X0087922Y0107185D01*
X0089271Y0106175D01*
X0090750Y0105367D01*
X0090135Y0105703D02*
X0148806Y0105703D01*
X0151136Y0107302D02*
X0087805Y0107302D01*
X0086338Y0108900D02*
X0152602Y0108900D01*
X0153642Y0110499D02*
X0085298Y0110499D01*
X0084580Y0112097D02*
X0154361Y0112097D01*
X0154815Y0113696D02*
X0084125Y0113696D01*
X0083904Y0115294D02*
X0155037Y0115294D01*
X0155095Y0116893D02*
X0083845Y0116893D01*
X0083845Y0118491D02*
X0155095Y0118491D01*
X0155095Y0120090D02*
X0083845Y0120090D01*
X0083845Y0121688D02*
X0155095Y0121688D01*
X0155095Y0123287D02*
X0083845Y0123287D01*
X0083845Y0124885D02*
X0155095Y0124885D01*
X0155095Y0126484D02*
X0083845Y0126484D01*
X0083845Y0128082D02*
X0156378Y0128082D01*
X0157976Y0129681D02*
X0083845Y0129681D01*
X0083845Y0131279D02*
X0158045Y0131279D01*
X0158045Y0132878D02*
X0083845Y0132878D01*
X0083845Y0134476D02*
X0158045Y0134476D01*
X0158045Y0136075D02*
X0083845Y0136075D01*
X0083845Y0137673D02*
X0158045Y0137673D01*
X0158045Y0139272D02*
X0083845Y0139272D01*
X0083845Y0140870D02*
X0158045Y0140870D01*
X0156926Y0142469D02*
X0083845Y0142469D01*
X0083845Y0144068D02*
X0155328Y0144068D01*
X0155095Y0145666D02*
X0083845Y0145666D01*
X0083845Y0147265D02*
X0155095Y0147265D01*
X0155095Y0148863D02*
X0083845Y0148863D01*
X0083845Y0150462D02*
X0155095Y0150462D01*
X0155095Y0152060D02*
X0083845Y0152060D01*
X0083845Y0153659D02*
X0155095Y0153659D01*
X0155076Y0155257D02*
X0083864Y0155257D01*
X0084006Y0156856D02*
X0154935Y0156856D01*
X0154565Y0158454D02*
X0084375Y0158454D01*
X0084998Y0160053D02*
X0153942Y0160053D01*
X0153013Y0161651D02*
X0085927Y0161651D01*
X0087256Y0163250D02*
X0151684Y0163250D01*
X0149772Y0164848D02*
X0089168Y0164848D01*
X0092904Y0166447D02*
X0146037Y0166447D01*
X0147911Y0170746D02*
X0148484Y0170622D01*
X0148761Y0170430D01*
X0149257Y0170245D01*
X0149592Y0170208D01*
X0150106Y0169928D01*
X0150655Y0169723D01*
X0150902Y0169493D01*
X0151367Y0169239D01*
X0151694Y0169156D01*
X0152163Y0168805D01*
X0152677Y0168524D01*
X0152889Y0168261D01*
X0153313Y0167944D01*
X0153624Y0167815D01*
X0154039Y0167400D01*
X0154508Y0167049D01*
X0154680Y0166759D01*
X0155054Y0166385D01*
X0155344Y0166213D01*
X0155696Y0165744D01*
X0156110Y0165329D01*
X0156239Y0165018D01*
X0156556Y0164594D01*
X0156819Y0164382D01*
X0157100Y0163868D01*
X0157451Y0163399D01*
X0157534Y0163072D01*
X0157788Y0162607D01*
X0158018Y0162360D01*
X0158223Y0161811D01*
X0158504Y0161297D01*
X0158540Y0160962D01*
X0158725Y0160465D01*
X0158917Y0160188D01*
X0159042Y0159616D01*
X0159246Y0159067D01*
X0159234Y0158730D01*
X0159347Y0158212D01*
X0159498Y0157911D01*
X0159501Y0157866D01*
X0160000Y0158081D01*
X0160048Y0158082D01*
X0160092Y0158100D01*
X0161299Y0158100D01*
X0165114Y0158156D01*
X0165114Y0164993D01*
X0162732Y0167375D01*
X0161967Y0167375D01*
X0159651Y0168334D01*
X0152554Y0175431D01*
X0146387Y0175431D01*
X0144990Y0176010D01*
X0144249Y0176750D01*
X0132592Y0176750D01*
X0130276Y0177709D01*
X0125544Y0182442D01*
X0125429Y0182327D01*
X0122406Y0181075D01*
X0110284Y0181075D01*
X0107261Y0182327D01*
X0104947Y0184641D01*
X0103695Y0187664D01*
X0103695Y0190936D01*
X0104947Y0193959D01*
X0107261Y0196273D01*
X0107810Y0196500D01*
X0103540Y0196500D01*
X0084145Y0177105D01*
X0084145Y0166644D01*
X0084260Y0166759D01*
X0084432Y0167049D01*
X0084902Y0167400D01*
X0085316Y0167815D01*
X0085627Y0167944D01*
X0086051Y0168261D01*
X0086263Y0168524D01*
X0086777Y0168805D01*
X0087246Y0169156D01*
X0087573Y0169239D01*
X0088038Y0169493D01*
X0088285Y0169723D01*
X0088834Y0169928D01*
X0089348Y0170208D01*
X0089684Y0170245D01*
X0090180Y0170430D01*
X0090457Y0170622D01*
X0091029Y0170746D01*
X0091578Y0170951D01*
X0091915Y0170939D01*
X0092433Y0171052D01*
X0092734Y0171203D01*
X0093319Y0171245D01*
X0093892Y0171369D01*
X0094223Y0171309D01*
X0094584Y0171335D01*
X0094741Y0171400D01*
X0095492Y0171400D01*
X0096241Y0171454D01*
X0096402Y0171400D01*
X0142539Y0171400D01*
X0142700Y0171454D01*
X0143448Y0171400D01*
X0144199Y0171400D01*
X0144356Y0171335D01*
X0144717Y0171309D01*
X0145049Y0171369D01*
X0145621Y0171245D01*
X0146206Y0171203D01*
X0146507Y0171052D01*
X0147025Y0170939D01*
X0147362Y0170951D01*
X0147911Y0170746D01*
X0145655Y0171242D02*
X0156743Y0171242D01*
X0155145Y0172841D02*
X0084145Y0172841D01*
X0084145Y0174439D02*
X0153546Y0174439D01*
X0150740Y0169644D02*
X0158342Y0169644D01*
X0160349Y0168045D02*
X0153177Y0168045D01*
X0154993Y0166447D02*
X0163660Y0166447D01*
X0165114Y0164848D02*
X0156366Y0164848D01*
X0157489Y0163250D02*
X0165114Y0163250D01*
X0165114Y0161651D02*
X0158310Y0161651D01*
X0158947Y0160053D02*
X0165114Y0160053D01*
X0165114Y0158454D02*
X0159294Y0158454D01*
X0144962Y0176038D02*
X0084145Y0176038D01*
X0084677Y0177636D02*
X0130452Y0177636D01*
X0128751Y0179235D02*
X0086275Y0179235D01*
X0087874Y0180833D02*
X0127152Y0180833D01*
X0125554Y0182432D02*
X0125534Y0182432D01*
X0107156Y0182432D02*
X0089472Y0182432D01*
X0091071Y0184030D02*
X0105558Y0184030D01*
X0104538Y0185629D02*
X0092669Y0185629D01*
X0094268Y0187227D02*
X0103876Y0187227D01*
X0103695Y0188826D02*
X0095866Y0188826D01*
X0097465Y0190424D02*
X0103695Y0190424D01*
X0104145Y0192023D02*
X0099063Y0192023D01*
X0100662Y0193621D02*
X0104807Y0193621D01*
X0106208Y0195220D02*
X0102260Y0195220D01*
X0113205Y0216001D02*
X0114136Y0216001D01*
X0114804Y0217599D02*
X0115735Y0217599D01*
X0116402Y0219198D02*
X0117333Y0219198D01*
X0118001Y0220796D02*
X0118932Y0220796D01*
X0119265Y0222395D02*
X0120530Y0222395D01*
X0119927Y0223993D02*
X0122980Y0223993D01*
X0119988Y0225592D02*
X0142813Y0225592D01*
X0141499Y0227190D02*
X0120131Y0227190D01*
X0120793Y0228789D02*
X0140837Y0228789D01*
X0140585Y0230387D02*
X0121013Y0230387D01*
X0121013Y0231986D02*
X0140585Y0231986D01*
X0140585Y0233584D02*
X0121013Y0233584D01*
X0121013Y0235183D02*
X0140585Y0235183D01*
X0140585Y0236781D02*
X0121013Y0236781D01*
X0121013Y0238380D02*
X0140585Y0238380D01*
X0140841Y0239978D02*
X0120724Y0239978D01*
X0120062Y0241577D02*
X0141503Y0241577D01*
X0142822Y0243175D02*
X0118697Y0243175D01*
X0116053Y0244774D02*
X0145355Y0244774D01*
X0150466Y0244774D02*
X0165040Y0244774D01*
X0162507Y0243175D02*
X0152998Y0243175D01*
X0154317Y0241577D02*
X0161188Y0241577D01*
X0160526Y0239978D02*
X0154979Y0239978D01*
X0155235Y0238380D02*
X0160270Y0238380D01*
X0160270Y0236781D02*
X0155235Y0236781D01*
X0155235Y0235183D02*
X0160270Y0235183D01*
X0160270Y0233584D02*
X0155235Y0233584D01*
X0155235Y0231986D02*
X0160270Y0231986D01*
X0160270Y0230387D02*
X0155235Y0230387D01*
X0154983Y0228789D02*
X0160522Y0228789D01*
X0161184Y0227190D02*
X0154321Y0227190D01*
X0153007Y0225592D02*
X0162498Y0225592D01*
X0172692Y0225592D02*
X0182183Y0225592D01*
X0180869Y0227190D02*
X0174006Y0227190D01*
X0174668Y0228789D02*
X0180207Y0228789D01*
X0179955Y0230387D02*
X0174920Y0230387D01*
X0174920Y0231986D02*
X0179955Y0231986D01*
X0179955Y0233584D02*
X0174920Y0233584D01*
X0174920Y0235183D02*
X0179955Y0235183D01*
X0179955Y0236781D02*
X0174920Y0236781D01*
X0174920Y0238380D02*
X0179955Y0238380D01*
X0180211Y0239978D02*
X0174664Y0239978D01*
X0174002Y0241577D02*
X0180873Y0241577D01*
X0182193Y0243175D02*
X0172683Y0243175D01*
X0170151Y0244774D02*
X0184725Y0244774D01*
X0189836Y0244774D02*
X0268601Y0244774D01*
X0266354Y0243175D02*
X0257061Y0243175D01*
X0258633Y0241577D02*
X0265239Y0241577D01*
X0264576Y0239978D02*
X0259295Y0239978D01*
X0259695Y0238380D02*
X0264545Y0238380D01*
X0264545Y0236781D02*
X0259695Y0236781D01*
X0259695Y0235183D02*
X0264545Y0235183D01*
X0264545Y0233584D02*
X0259695Y0233584D01*
X0259695Y0231986D02*
X0264545Y0231986D01*
X0264881Y0230387D02*
X0259695Y0230387D01*
X0259364Y0228789D02*
X0264613Y0228789D01*
X0263015Y0227190D02*
X0258702Y0227190D01*
X0248129Y0243175D02*
X0247061Y0243175D01*
X0238129Y0243175D02*
X0237061Y0243175D01*
X0228129Y0243175D02*
X0217061Y0243175D01*
X0218633Y0241577D02*
X0226557Y0241577D01*
X0225895Y0239978D02*
X0219295Y0239978D01*
X0219695Y0238380D02*
X0225495Y0238380D01*
X0225495Y0236781D02*
X0219695Y0236781D01*
X0219695Y0235183D02*
X0225495Y0235183D01*
X0225495Y0233584D02*
X0219695Y0233584D01*
X0219695Y0231986D02*
X0225495Y0231986D01*
X0225495Y0230387D02*
X0219695Y0230387D01*
X0219364Y0228789D02*
X0225826Y0228789D01*
X0226488Y0227190D02*
X0218895Y0227190D01*
X0224790Y0216500D02*
X0227179Y0216500D01*
X0226830Y0216152D01*
X0225795Y0213653D01*
X0225795Y0204947D01*
X0226830Y0202448D01*
X0227795Y0201483D01*
X0227795Y0200845D01*
X0228526Y0199081D01*
X0229876Y0197731D01*
X0238626Y0188981D01*
X0240390Y0188250D01*
X0271857Y0188250D01*
X0290295Y0169812D01*
X0290295Y0166242D01*
X0290054Y0166385D01*
X0289680Y0166759D01*
X0289508Y0167049D01*
X0289039Y0167400D01*
X0288624Y0167815D01*
X0288313Y0167944D01*
X0287889Y0168261D01*
X0287677Y0168524D01*
X0287163Y0168805D01*
X0286694Y0169156D01*
X0286367Y0169239D01*
X0285902Y0169493D01*
X0285655Y0169723D01*
X0285106Y0169928D01*
X0284592Y0170208D01*
X0284257Y0170245D01*
X0283761Y0170430D01*
X0283484Y0170622D01*
X0282911Y0170746D01*
X0282362Y0170951D01*
X0282025Y0170939D01*
X0281507Y0171052D01*
X0281206Y0171203D01*
X0280621Y0171245D01*
X0280049Y0171369D01*
X0279717Y0171309D01*
X0279356Y0171335D01*
X0279199Y0171400D01*
X0278448Y0171400D01*
X0277700Y0171454D01*
X0277539Y0171400D01*
X0232652Y0171400D01*
X0232491Y0171454D01*
X0231742Y0171400D01*
X0230991Y0171400D01*
X0230834Y0171335D01*
X0230473Y0171309D01*
X0230142Y0171369D01*
X0229569Y0171245D01*
X0228984Y0171203D01*
X0228683Y0171052D01*
X0228165Y0170939D01*
X0227828Y0170951D01*
X0227279Y0170746D01*
X0226707Y0170622D01*
X0226430Y0170430D01*
X0225934Y0170245D01*
X0225598Y0170208D01*
X0225084Y0169928D01*
X0224535Y0169723D01*
X0224288Y0169493D01*
X0223823Y0169239D01*
X0223496Y0169156D01*
X0223027Y0168805D01*
X0222513Y0168524D01*
X0222301Y0168261D01*
X0221877Y0167944D01*
X0221566Y0167815D01*
X0221152Y0167400D01*
X0220682Y0167049D01*
X0220510Y0166759D01*
X0220136Y0166385D01*
X0219846Y0166213D01*
X0219495Y0165744D01*
X0219080Y0165329D01*
X0218951Y0165018D01*
X0218634Y0164594D01*
X0218371Y0164382D01*
X0218090Y0163868D01*
X0217739Y0163399D01*
X0217656Y0163072D01*
X0217402Y0162607D01*
X0217172Y0162360D01*
X0216967Y0161811D01*
X0216687Y0161297D01*
X0216651Y0160962D01*
X0216466Y0160465D01*
X0216273Y0160188D01*
X0216149Y0159616D01*
X0215944Y0159067D01*
X0215956Y0158730D01*
X0215843Y0158212D01*
X0215692Y0157911D01*
X0215651Y0157326D01*
X0215617Y0157170D01*
X0214914Y0157873D01*
X0214870Y0157891D01*
X0214835Y0157925D01*
X0213713Y0158370D01*
X0212598Y0158832D01*
X0212550Y0158832D01*
X0212506Y0158850D01*
X0211299Y0158832D01*
X0210092Y0158832D01*
X0210076Y0158826D01*
X0210076Y0166227D01*
X0209895Y0166664D01*
X0209895Y0173000D01*
X0210098Y0173000D01*
X0212414Y0173959D01*
X0214186Y0175731D01*
X0215145Y0178047D01*
X0215145Y0180553D01*
X0214186Y0182869D01*
X0212414Y0184641D01*
X0210098Y0185600D01*
X0207592Y0185600D01*
X0205549Y0184754D01*
X0206395Y0186797D01*
X0206395Y0189303D01*
X0205436Y0191619D01*
X0203664Y0193391D01*
X0201348Y0194350D01*
X0198842Y0194350D01*
X0196526Y0193391D01*
X0195095Y0191960D01*
X0194091Y0192964D01*
X0194395Y0193697D01*
X0194395Y0202403D01*
X0193733Y0204000D01*
X0211149Y0204000D01*
X0213097Y0204807D01*
X0214588Y0206298D01*
X0224790Y0216500D01*
X0224291Y0216001D02*
X0226768Y0216001D01*
X0226106Y0214402D02*
X0222692Y0214402D01*
X0221094Y0212803D02*
X0225795Y0212803D01*
X0225795Y0211205D02*
X0219495Y0211205D01*
X0217897Y0209606D02*
X0225795Y0209606D01*
X0225795Y0208008D02*
X0216298Y0208008D01*
X0214700Y0206409D02*
X0225795Y0206409D01*
X0225852Y0204811D02*
X0213101Y0204811D01*
X0226514Y0203212D02*
X0194060Y0203212D01*
X0194395Y0201614D02*
X0227665Y0201614D01*
X0228139Y0200015D02*
X0194395Y0200015D01*
X0194395Y0198417D02*
X0229190Y0198417D01*
X0230789Y0196818D02*
X0194395Y0196818D01*
X0194395Y0195220D02*
X0232387Y0195220D01*
X0233986Y0193621D02*
X0203107Y0193621D01*
X0205032Y0192023D02*
X0235584Y0192023D01*
X0237183Y0190424D02*
X0205931Y0190424D01*
X0206395Y0188826D02*
X0239000Y0188826D01*
X0229536Y0171242D02*
X0209895Y0171242D01*
X0209895Y0169644D02*
X0224450Y0169644D01*
X0222013Y0168045D02*
X0209895Y0168045D01*
X0209985Y0166447D02*
X0220198Y0166447D01*
X0218824Y0164848D02*
X0210076Y0164848D01*
X0210076Y0163250D02*
X0217701Y0163250D01*
X0216880Y0161651D02*
X0210076Y0161651D01*
X0210076Y0160053D02*
X0216244Y0160053D01*
X0215896Y0158454D02*
X0213511Y0158454D01*
X0220256Y0156856D02*
X0289935Y0156856D01*
X0289975Y0156670D02*
X0290095Y0154989D01*
X0290095Y0116111D01*
X0289975Y0114430D01*
X0289617Y0112783D01*
X0289028Y0111205D01*
X0288220Y0109726D01*
X0287210Y0108376D01*
X0286019Y0107185D01*
X0284670Y0106175D01*
X0283191Y0105367D01*
X0281612Y0104778D01*
X0279965Y0104420D01*
X0278284Y0104300D01*
X0231906Y0104300D01*
X0230225Y0104420D01*
X0228579Y0104778D01*
X0227000Y0105367D01*
X0225521Y0106175D01*
X0224172Y0107185D01*
X0222980Y0108376D01*
X0221970Y0109726D01*
X0221162Y0111205D01*
X0220574Y0112783D01*
X0220215Y0114430D01*
X0220095Y0116111D01*
X0220095Y0126800D01*
X0216345Y0130550D01*
X0216345Y0140550D01*
X0220095Y0144300D01*
X0220095Y0154989D01*
X0220215Y0156670D01*
X0220574Y0158317D01*
X0221162Y0159895D01*
X0221970Y0161374D01*
X0222980Y0162724D01*
X0224172Y0163915D01*
X0225521Y0164925D01*
X0227000Y0165733D01*
X0228579Y0166322D01*
X0230225Y0166680D01*
X0231906Y0166800D01*
X0278284Y0166800D01*
X0279965Y0166680D01*
X0281612Y0166322D01*
X0283191Y0165733D01*
X0284670Y0164925D01*
X0286019Y0163915D01*
X0287210Y0162724D01*
X0288220Y0161374D01*
X0289028Y0159895D01*
X0289617Y0158317D01*
X0289975Y0156670D01*
X0290076Y0155257D02*
X0220114Y0155257D01*
X0220095Y0153659D02*
X0290095Y0153659D01*
X0290095Y0152060D02*
X0220095Y0152060D01*
X0220095Y0150462D02*
X0290095Y0150462D01*
X0290095Y0148863D02*
X0220095Y0148863D01*
X0220095Y0147265D02*
X0290095Y0147265D01*
X0290095Y0145666D02*
X0220095Y0145666D01*
X0219863Y0144068D02*
X0290095Y0144068D01*
X0290095Y0142469D02*
X0218264Y0142469D01*
X0216666Y0140870D02*
X0290095Y0140870D01*
X0290095Y0139272D02*
X0216345Y0139272D01*
X0216345Y0137673D02*
X0290095Y0137673D01*
X0290095Y0136075D02*
X0216345Y0136075D01*
X0216345Y0134476D02*
X0290095Y0134476D01*
X0290095Y0132878D02*
X0216345Y0132878D01*
X0216345Y0131279D02*
X0290095Y0131279D01*
X0290095Y0129681D02*
X0217214Y0129681D01*
X0218813Y0128082D02*
X0290095Y0128082D01*
X0290095Y0126484D02*
X0220095Y0126484D01*
X0220095Y0124885D02*
X0290095Y0124885D01*
X0290095Y0123287D02*
X0220095Y0123287D01*
X0220095Y0121688D02*
X0290095Y0121688D01*
X0290095Y0120090D02*
X0220095Y0120090D01*
X0220095Y0118491D02*
X0290095Y0118491D01*
X0290095Y0116893D02*
X0220095Y0116893D01*
X0220154Y0115294D02*
X0290037Y0115294D01*
X0289815Y0113696D02*
X0220375Y0113696D01*
X0220830Y0112097D02*
X0289361Y0112097D01*
X0288642Y0110499D02*
X0221548Y0110499D01*
X0222588Y0108900D02*
X0287602Y0108900D01*
X0286136Y0107302D02*
X0224055Y0107302D01*
X0226385Y0105703D02*
X0283806Y0105703D01*
X0281298Y0099309D02*
X0214625Y0099309D01*
X0215145Y0097711D02*
X0218804Y0097711D01*
X0216369Y0096112D02*
X0215145Y0096112D01*
X0213647Y0100908D02*
X0225569Y0100908D01*
X0222641Y0102506D02*
X0213230Y0102506D01*
X0212079Y0104105D02*
X0220650Y0104105D01*
X0219148Y0105703D02*
X0210480Y0105703D01*
X0210076Y0107302D02*
X0218038Y0107302D01*
X0217112Y0108900D02*
X0210076Y0108900D01*
X0210076Y0110499D02*
X0216516Y0110499D01*
X0215946Y0112097D02*
X0210076Y0112097D01*
X0214295Y0113696D02*
X0215656Y0113696D01*
X0230136Y0097711D02*
X0281295Y0097711D01*
X0281579Y0096112D02*
X0251620Y0096112D01*
X0248570Y0096112D02*
X0232571Y0096112D01*
X0234170Y0094514D02*
X0245675Y0094514D01*
X0243396Y0092915D02*
X0235561Y0092915D01*
X0254515Y0094514D02*
X0282241Y0094514D01*
X0283820Y0092915D02*
X0255866Y0092915D01*
X0256528Y0091317D02*
X0339045Y0091317D01*
X0339045Y0092915D02*
X0291370Y0092915D01*
X0292949Y0094514D02*
X0314015Y0094514D01*
X0312416Y0096112D02*
X0293612Y0096112D01*
X0294044Y0097711D02*
X0310818Y0097711D01*
X0310795Y0099309D02*
X0295643Y0099309D01*
X0297241Y0100908D02*
X0310795Y0100908D01*
X0310795Y0102506D02*
X0298840Y0102506D01*
X0300438Y0104105D02*
X0311533Y0104105D01*
X0312825Y0105703D02*
X0302037Y0105703D01*
X0303635Y0107302D02*
X0311227Y0107302D01*
X0310795Y0108900D02*
X0305234Y0108900D01*
X0306832Y0110499D02*
X0310795Y0110499D01*
X0310795Y0112097D02*
X0308431Y0112097D01*
X0310029Y0113696D02*
X0311124Y0113696D01*
X0311628Y0115294D02*
X0312723Y0115294D01*
X0332365Y0105703D02*
X0336904Y0105703D01*
X0338502Y0104105D02*
X0333657Y0104105D01*
X0334395Y0102506D02*
X0339045Y0102506D01*
X0339045Y0100908D02*
X0334395Y0100908D01*
X0334395Y0099309D02*
X0339045Y0099309D01*
X0339045Y0097711D02*
X0334372Y0097711D01*
X0332774Y0096112D02*
X0339045Y0096112D01*
X0339045Y0094514D02*
X0331175Y0094514D01*
X0324015Y0094514D02*
X0321175Y0094514D01*
X0333964Y0107302D02*
X0335305Y0107302D01*
X0342488Y0113696D02*
X0353795Y0113696D01*
X0353795Y0115294D02*
X0340889Y0115294D01*
X0341976Y0116893D02*
X0353795Y0116893D01*
X0353795Y0118491D02*
X0343575Y0118491D01*
X0345173Y0120090D02*
X0353795Y0120090D01*
X0353795Y0121688D02*
X0346772Y0121688D01*
X0348370Y0123287D02*
X0353795Y0123287D01*
X0353795Y0124885D02*
X0349498Y0124885D01*
X0349895Y0126484D02*
X0353795Y0126484D01*
X0353795Y0128082D02*
X0349895Y0128082D01*
X0349895Y0129681D02*
X0353795Y0129681D01*
X0353795Y0131279D02*
X0349895Y0131279D01*
X0349895Y0132878D02*
X0353795Y0132878D01*
X0353795Y0134476D02*
X0349895Y0134476D01*
X0349895Y0136075D02*
X0353795Y0136075D01*
X0353795Y0137673D02*
X0349895Y0137673D01*
X0349895Y0139272D02*
X0353795Y0139272D01*
X0353795Y0140870D02*
X0349895Y0140870D01*
X0349895Y0142469D02*
X0353795Y0142469D01*
X0353795Y0144068D02*
X0349895Y0144068D01*
X0349895Y0145666D02*
X0353795Y0145666D01*
X0353795Y0147265D02*
X0349895Y0147265D01*
X0349895Y0148863D02*
X0353795Y0148863D01*
X0353795Y0150462D02*
X0349895Y0150462D01*
X0349895Y0152060D02*
X0353795Y0152060D01*
X0353795Y0153659D02*
X0349895Y0153659D01*
X0349895Y0155257D02*
X0353795Y0155257D01*
X0353795Y0156856D02*
X0349895Y0156856D01*
X0349895Y0158454D02*
X0353795Y0158454D01*
X0353795Y0160053D02*
X0349895Y0160053D01*
X0349895Y0161651D02*
X0353795Y0161651D01*
X0353795Y0163250D02*
X0349895Y0163250D01*
X0349895Y0164848D02*
X0353795Y0164848D01*
X0353795Y0166447D02*
X0349895Y0166447D01*
X0349895Y0168045D02*
X0353795Y0168045D01*
X0353795Y0169644D02*
X0349895Y0169644D01*
X0349895Y0171242D02*
X0353795Y0171242D01*
X0353795Y0172841D02*
X0349895Y0172841D01*
X0349895Y0174439D02*
X0353795Y0174439D01*
X0353795Y0176038D02*
X0349895Y0176038D01*
X0349895Y0177636D02*
X0353795Y0177636D01*
X0353795Y0179235D02*
X0349895Y0179235D01*
X0349895Y0180833D02*
X0353795Y0180833D01*
X0353795Y0182432D02*
X0349895Y0182432D01*
X0349895Y0184030D02*
X0353795Y0184030D01*
X0353795Y0185629D02*
X0349895Y0185629D01*
X0349895Y0187227D02*
X0353795Y0187227D01*
X0353795Y0188826D02*
X0349895Y0188826D01*
X0349895Y0190424D02*
X0353795Y0190424D01*
X0353795Y0192023D02*
X0350233Y0192023D01*
X0352310Y0193621D02*
X0353795Y0193621D01*
X0353795Y0195220D02*
X0352832Y0195220D01*
X0352832Y0196818D02*
X0353795Y0196818D01*
X0353795Y0198417D02*
X0352832Y0198417D01*
X0352832Y0200015D02*
X0353795Y0200015D01*
X0353795Y0201614D02*
X0352832Y0201614D01*
X0352617Y0203212D02*
X0353795Y0203212D01*
X0353795Y0204811D02*
X0352378Y0204811D01*
X0352832Y0206409D02*
X0353795Y0206409D01*
X0353795Y0208008D02*
X0352832Y0208008D01*
X0352832Y0209606D02*
X0353795Y0209606D01*
X0353795Y0211205D02*
X0352832Y0211205D01*
X0352832Y0212803D02*
X0353795Y0212803D01*
X0353795Y0214402D02*
X0352549Y0214402D01*
X0351367Y0216001D02*
X0353795Y0216001D01*
X0353795Y0217599D02*
X0351329Y0217599D01*
X0352629Y0219198D02*
X0353795Y0219198D01*
X0324062Y0217599D02*
X0321791Y0217599D01*
X0322351Y0219198D02*
X0320193Y0219198D01*
X0321329Y0220796D02*
X0318594Y0220796D01*
X0316996Y0222395D02*
X0320357Y0222395D01*
X0319412Y0223993D02*
X0315397Y0223993D01*
X0313799Y0225592D02*
X0318964Y0225592D01*
X0318516Y0227190D02*
X0312200Y0227190D01*
X0307147Y0228789D02*
X0318068Y0228789D01*
X0317980Y0230387D02*
X0307809Y0230387D01*
X0308145Y0231986D02*
X0317980Y0231986D01*
X0317980Y0233584D02*
X0308145Y0233584D01*
X0308145Y0235183D02*
X0318172Y0235183D01*
X0318620Y0236781D02*
X0308145Y0236781D01*
X0308145Y0238380D02*
X0319068Y0238380D01*
X0319611Y0239978D02*
X0308114Y0239978D01*
X0307452Y0241577D02*
X0320583Y0241577D01*
X0321555Y0243175D02*
X0306337Y0243175D01*
X0304089Y0244774D02*
X0322748Y0244774D01*
X0298601Y0244774D02*
X0294089Y0244774D01*
X0296337Y0243175D02*
X0296354Y0243175D01*
X0288601Y0244774D02*
X0274089Y0244774D01*
X0276337Y0243175D02*
X0286354Y0243175D01*
X0285239Y0241577D02*
X0277452Y0241577D01*
X0278114Y0239978D02*
X0284576Y0239978D01*
X0284545Y0238380D02*
X0278145Y0238380D01*
X0278145Y0236781D02*
X0284545Y0236781D01*
X0284545Y0235183D02*
X0278145Y0235183D01*
X0278145Y0233584D02*
X0284545Y0233584D01*
X0284545Y0231986D02*
X0278145Y0231986D01*
X0277809Y0230387D02*
X0284881Y0230387D01*
X0285543Y0228789D02*
X0278102Y0228789D01*
X0272880Y0187227D02*
X0206395Y0187227D01*
X0205911Y0185629D02*
X0274478Y0185629D01*
X0276077Y0184030D02*
X0213024Y0184030D01*
X0214367Y0182432D02*
X0277675Y0182432D01*
X0279274Y0180833D02*
X0215029Y0180833D01*
X0215145Y0179235D02*
X0280872Y0179235D01*
X0282471Y0177636D02*
X0214975Y0177636D01*
X0214313Y0176038D02*
X0284069Y0176038D01*
X0285668Y0174439D02*
X0212894Y0174439D01*
X0209895Y0172841D02*
X0287266Y0172841D01*
X0288865Y0171242D02*
X0280655Y0171242D01*
X0285740Y0169644D02*
X0290295Y0169644D01*
X0290295Y0168045D02*
X0288177Y0168045D01*
X0289993Y0166447D02*
X0290295Y0166447D01*
X0286684Y0163250D02*
X0223506Y0163250D01*
X0222177Y0161651D02*
X0288013Y0161651D01*
X0288942Y0160053D02*
X0221248Y0160053D01*
X0220625Y0158454D02*
X0289565Y0158454D01*
X0284772Y0164848D02*
X0225418Y0164848D01*
X0229154Y0166447D02*
X0281037Y0166447D01*
X0322212Y0145550D02*
X0322595Y0145933D01*
X0324778Y0143750D01*
X0330412Y0143750D01*
X0331545Y0144883D01*
X0331545Y0140899D01*
X0331526Y0140891D01*
X0330986Y0140350D01*
X0324395Y0140350D01*
X0324395Y0143367D01*
X0322212Y0145550D01*
X0322328Y0145666D02*
X0322862Y0145666D01*
X0323694Y0144068D02*
X0324461Y0144068D01*
X0324395Y0142469D02*
X0331545Y0142469D01*
X0331545Y0144068D02*
X0330729Y0144068D01*
X0331506Y0140870D02*
X0324395Y0140870D01*
X0331545Y0166217D02*
X0330412Y0167350D01*
X0327583Y0167350D01*
X0327395Y0167538D01*
X0327395Y0182712D01*
X0331545Y0178562D01*
X0331545Y0166217D01*
X0331545Y0166447D02*
X0331315Y0166447D01*
X0331545Y0168045D02*
X0327395Y0168045D01*
X0327395Y0169644D02*
X0331545Y0169644D01*
X0331545Y0171242D02*
X0327395Y0171242D01*
X0327395Y0172841D02*
X0331545Y0172841D01*
X0331545Y0174439D02*
X0327395Y0174439D01*
X0327395Y0176038D02*
X0331545Y0176038D01*
X0331545Y0177636D02*
X0327395Y0177636D01*
X0327395Y0179235D02*
X0330872Y0179235D01*
X0329274Y0180833D02*
X0327395Y0180833D01*
X0327395Y0182432D02*
X0327675Y0182432D01*
X0344086Y0112097D02*
X0353795Y0112097D01*
X0353795Y0110499D02*
X0345685Y0110499D01*
X0347283Y0108900D02*
X0353795Y0108900D01*
X0353795Y0107302D02*
X0348315Y0107302D01*
X0348645Y0105703D02*
X0353795Y0105703D01*
X0353795Y0104105D02*
X0348645Y0104105D01*
X0348645Y0102506D02*
X0353795Y0102506D01*
X0353795Y0100908D02*
X0348645Y0100908D01*
X0348645Y0099309D02*
X0353795Y0099309D01*
X0353795Y0097711D02*
X0348645Y0097711D01*
X0348645Y0096112D02*
X0353795Y0096112D01*
X0353795Y0094514D02*
X0348645Y0094514D01*
X0348645Y0092915D02*
X0353795Y0092915D01*
X0353795Y0091317D02*
X0348645Y0091317D01*
X0348645Y0089718D02*
X0353795Y0089718D01*
X0353795Y0088120D02*
X0348645Y0088120D01*
X0348645Y0086521D02*
X0353795Y0086521D01*
X0353795Y0084923D02*
X0348645Y0084923D01*
X0348645Y0083324D02*
X0353795Y0083324D01*
X0353795Y0081726D02*
X0348645Y0081726D01*
X0348645Y0080127D02*
X0353795Y0080127D01*
X0353795Y0078529D02*
X0348645Y0078529D01*
X0348645Y0076930D02*
X0353795Y0076930D01*
X0353795Y0075332D02*
X0348645Y0075332D01*
X0348645Y0073733D02*
X0353795Y0073733D01*
X0353795Y0072134D02*
X0348645Y0072134D01*
X0348645Y0070536D02*
X0353795Y0070536D01*
X0353795Y0068937D02*
X0349261Y0068937D01*
X0349923Y0067339D02*
X0353795Y0067339D01*
X0353795Y0065740D02*
X0350145Y0065740D01*
X0350081Y0064142D02*
X0353795Y0064142D01*
X0353795Y0062543D02*
X0349419Y0062543D01*
X0348150Y0060945D02*
X0353795Y0060945D01*
X0353795Y0059346D02*
X0345331Y0059346D01*
X0342359Y0059346D02*
X0274827Y0059346D01*
X0276550Y0060945D02*
X0339541Y0060945D01*
X0338271Y0062543D02*
X0277365Y0062543D01*
X0277770Y0064142D02*
X0337609Y0064142D01*
X0337545Y0065740D02*
X0277770Y0065740D01*
X0277227Y0067339D02*
X0337767Y0067339D01*
X0338429Y0068937D02*
X0276217Y0068937D01*
X0274025Y0070536D02*
X0339045Y0070536D01*
X0339045Y0072134D02*
X0255299Y0072134D01*
X0253700Y0073733D02*
X0339045Y0073733D01*
X0339045Y0075332D02*
X0252102Y0075332D01*
X0250503Y0076930D02*
X0339045Y0076930D01*
X0339045Y0078529D02*
X0253957Y0078529D01*
X0255556Y0080127D02*
X0339045Y0080127D01*
X0339045Y0081726D02*
X0256297Y0081726D01*
X0256695Y0083324D02*
X0339045Y0083324D01*
X0339045Y0084923D02*
X0256695Y0084923D01*
X0256695Y0086521D02*
X0339045Y0086521D01*
X0339045Y0088120D02*
X0256695Y0088120D01*
X0256695Y0089718D02*
X0339045Y0089718D01*
X0353795Y0057748D02*
X0270645Y0057748D01*
X0270645Y0056149D02*
X0353795Y0056149D01*
X0353795Y0054551D02*
X0270645Y0054551D01*
X0269614Y0052952D02*
X0353795Y0052952D01*
X0353795Y0051354D02*
X0268016Y0051354D01*
X0261582Y0049755D02*
X0353795Y0049755D01*
X0353795Y0048157D02*
X0261582Y0048157D01*
X0261582Y0046558D02*
X0353795Y0046558D01*
X0353795Y0044960D02*
X0261582Y0044960D01*
X0261299Y0043361D02*
X0353795Y0043361D01*
X0353795Y0041763D02*
X0261196Y0041763D01*
X0261582Y0040164D02*
X0330400Y0040164D01*
X0327315Y0038566D02*
X0261582Y0038566D01*
X0261582Y0036967D02*
X0325097Y0036967D01*
X0323385Y0035369D02*
X0261582Y0035369D01*
X0246108Y0044325D02*
X0241155Y0044325D01*
X0240297Y0045183D01*
X0240076Y0045275D01*
X0240076Y0054150D01*
X0239730Y0054986D01*
X0240621Y0055750D01*
X0247045Y0055750D01*
X0247045Y0053983D01*
X0247232Y0053797D01*
X0246687Y0053251D01*
X0246108Y0051855D01*
X0246108Y0044325D01*
X0246108Y0044960D02*
X0240520Y0044960D01*
X0240076Y0046558D02*
X0246108Y0046558D01*
X0246108Y0048157D02*
X0240076Y0048157D01*
X0240076Y0049755D02*
X0246108Y0049755D01*
X0246108Y0051354D02*
X0240076Y0051354D01*
X0240076Y0052952D02*
X0246563Y0052952D01*
X0247045Y0054551D02*
X0239910Y0054551D01*
X0228045Y0040980D02*
X0228045Y0035350D01*
X0193333Y0035350D01*
X0191783Y0036900D01*
X0192151Y0036900D01*
X0192595Y0037084D01*
X0193039Y0036900D01*
X0197151Y0036900D01*
X0197595Y0037084D01*
X0198039Y0036900D01*
X0202151Y0036900D01*
X0203548Y0037479D01*
X0204617Y0038547D01*
X0205195Y0039944D01*
X0205195Y0048931D01*
X0205314Y0048981D01*
X0207358Y0051025D01*
X0207358Y0048633D01*
X0207937Y0047236D01*
X0208342Y0046830D01*
X0208342Y0044725D01*
X0208921Y0043329D01*
X0209990Y0042260D01*
X0211387Y0041681D01*
X0218804Y0041681D01*
X0220200Y0042260D01*
X0220642Y0042702D01*
X0220693Y0042581D01*
X0221762Y0041512D01*
X0223158Y0040933D01*
X0227032Y0040933D01*
X0227595Y0041166D01*
X0228045Y0040980D01*
X0228045Y0040164D02*
X0205195Y0040164D01*
X0205195Y0041763D02*
X0211189Y0041763D01*
X0208907Y0043361D02*
X0205195Y0043361D01*
X0205195Y0044960D02*
X0208342Y0044960D01*
X0208342Y0046558D02*
X0205195Y0046558D01*
X0205195Y0048157D02*
X0207555Y0048157D01*
X0207358Y0049755D02*
X0206089Y0049755D01*
X0219001Y0041763D02*
X0221510Y0041763D01*
X0228045Y0038566D02*
X0204624Y0038566D01*
X0202313Y0036967D02*
X0228045Y0036967D01*
X0228045Y0035369D02*
X0193315Y0035369D01*
X0192877Y0036967D02*
X0192313Y0036967D01*
X0197313Y0036967D02*
X0197877Y0036967D01*
X0173580Y0020982D02*
X0067283Y0020982D01*
X0067288Y0022581D02*
X0171276Y0022581D01*
X0169678Y0024179D02*
X0067068Y0024179D01*
X0066848Y0025778D02*
X0168079Y0025778D01*
X0166481Y0027376D02*
X0066559Y0027376D01*
X0065865Y0028975D02*
X0164882Y0028975D01*
X0163426Y0030573D02*
X0065170Y0030573D01*
X0064444Y0032172D02*
X0162795Y0032172D01*
X0162795Y0033770D02*
X0063144Y0033770D01*
X0061843Y0035369D02*
X0162795Y0035369D01*
X0162795Y0036967D02*
X0060123Y0036967D01*
X0057858Y0038566D02*
X0162795Y0038566D01*
X0162795Y0040164D02*
X0054498Y0040164D01*
X0040400Y0040164D02*
X0031395Y0040164D01*
X0031395Y0038566D02*
X0037315Y0038566D01*
X0035097Y0036967D02*
X0031395Y0036967D01*
X0031395Y0035369D02*
X0033385Y0035369D01*
X0031917Y0033770D02*
X0031395Y0033770D01*
X0031395Y0041763D02*
X0162795Y0041763D01*
X0162795Y0043361D02*
X0031395Y0043361D01*
X0031395Y0044960D02*
X0105769Y0044960D01*
X0104297Y0046558D02*
X0031395Y0046558D01*
X0031395Y0048157D02*
X0103519Y0048157D01*
X0103295Y0049755D02*
X0031395Y0049755D01*
X0031395Y0051354D02*
X0103295Y0051354D01*
X0103295Y0052952D02*
X0031395Y0052952D01*
X0031395Y0054551D02*
X0101711Y0054551D01*
X0100113Y0056149D02*
X0031395Y0056149D01*
X0031395Y0057748D02*
X0098514Y0057748D01*
X0096916Y0059346D02*
X0031395Y0059346D01*
X0031395Y0060945D02*
X0096216Y0060945D01*
X0096045Y0062543D02*
X0031395Y0062543D01*
X0031395Y0064142D02*
X0096045Y0064142D01*
X0096045Y0065740D02*
X0031395Y0065740D01*
X0031395Y0067339D02*
X0096045Y0067339D01*
X0096045Y0068937D02*
X0031395Y0068937D01*
X0031395Y0070536D02*
X0096045Y0070536D01*
X0096045Y0072134D02*
X0031395Y0072134D01*
X0031395Y0073733D02*
X0096045Y0073733D01*
X0129171Y0048157D02*
X0162962Y0048157D01*
X0162795Y0046558D02*
X0128394Y0046558D01*
X0126922Y0044960D02*
X0162795Y0044960D01*
X0163762Y0049755D02*
X0129395Y0049755D01*
X0145910Y0051354D02*
X0165361Y0051354D01*
X0166545Y0052952D02*
X0147657Y0052952D01*
X0165946Y0054551D02*
X0166545Y0054551D01*
X0186395Y0083462D02*
X0186395Y0084303D01*
X0185436Y0086619D01*
X0185305Y0086750D01*
X0186348Y0086750D01*
X0188664Y0087709D01*
X0190136Y0089181D01*
X0193342Y0089181D01*
X0193342Y0086835D01*
X0189969Y0083462D01*
X0186395Y0083462D01*
X0186139Y0084923D02*
X0191430Y0084923D01*
X0193028Y0086521D02*
X0185476Y0086521D01*
X0189074Y0088120D02*
X0193342Y0088120D01*
X0163795Y0095495D02*
X0163557Y0095257D01*
X0162956Y0095858D01*
X0161560Y0096437D01*
X0156145Y0096437D01*
X0156145Y0097312D01*
X0164164Y0105331D01*
X0164895Y0107095D01*
X0164895Y0109005D01*
X0164895Y0113250D01*
X0165114Y0113250D01*
X0165114Y0104873D01*
X0165230Y0104594D01*
X0164754Y0104119D01*
X0163795Y0101803D01*
X0163795Y0095495D01*
X0163795Y0096112D02*
X0162343Y0096112D01*
X0163795Y0097711D02*
X0156544Y0097711D01*
X0158143Y0099309D02*
X0163795Y0099309D01*
X0163795Y0100908D02*
X0159741Y0100908D01*
X0161340Y0102506D02*
X0164086Y0102506D01*
X0164748Y0104105D02*
X0162938Y0104105D01*
X0164319Y0105703D02*
X0165114Y0105703D01*
X0165114Y0107302D02*
X0164895Y0107302D01*
X0164895Y0108900D02*
X0165114Y0108900D01*
X0165114Y0110499D02*
X0164895Y0110499D01*
X0164895Y0112097D02*
X0165114Y0112097D01*
X0093286Y0171242D02*
X0084145Y0171242D01*
X0084145Y0169644D02*
X0088200Y0169644D01*
X0085763Y0168045D02*
X0084145Y0168045D01*
X0066295Y0182432D02*
X0065534Y0182432D01*
X0050490Y0092915D02*
X0031395Y0092915D01*
X0031395Y0091317D02*
X0049024Y0091317D01*
X0048362Y0089718D02*
X0031395Y0089718D01*
X0031395Y0088120D02*
X0048045Y0088120D01*
X0048045Y0086521D02*
X0031395Y0086521D01*
X0031395Y0084923D02*
X0048045Y0084923D01*
X0048045Y0083324D02*
X0031395Y0083324D01*
X0031395Y0081726D02*
X0048045Y0081726D01*
X0048045Y0080127D02*
X0031395Y0080127D01*
X0031395Y0078529D02*
X0048509Y0078529D01*
X0049245Y0076930D02*
X0031395Y0076930D01*
X0031395Y0075332D02*
X0050843Y0075332D01*
X0067063Y0019384D02*
X0279769Y0019384D01*
X0282921Y0019384D02*
X0291019Y0019384D01*
X0294171Y0019384D02*
X0317980Y0019384D01*
X0317980Y0020982D02*
X0296937Y0020982D01*
X0298184Y0022581D02*
X0317980Y0022581D01*
X0317980Y0024179D02*
X0298846Y0024179D01*
X0298895Y0025778D02*
X0318339Y0025778D01*
X0318787Y0027376D02*
X0298658Y0027376D01*
X0297996Y0028975D02*
X0319234Y0028975D01*
X0319972Y0030573D02*
X0296481Y0030573D01*
X0292762Y0032172D02*
X0320945Y0032172D01*
X0321917Y0033770D02*
X0291163Y0033770D01*
X0287006Y0022581D02*
X0286934Y0022581D01*
X0285687Y0020982D02*
X0288253Y0020982D01*
X0318349Y0017785D02*
X0066843Y0017785D01*
X0066543Y0016187D02*
X0318797Y0016187D01*
X0319245Y0014588D02*
X0065849Y0014588D01*
X0065154Y0012990D02*
X0319995Y0012990D01*
X0320967Y0011391D02*
X0064414Y0011391D01*
X0063114Y0009793D02*
X0321939Y0009793D01*
X0323425Y0008194D02*
X0061813Y0008194D01*
X0060070Y0006596D02*
X0325137Y0006596D01*
X0353144Y0033770D02*
X0353795Y0033770D01*
X0353795Y0035369D02*
X0351843Y0035369D01*
X0350123Y0036967D02*
X0353795Y0036967D01*
X0353795Y0038566D02*
X0347858Y0038566D01*
X0344498Y0040164D02*
X0353795Y0040164D01*
X0268916Y0070536D02*
X0261897Y0070536D01*
X0263496Y0068937D02*
X0264326Y0068937D01*
X0195158Y0192023D02*
X0195032Y0192023D01*
X0194364Y0193621D02*
X0197083Y0193621D01*
X0192377Y0225592D02*
X0203727Y0225592D01*
X0205326Y0227190D02*
X0193691Y0227190D01*
X0194353Y0228789D02*
X0205826Y0228789D01*
X0205495Y0230387D02*
X0194605Y0230387D01*
X0194605Y0231986D02*
X0205495Y0231986D01*
X0205495Y0233584D02*
X0194605Y0233584D01*
X0194605Y0235183D02*
X0205495Y0235183D01*
X0205495Y0236781D02*
X0194605Y0236781D01*
X0194605Y0238380D02*
X0205495Y0238380D01*
X0205895Y0239978D02*
X0194349Y0239978D01*
X0193687Y0241577D02*
X0206557Y0241577D01*
X0208129Y0243175D02*
X0192368Y0243175D01*
D31*
X0165095Y0109959D02*
X0165095Y0103050D01*
X0162595Y0100550D01*
D32*
X0170095Y0094300D02*
X0165676Y0089881D01*
X0158835Y0089881D01*
X0110120Y0056162D02*
X0107595Y0056162D01*
X0101345Y0062412D01*
X0101345Y0080550D01*
X0078845Y0103050D01*
X0078845Y0179300D01*
X0101345Y0201800D01*
X0123845Y0201800D01*
X0131345Y0209300D01*
X0210095Y0209300D01*
X0222595Y0221800D01*
X0265120Y0221800D01*
X0271345Y0228025D01*
X0271345Y0228050D01*
X0276345Y0223050D01*
X0308845Y0223050D01*
X0323333Y0208562D01*
X0323845Y0209812D01*
X0334458Y0209812D01*
X0345095Y0209812D01*
X0271345Y0228050D02*
X0271345Y0235550D01*
D33*
X0124342Y0063864D02*
X0124659Y0063547D01*
X0124897Y0063168D01*
X0125045Y0062745D01*
X0125095Y0062300D01*
X0125095Y0050025D01*
X0125045Y0049580D01*
X0124897Y0049157D01*
X0124659Y0048778D01*
X0124342Y0048461D01*
X0123963Y0048223D01*
X0123540Y0048075D01*
X0123095Y0048025D01*
X0109595Y0048025D01*
X0109150Y0048075D01*
X0108727Y0048223D01*
X0108348Y0048461D01*
X0108031Y0048778D01*
X0107793Y0049157D01*
X0107645Y0049580D01*
X0107595Y0050025D01*
X0107595Y0062300D01*
X0107645Y0062745D01*
X0107793Y0063168D01*
X0108031Y0063547D01*
X0108348Y0063864D01*
X0108727Y0064102D01*
X0109150Y0064250D01*
X0109595Y0064300D01*
X0123095Y0064300D01*
X0123540Y0064250D01*
X0123963Y0064102D01*
X0124342Y0063864D01*
X0124498Y0063708D02*
X0108192Y0063708D01*
X0107641Y0062709D02*
X0125049Y0062709D01*
X0125095Y0061711D02*
X0107595Y0061711D01*
X0107595Y0060712D02*
X0125095Y0060712D01*
X0125095Y0059714D02*
X0107595Y0059714D01*
X0107595Y0058715D02*
X0125095Y0058715D01*
X0125095Y0057717D02*
X0107595Y0057717D01*
X0107595Y0056718D02*
X0125095Y0056718D01*
X0125095Y0055720D02*
X0107595Y0055720D01*
X0107595Y0054721D02*
X0125095Y0054721D01*
X0125095Y0053723D02*
X0107595Y0053723D01*
X0107595Y0052724D02*
X0125095Y0052724D01*
X0125095Y0051726D02*
X0107595Y0051726D01*
X0107595Y0050727D02*
X0125095Y0050727D01*
X0125062Y0049729D02*
X0107629Y0049729D01*
X0108079Y0048730D02*
X0124611Y0048730D01*
M02*
